<svg width="109" height="101" viewBox="0 0 109 101" fill="none" xmlns="http://www.w3.org/2000/svg">
<path d="M64.6017 16.8225L59.6912 22.7213L54.4682 16.5544C45.6293 6.05262 29.9603 4.66729 19.3804 13.4262V13.4262C8.66663 22.3191 7.23812 38.2281 16.2109 48.8639L59.959 100.836L103.127 48.8193C111.966 38.1835 110.492 22.3638 99.8233 13.5156V13.5156C89.1988 4.75666 73.4405 6.18669 64.6017 16.8225Z" fill="#383A48"/>
<path d="M57.0343 11.4188L52.1238 17.3176L46.9008 11.1506C38.0619 0.648904 22.3929 -0.736431 11.8131 8.02246V8.02246C1.09925 16.9154 -0.329264 32.8244 8.64355 43.4602L52.3916 95.4326L95.5593 43.4155C104.398 32.7797 102.925 16.9601 92.2559 8.11184V8.11184C81.6314 -0.647054 65.8732 0.782969 57.0343 11.4188Z" fill="#E0719E"/>
<path fill-rule="evenodd" clip-rule="evenodd" d="M50.6506 96.9073C51.0524 97.3989 51.6774 97.7117 52.347 97.7117C53.0166 97.7117 53.6416 97.3989 54.088 96.9073L97.2557 44.8902C101.898 39.2595 104.086 32.1988 103.416 24.9146C102.747 17.6304 99.3092 11.0613 93.6845 6.41369C82.1225 -3.14959 64.9357 -1.58551 55.3379 9.98874L52.1238 13.8766L48.6418 9.72061C38.9994 -1.67488 21.8573 -3.19428 10.3846 6.32431C4.71518 11.0166 1.27783 17.6304 0.608219 24.9146C-0.0613947 32.1988 2.17065 39.3489 6.90258 44.9349L50.6506 96.9073ZM13.2416 9.7653C17.4825 6.23493 22.6162 4.53677 27.7499 4.53677C34.2674 4.53677 40.6957 7.26276 45.2491 12.6253L50.4721 18.7923C50.8739 19.3286 51.4988 19.5967 52.1684 19.5967C52.8381 19.5967 53.463 19.2839 53.8648 18.7923L58.7753 12.8935C66.766 3.24082 81.185 1.90017 90.8274 9.89936C95.5147 13.7872 98.461 19.2839 98.9967 25.3615C99.5324 31.4391 97.7021 37.3826 93.8184 42.0749L52.347 92.0363L10.3399 42.0749C6.41153 37.3826 4.53662 31.4391 5.07231 25.3168C5.608 19.1945 8.50966 13.6979 13.2416 9.7653Z" fill="#383A48"/>
</svg>
