<svg width="96" height="96" viewBox="0 0 96 96" fill="none" xmlns="http://www.w3.org/2000/svg">
<path fill-rule="evenodd" clip-rule="evenodd" d="M45.3002 96C66.0523 96 92.1752 75.1271 92.1752 54.375C92.1752 33.6229 67.2898 0 46.5377 0C25.7856 0 0.0751953 15.3229 0.0751953 36.075C0.0751953 56.8271 24.5481 96 45.3002 96Z" fill="#D74781"/>
<mask id="mask0_139_7079" style="mask-type:luminance" maskUnits="userSpaceOnUse" x="0" y="0" width="93" height="96">
<path fill-rule="evenodd" clip-rule="evenodd" d="M45.3002 96C66.0523 96 92.1752 75.1271 92.1752 54.375C92.1752 33.6229 67.2898 0 46.5377 0C25.7856 0 0.0751953 15.3229 0.0751953 36.075C0.0751953 56.8271 24.5481 96 45.3002 96Z" fill="white"/>
</mask>
<g mask="url(#mask0_139_7079)">
<path d="M98.5278 34.3575C98.4078 34.29 98.2578 34.2975 98.1453 34.3725C93.5403 37.4025 90.4653 41.9475 87.4878 46.35C85.5753 49.185 83.5953 52.11 81.2478 54.54C78.6078 57.27 75.8703 59.0175 72.6378 60.0375C68.5878 61.3125 62.6253 61.2 55.7178 61.0575C40.8078 60.765 20.3778 60.3675 -0.464739 72.87C-0.607239 72.96 -0.674739 73.1326 -0.629739 73.2901C-0.584739 73.4476 -0.434739 73.5676 -0.269739 73.5676H98.3478C98.5578 73.5676 98.7228 73.4026 98.7228 73.1926V34.6875C98.7228 34.5525 98.6478 34.425 98.5278 34.3575Z" fill="#F3F6E6"/>
<path d="M98.3478 18.48H91.2978C91.2153 18.48 91.1403 18.5025 91.0728 18.555L76.0278 29.5875L69.4728 34.395C69.3453 34.4925 69.2853 34.6575 69.3378 34.815C69.3903 34.9725 69.5328 35.07 69.6978 35.07H98.3478C98.5578 35.07 98.7228 34.905 98.7228 34.695V18.855C98.7228 18.645 98.5578 18.48 98.3478 18.48Z" fill="#F3F6E6"/>
</g>
<path d="M86.6925 22.2301L76.2525 29.8876C75.465 28.8151 75 27.4951 75 26.0626C75 22.4851 77.895 19.5901 81.4725 19.5901C83.6175 19.5826 85.515 20.6251 86.6925 22.2301Z" fill="#AAC6FC"/>
<path fill-rule="evenodd" clip-rule="evenodd" d="M75.9525 30.1126C76.02 30.2101 76.14 30.2626 76.2525 30.2626C76.3275 30.2626 76.41 30.2401 76.47 30.1951L86.91 22.5376C86.9925 22.4776 87.045 22.3876 87.06 22.2901C87.075 22.1926 87.0525 22.0951 86.9925 22.0126C85.71 20.2651 83.6475 19.2151 81.4725 19.2151C77.7 19.2151 74.625 22.2901 74.625 26.0626C74.625 27.5326 75.0825 28.9351 75.9525 30.1126ZM75.375 26.0551C75.375 22.6951 78.1125 19.9576 81.4725 19.9576C83.28 19.9576 85.005 20.7751 86.16 22.1551L76.3425 29.3551C75.705 28.3726 75.375 27.2401 75.375 26.0551Z" fill="#383A48"/>
<path d="M76.1327 73.005L69.0002 60.8025C68.9177 60.66 68.7452 60.585 68.5802 60.63C68.4152 60.675 68.3027 60.825 68.3027 60.99V73.185C68.3027 73.395 68.4677 73.56 68.6777 73.56H75.8177C75.9527 73.56 76.0727 73.485 76.1402 73.3725C76.2077 73.26 76.2002 73.1175 76.1327 73.005Z" fill="#383A48"/>
<path d="M80.7601 41.7076C78.8101 41.7076 78.6601 39.7876 78.6601 39.1951C78.6601 38.9851 78.4951 38.8201 78.2851 38.8201C78.0751 38.8201 77.9101 38.9851 77.9101 39.1951C77.9101 39.7876 77.7601 41.7076 75.8101 41.7076C75.6001 41.7076 75.4351 41.8726 75.4351 42.0826C75.4351 42.2926 75.6001 42.4576 75.8101 42.4576C77.7601 42.4576 77.9101 44.3776 77.9101 44.9701C77.9101 45.1801 78.0751 45.3451 78.2851 45.3451C78.4951 45.3451 78.6601 45.1801 78.6601 44.9701C78.6601 44.3776 78.8101 42.4576 80.7601 42.4576C80.9701 42.4576 81.1351 42.2926 81.1351 42.0826C81.1351 41.8726 80.9701 41.7076 80.7601 41.7076Z" fill="#F6E049"/>
<path d="M65.8426 23.5125C63.8926 23.5125 63.7426 21.5925 63.7426 21C63.7426 20.79 63.5776 20.625 63.3676 20.625C63.1576 20.625 62.9926 20.79 62.9926 21C62.9926 21.5925 62.8426 23.5125 60.8926 23.5125C60.6826 23.5125 60.5176 23.6775 60.5176 23.8875C60.5176 24.0975 60.6826 24.2625 60.8926 24.2625C62.8426 24.2625 62.9926 26.1825 62.9926 26.775C62.9926 26.985 63.1576 27.15 63.3676 27.15C63.5776 27.15 63.7426 26.985 63.7426 26.775C63.7426 26.1825 63.8926 24.2625 65.8426 24.2625C66.0526 24.2625 66.2176 24.0975 66.2176 23.8875C66.2176 23.6775 66.0526 23.5125 65.8426 23.5125Z" fill="#F6E049"/>
<path fill-rule="evenodd" clip-rule="evenodd" d="M42.7873 34.4625L43.2898 35.4975C43.7023 36.3525 43.5373 37.3725 42.8773 38.0475C42.4423 38.4975 41.8573 38.73 41.2648 38.73C40.9573 38.73 40.6423 38.67 40.3423 38.535L37.0573 37.0575L31.3273 34.47L27.9223 32.9325C25.6123 31.89 24.0523 29.775 23.7373 27.27C23.4223 24.765 24.4123 22.3275 26.3848 20.7525C28.1098 19.38 30.3223 18.87 32.4673 19.3575C34.4098 19.8 36.0523 21 37.0573 22.695C37.1623 22.8675 37.2598 23.0475 37.3498 23.235L39.5548 27.795L40.8223 30.4125L42.7873 34.4625ZM29.7673 28.83L33.2848 30.4125L36.5323 31.875L34.5523 27.7875L33.2923 25.1925C32.9323 24.45 32.2648 23.9175 31.4623 23.7375C31.2673 23.6925 31.0648 23.67 30.8623 23.67C30.2623 23.67 29.6773 23.88 29.1898 24.2625C28.4398 24.8625 28.0798 25.755 28.1998 26.7075C28.3198 27.66 28.8898 28.4325 29.7673 28.83Z" fill="#F3F6E6"/>
<path d="M43.2898 35.4975L47.7931 33.3248L47.7877 33.3137L43.2898 35.4975ZM42.7873 34.4625L38.2888 36.6451L38.2894 36.6462L42.7873 34.4625ZM42.8773 38.0475L39.3023 34.5519C39.2956 34.5587 39.289 34.5655 39.2823 34.5724L42.8773 38.0475ZM40.3423 38.535L42.3941 33.9754L42.3932 33.975L40.3423 38.535ZM37.0573 37.0575L34.9995 41.6144L35.0063 41.6175L37.0573 37.0575ZM31.3273 34.47L33.3851 29.913L33.385 29.913L31.3273 34.47ZM27.9223 32.9325L29.98 28.3755L29.979 28.3751L27.9223 32.9325ZM23.7373 27.27L18.7764 27.8938L18.7764 27.8938L23.7373 27.27ZM26.3848 20.7525L23.2717 16.8398L23.2649 16.8452L26.3848 20.7525ZM32.4673 19.3575L33.5778 14.4824L33.5754 14.4818L32.4673 19.3575ZM37.0573 22.695L32.7565 25.245C32.7663 25.2616 32.7763 25.2782 32.7863 25.2947L37.0573 22.695ZM37.3498 23.235L32.8422 25.3986C32.8443 25.403 32.8463 25.4073 32.8484 25.4116L37.3498 23.235ZM39.5548 27.795L35.0534 29.9716L35.0546 29.9741L39.5548 27.795ZM40.8223 30.4125L36.3221 32.5916L36.3238 32.5951L40.8223 30.4125ZM33.2848 30.4125L35.3379 25.8535L35.3362 25.8527L33.2848 30.4125ZM29.7673 28.83L27.7041 33.3845L27.7159 33.3898L29.7673 28.83ZM36.5323 31.875L34.4791 36.434C36.3971 37.2977 38.6505 36.8688 40.1169 35.3608C41.5833 33.8528 41.9491 31.5883 41.0321 29.6952L36.5323 31.875ZM34.5523 27.7875L39.0521 25.6077L39.0501 25.6036L34.5523 27.7875ZM33.2923 25.1925L28.7932 27.3738L28.7945 27.3764L33.2923 25.1925ZM31.4623 23.7375L30.338 28.6094C30.348 28.6117 30.358 28.614 30.368 28.6163L31.4623 23.7375ZM29.1898 24.2625L26.1034 20.3288C26.091 20.3385 26.0786 20.3483 26.0663 20.3581L29.1898 24.2625ZM47.7877 33.3137L47.2852 32.2787L38.2894 36.6462L38.7919 37.6812L47.7877 33.3137ZM46.4523 41.5431C48.5954 39.3512 49.1136 36.0619 47.7931 33.3248L38.7865 37.6701C38.291 36.643 38.4791 35.3937 39.3023 34.5519L46.4523 41.5431ZM41.2648 43.73C43.1644 43.73 45.0621 42.9814 46.4722 41.5226L39.2823 34.5724C39.8225 34.0136 40.5502 33.73 41.2648 33.73V43.73ZM38.2905 43.0946C39.2856 43.5424 40.307 43.73 41.2648 43.73V33.73C41.6076 33.73 41.9989 33.7975 42.3941 33.9754L38.2905 43.0946ZM35.0063 41.6175L38.2913 43.095L42.3932 33.975L39.1082 32.4975L35.0063 41.6175ZM29.2695 39.0269L34.9995 41.6144L39.1151 32.5005L33.3851 29.913L29.2695 39.0269ZM25.8646 37.4894L29.2696 39.0269L33.385 29.913L29.98 28.3755L25.8646 37.4894ZM18.7764 27.8938C19.3088 32.1279 21.9703 35.7319 25.8655 37.4899L29.979 28.3751C29.2543 28.048 28.7958 27.422 28.6982 26.6461L18.7764 27.8938ZM23.2649 16.8452C19.9309 19.5074 18.2442 23.6617 18.7764 27.8938L28.6982 26.6461C28.6004 25.8682 28.8937 25.1475 29.5046 24.6597L23.2649 16.8452ZM33.5754 14.4818C29.9397 13.6555 26.1763 14.5288 23.2717 16.8398L29.4979 24.6651C30.0433 24.2311 30.7048 24.0844 31.3592 24.2331L33.5754 14.4818ZM41.3581 20.1449C39.6518 17.2671 36.8542 15.2287 33.5778 14.4824L31.3567 24.2326C31.9654 24.3712 32.4528 24.7329 32.7565 25.245L41.3581 20.1449ZM41.8574 21.0713C41.6979 20.7391 41.5218 20.4132 41.3283 20.0952L32.7863 25.2947C32.8027 25.3217 32.8217 25.3559 32.8422 25.3986L41.8574 21.0713ZM44.0561 25.6183L41.8511 21.0583L32.8484 25.4116L35.0534 29.9716L44.0561 25.6183ZM45.3224 28.2333L44.0549 25.6158L35.0546 29.9741L36.3221 32.5916L45.3224 28.2333ZM47.2858 32.2799L45.3208 28.2299L36.3238 32.5951L38.2888 36.6451L47.2858 32.2799ZM35.3362 25.8527L31.8187 24.2702L27.7159 33.3898L31.2334 34.9723L35.3362 25.8527ZM38.5854 27.316L35.3379 25.8535L31.2316 34.9715L34.4791 36.434L38.5854 27.316ZM30.0524 29.9672L32.0324 34.0547L41.0321 29.6952L39.0521 25.6077L30.0524 29.9672ZM28.7945 27.3764L30.0545 29.9714L39.0501 25.6036L37.7901 23.0086L28.7945 27.3764ZM30.368 28.6163C29.6682 28.4593 29.0909 27.9877 28.7932 27.3738L37.7914 23.0111C36.7737 20.9122 34.8614 19.3757 32.5566 18.8587L30.368 28.6163ZM30.8623 28.67C30.698 28.67 30.5228 28.6521 30.338 28.6094L32.5866 18.8655C32.0117 18.7329 31.4316 18.67 30.8623 18.67V28.67ZM32.2762 28.1962C31.9333 28.4652 31.4434 28.67 30.8623 28.67V18.67C29.0811 18.67 27.4213 19.2947 26.1034 20.3288L32.2762 28.1962ZM33.1606 26.0825C33.2037 26.4246 33.166 26.8264 33.0037 27.2277C32.8412 27.6295 32.5873 27.9476 32.3133 28.1668L26.0663 20.3581C23.9515 22.05 22.9024 24.6608 23.239 27.3325L33.1606 26.0825ZM31.8304 24.2755C32.1407 24.416 32.4636 24.6572 32.7219 25.007C32.9802 25.3569 33.1173 25.739 33.1606 26.0825L23.239 27.3325C23.5768 30.014 25.2477 32.2717 27.7041 33.3845L31.8304 24.2755Z" fill="#383A48"/>
<path d="M43.1249 34.3048L41.1599 30.2548C41.0699 30.0748 40.8524 29.9923 40.6649 30.0748L38.3549 31.1173L39.8849 27.9598C39.9374 27.8548 39.9374 27.7348 39.8849 27.6298L37.6799 23.0698C37.5824 22.8748 37.4849 22.6873 37.3724 22.4998C37.3049 22.3873 37.1849 22.3198 37.0499 22.3198C36.9149 22.3198 36.7949 22.3873 36.7274 22.4998C36.6149 22.6873 36.5174 22.8748 36.4199 23.0698L34.2074 27.6298C34.1549 27.7348 34.1549 27.8548 34.2074 27.9598L35.7374 31.1173L33.4424 30.0748C33.2549 29.9923 33.0374 30.0673 32.9474 30.2548L30.9824 34.3048C30.9374 34.3948 30.9299 34.4998 30.9674 34.5973C31.0049 34.6948 31.0724 34.7698 31.1624 34.8148L36.8924 37.4023C36.9449 37.4248 36.9974 37.4323 37.0499 37.4323C37.1024 37.4323 37.1549 37.4248 37.2074 37.4023L42.9449 34.8148C43.0349 34.7698 43.1099 34.6948 43.1399 34.5973C43.1699 34.4998 43.1699 34.3948 43.1249 34.3048Z" fill="#383A48"/>
<path fill-rule="evenodd" clip-rule="evenodd" d="M35.5198 35.4975C35.1073 36.3525 35.2723 37.3725 35.9323 38.0475C36.3673 38.49 36.9523 38.73 37.5523 38.73C37.8598 38.73 38.1748 38.6625 38.4748 38.5275L50.8798 32.9325C53.1898 31.89 54.7498 29.775 55.0648 27.27C55.3798 24.765 54.3898 22.3275 52.4173 20.7525C50.6998 19.38 48.4873 18.87 46.3423 19.3575C44.1973 19.845 42.4198 21.255 41.4598 23.235L35.5198 35.4975ZM45.5098 25.2C45.8698 24.4575 46.5373 23.925 47.3398 23.745C47.5423 23.7 47.7448 23.6775 47.9473 23.67C48.5473 23.67 49.1398 23.88 49.6198 24.2625C50.3698 24.8625 50.7298 25.755 50.6098 26.7075C50.4898 27.66 49.9198 28.4325 49.0423 28.83L42.2698 31.8825L45.5098 25.2Z" fill="#F3F6E6"/>
<path fill-rule="evenodd" clip-rule="evenodd" d="M35.6623 38.3099C36.1573 38.8124 36.8398 39.1049 37.5448 39.1049C37.9198 39.1049 38.2873 39.0299 38.6248 38.8724L51.0448 33.2699C53.4673 32.1824 55.1173 29.9549 55.4473 27.3149C55.7773 24.6749 54.7348 22.1099 52.6573 20.4524C50.8498 19.0124 48.5173 18.4799 46.2598 18.9899C44.0023 19.4999 42.1348 20.9849 41.1223 23.0699L35.1823 35.3324C34.7023 36.3224 34.8973 37.5224 35.6623 38.3099ZM46.4323 19.7249C46.9423 19.6124 47.4523 19.5524 47.9548 19.5524C49.4773 19.5524 50.9698 20.0699 52.1998 21.0374C54.0748 22.5299 55.0123 24.8399 54.7123 27.2174C54.4123 29.5949 52.9273 31.6049 50.7448 32.5874L38.3248 38.1899C38.0773 38.3024 37.8223 38.3549 37.5523 38.3549C37.0498 38.3549 36.5623 38.1449 36.2098 37.7849C35.6623 37.2224 35.5198 36.3674 35.8648 35.6624L41.8048 23.3999C42.7123 21.5249 44.3998 20.1824 46.4323 19.7249ZM42.2773 32.2574C42.1798 32.2574 42.0823 32.2199 42.0073 32.1449C41.8948 32.0324 41.8723 31.8599 41.9398 31.7174L45.1798 25.0349C45.5923 24.1874 46.3498 23.5874 47.2648 23.3774C47.4898 23.3249 47.7223 23.3024 47.9473 23.3024C48.6373 23.3024 49.3123 23.5424 49.8598 23.9699C50.7148 24.6524 51.1273 25.6649 50.9923 26.7524C50.8573 27.8399 50.2048 28.7174 49.2073 29.1674L42.4348 32.2199C42.3823 32.2424 42.3298 32.2574 42.2773 32.2574ZM47.4298 24.1124C47.6023 24.0749 47.7748 24.0524 47.9473 24.0524C48.4723 24.0524 48.9673 24.2249 49.3873 24.5699C50.0323 25.0799 50.3473 25.8524 50.2423 26.6699C50.1373 27.4874 49.6423 28.1549 48.8923 28.4924L43.0648 31.1174L45.8548 25.3649C46.1623 24.7274 46.7398 24.2699 47.4298 24.1124Z" fill="#383A48"/>
<rect x="31.9575" y="36.48" width="36.7125" height="36.7125" fill="#AAC6FC"/>
<path fill-rule="evenodd" clip-rule="evenodd" d="M31.9575 73.5675H68.67C68.88 73.5675 69.045 73.4025 69.045 73.1925V36.48C69.045 36.27 68.88 36.105 68.67 36.105H31.9575C31.7475 36.105 31.5825 36.27 31.5825 36.48V73.1925C31.5825 73.4025 31.7475 73.5675 31.9575 73.5675ZM68.295 72.8175H32.3325V36.855H68.295V72.8175Z" fill="#383A48"/>
<rect x="13.605" y="36.48" width="36.7125" height="36.7125" fill="#AAC6FC"/>
<path fill-rule="evenodd" clip-rule="evenodd" d="M13.605 73.5675H50.3175C50.52 73.5675 50.6925 73.4025 50.6925 73.1925V36.48C50.6925 36.27 50.5275 36.105 50.3175 36.105H13.605C13.395 36.105 13.23 36.27 13.23 36.48V73.1925C13.23 73.4025 13.395 73.5675 13.605 73.5675ZM49.9425 72.8175H13.98V36.855H49.9425V72.8175Z" fill="#383A48"/>
<rect x="27.5327" y="36.48" width="8.85" height="36.7125" fill="#F3F6E6"/>
<path fill-rule="evenodd" clip-rule="evenodd" d="M27.5327 73.5675H36.3827C36.5927 73.5675 36.7577 73.4025 36.7577 73.1925V36.48C36.7577 36.27 36.5927 36.105 36.3827 36.105H27.5327C27.3227 36.105 27.1577 36.27 27.1577 36.48V73.1925C27.1577 73.4025 27.3227 73.5675 27.5327 73.5675ZM36.0077 72.8175H27.9077V36.855H36.0077V72.8175Z" fill="#383A48"/>
<rect x="56.625" y="36.48" width="5.94749" height="36.7125" fill="#F3F6E6"/>
<path fill-rule="evenodd" clip-rule="evenodd" d="M56.625 73.5675H62.565C62.775 73.5675 62.94 73.4025 62.9475 73.1925V36.48C62.9475 36.27 62.7825 36.105 62.5725 36.105H56.625C56.415 36.105 56.25 36.27 56.25 36.48V73.1925C56.25 73.4025 56.415 73.5675 56.625 73.5675ZM62.1975 72.8175H57V36.855H62.1975V72.8175Z" fill="#383A48"/>
<path d="M67.3276 37.7324C67.5347 37.7324 67.7026 37.5645 67.7026 37.3574C67.7026 37.1503 67.5347 36.9824 67.3276 36.9824C67.1205 36.9824 66.9526 37.1503 66.9526 37.3574C66.9526 37.5645 67.1205 37.7324 67.3276 37.7324Z" fill="#383A48"/>
<path d="M67.3276 39.5774C67.5347 39.5774 67.7026 39.4095 67.7026 39.2024C67.7026 38.9953 67.5347 38.8274 67.3276 38.8274C67.1205 38.8274 66.9526 38.9953 66.9526 39.2024C66.9526 39.4095 67.1205 39.5774 67.3276 39.5774Z" fill="#383A48"/>
<path d="M67.3276 41.4299C67.5347 41.4299 67.7026 41.262 67.7026 41.0549C67.7026 40.8478 67.5347 40.6799 67.3276 40.6799C67.1205 40.6799 66.9526 40.8478 66.9526 41.0549C66.9526 41.262 67.1205 41.4299 67.3276 41.4299Z" fill="#383A48"/>
<path d="M67.3276 43.2825C67.5347 43.2825 67.7026 43.1146 67.7026 42.9075C67.7026 42.7004 67.5347 42.5325 67.3276 42.5325C67.1205 42.5325 66.9526 42.7004 66.9526 42.9075C66.9526 43.1146 67.1205 43.2825 67.3276 43.2825Z" fill="#383A48"/>
<path d="M67.3276 45.1274C67.5347 45.1274 67.7026 44.9595 67.7026 44.7524C67.7026 44.5453 67.5347 44.3774 67.3276 44.3774C67.1205 44.3774 66.9526 44.5453 66.9526 44.7524C66.9526 44.9595 67.1205 45.1274 67.3276 45.1274Z" fill="#383A48"/>
<path d="M67.3276 46.98C67.5347 46.98 67.7026 46.8121 67.7026 46.605C67.7026 46.3979 67.5347 46.23 67.3276 46.23C67.1205 46.23 66.9526 46.3979 66.9526 46.605C66.9526 46.8121 67.1205 46.98 67.3276 46.98Z" fill="#383A48"/>
<path d="M67.3276 48.8325C67.5347 48.8325 67.7026 48.6646 67.7026 48.4575C67.7026 48.2504 67.5347 48.0825 67.3276 48.0825C67.1205 48.0825 66.9526 48.2504 66.9526 48.4575C66.9526 48.6646 67.1205 48.8325 67.3276 48.8325Z" fill="#383A48"/>
<path d="M67.3276 50.6775C67.5347 50.6775 67.7026 50.5096 67.7026 50.3025C67.7026 50.0954 67.5347 49.9275 67.3276 49.9275C67.1205 49.9275 66.9526 50.0954 66.9526 50.3025C66.9526 50.5096 67.1205 50.6775 67.3276 50.6775Z" fill="#383A48"/>
<path d="M67.3276 52.53C67.5347 52.53 67.7026 52.3621 67.7026 52.155C67.7026 51.9479 67.5347 51.78 67.3276 51.78C67.1205 51.78 66.9526 51.9479 66.9526 52.155C66.9526 52.3621 67.1205 52.53 67.3276 52.53Z" fill="#383A48"/>
<path d="M67.3276 54.3823C67.5347 54.3823 67.7026 54.2144 67.7026 54.0073C67.7026 53.8002 67.5347 53.6323 67.3276 53.6323C67.1205 53.6323 66.9526 53.8002 66.9526 54.0073C66.9526 54.2144 67.1205 54.3823 67.3276 54.3823Z" fill="#383A48"/>
<path d="M67.3276 56.2275C67.5347 56.2275 67.7026 56.0596 67.7026 55.8525C67.7026 55.6454 67.5347 55.4775 67.3276 55.4775C67.1205 55.4775 66.9526 55.6454 66.9526 55.8525C66.9526 56.0596 67.1205 56.2275 67.3276 56.2275Z" fill="#383A48"/>
<path d="M67.3276 58.0798C67.5347 58.0798 67.7026 57.9119 67.7026 57.7048C67.7026 57.4977 67.5347 57.3298 67.3276 57.3298C67.1205 57.3298 66.9526 57.4977 66.9526 57.7048C66.9526 57.9119 67.1205 58.0798 67.3276 58.0798Z" fill="#383A48"/>
<path d="M67.3276 59.9324C67.5347 59.9324 67.7026 59.7645 67.7026 59.5574C67.7026 59.3503 67.5347 59.1824 67.3276 59.1824C67.1205 59.1824 66.9526 59.3503 66.9526 59.5574C66.9526 59.7645 67.1205 59.9324 67.3276 59.9324Z" fill="#383A48"/>
<path d="M67.3276 61.7773C67.5347 61.7773 67.7026 61.6095 67.7026 61.4023C67.7026 61.1952 67.5347 61.0273 67.3276 61.0273C67.1205 61.0273 66.9526 61.1952 66.9526 61.4023C66.9526 61.6095 67.1205 61.7773 67.3276 61.7773Z" fill="#383A48"/>
<path d="M67.3276 63.6299C67.5347 63.6299 67.7026 63.462 67.7026 63.2549C67.7026 63.0478 67.5347 62.8799 67.3276 62.8799C67.1205 62.8799 66.9526 63.0478 66.9526 63.2549C66.9526 63.462 67.1205 63.6299 67.3276 63.6299Z" fill="#383A48"/>
<path d="M67.3276 65.4824C67.5347 65.4824 67.7026 65.3145 67.7026 65.1074C67.7026 64.9003 67.5347 64.7324 67.3276 64.7324C67.1205 64.7324 66.9526 64.9003 66.9526 65.1074C66.9526 65.3145 67.1205 65.4824 67.3276 65.4824Z" fill="#383A48"/>
<path d="M67.3276 67.3274C67.5347 67.3274 67.7026 67.1595 67.7026 66.9524C67.7026 66.7453 67.5347 66.5774 67.3276 66.5774C67.1205 66.5774 66.9526 66.7453 66.9526 66.9524C66.9526 67.1595 67.1205 67.3274 67.3276 67.3274Z" fill="#383A48"/>
<path d="M67.3276 69.1799C67.5347 69.1799 67.7026 69.012 67.7026 68.8049C67.7026 68.5978 67.5347 68.4299 67.3276 68.4299C67.1205 68.4299 66.9526 68.5978 66.9526 68.8049C66.9526 69.012 67.1205 69.1799 67.3276 69.1799Z" fill="#383A48"/>
<path d="M67.3276 71.0325C67.5347 71.0325 67.7026 70.8646 67.7026 70.6575C67.7026 70.4504 67.5347 70.2825 67.3276 70.2825C67.1205 70.2825 66.9526 70.4504 66.9526 70.6575C66.9526 70.8646 67.1205 71.0325 67.3276 71.0325Z" fill="#383A48"/>
<path d="M67.3276 72.8774C67.5347 72.8774 67.7026 72.7095 67.7026 72.5024C67.7026 72.2953 67.5347 72.1274 67.3276 72.1274C67.1205 72.1274 66.9526 72.2953 66.9526 72.5024C66.9526 72.7095 67.1205 72.8774 67.3276 72.8774Z" fill="#383A48"/>
<path d="M65.4824 37.7324C65.6895 37.7324 65.8574 37.5645 65.8574 37.3574C65.8574 37.1503 65.6895 36.9824 65.4824 36.9824C65.2753 36.9824 65.1074 37.1503 65.1074 37.3574C65.1074 37.5645 65.2753 37.7324 65.4824 37.7324Z" fill="#383A48"/>
<path d="M65.4824 39.5774C65.6895 39.5774 65.8574 39.4095 65.8574 39.2024C65.8574 38.9953 65.6895 38.8274 65.4824 38.8274C65.2753 38.8274 65.1074 38.9953 65.1074 39.2024C65.1074 39.4095 65.2753 39.5774 65.4824 39.5774Z" fill="#383A48"/>
<path d="M65.4824 41.4299C65.6895 41.4299 65.8574 41.262 65.8574 41.0549C65.8574 40.8478 65.6895 40.6799 65.4824 40.6799C65.2753 40.6799 65.1074 40.8478 65.1074 41.0549C65.1074 41.262 65.2753 41.4299 65.4824 41.4299Z" fill="#383A48"/>
<path d="M65.4824 43.2825C65.6895 43.2825 65.8574 43.1146 65.8574 42.9075C65.8574 42.7004 65.6895 42.5325 65.4824 42.5325C65.2753 42.5325 65.1074 42.7004 65.1074 42.9075C65.1074 43.1146 65.2753 43.2825 65.4824 43.2825Z" fill="#383A48"/>
<path d="M65.4824 45.1274C65.6895 45.1274 65.8574 44.9595 65.8574 44.7524C65.8574 44.5453 65.6895 44.3774 65.4824 44.3774C65.2753 44.3774 65.1074 44.5453 65.1074 44.7524C65.1074 44.9595 65.2753 45.1274 65.4824 45.1274Z" fill="#383A48"/>
<path d="M65.4824 46.98C65.6895 46.98 65.8574 46.8121 65.8574 46.605C65.8574 46.3979 65.6895 46.23 65.4824 46.23C65.2753 46.23 65.1074 46.3979 65.1074 46.605C65.1074 46.8121 65.2753 46.98 65.4824 46.98Z" fill="#383A48"/>
<path d="M65.4824 48.8325C65.6895 48.8325 65.8574 48.6646 65.8574 48.4575C65.8574 48.2504 65.6895 48.0825 65.4824 48.0825C65.2753 48.0825 65.1074 48.2504 65.1074 48.4575C65.1074 48.6646 65.2753 48.8325 65.4824 48.8325Z" fill="#383A48"/>
<path d="M65.4824 50.6775C65.6895 50.6775 65.8574 50.5096 65.8574 50.3025C65.8574 50.0954 65.6895 49.9275 65.4824 49.9275C65.2753 49.9275 65.1074 50.0954 65.1074 50.3025C65.1074 50.5096 65.2753 50.6775 65.4824 50.6775Z" fill="#383A48"/>
<path d="M65.4824 52.53C65.6895 52.53 65.8574 52.3621 65.8574 52.155C65.8574 51.9479 65.6895 51.78 65.4824 51.78C65.2753 51.78 65.1074 51.9479 65.1074 52.155C65.1074 52.3621 65.2753 52.53 65.4824 52.53Z" fill="#383A48"/>
<path d="M65.4824 54.3823C65.6895 54.3823 65.8574 54.2144 65.8574 54.0073C65.8574 53.8002 65.6895 53.6323 65.4824 53.6323C65.2753 53.6323 65.1074 53.8002 65.1074 54.0073C65.1074 54.2144 65.2753 54.3823 65.4824 54.3823Z" fill="#383A48"/>
<path d="M65.4824 56.2275C65.6895 56.2275 65.8574 56.0596 65.8574 55.8525C65.8574 55.6454 65.6895 55.4775 65.4824 55.4775C65.2753 55.4775 65.1074 55.6454 65.1074 55.8525C65.1074 56.0596 65.2753 56.2275 65.4824 56.2275Z" fill="#383A48"/>
<path d="M65.4824 58.0798C65.6895 58.0798 65.8574 57.9119 65.8574 57.7048C65.8574 57.4977 65.6895 57.3298 65.4824 57.3298C65.2753 57.3298 65.1074 57.4977 65.1074 57.7048C65.1074 57.9119 65.2753 58.0798 65.4824 58.0798Z" fill="#383A48"/>
<path d="M65.4824 59.9324C65.6895 59.9324 65.8574 59.7645 65.8574 59.5574C65.8574 59.3503 65.6895 59.1824 65.4824 59.1824C65.2753 59.1824 65.1074 59.3503 65.1074 59.5574C65.1074 59.7645 65.2753 59.9324 65.4824 59.9324Z" fill="#383A48"/>
<path d="M65.4824 61.7773C65.6895 61.7773 65.8574 61.6095 65.8574 61.4023C65.8574 61.1952 65.6895 61.0273 65.4824 61.0273C65.2753 61.0273 65.1074 61.1952 65.1074 61.4023C65.1074 61.6095 65.2753 61.7773 65.4824 61.7773Z" fill="#383A48"/>
<path d="M65.4824 63.6299C65.6895 63.6299 65.8574 63.462 65.8574 63.2549C65.8574 63.0478 65.6895 62.8799 65.4824 62.8799C65.2753 62.8799 65.1074 63.0478 65.1074 63.2549C65.1074 63.462 65.2753 63.6299 65.4824 63.6299Z" fill="#383A48"/>
<path d="M65.4824 65.4824C65.6895 65.4824 65.8574 65.3145 65.8574 65.1074C65.8574 64.9003 65.6895 64.7324 65.4824 64.7324C65.2753 64.7324 65.1074 64.9003 65.1074 65.1074C65.1074 65.3145 65.2753 65.4824 65.4824 65.4824Z" fill="#383A48"/>
<path d="M65.4824 67.3274C65.6895 67.3274 65.8574 67.1595 65.8574 66.9524C65.8574 66.7453 65.6895 66.5774 65.4824 66.5774C65.2753 66.5774 65.1074 66.7453 65.1074 66.9524C65.1074 67.1595 65.2753 67.3274 65.4824 67.3274Z" fill="#383A48"/>
<path d="M65.4824 69.1799C65.6895 69.1799 65.8574 69.012 65.8574 68.8049C65.8574 68.5978 65.6895 68.4299 65.4824 68.4299C65.2753 68.4299 65.1074 68.5978 65.1074 68.8049C65.1074 69.012 65.2753 69.1799 65.4824 69.1799Z" fill="#383A48"/>
<path d="M65.4824 71.0325C65.6895 71.0325 65.8574 70.8646 65.8574 70.6575C65.8574 70.4504 65.6895 70.2825 65.4824 70.2825C65.2753 70.2825 65.1074 70.4504 65.1074 70.6575C65.1074 70.8646 65.2753 71.0325 65.4824 71.0325Z" fill="#383A48"/>
<path d="M65.4824 72.8774C65.6895 72.8774 65.8574 72.7095 65.8574 72.5024C65.8574 72.2953 65.6895 72.1274 65.4824 72.1274C65.2753 72.1274 65.1074 72.2953 65.1074 72.5024C65.1074 72.7095 65.2753 72.8774 65.4824 72.8774Z" fill="#383A48"/>
<path d="M63.6299 37.7324C63.837 37.7324 64.0049 37.5645 64.0049 37.3574C64.0049 37.1503 63.837 36.9824 63.6299 36.9824C63.4228 36.9824 63.2549 37.1503 63.2549 37.3574C63.2549 37.5645 63.4228 37.7324 63.6299 37.7324Z" fill="#383A48"/>
<path d="M63.6299 39.5774C63.837 39.5774 64.0049 39.4095 64.0049 39.2024C64.0049 38.9953 63.837 38.8274 63.6299 38.8274C63.4228 38.8274 63.2549 38.9953 63.2549 39.2024C63.2549 39.4095 63.4228 39.5774 63.6299 39.5774Z" fill="#383A48"/>
<path d="M63.6299 41.4299C63.837 41.4299 64.0049 41.262 64.0049 41.0549C64.0049 40.8478 63.837 40.6799 63.6299 40.6799C63.4228 40.6799 63.2549 40.8478 63.2549 41.0549C63.2549 41.262 63.4228 41.4299 63.6299 41.4299Z" fill="#383A48"/>
<path d="M63.6299 43.2825C63.837 43.2825 64.0049 43.1146 64.0049 42.9075C64.0049 42.7004 63.837 42.5325 63.6299 42.5325C63.4228 42.5325 63.2549 42.7004 63.2549 42.9075C63.2549 43.1146 63.4228 43.2825 63.6299 43.2825Z" fill="#383A48"/>
<path d="M63.6299 45.1274C63.837 45.1274 64.0049 44.9595 64.0049 44.7524C64.0049 44.5453 63.837 44.3774 63.6299 44.3774C63.4228 44.3774 63.2549 44.5453 63.2549 44.7524C63.2549 44.9595 63.4228 45.1274 63.6299 45.1274Z" fill="#383A48"/>
<path d="M63.6299 46.98C63.837 46.98 64.0049 46.8121 64.0049 46.605C64.0049 46.3979 63.837 46.23 63.6299 46.23C63.4228 46.23 63.2549 46.3979 63.2549 46.605C63.2549 46.8121 63.4228 46.98 63.6299 46.98Z" fill="#383A48"/>
<path d="M63.6299 48.8325C63.837 48.8325 64.0049 48.6646 64.0049 48.4575C64.0049 48.2504 63.837 48.0825 63.6299 48.0825C63.4228 48.0825 63.2549 48.2504 63.2549 48.4575C63.2549 48.6646 63.4228 48.8325 63.6299 48.8325Z" fill="#383A48"/>
<path d="M63.6299 50.6775C63.837 50.6775 64.0049 50.5096 64.0049 50.3025C64.0049 50.0954 63.837 49.9275 63.6299 49.9275C63.4228 49.9275 63.2549 50.0954 63.2549 50.3025C63.2549 50.5096 63.4228 50.6775 63.6299 50.6775Z" fill="#383A48"/>
<path d="M63.6299 52.53C63.837 52.53 64.0049 52.3621 64.0049 52.155C64.0049 51.9479 63.837 51.78 63.6299 51.78C63.4228 51.78 63.2549 51.9479 63.2549 52.155C63.2549 52.3621 63.4228 52.53 63.6299 52.53Z" fill="#383A48"/>
<path d="M63.6299 54.3823C63.837 54.3823 64.0049 54.2144 64.0049 54.0073C64.0049 53.8002 63.837 53.6323 63.6299 53.6323C63.4228 53.6323 63.2549 53.8002 63.2549 54.0073C63.2549 54.2144 63.4228 54.3823 63.6299 54.3823Z" fill="#383A48"/>
<path d="M63.6299 56.2275C63.837 56.2275 64.0049 56.0596 64.0049 55.8525C64.0049 55.6454 63.837 55.4775 63.6299 55.4775C63.4228 55.4775 63.2549 55.6454 63.2549 55.8525C63.2549 56.0596 63.4228 56.2275 63.6299 56.2275Z" fill="#383A48"/>
<path d="M63.6299 58.0798C63.837 58.0798 64.0049 57.9119 64.0049 57.7048C64.0049 57.4977 63.837 57.3298 63.6299 57.3298C63.4228 57.3298 63.2549 57.4977 63.2549 57.7048C63.2549 57.9119 63.4228 58.0798 63.6299 58.0798Z" fill="#383A48"/>
<path d="M63.6299 59.9324C63.837 59.9324 64.0049 59.7645 64.0049 59.5574C64.0049 59.3503 63.837 59.1824 63.6299 59.1824C63.4228 59.1824 63.2549 59.3503 63.2549 59.5574C63.2549 59.7645 63.4228 59.9324 63.6299 59.9324Z" fill="#383A48"/>
<path d="M63.6299 61.7773C63.837 61.7773 64.0049 61.6095 64.0049 61.4023C64.0049 61.1952 63.837 61.0273 63.6299 61.0273C63.4228 61.0273 63.2549 61.1952 63.2549 61.4023C63.2549 61.6095 63.4228 61.7773 63.6299 61.7773Z" fill="#383A48"/>
<path d="M63.6299 63.6299C63.837 63.6299 64.0049 63.462 64.0049 63.2549C64.0049 63.0478 63.837 62.8799 63.6299 62.8799C63.4228 62.8799 63.2549 63.0478 63.2549 63.2549C63.2549 63.462 63.4228 63.6299 63.6299 63.6299Z" fill="#383A48"/>
<path d="M63.6299 65.4824C63.837 65.4824 64.0049 65.3145 64.0049 65.1074C64.0049 64.9003 63.837 64.7324 63.6299 64.7324C63.4228 64.7324 63.2549 64.9003 63.2549 65.1074C63.2549 65.3145 63.4228 65.4824 63.6299 65.4824Z" fill="#383A48"/>
<path d="M63.6299 67.3274C63.837 67.3274 64.0049 67.1595 64.0049 66.9524C64.0049 66.7453 63.837 66.5774 63.6299 66.5774C63.4228 66.5774 63.2549 66.7453 63.2549 66.9524C63.2549 67.1595 63.4228 67.3274 63.6299 67.3274Z" fill="#383A48"/>
<path d="M63.6299 69.1799C63.837 69.1799 64.0049 69.012 64.0049 68.8049C64.0049 68.5978 63.837 68.4299 63.6299 68.4299C63.4228 68.4299 63.2549 68.5978 63.2549 68.8049C63.2549 69.012 63.4228 69.1799 63.6299 69.1799Z" fill="#383A48"/>
<path d="M63.6299 71.0325C63.837 71.0325 64.0049 70.8646 64.0049 70.6575C64.0049 70.4504 63.837 70.2825 63.6299 70.2825C63.4228 70.2825 63.2549 70.4504 63.2549 70.6575C63.2549 70.8646 63.4228 71.0325 63.6299 71.0325Z" fill="#383A48"/>
<path d="M63.6299 72.8774C63.837 72.8774 64.0049 72.7095 64.0049 72.5024C64.0049 72.2953 63.837 72.1274 63.6299 72.1274C63.4228 72.1274 63.2549 72.2953 63.2549 72.5024C63.2549 72.7095 63.4228 72.8774 63.6299 72.8774Z" fill="#383A48"/>
<path d="M61.4023 37.7324C61.6095 37.7324 61.7773 37.5645 61.7773 37.3574C61.7773 37.1503 61.6095 36.9824 61.4023 36.9824C61.1952 36.9824 61.0273 37.1503 61.0273 37.3574C61.0273 37.5645 61.1952 37.7324 61.4023 37.7324Z" fill="#383A48"/>
<path d="M61.4023 39.5774C61.6095 39.5774 61.7773 39.4095 61.7773 39.2024C61.7773 38.9953 61.6095 38.8274 61.4023 38.8274C61.1952 38.8274 61.0273 38.9953 61.0273 39.2024C61.0273 39.4095 61.1952 39.5774 61.4023 39.5774Z" fill="#383A48"/>
<path d="M61.4023 41.4299C61.6095 41.4299 61.7773 41.262 61.7773 41.0549C61.7773 40.8478 61.6095 40.6799 61.4023 40.6799C61.1952 40.6799 61.0273 40.8478 61.0273 41.0549C61.0273 41.262 61.1952 41.4299 61.4023 41.4299Z" fill="#383A48"/>
<path d="M61.4023 43.2825C61.6095 43.2825 61.7773 43.1146 61.7773 42.9075C61.7773 42.7004 61.6095 42.5325 61.4023 42.5325C61.1952 42.5325 61.0273 42.7004 61.0273 42.9075C61.0273 43.1146 61.1952 43.2825 61.4023 43.2825Z" fill="#383A48"/>
<path d="M61.4023 45.1274C61.6095 45.1274 61.7773 44.9595 61.7773 44.7524C61.7773 44.5453 61.6095 44.3774 61.4023 44.3774C61.1952 44.3774 61.0273 44.5453 61.0273 44.7524C61.0273 44.9595 61.1952 45.1274 61.4023 45.1274Z" fill="#383A48"/>
<path d="M61.4023 46.98C61.6095 46.98 61.7773 46.8121 61.7773 46.605C61.7773 46.3979 61.6095 46.23 61.4023 46.23C61.1952 46.23 61.0273 46.3979 61.0273 46.605C61.0273 46.8121 61.1952 46.98 61.4023 46.98Z" fill="#383A48"/>
<path d="M61.4023 48.8325C61.6095 48.8325 61.7773 48.6646 61.7773 48.4575C61.7773 48.2504 61.6095 48.0825 61.4023 48.0825C61.1952 48.0825 61.0273 48.2504 61.0273 48.4575C61.0273 48.6646 61.1952 48.8325 61.4023 48.8325Z" fill="#383A48"/>
<path d="M61.4023 50.6775C61.6095 50.6775 61.7773 50.5096 61.7773 50.3025C61.7773 50.0954 61.6095 49.9275 61.4023 49.9275C61.1952 49.9275 61.0273 50.0954 61.0273 50.3025C61.0273 50.5096 61.1952 50.6775 61.4023 50.6775Z" fill="#383A48"/>
<path d="M61.4023 52.53C61.6095 52.53 61.7773 52.3621 61.7773 52.155C61.7773 51.9479 61.6095 51.78 61.4023 51.78C61.1952 51.78 61.0273 51.9479 61.0273 52.155C61.0273 52.3621 61.1952 52.53 61.4023 52.53Z" fill="#383A48"/>
<path d="M61.4023 54.3823C61.6095 54.3823 61.7773 54.2144 61.7773 54.0073C61.7773 53.8002 61.6095 53.6323 61.4023 53.6323C61.1952 53.6323 61.0273 53.8002 61.0273 54.0073C61.0273 54.2144 61.1952 54.3823 61.4023 54.3823Z" fill="#383A48"/>
<path d="M61.4023 56.2275C61.6095 56.2275 61.7773 56.0596 61.7773 55.8525C61.7773 55.6454 61.6095 55.4775 61.4023 55.4775C61.1952 55.4775 61.0273 55.6454 61.0273 55.8525C61.0273 56.0596 61.1952 56.2275 61.4023 56.2275Z" fill="#383A48"/>
<path d="M61.4023 58.0798C61.6095 58.0798 61.7773 57.9119 61.7773 57.7048C61.7773 57.4977 61.6095 57.3298 61.4023 57.3298C61.1952 57.3298 61.0273 57.4977 61.0273 57.7048C61.0273 57.9119 61.1952 58.0798 61.4023 58.0798Z" fill="#383A48"/>
<path d="M61.4023 59.9324C61.6095 59.9324 61.7773 59.7645 61.7773 59.5574C61.7773 59.3503 61.6095 59.1824 61.4023 59.1824C61.1952 59.1824 61.0273 59.3503 61.0273 59.5574C61.0273 59.7645 61.1952 59.9324 61.4023 59.9324Z" fill="#383A48"/>
<path d="M61.4023 61.7773C61.6095 61.7773 61.7773 61.6095 61.7773 61.4023C61.7773 61.1952 61.6095 61.0273 61.4023 61.0273C61.1952 61.0273 61.0273 61.1952 61.0273 61.4023C61.0273 61.6095 61.1952 61.7773 61.4023 61.7773Z" fill="#383A48"/>
<path d="M61.4023 63.6299C61.6095 63.6299 61.7773 63.462 61.7773 63.2549C61.7773 63.0478 61.6095 62.8799 61.4023 62.8799C61.1952 62.8799 61.0273 63.0478 61.0273 63.2549C61.0273 63.462 61.1952 63.6299 61.4023 63.6299Z" fill="#383A48"/>
<path d="M61.4023 65.4824C61.6095 65.4824 61.7773 65.3145 61.7773 65.1074C61.7773 64.9003 61.6095 64.7324 61.4023 64.7324C61.1952 64.7324 61.0273 64.9003 61.0273 65.1074C61.0273 65.3145 61.1952 65.4824 61.4023 65.4824Z" fill="#383A48"/>
<path d="M61.4023 67.3274C61.6095 67.3274 61.7773 67.1595 61.7773 66.9524C61.7773 66.7453 61.6095 66.5774 61.4023 66.5774C61.1952 66.5774 61.0273 66.7453 61.0273 66.9524C61.0273 67.1595 61.1952 67.3274 61.4023 67.3274Z" fill="#383A48"/>
<path d="M61.4023 69.1799C61.6095 69.1799 61.7773 69.012 61.7773 68.8049C61.7773 68.5978 61.6095 68.4299 61.4023 68.4299C61.1952 68.4299 61.0273 68.5978 61.0273 68.8049C61.0273 69.012 61.1952 69.1799 61.4023 69.1799Z" fill="#383A48"/>
<path d="M61.4023 71.0325C61.6095 71.0325 61.7773 70.8646 61.7773 70.6575C61.7773 70.4504 61.6095 70.2825 61.4023 70.2825C61.1952 70.2825 61.0273 70.4504 61.0273 70.6575C61.0273 70.8646 61.1952 71.0325 61.4023 71.0325Z" fill="#383A48"/>
<path d="M61.4023 72.8774C61.6095 72.8774 61.7773 72.7095 61.7773 72.5024C61.7773 72.2953 61.6095 72.1274 61.4023 72.1274C61.1952 72.1274 61.0273 72.2953 61.0273 72.5024C61.0273 72.7095 61.1952 72.8774 61.4023 72.8774Z" fill="#383A48"/>
<path d="M59.5576 37.7324C59.7647 37.7324 59.9326 37.5645 59.9326 37.3574C59.9326 37.1503 59.7647 36.9824 59.5576 36.9824C59.3505 36.9824 59.1826 37.1503 59.1826 37.3574C59.1826 37.5645 59.3505 37.7324 59.5576 37.7324Z" fill="#383A48"/>
<path d="M59.5576 39.5774C59.7647 39.5774 59.9326 39.4095 59.9326 39.2024C59.9326 38.9953 59.7647 38.8274 59.5576 38.8274C59.3505 38.8274 59.1826 38.9953 59.1826 39.2024C59.1826 39.4095 59.3505 39.5774 59.5576 39.5774Z" fill="#383A48"/>
<path d="M59.5576 41.4299C59.7647 41.4299 59.9326 41.262 59.9326 41.0549C59.9326 40.8478 59.7647 40.6799 59.5576 40.6799C59.3505 40.6799 59.1826 40.8478 59.1826 41.0549C59.1826 41.262 59.3505 41.4299 59.5576 41.4299Z" fill="#383A48"/>
<path d="M59.5576 43.2825C59.7647 43.2825 59.9326 43.1146 59.9326 42.9075C59.9326 42.7004 59.7647 42.5325 59.5576 42.5325C59.3505 42.5325 59.1826 42.7004 59.1826 42.9075C59.1826 43.1146 59.3505 43.2825 59.5576 43.2825Z" fill="#383A48"/>
<path d="M59.5576 45.1274C59.7647 45.1274 59.9326 44.9595 59.9326 44.7524C59.9326 44.5453 59.7647 44.3774 59.5576 44.3774C59.3505 44.3774 59.1826 44.5453 59.1826 44.7524C59.1826 44.9595 59.3505 45.1274 59.5576 45.1274Z" fill="#383A48"/>
<path d="M59.5576 46.98C59.7647 46.98 59.9326 46.8121 59.9326 46.605C59.9326 46.3979 59.7647 46.23 59.5576 46.23C59.3505 46.23 59.1826 46.3979 59.1826 46.605C59.1826 46.8121 59.3505 46.98 59.5576 46.98Z" fill="#383A48"/>
<path d="M59.5576 48.8325C59.7647 48.8325 59.9326 48.6646 59.9326 48.4575C59.9326 48.2504 59.7647 48.0825 59.5576 48.0825C59.3505 48.0825 59.1826 48.2504 59.1826 48.4575C59.1826 48.6646 59.3505 48.8325 59.5576 48.8325Z" fill="#383A48"/>
<path d="M59.5576 50.6775C59.7647 50.6775 59.9326 50.5096 59.9326 50.3025C59.9326 50.0954 59.7647 49.9275 59.5576 49.9275C59.3505 49.9275 59.1826 50.0954 59.1826 50.3025C59.1826 50.5096 59.3505 50.6775 59.5576 50.6775Z" fill="#383A48"/>
<path d="M59.5576 52.53C59.7647 52.53 59.9326 52.3621 59.9326 52.155C59.9326 51.9479 59.7647 51.78 59.5576 51.78C59.3505 51.78 59.1826 51.9479 59.1826 52.155C59.1826 52.3621 59.3505 52.53 59.5576 52.53Z" fill="#383A48"/>
<path d="M59.5576 54.3823C59.7647 54.3823 59.9326 54.2144 59.9326 54.0073C59.9326 53.8002 59.7647 53.6323 59.5576 53.6323C59.3505 53.6323 59.1826 53.8002 59.1826 54.0073C59.1826 54.2144 59.3505 54.3823 59.5576 54.3823Z" fill="#383A48"/>
<path d="M59.5576 56.2275C59.7647 56.2275 59.9326 56.0596 59.9326 55.8525C59.9326 55.6454 59.7647 55.4775 59.5576 55.4775C59.3505 55.4775 59.1826 55.6454 59.1826 55.8525C59.1826 56.0596 59.3505 56.2275 59.5576 56.2275Z" fill="#383A48"/>
<path d="M59.5576 58.0798C59.7647 58.0798 59.9326 57.9119 59.9326 57.7048C59.9326 57.4977 59.7647 57.3298 59.5576 57.3298C59.3505 57.3298 59.1826 57.4977 59.1826 57.7048C59.1826 57.9119 59.3505 58.0798 59.5576 58.0798Z" fill="#383A48"/>
<path d="M59.5576 59.9324C59.7647 59.9324 59.9326 59.7645 59.9326 59.5574C59.9326 59.3503 59.7647 59.1824 59.5576 59.1824C59.3505 59.1824 59.1826 59.3503 59.1826 59.5574C59.1826 59.7645 59.3505 59.9324 59.5576 59.9324Z" fill="#383A48"/>
<path d="M59.5576 61.7773C59.7647 61.7773 59.9326 61.6095 59.9326 61.4023C59.9326 61.1952 59.7647 61.0273 59.5576 61.0273C59.3505 61.0273 59.1826 61.1952 59.1826 61.4023C59.1826 61.6095 59.3505 61.7773 59.5576 61.7773Z" fill="#383A48"/>
<path d="M59.5576 63.6299C59.7647 63.6299 59.9326 63.462 59.9326 63.2549C59.9326 63.0478 59.7647 62.8799 59.5576 62.8799C59.3505 62.8799 59.1826 63.0478 59.1826 63.2549C59.1826 63.462 59.3505 63.6299 59.5576 63.6299Z" fill="#383A48"/>
<path d="M59.5576 65.4824C59.7647 65.4824 59.9326 65.3145 59.9326 65.1074C59.9326 64.9003 59.7647 64.7324 59.5576 64.7324C59.3505 64.7324 59.1826 64.9003 59.1826 65.1074C59.1826 65.3145 59.3505 65.4824 59.5576 65.4824Z" fill="#383A48"/>
<path d="M59.5576 67.3274C59.7647 67.3274 59.9326 67.1595 59.9326 66.9524C59.9326 66.7453 59.7647 66.5774 59.5576 66.5774C59.3505 66.5774 59.1826 66.7453 59.1826 66.9524C59.1826 67.1595 59.3505 67.3274 59.5576 67.3274Z" fill="#383A48"/>
<path d="M59.5576 69.1799C59.7647 69.1799 59.9326 69.012 59.9326 68.8049C59.9326 68.5978 59.7647 68.4299 59.5576 68.4299C59.3505 68.4299 59.1826 68.5978 59.1826 68.8049C59.1826 69.012 59.3505 69.1799 59.5576 69.1799Z" fill="#383A48"/>
<path d="M59.5576 71.0325C59.7647 71.0325 59.9326 70.8646 59.9326 70.6575C59.9326 70.4504 59.7647 70.2825 59.5576 70.2825C59.3505 70.2825 59.1826 70.4504 59.1826 70.6575C59.1826 70.8646 59.3505 71.0325 59.5576 71.0325Z" fill="#383A48"/>
<path d="M59.5576 72.8774C59.7647 72.8774 59.9326 72.7095 59.9326 72.5024C59.9326 72.2953 59.7647 72.1274 59.5576 72.1274C59.3505 72.1274 59.1826 72.2953 59.1826 72.5024C59.1826 72.7095 59.3505 72.8774 59.5576 72.8774Z" fill="#383A48"/>
<path d="M57.7051 37.7324C57.9122 37.7324 58.0801 37.5645 58.0801 37.3574C58.0801 37.1503 57.9122 36.9824 57.7051 36.9824C57.498 36.9824 57.3301 37.1503 57.3301 37.3574C57.3301 37.5645 57.498 37.7324 57.7051 37.7324Z" fill="#383A48"/>
<path d="M57.7051 39.5774C57.9122 39.5774 58.0801 39.4095 58.0801 39.2024C58.0801 38.9953 57.9122 38.8274 57.7051 38.8274C57.498 38.8274 57.3301 38.9953 57.3301 39.2024C57.3301 39.4095 57.498 39.5774 57.7051 39.5774Z" fill="#383A48"/>
<path d="M57.7051 41.4299C57.9122 41.4299 58.0801 41.262 58.0801 41.0549C58.0801 40.8478 57.9122 40.6799 57.7051 40.6799C57.498 40.6799 57.3301 40.8478 57.3301 41.0549C57.3301 41.262 57.498 41.4299 57.7051 41.4299Z" fill="#383A48"/>
<path d="M57.7051 43.2825C57.9122 43.2825 58.0801 43.1146 58.0801 42.9075C58.0801 42.7004 57.9122 42.5325 57.7051 42.5325C57.498 42.5325 57.3301 42.7004 57.3301 42.9075C57.3301 43.1146 57.498 43.2825 57.7051 43.2825Z" fill="#383A48"/>
<path d="M57.7051 45.1274C57.9122 45.1274 58.0801 44.9595 58.0801 44.7524C58.0801 44.5453 57.9122 44.3774 57.7051 44.3774C57.498 44.3774 57.3301 44.5453 57.3301 44.7524C57.3301 44.9595 57.498 45.1274 57.7051 45.1274Z" fill="#383A48"/>
<path d="M57.7051 46.98C57.9122 46.98 58.0801 46.8121 58.0801 46.605C58.0801 46.3979 57.9122 46.23 57.7051 46.23C57.498 46.23 57.3301 46.3979 57.3301 46.605C57.3301 46.8121 57.498 46.98 57.7051 46.98Z" fill="#383A48"/>
<path d="M57.7051 48.8325C57.9122 48.8325 58.0801 48.6646 58.0801 48.4575C58.0801 48.2504 57.9122 48.0825 57.7051 48.0825C57.498 48.0825 57.3301 48.2504 57.3301 48.4575C57.3301 48.6646 57.498 48.8325 57.7051 48.8325Z" fill="#383A48"/>
<path d="M57.7051 50.6775C57.9122 50.6775 58.0801 50.5096 58.0801 50.3025C58.0801 50.0954 57.9122 49.9275 57.7051 49.9275C57.498 49.9275 57.3301 50.0954 57.3301 50.3025C57.3301 50.5096 57.498 50.6775 57.7051 50.6775Z" fill="#383A48"/>
<path d="M57.7051 52.53C57.9122 52.53 58.0801 52.3621 58.0801 52.155C58.0801 51.9479 57.9122 51.78 57.7051 51.78C57.498 51.78 57.3301 51.9479 57.3301 52.155C57.3301 52.3621 57.498 52.53 57.7051 52.53Z" fill="#383A48"/>
<path d="M57.7051 54.3823C57.9122 54.3823 58.0801 54.2144 58.0801 54.0073C58.0801 53.8002 57.9122 53.6323 57.7051 53.6323C57.498 53.6323 57.3301 53.8002 57.3301 54.0073C57.3301 54.2144 57.498 54.3823 57.7051 54.3823Z" fill="#383A48"/>
<path d="M57.7051 56.2275C57.9122 56.2275 58.0801 56.0596 58.0801 55.8525C58.0801 55.6454 57.9122 55.4775 57.7051 55.4775C57.498 55.4775 57.3301 55.6454 57.3301 55.8525C57.3301 56.0596 57.498 56.2275 57.7051 56.2275Z" fill="#383A48"/>
<path d="M57.7051 58.0798C57.9122 58.0798 58.0801 57.9119 58.0801 57.7048C58.0801 57.4977 57.9122 57.3298 57.7051 57.3298C57.498 57.3298 57.3301 57.4977 57.3301 57.7048C57.3301 57.9119 57.498 58.0798 57.7051 58.0798Z" fill="#383A48"/>
<path d="M57.7051 59.9324C57.9122 59.9324 58.0801 59.7645 58.0801 59.5574C58.0801 59.3503 57.9122 59.1824 57.7051 59.1824C57.498 59.1824 57.3301 59.3503 57.3301 59.5574C57.3301 59.7645 57.498 59.9324 57.7051 59.9324Z" fill="#383A48"/>
<path d="M57.7051 61.7773C57.9122 61.7773 58.0801 61.6095 58.0801 61.4023C58.0801 61.1952 57.9122 61.0273 57.7051 61.0273C57.498 61.0273 57.3301 61.1952 57.3301 61.4023C57.3301 61.6095 57.498 61.7773 57.7051 61.7773Z" fill="#383A48"/>
<path d="M57.7051 63.6299C57.9122 63.6299 58.0801 63.462 58.0801 63.2549C58.0801 63.0478 57.9122 62.8799 57.7051 62.8799C57.498 62.8799 57.3301 63.0478 57.3301 63.2549C57.3301 63.462 57.498 63.6299 57.7051 63.6299Z" fill="#383A48"/>
<path d="M57.7051 65.4824C57.9122 65.4824 58.0801 65.3145 58.0801 65.1074C58.0801 64.9003 57.9122 64.7324 57.7051 64.7324C57.498 64.7324 57.3301 64.9003 57.3301 65.1074C57.3301 65.3145 57.498 65.4824 57.7051 65.4824Z" fill="#383A48"/>
<path d="M57.7051 67.3274C57.9122 67.3274 58.0801 67.1595 58.0801 66.9524C58.0801 66.7453 57.9122 66.5774 57.7051 66.5774C57.498 66.5774 57.3301 66.7453 57.3301 66.9524C57.3301 67.1595 57.498 67.3274 57.7051 67.3274Z" fill="#383A48"/>
<path d="M57.7051 69.1799C57.9122 69.1799 58.0801 69.012 58.0801 68.8049C58.0801 68.5978 57.9122 68.4299 57.7051 68.4299C57.498 68.4299 57.3301 68.5978 57.3301 68.8049C57.3301 69.012 57.498 69.1799 57.7051 69.1799Z" fill="#383A48"/>
<path d="M57.7051 71.0325C57.9122 71.0325 58.0801 70.8646 58.0801 70.6575C58.0801 70.4504 57.9122 70.2825 57.7051 70.2825C57.498 70.2825 57.3301 70.4504 57.3301 70.6575C57.3301 70.8646 57.498 71.0325 57.7051 71.0325Z" fill="#383A48"/>
<path d="M57.7051 72.8774C57.9122 72.8774 58.0801 72.7095 58.0801 72.5024C58.0801 72.2953 57.9122 72.1274 57.7051 72.1274C57.498 72.1274 57.3301 72.2953 57.3301 72.5024C57.3301 72.7095 57.498 72.8774 57.7051 72.8774Z" fill="#383A48"/>
<path d="M55.3276 37.7324C55.5347 37.7324 55.7026 37.5645 55.7026 37.3574C55.7026 37.1503 55.5347 36.9824 55.3276 36.9824C55.1205 36.9824 54.9526 37.1503 54.9526 37.3574C54.9526 37.5645 55.1205 37.7324 55.3276 37.7324Z" fill="#383A48"/>
<path d="M55.3276 39.5774C55.5347 39.5774 55.7026 39.4095 55.7026 39.2024C55.7026 38.9953 55.5347 38.8274 55.3276 38.8274C55.1205 38.8274 54.9526 38.9953 54.9526 39.2024C54.9526 39.4095 55.1205 39.5774 55.3276 39.5774Z" fill="#383A48"/>
<path d="M55.3276 41.4299C55.5347 41.4299 55.7026 41.262 55.7026 41.0549C55.7026 40.8478 55.5347 40.6799 55.3276 40.6799C55.1205 40.6799 54.9526 40.8478 54.9526 41.0549C54.9526 41.262 55.1205 41.4299 55.3276 41.4299Z" fill="#383A48"/>
<path d="M55.3276 43.2825C55.5347 43.2825 55.7026 43.1146 55.7026 42.9075C55.7026 42.7004 55.5347 42.5325 55.3276 42.5325C55.1205 42.5325 54.9526 42.7004 54.9526 42.9075C54.9526 43.1146 55.1205 43.2825 55.3276 43.2825Z" fill="#383A48"/>
<path d="M55.3276 45.1274C55.5347 45.1274 55.7026 44.9595 55.7026 44.7524C55.7026 44.5453 55.5347 44.3774 55.3276 44.3774C55.1205 44.3774 54.9526 44.5453 54.9526 44.7524C54.9526 44.9595 55.1205 45.1274 55.3276 45.1274Z" fill="#383A48"/>
<path d="M55.3276 46.98C55.5347 46.98 55.7026 46.8121 55.7026 46.605C55.7026 46.3979 55.5347 46.23 55.3276 46.23C55.1205 46.23 54.9526 46.3979 54.9526 46.605C54.9526 46.8121 55.1205 46.98 55.3276 46.98Z" fill="#383A48"/>
<path d="M55.3276 48.8325C55.5347 48.8325 55.7026 48.6646 55.7026 48.4575C55.7026 48.2504 55.5347 48.0825 55.3276 48.0825C55.1205 48.0825 54.9526 48.2504 54.9526 48.4575C54.9526 48.6646 55.1205 48.8325 55.3276 48.8325Z" fill="#383A48"/>
<path d="M55.3276 50.6775C55.5347 50.6775 55.7026 50.5096 55.7026 50.3025C55.7026 50.0954 55.5347 49.9275 55.3276 49.9275C55.1205 49.9275 54.9526 50.0954 54.9526 50.3025C54.9526 50.5096 55.1205 50.6775 55.3276 50.6775Z" fill="#383A48"/>
<path d="M55.3276 52.53C55.5347 52.53 55.7026 52.3621 55.7026 52.155C55.7026 51.9479 55.5347 51.78 55.3276 51.78C55.1205 51.78 54.9526 51.9479 54.9526 52.155C54.9526 52.3621 55.1205 52.53 55.3276 52.53Z" fill="#383A48"/>
<path d="M55.3276 54.3823C55.5347 54.3823 55.7026 54.2144 55.7026 54.0073C55.7026 53.8002 55.5347 53.6323 55.3276 53.6323C55.1205 53.6323 54.9526 53.8002 54.9526 54.0073C54.9526 54.2144 55.1205 54.3823 55.3276 54.3823Z" fill="#383A48"/>
<path d="M55.3276 56.2275C55.5347 56.2275 55.7026 56.0596 55.7026 55.8525C55.7026 55.6454 55.5347 55.4775 55.3276 55.4775C55.1205 55.4775 54.9526 55.6454 54.9526 55.8525C54.9526 56.0596 55.1205 56.2275 55.3276 56.2275Z" fill="#383A48"/>
<path d="M55.3276 58.0798C55.5347 58.0798 55.7026 57.9119 55.7026 57.7048C55.7026 57.4977 55.5347 57.3298 55.3276 57.3298C55.1205 57.3298 54.9526 57.4977 54.9526 57.7048C54.9526 57.9119 55.1205 58.0798 55.3276 58.0798Z" fill="#383A48"/>
<path d="M55.3276 59.9324C55.5347 59.9324 55.7026 59.7645 55.7026 59.5574C55.7026 59.3503 55.5347 59.1824 55.3276 59.1824C55.1205 59.1824 54.9526 59.3503 54.9526 59.5574C54.9526 59.7645 55.1205 59.9324 55.3276 59.9324Z" fill="#383A48"/>
<path d="M55.3276 61.7773C55.5347 61.7773 55.7026 61.6095 55.7026 61.4023C55.7026 61.1952 55.5347 61.0273 55.3276 61.0273C55.1205 61.0273 54.9526 61.1952 54.9526 61.4023C54.9526 61.6095 55.1205 61.7773 55.3276 61.7773Z" fill="#383A48"/>
<path d="M55.3276 63.6299C55.5347 63.6299 55.7026 63.462 55.7026 63.2549C55.7026 63.0478 55.5347 62.8799 55.3276 62.8799C55.1205 62.8799 54.9526 63.0478 54.9526 63.2549C54.9526 63.462 55.1205 63.6299 55.3276 63.6299Z" fill="#383A48"/>
<path d="M55.3276 65.4824C55.5347 65.4824 55.7026 65.3145 55.7026 65.1074C55.7026 64.9003 55.5347 64.7324 55.3276 64.7324C55.1205 64.7324 54.9526 64.9003 54.9526 65.1074C54.9526 65.3145 55.1205 65.4824 55.3276 65.4824Z" fill="#383A48"/>
<path d="M55.3276 67.3274C55.5347 67.3274 55.7026 67.1595 55.7026 66.9524C55.7026 66.7453 55.5347 66.5774 55.3276 66.5774C55.1205 66.5774 54.9526 66.7453 54.9526 66.9524C54.9526 67.1595 55.1205 67.3274 55.3276 67.3274Z" fill="#383A48"/>
<path d="M55.3276 69.1799C55.5347 69.1799 55.7026 69.012 55.7026 68.8049C55.7026 68.5978 55.5347 68.4299 55.3276 68.4299C55.1205 68.4299 54.9526 68.5978 54.9526 68.8049C54.9526 69.012 55.1205 69.1799 55.3276 69.1799Z" fill="#383A48"/>
<path d="M55.3276 71.0325C55.5347 71.0325 55.7026 70.8646 55.7026 70.6575C55.7026 70.4504 55.5347 70.2825 55.3276 70.2825C55.1205 70.2825 54.9526 70.4504 54.9526 70.6575C54.9526 70.8646 55.1205 71.0325 55.3276 71.0325Z" fill="#383A48"/>
<path d="M55.3276 72.8774C55.5347 72.8774 55.7026 72.7095 55.7026 72.5024C55.7026 72.2953 55.5347 72.1274 55.3276 72.1274C55.1205 72.1274 54.9526 72.2953 54.9526 72.5024C54.9526 72.7095 55.1205 72.8774 55.3276 72.8774Z" fill="#383A48"/>
<path d="M53.4824 37.7324C53.6895 37.7324 53.8574 37.5645 53.8574 37.3574C53.8574 37.1503 53.6895 36.9824 53.4824 36.9824C53.2753 36.9824 53.1074 37.1503 53.1074 37.3574C53.1074 37.5645 53.2753 37.7324 53.4824 37.7324Z" fill="#383A48"/>
<path d="M53.4824 39.5774C53.6895 39.5774 53.8574 39.4095 53.8574 39.2024C53.8574 38.9953 53.6895 38.8274 53.4824 38.8274C53.2753 38.8274 53.1074 38.9953 53.1074 39.2024C53.1074 39.4095 53.2753 39.5774 53.4824 39.5774Z" fill="#383A48"/>
<path d="M53.4824 41.4299C53.6895 41.4299 53.8574 41.262 53.8574 41.0549C53.8574 40.8478 53.6895 40.6799 53.4824 40.6799C53.2753 40.6799 53.1074 40.8478 53.1074 41.0549C53.1074 41.262 53.2753 41.4299 53.4824 41.4299Z" fill="#383A48"/>
<path d="M53.4824 43.2825C53.6895 43.2825 53.8574 43.1146 53.8574 42.9075C53.8574 42.7004 53.6895 42.5325 53.4824 42.5325C53.2753 42.5325 53.1074 42.7004 53.1074 42.9075C53.1074 43.1146 53.2753 43.2825 53.4824 43.2825Z" fill="#383A48"/>
<path d="M53.4824 45.1274C53.6895 45.1274 53.8574 44.9595 53.8574 44.7524C53.8574 44.5453 53.6895 44.3774 53.4824 44.3774C53.2753 44.3774 53.1074 44.5453 53.1074 44.7524C53.1074 44.9595 53.2753 45.1274 53.4824 45.1274Z" fill="#383A48"/>
<path d="M53.4824 46.98C53.6895 46.98 53.8574 46.8121 53.8574 46.605C53.8574 46.3979 53.6895 46.23 53.4824 46.23C53.2753 46.23 53.1074 46.3979 53.1074 46.605C53.1074 46.8121 53.2753 46.98 53.4824 46.98Z" fill="#383A48"/>
<path d="M53.4824 48.8325C53.6895 48.8325 53.8574 48.6646 53.8574 48.4575C53.8574 48.2504 53.6895 48.0825 53.4824 48.0825C53.2753 48.0825 53.1074 48.2504 53.1074 48.4575C53.1074 48.6646 53.2753 48.8325 53.4824 48.8325Z" fill="#383A48"/>
<path d="M53.4824 50.6775C53.6895 50.6775 53.8574 50.5096 53.8574 50.3025C53.8574 50.0954 53.6895 49.9275 53.4824 49.9275C53.2753 49.9275 53.1074 50.0954 53.1074 50.3025C53.1074 50.5096 53.2753 50.6775 53.4824 50.6775Z" fill="#383A48"/>
<path d="M53.4824 52.53C53.6895 52.53 53.8574 52.3621 53.8574 52.155C53.8574 51.9479 53.6895 51.78 53.4824 51.78C53.2753 51.78 53.1074 51.9479 53.1074 52.155C53.1074 52.3621 53.2753 52.53 53.4824 52.53Z" fill="#383A48"/>
<path d="M53.4824 54.3823C53.6895 54.3823 53.8574 54.2144 53.8574 54.0073C53.8574 53.8002 53.6895 53.6323 53.4824 53.6323C53.2753 53.6323 53.1074 53.8002 53.1074 54.0073C53.1074 54.2144 53.2753 54.3823 53.4824 54.3823Z" fill="#383A48"/>
<path d="M53.4824 56.2275C53.6895 56.2275 53.8574 56.0596 53.8574 55.8525C53.8574 55.6454 53.6895 55.4775 53.4824 55.4775C53.2753 55.4775 53.1074 55.6454 53.1074 55.8525C53.1074 56.0596 53.2753 56.2275 53.4824 56.2275Z" fill="#383A48"/>
<path d="M53.4824 58.0798C53.6895 58.0798 53.8574 57.9119 53.8574 57.7048C53.8574 57.4977 53.6895 57.3298 53.4824 57.3298C53.2753 57.3298 53.1074 57.4977 53.1074 57.7048C53.1074 57.9119 53.2753 58.0798 53.4824 58.0798Z" fill="#383A48"/>
<path d="M53.4824 59.9324C53.6895 59.9324 53.8574 59.7645 53.8574 59.5574C53.8574 59.3503 53.6895 59.1824 53.4824 59.1824C53.2753 59.1824 53.1074 59.3503 53.1074 59.5574C53.1074 59.7645 53.2753 59.9324 53.4824 59.9324Z" fill="#383A48"/>
<path d="M53.4824 61.7773C53.6895 61.7773 53.8574 61.6095 53.8574 61.4023C53.8574 61.1952 53.6895 61.0273 53.4824 61.0273C53.2753 61.0273 53.1074 61.1952 53.1074 61.4023C53.1074 61.6095 53.2753 61.7773 53.4824 61.7773Z" fill="#383A48"/>
<path d="M53.4824 63.6299C53.6895 63.6299 53.8574 63.462 53.8574 63.2549C53.8574 63.0478 53.6895 62.8799 53.4824 62.8799C53.2753 62.8799 53.1074 63.0478 53.1074 63.2549C53.1074 63.462 53.2753 63.6299 53.4824 63.6299Z" fill="#383A48"/>
<path d="M53.4824 65.4824C53.6895 65.4824 53.8574 65.3145 53.8574 65.1074C53.8574 64.9003 53.6895 64.7324 53.4824 64.7324C53.2753 64.7324 53.1074 64.9003 53.1074 65.1074C53.1074 65.3145 53.2753 65.4824 53.4824 65.4824Z" fill="#383A48"/>
<path d="M53.4824 67.3274C53.6895 67.3274 53.8574 67.1595 53.8574 66.9524C53.8574 66.7453 53.6895 66.5774 53.4824 66.5774C53.2753 66.5774 53.1074 66.7453 53.1074 66.9524C53.1074 67.1595 53.2753 67.3274 53.4824 67.3274Z" fill="#383A48"/>
<path d="M53.4824 69.1799C53.6895 69.1799 53.8574 69.012 53.8574 68.8049C53.8574 68.5978 53.6895 68.4299 53.4824 68.4299C53.2753 68.4299 53.1074 68.5978 53.1074 68.8049C53.1074 69.012 53.2753 69.1799 53.4824 69.1799Z" fill="#383A48"/>
<path d="M53.4824 71.0325C53.6895 71.0325 53.8574 70.8646 53.8574 70.6575C53.8574 70.4504 53.6895 70.2825 53.4824 70.2825C53.2753 70.2825 53.1074 70.4504 53.1074 70.6575C53.1074 70.8646 53.2753 71.0325 53.4824 71.0325Z" fill="#383A48"/>
<path d="M53.4824 72.8774C53.6895 72.8774 53.8574 72.7095 53.8574 72.5024C53.8574 72.2953 53.6895 72.1274 53.4824 72.1274C53.2753 72.1274 53.1074 72.2953 53.1074 72.5024C53.1074 72.7095 53.2753 72.8774 53.4824 72.8774Z" fill="#383A48"/>
<path d="M51.6299 37.7324C51.837 37.7324 52.0049 37.5645 52.0049 37.3574C52.0049 37.1503 51.837 36.9824 51.6299 36.9824C51.4228 36.9824 51.2549 37.1503 51.2549 37.3574C51.2549 37.5645 51.4228 37.7324 51.6299 37.7324Z" fill="#383A48"/>
<path d="M51.6299 39.5774C51.837 39.5774 52.0049 39.4095 52.0049 39.2024C52.0049 38.9953 51.837 38.8274 51.6299 38.8274C51.4228 38.8274 51.2549 38.9953 51.2549 39.2024C51.2549 39.4095 51.4228 39.5774 51.6299 39.5774Z" fill="#383A48"/>
<path d="M51.6299 41.4299C51.837 41.4299 52.0049 41.262 52.0049 41.0549C52.0049 40.8478 51.837 40.6799 51.6299 40.6799C51.4228 40.6799 51.2549 40.8478 51.2549 41.0549C51.2549 41.262 51.4228 41.4299 51.6299 41.4299Z" fill="#383A48"/>
<path d="M51.6299 43.2825C51.837 43.2825 52.0049 43.1146 52.0049 42.9075C52.0049 42.7004 51.837 42.5325 51.6299 42.5325C51.4228 42.5325 51.2549 42.7004 51.2549 42.9075C51.2549 43.1146 51.4228 43.2825 51.6299 43.2825Z" fill="#383A48"/>
<path d="M51.6299 45.1274C51.837 45.1274 52.0049 44.9595 52.0049 44.7524C52.0049 44.5453 51.837 44.3774 51.6299 44.3774C51.4228 44.3774 51.2549 44.5453 51.2549 44.7524C51.2549 44.9595 51.4228 45.1274 51.6299 45.1274Z" fill="#383A48"/>
<path d="M51.6299 46.98C51.837 46.98 52.0049 46.8121 52.0049 46.605C52.0049 46.3979 51.837 46.23 51.6299 46.23C51.4228 46.23 51.2549 46.3979 51.2549 46.605C51.2549 46.8121 51.4228 46.98 51.6299 46.98Z" fill="#383A48"/>
<path d="M51.6299 48.8325C51.837 48.8325 52.0049 48.6646 52.0049 48.4575C52.0049 48.2504 51.837 48.0825 51.6299 48.0825C51.4228 48.0825 51.2549 48.2504 51.2549 48.4575C51.2549 48.6646 51.4228 48.8325 51.6299 48.8325Z" fill="#383A48"/>
<path d="M51.6299 50.6775C51.837 50.6775 52.0049 50.5096 52.0049 50.3025C52.0049 50.0954 51.837 49.9275 51.6299 49.9275C51.4228 49.9275 51.2549 50.0954 51.2549 50.3025C51.2549 50.5096 51.4228 50.6775 51.6299 50.6775Z" fill="#383A48"/>
<path d="M51.6299 52.53C51.837 52.53 52.0049 52.3621 52.0049 52.155C52.0049 51.9479 51.837 51.78 51.6299 51.78C51.4228 51.78 51.2549 51.9479 51.2549 52.155C51.2549 52.3621 51.4228 52.53 51.6299 52.53Z" fill="#383A48"/>
<path d="M51.6299 54.3823C51.837 54.3823 52.0049 54.2144 52.0049 54.0073C52.0049 53.8002 51.837 53.6323 51.6299 53.6323C51.4228 53.6323 51.2549 53.8002 51.2549 54.0073C51.2549 54.2144 51.4228 54.3823 51.6299 54.3823Z" fill="#383A48"/>
<path d="M51.6299 56.2275C51.837 56.2275 52.0049 56.0596 52.0049 55.8525C52.0049 55.6454 51.837 55.4775 51.6299 55.4775C51.4228 55.4775 51.2549 55.6454 51.2549 55.8525C51.2549 56.0596 51.4228 56.2275 51.6299 56.2275Z" fill="#383A48"/>
<path d="M51.6299 58.0798C51.837 58.0798 52.0049 57.9119 52.0049 57.7048C52.0049 57.4977 51.837 57.3298 51.6299 57.3298C51.4228 57.3298 51.2549 57.4977 51.2549 57.7048C51.2549 57.9119 51.4228 58.0798 51.6299 58.0798Z" fill="#383A48"/>
<path d="M51.6299 59.9324C51.837 59.9324 52.0049 59.7645 52.0049 59.5574C52.0049 59.3503 51.837 59.1824 51.6299 59.1824C51.4228 59.1824 51.2549 59.3503 51.2549 59.5574C51.2549 59.7645 51.4228 59.9324 51.6299 59.9324Z" fill="#383A48"/>
<path d="M51.6299 61.7773C51.837 61.7773 52.0049 61.6095 52.0049 61.4023C52.0049 61.1952 51.837 61.0273 51.6299 61.0273C51.4228 61.0273 51.2549 61.1952 51.2549 61.4023C51.2549 61.6095 51.4228 61.7773 51.6299 61.7773Z" fill="#383A48"/>
<path d="M51.6299 63.6299C51.837 63.6299 52.0049 63.462 52.0049 63.2549C52.0049 63.0478 51.837 62.8799 51.6299 62.8799C51.4228 62.8799 51.2549 63.0478 51.2549 63.2549C51.2549 63.462 51.4228 63.6299 51.6299 63.6299Z" fill="#383A48"/>
<path d="M51.6299 65.4824C51.837 65.4824 52.0049 65.3145 52.0049 65.1074C52.0049 64.9003 51.837 64.7324 51.6299 64.7324C51.4228 64.7324 51.2549 64.9003 51.2549 65.1074C51.2549 65.3145 51.4228 65.4824 51.6299 65.4824Z" fill="#383A48"/>
<path d="M51.6299 67.3274C51.837 67.3274 52.0049 67.1595 52.0049 66.9524C52.0049 66.7453 51.837 66.5774 51.6299 66.5774C51.4228 66.5774 51.2549 66.7453 51.2549 66.9524C51.2549 67.1595 51.4228 67.3274 51.6299 67.3274Z" fill="#383A48"/>
<path d="M51.6299 69.1799C51.837 69.1799 52.0049 69.012 52.0049 68.8049C52.0049 68.5978 51.837 68.4299 51.6299 68.4299C51.4228 68.4299 51.2549 68.5978 51.2549 68.8049C51.2549 69.012 51.4228 69.1799 51.6299 69.1799Z" fill="#383A48"/>
<path d="M51.6299 71.0325C51.837 71.0325 52.0049 70.8646 52.0049 70.6575C52.0049 70.4504 51.837 70.2825 51.6299 70.2825C51.4228 70.2825 51.2549 70.4504 51.2549 70.6575C51.2549 70.8646 51.4228 71.0325 51.6299 71.0325Z" fill="#383A48"/>
<path d="M51.6299 72.8774C51.837 72.8774 52.0049 72.7095 52.0049 72.5024C52.0049 72.2953 51.837 72.1274 51.6299 72.1274C51.4228 72.1274 51.2549 72.2953 51.2549 72.5024C51.2549 72.7095 51.4228 72.8774 51.6299 72.8774Z" fill="#383A48"/>
<path d="M13.6051 24.6826C15.4483 24.6826 16.9426 23.1883 16.9426 21.3451C16.9426 19.5018 15.4483 18.0076 13.6051 18.0076C11.7618 18.0076 10.2676 19.5018 10.2676 21.3451C10.2676 23.1883 11.7618 24.6826 13.6051 24.6826Z" fill="#AAC6FC"/>
<path fill-rule="evenodd" clip-rule="evenodd" d="M9.89258 21.3451C9.89258 23.3926 11.5576 25.0576 13.6051 25.0576C15.6526 25.0576 17.3176 23.3926 17.3176 21.3451C17.3176 19.2976 15.6526 17.6326 13.6051 17.6326C11.5576 17.6326 9.89258 19.2976 9.89258 21.3451ZM10.6426 21.3451C10.6426 19.7101 11.9701 18.3826 13.6051 18.3826C15.2401 18.3826 16.5676 19.7101 16.5676 21.3451C16.5676 22.9801 15.2401 24.3076 13.6051 24.3076C11.9701 24.3076 10.6426 22.9801 10.6426 21.3451Z" fill="#383A48"/>
<path d="M87.9453 56.3175C87.7353 56.3175 87.5703 56.1525 87.5703 55.9425V54.5325C87.5703 54.3225 87.7353 54.1575 87.9453 54.1575C88.1553 54.1575 88.3203 54.3225 88.3203 54.5325V55.9425C88.3203 56.1525 88.1553 56.3175 87.9453 56.3175Z" fill="#383A48"/>
<path d="M87.9453 61.3724C87.7353 61.3724 87.5703 61.2074 87.5703 60.9974V59.5874C87.5703 59.3774 87.7353 59.2124 87.9453 59.2124C88.1553 59.2124 88.3203 59.3774 88.3203 59.5874V60.9974C88.3203 61.1999 88.1553 61.3724 87.9453 61.3724Z" fill="#383A48"/>
<path d="M86.1229 58.1399H84.7129C84.5029 58.1399 84.3379 57.9749 84.3379 57.7649C84.3379 57.5549 84.5029 57.3899 84.7129 57.3899H86.1229C86.3329 57.3899 86.4979 57.5549 86.4979 57.7649C86.4979 57.9749 86.3329 58.1399 86.1229 58.1399Z" fill="#383A48"/>
<path d="M91.1781 58.1399H89.7681C89.5581 58.1399 89.3931 57.9749 89.3931 57.7649C89.3931 57.5549 89.5581 57.3899 89.7681 57.3899H91.1781C91.3881 57.3899 91.5531 57.5549 91.5531 57.7649C91.5531 57.9749 91.3806 58.1399 91.1781 58.1399Z" fill="#383A48"/>
<path d="M86.6552 56.85C86.5577 56.85 86.4602 56.8125 86.3927 56.7375L85.3952 55.74C85.2452 55.59 85.2452 55.3575 85.3952 55.2075C85.5452 55.0575 85.7777 55.0575 85.9277 55.2075L86.9252 56.205C87.0752 56.355 87.0752 56.5875 86.9252 56.7375C86.8502 56.82 86.7527 56.85 86.6552 56.85Z" fill="#383A48"/>
<path d="M90.2328 60.4274C90.1353 60.4274 90.0378 60.3899 89.9703 60.3149L88.9729 59.3174C88.8229 59.1674 88.8229 58.9349 88.9729 58.7849C89.1229 58.6349 89.3554 58.6349 89.5054 58.7849L90.5028 59.7824C90.6528 59.9324 90.6528 60.1649 90.5028 60.3149C90.4203 60.3899 90.3228 60.4274 90.2328 60.4274Z" fill="#383A48"/>
<path d="M85.6655 60.4274C85.568 60.4274 85.4705 60.3899 85.403 60.3149C85.253 60.1649 85.253 59.9324 85.403 59.7824L86.4005 58.7849C86.5505 58.6349 86.783 58.6349 86.933 58.7849C87.083 58.9349 87.083 59.1674 86.933 59.3174L85.9355 60.3149C85.853 60.3899 85.763 60.4274 85.6655 60.4274Z" fill="#383A48"/>
<path d="M89.2354 56.85C89.1379 56.85 89.0404 56.8125 88.9729 56.7375C88.8229 56.5875 88.8229 56.355 88.9729 56.205L89.9703 55.2075C90.1203 55.0575 90.3528 55.0575 90.5028 55.2075C90.6528 55.3575 90.6528 55.59 90.5028 55.74L89.5054 56.7375C89.4229 56.82 89.3329 56.85 89.2354 56.85Z" fill="#383A48"/>
<path d="M81.4728 32.9099C79.3053 32.9099 77.2353 31.8599 75.9528 30.1124C75.9453 30.1049 75.9453 30.1049 75.9453 30.0974L75.5778 29.5349C75.4653 29.3624 75.5103 29.1299 75.6828 29.0174C75.8553 28.9049 76.0878 28.9499 76.2003 29.1224L76.5603 29.6774C77.7078 31.2374 79.5453 32.1599 81.4728 32.1599C84.8328 32.1599 87.5703 29.4224 87.5703 26.0624C87.5703 24.7574 87.1653 23.5124 86.4003 22.4699L85.8153 21.7799C85.6803 21.6224 85.7028 21.3824 85.8603 21.2549C86.0178 21.1199 86.2578 21.1424 86.3853 21.2999L86.9778 21.9974C86.9853 22.0049 86.9853 22.0124 86.9928 22.0199C87.8628 23.1974 88.3203 24.5999 88.3203 26.0699C88.3203 29.8349 85.2528 32.9099 81.4728 32.9099Z" fill="#383A48"/>
<path d="M8.07757 55.6799C7.94257 55.6799 7.81507 55.6049 7.74757 55.4774C7.65007 55.2974 7.71757 55.0649 7.90507 54.9674L24.5251 46.1399C24.7051 46.0424 24.9376 46.1099 25.0351 46.2974C25.1326 46.4774 25.0651 46.7099 24.8776 46.8074L8.25007 55.6349C8.19757 55.6649 8.13757 55.6799 8.07757 55.6799Z" fill="#383A48"/>
<path d="M21.8929 60.8326C19.9429 60.8326 19.7929 58.9126 19.7929 58.3201C19.7929 58.1101 19.6279 57.9451 19.4179 57.9451C19.2079 57.9451 19.0429 58.1101 19.0429 58.3201C19.0429 58.9126 18.8929 60.8326 16.9429 60.8326C16.7329 60.8326 16.5679 60.9976 16.5679 61.2076C16.5679 61.4176 16.7329 61.5826 16.9429 61.5826C18.8929 61.5826 19.0429 63.5026 19.0429 64.0951C19.0429 64.3051 19.2079 64.4701 19.4179 64.4701C19.6279 64.4701 19.7929 64.3051 19.7929 64.0951C19.7929 63.5026 19.9429 61.5826 21.8929 61.5826C22.1029 61.5826 22.2679 61.4176 22.2679 61.2076C22.2679 60.9976 22.0954 60.8326 21.8929 60.8326Z" fill="#F6E049"/>
</svg>
