<svg width="96" height="96" viewBox="0 0 96 96" fill="none" xmlns="http://www.w3.org/2000/svg">
<path fill-rule="evenodd" clip-rule="evenodd" d="M55.1051 90.1427C79.1845 90.1427 73.1101 76.0939 86.7956 49.4093C100.481 22.7247 72.6849 6.01147 48.6055 6.01147C24.5261 6.01147 4.68286 19.3955 4.68286 43.4749C4.68286 67.5543 31.0256 90.1427 55.1051 90.1427Z" fill="#D74781"/>
<mask id="mask0_138_2781" style="mask-type:luminance" maskUnits="userSpaceOnUse" x="4" y="6" width="87" height="85">
<path fill-rule="evenodd" clip-rule="evenodd" d="M55.1051 90.1427C79.1845 90.1427 73.1101 76.0939 86.7956 49.4093C100.481 22.7247 72.6849 6.01147 48.6055 6.01147C24.5261 6.01147 4.68286 19.3955 4.68286 43.4749C4.68286 67.5543 31.0256 90.1427 55.1051 90.1427Z" fill="white"/>
</mask>
<g mask="url(#mask0_138_2781)">
<path d="M76.5189 5.84998H0.640958C0.322764 5.84998 0.0727539 6.10023 0.0727539 6.41874V58.0853C0.0727539 58.3469 0.243215 58.563 0.493225 58.6313C0.538681 58.6426 0.595501 58.654 0.640958 58.654C0.834147 58.654 1.02734 58.5516 1.12961 58.3696C1.17507 58.29 5.83434 50.4297 12.5505 42.2167C16.4825 37.405 20.3349 33.4123 24.0055 30.3637C28.5511 26.5757 32.8126 24.2438 36.6651 23.4134C48.4155 20.8881 52.4157 17.3731 55.9499 14.2677C59.8819 10.8096 63.2684 7.82927 76.5643 6.9875C76.8712 6.96475 77.1098 6.7145 77.0984 6.40736C77.0757 6.10023 76.8257 5.84998 76.5189 5.84998Z" fill="#F3F6E6"/>
</g>
<rect x="94.2236" y="56.5065" width="0.807404" height="2.66443" fill="#383A48"/>
<rect x="93.2952" y="57.4269" width="2.66442" height="0.807404" fill="#383A48"/>
<rect x="12.5549" y="76.6188" width="0.8074" height="2.66442" fill="#383A48"/>
<rect x="11.6265" y="77.5392" width="2.66442" height="0.807404" fill="#383A48"/>
<path d="M31.3028 49.8131C38.8477 49.8131 44.9641 43.6967 44.9641 36.1518C44.9641 28.6069 38.8477 22.4906 31.3028 22.4906C23.7579 22.4906 17.6416 28.6069 17.6416 36.1518C17.6416 43.6967 23.7579 49.8131 31.3028 49.8131Z" fill="#F6E049"/>
<path fill-rule="evenodd" clip-rule="evenodd" d="M17.238 36.1518C17.238 43.911 23.5438 50.2168 31.303 50.2168C39.054 50.2168 45.3679 43.911 45.3679 36.1518C45.3679 28.3927 39.0621 22.0869 31.303 22.0869C23.5438 22.0869 17.238 28.3927 17.238 36.1518ZM18.0455 36.1519C18.0455 28.8449 23.996 22.8943 31.303 22.8943C38.61 22.8943 44.5605 28.8449 44.5605 36.1519C44.5605 43.4589 38.61 49.4094 31.303 49.4094C23.996 49.4094 18.0455 43.4589 18.0455 36.1519Z" fill="#383A48"/>
<path d="M26.9348 35.627C27.7419 35.627 28.3962 34.9727 28.3962 34.1656C28.3962 33.3585 27.7419 32.7042 26.9348 32.7042C26.1277 32.7042 25.4734 33.3585 25.4734 34.1656C25.4734 34.9727 26.1277 35.627 26.9348 35.627Z" fill="#383A48"/>
<path d="M35.6709 35.627C36.478 35.627 37.1323 34.9727 37.1323 34.1656C37.1323 33.3585 36.478 32.7042 35.6709 32.7042C34.8638 32.7042 34.2095 33.3585 34.2095 34.1656C34.2095 34.9727 34.8638 35.627 35.6709 35.627Z" fill="#383A48"/>
<path d="M35.671 39.446H26.935C26.7089 39.446 26.5312 39.2683 26.5312 39.0423C26.5312 38.8162 26.7089 38.6385 26.935 38.6385H35.671C35.8971 38.6385 36.0747 38.8162 36.0747 39.0423C36.0747 39.2683 35.889 39.446 35.671 39.446Z" fill="#383A48"/>
<path d="M31.3028 63.878C38.8477 63.878 44.9641 57.7617 44.9641 50.2168C44.9641 42.6719 38.8477 36.5555 31.3028 36.5555C23.7579 36.5555 17.6416 42.6719 17.6416 50.2168C17.6416 57.7617 23.7579 63.878 31.3028 63.878Z" fill="#F6E049"/>
<path fill-rule="evenodd" clip-rule="evenodd" d="M17.238 50.2168C17.238 57.9759 23.5438 64.2817 31.303 64.2817C39.054 64.2817 45.3679 57.9759 45.3679 50.2168C45.3679 42.4577 39.0621 36.1519 31.303 36.1519C23.5438 36.1519 17.238 42.4577 17.238 50.2168ZM18.0455 50.2168C18.0455 42.9098 23.996 36.9593 31.303 36.9593C38.61 36.9593 44.5605 42.9098 44.5605 50.2168C44.5605 57.5238 38.61 63.4743 31.303 63.4743C23.996 63.4743 18.0455 57.5238 18.0455 50.2168Z" fill="#383A48"/>
<path d="M26.9348 49.692C27.7419 49.692 28.3962 49.0377 28.3962 48.2306C28.3962 47.4235 27.7419 46.7692 26.9348 46.7692C26.1277 46.7692 25.4734 47.4235 25.4734 48.2306C25.4734 49.0377 26.1277 49.692 26.9348 49.692Z" fill="#383A48"/>
<path d="M35.6709 49.692C36.478 49.692 37.1323 49.0377 37.1323 48.2306C37.1323 47.4235 36.478 46.7692 35.6709 46.7692C34.8638 46.7692 34.2095 47.4235 34.2095 48.2306C34.2095 49.0377 34.8638 49.692 35.6709 49.692Z" fill="#383A48"/>
<path d="M35.671 53.511H26.935C26.7089 53.511 26.5312 53.3334 26.5312 53.1073C26.5312 52.8812 26.7089 52.7036 26.935 52.7036H35.671C35.8971 52.7036 36.0747 52.8812 36.0747 53.1073C36.0747 53.3334 35.889 53.511 35.671 53.511Z" fill="#383A48"/>
<path d="M31.3028 77.9429C38.8477 77.9429 44.9641 71.8266 44.9641 64.2817C44.9641 56.7368 38.8477 50.6205 31.3028 50.6205C23.7579 50.6205 17.6416 56.7368 17.6416 64.2817C17.6416 71.8266 23.7579 77.9429 31.3028 77.9429Z" fill="#F6E049"/>
<path fill-rule="evenodd" clip-rule="evenodd" d="M17.238 64.2817C17.238 72.0409 23.5438 78.3467 31.303 78.3467C39.054 78.3467 45.3679 72.0409 45.3679 64.2817C45.3679 56.5226 39.0621 50.2168 31.303 50.2168C23.5438 50.2168 17.238 56.5226 17.238 64.2817ZM18.0455 64.2818C18.0455 56.9748 23.996 51.0242 31.303 51.0242C38.61 51.0242 44.5605 56.9748 44.5605 64.2818C44.5605 71.5887 38.61 77.5393 31.303 77.5393C23.996 77.5393 18.0455 71.5887 18.0455 64.2818Z" fill="#383A48"/>
<path d="M26.9348 63.7569C27.7419 63.7569 28.3962 63.1026 28.3962 62.2955C28.3962 61.4884 27.7419 60.8341 26.9348 60.8341C26.1277 60.8341 25.4734 61.4884 25.4734 62.2955C25.4734 63.1026 26.1277 63.7569 26.9348 63.7569Z" fill="#383A48"/>
<path d="M35.6709 63.7569C36.478 63.7569 37.1323 63.1026 37.1323 62.2955C37.1323 61.4884 36.478 60.8341 35.6709 60.8341C34.8638 60.8341 34.2095 61.4884 34.2095 62.2955C34.2095 63.1026 34.8638 63.7569 35.6709 63.7569Z" fill="#383A48"/>
<path d="M35.671 67.5758C35.671 67.5758 33.8302 69.1099 31.1657 69.1099C28.5013 69.1099 26.935 67.5758 26.935 67.5758C26.7089 67.5758 26.5312 67.3982 26.5312 67.1721C26.5312 66.9461 26.7089 66.7684 26.935 66.7684C26.935 66.7684 28.7839 68.3025 31.1657 68.3025C33.5476 68.3025 35.671 66.7684 35.671 66.7684C35.8971 66.7684 36.0747 66.9461 36.0747 67.1721C36.0747 67.3982 35.889 67.5758 35.671 67.5758Z" fill="#383A48"/>
<path d="M82.589 50.3782C82.812 50.3782 82.9927 50.1975 82.9927 49.9745C82.9927 49.7515 82.812 49.5708 82.589 49.5708C82.366 49.5708 82.1853 49.7515 82.1853 49.9745C82.1853 50.1975 82.366 50.3782 82.589 50.3782Z" fill="#383A48"/>
<path d="M82.589 52.3725C82.812 52.3725 82.9927 52.1917 82.9927 51.9688C82.9927 51.7458 82.812 51.5651 82.589 51.5651C82.366 51.5651 82.1853 51.7458 82.1853 51.9688C82.1853 52.1917 82.366 52.3725 82.589 52.3725Z" fill="#383A48"/>
<path d="M82.589 54.3587C82.812 54.3587 82.9927 54.1779 82.9927 53.955C82.9927 53.732 82.812 53.5513 82.589 53.5513C82.366 53.5513 82.1853 53.732 82.1853 53.955C82.1853 54.1779 82.366 54.3587 82.589 54.3587Z" fill="#383A48"/>
<path d="M82.589 56.3531C82.812 56.3531 82.9927 56.1723 82.9927 55.9494C82.9927 55.7264 82.812 55.5457 82.589 55.5457C82.366 55.5457 82.1853 55.7264 82.1853 55.9494C82.1853 56.1723 82.366 56.3531 82.589 56.3531Z" fill="#383A48"/>
<path d="M82.589 58.3473C82.812 58.3473 82.9927 58.1666 82.9927 57.9436C82.9927 57.7207 82.812 57.5399 82.589 57.5399C82.366 57.5399 82.1853 57.7207 82.1853 57.9436C82.1853 58.1666 82.366 58.3473 82.589 58.3473Z" fill="#383A48"/>
<path d="M82.589 60.3335C82.812 60.3335 82.9927 60.1528 82.9927 59.9298C82.9927 59.7069 82.812 59.5261 82.589 59.5261C82.366 59.5261 82.1853 59.7069 82.1853 59.9298C82.1853 60.1528 82.366 60.3335 82.589 60.3335Z" fill="#383A48"/>
<path d="M82.589 62.3278C82.812 62.3278 82.9927 62.147 82.9927 61.9241C82.9927 61.7011 82.812 61.5204 82.589 61.5204C82.366 61.5204 82.1853 61.7011 82.1853 61.9241C82.1853 62.147 82.366 62.3278 82.589 62.3278Z" fill="#383A48"/>
<path d="M82.589 64.322C82.812 64.322 82.9927 64.1413 82.9927 63.9183C82.9927 63.6954 82.812 63.5146 82.589 63.5146C82.366 63.5146 82.1853 63.6954 82.1853 63.9183C82.1853 64.1413 82.366 64.322 82.589 64.322Z" fill="#383A48"/>
<path d="M82.589 66.3083C82.812 66.3083 82.9927 66.1275 82.9927 65.9046C82.9927 65.6816 82.812 65.5009 82.589 65.5009C82.366 65.5009 82.1853 65.6816 82.1853 65.9046C82.1853 66.1275 82.366 66.3083 82.589 66.3083Z" fill="#383A48"/>
<path d="M80.5946 50.3782C80.8176 50.3782 80.9983 50.1975 80.9983 49.9745C80.9983 49.7515 80.8176 49.5708 80.5946 49.5708C80.3717 49.5708 80.1909 49.7515 80.1909 49.9745C80.1909 50.1975 80.3717 50.3782 80.5946 50.3782Z" fill="#383A48"/>
<path d="M80.5946 52.3725C80.8176 52.3725 80.9983 52.1917 80.9983 51.9688C80.9983 51.7458 80.8176 51.5651 80.5946 51.5651C80.3717 51.5651 80.1909 51.7458 80.1909 51.9688C80.1909 52.1917 80.3717 52.3725 80.5946 52.3725Z" fill="#383A48"/>
<path d="M80.5946 54.3587C80.8176 54.3587 80.9983 54.1779 80.9983 53.955C80.9983 53.732 80.8176 53.5513 80.5946 53.5513C80.3717 53.5513 80.1909 53.732 80.1909 53.955C80.1909 54.1779 80.3717 54.3587 80.5946 54.3587Z" fill="#383A48"/>
<path d="M80.5946 56.3531C80.8176 56.3531 80.9983 56.1723 80.9983 55.9494C80.9983 55.7264 80.8176 55.5457 80.5946 55.5457C80.3717 55.5457 80.1909 55.7264 80.1909 55.9494C80.1909 56.1723 80.3717 56.3531 80.5946 56.3531Z" fill="#383A48"/>
<path d="M80.5946 58.3473C80.8176 58.3473 80.9983 58.1666 80.9983 57.9436C80.9983 57.7207 80.8176 57.5399 80.5946 57.5399C80.3717 57.5399 80.1909 57.7207 80.1909 57.9436C80.1909 58.1666 80.3717 58.3473 80.5946 58.3473Z" fill="#383A48"/>
<path d="M80.5946 60.3335C80.8176 60.3335 80.9983 60.1528 80.9983 59.9298C80.9983 59.7069 80.8176 59.5261 80.5946 59.5261C80.3717 59.5261 80.1909 59.7069 80.1909 59.9298C80.1909 60.1528 80.3717 60.3335 80.5946 60.3335Z" fill="#383A48"/>
<path d="M80.5946 62.3278C80.8176 62.3278 80.9983 62.147 80.9983 61.9241C80.9983 61.7011 80.8176 61.5204 80.5946 61.5204C80.3717 61.5204 80.1909 61.7011 80.1909 61.9241C80.1909 62.147 80.3717 62.3278 80.5946 62.3278Z" fill="#383A48"/>
<path d="M80.5946 64.322C80.8176 64.322 80.9983 64.1413 80.9983 63.9183C80.9983 63.6954 80.8176 63.5146 80.5946 63.5146C80.3717 63.5146 80.1909 63.6954 80.1909 63.9183C80.1909 64.1413 80.3717 64.322 80.5946 64.322Z" fill="#383A48"/>
<path d="M80.5946 66.3083C80.8176 66.3083 80.9983 66.1275 80.9983 65.9046C80.9983 65.6816 80.8176 65.5009 80.5946 65.5009C80.3717 65.5009 80.1909 65.6816 80.1909 65.9046C80.1909 66.1275 80.3717 66.3083 80.5946 66.3083Z" fill="#383A48"/>
<path d="M80.5946 68.3025C80.8176 68.3025 80.9983 68.1218 80.9983 67.8988C80.9983 67.6759 80.8176 67.4951 80.5946 67.4951C80.3717 67.4951 80.1909 67.6759 80.1909 67.8988C80.1909 68.1218 80.3717 68.3025 80.5946 68.3025Z" fill="#383A48"/>
<path d="M78.6005 50.3782C78.8234 50.3782 79.0042 50.1975 79.0042 49.9745C79.0042 49.7515 78.8234 49.5708 78.6005 49.5708C78.3775 49.5708 78.1968 49.7515 78.1968 49.9745C78.1968 50.1975 78.3775 50.3782 78.6005 50.3782Z" fill="#383A48"/>
<path d="M78.6005 52.3725C78.8234 52.3725 79.0042 52.1917 79.0042 51.9688C79.0042 51.7458 78.8234 51.5651 78.6005 51.5651C78.3775 51.5651 78.1968 51.7458 78.1968 51.9688C78.1968 52.1917 78.3775 52.3725 78.6005 52.3725Z" fill="#383A48"/>
<path d="M78.6005 54.3587C78.8234 54.3587 79.0042 54.1779 79.0042 53.955C79.0042 53.732 78.8234 53.5513 78.6005 53.5513C78.3775 53.5513 78.1968 53.732 78.1968 53.955C78.1968 54.1779 78.3775 54.3587 78.6005 54.3587Z" fill="#383A48"/>
<path d="M78.6005 56.3531C78.8234 56.3531 79.0042 56.1723 79.0042 55.9494C79.0042 55.7264 78.8234 55.5457 78.6005 55.5457C78.3775 55.5457 78.1968 55.7264 78.1968 55.9494C78.1968 56.1723 78.3775 56.3531 78.6005 56.3531Z" fill="#383A48"/>
<path d="M78.6005 58.3473C78.8234 58.3473 79.0042 58.1666 79.0042 57.9436C79.0042 57.7207 78.8234 57.5399 78.6005 57.5399C78.3775 57.5399 78.1968 57.7207 78.1968 57.9436C78.1968 58.1666 78.3775 58.3473 78.6005 58.3473Z" fill="#383A48"/>
<path d="M78.6005 60.3335C78.8234 60.3335 79.0042 60.1528 79.0042 59.9298C79.0042 59.7069 78.8234 59.5261 78.6005 59.5261C78.3775 59.5261 78.1968 59.7069 78.1968 59.9298C78.1968 60.1528 78.3775 60.3335 78.6005 60.3335Z" fill="#383A48"/>
<path d="M78.6005 62.3278C78.8234 62.3278 79.0042 62.147 79.0042 61.9241C79.0042 61.7011 78.8234 61.5204 78.6005 61.5204C78.3775 61.5204 78.1968 61.7011 78.1968 61.9241C78.1968 62.147 78.3775 62.3278 78.6005 62.3278Z" fill="#383A48"/>
<path d="M78.6005 64.322C78.8234 64.322 79.0042 64.1413 79.0042 63.9183C79.0042 63.6954 78.8234 63.5146 78.6005 63.5146C78.3775 63.5146 78.1968 63.6954 78.1968 63.9183C78.1968 64.1413 78.3775 64.322 78.6005 64.322Z" fill="#383A48"/>
<path d="M78.6005 66.3083C78.8234 66.3083 79.0042 66.1275 79.0042 65.9046C79.0042 65.6816 78.8234 65.5009 78.6005 65.5009C78.3775 65.5009 78.1968 65.6816 78.1968 65.9046C78.1968 66.1275 78.3775 66.3083 78.6005 66.3083Z" fill="#383A48"/>
<path d="M78.6005 68.3025C78.8234 68.3025 79.0042 68.1218 79.0042 67.8988C79.0042 67.6759 78.8234 67.4951 78.6005 67.4951C78.3775 67.4951 78.1968 67.6759 78.1968 67.8988C78.1968 68.1218 78.3775 68.3025 78.6005 68.3025Z" fill="#383A48"/>
<path d="M76.6141 50.3782C76.8371 50.3782 77.0178 50.1975 77.0178 49.9745C77.0178 49.7515 76.8371 49.5708 76.6141 49.5708C76.3912 49.5708 76.2104 49.7515 76.2104 49.9745C76.2104 50.1975 76.3912 50.3782 76.6141 50.3782Z" fill="#383A48"/>
<path d="M76.6141 52.3725C76.8371 52.3725 77.0178 52.1917 77.0178 51.9688C77.0178 51.7458 76.8371 51.5651 76.6141 51.5651C76.3912 51.5651 76.2104 51.7458 76.2104 51.9688C76.2104 52.1917 76.3912 52.3725 76.6141 52.3725Z" fill="#383A48"/>
<path d="M76.6141 54.3587C76.8371 54.3587 77.0178 54.1779 77.0178 53.955C77.0178 53.732 76.8371 53.5513 76.6141 53.5513C76.3912 53.5513 76.2104 53.732 76.2104 53.955C76.2104 54.1779 76.3912 54.3587 76.6141 54.3587Z" fill="#383A48"/>
<path d="M76.6141 56.3531C76.8371 56.3531 77.0178 56.1723 77.0178 55.9494C77.0178 55.7264 76.8371 55.5457 76.6141 55.5457C76.3912 55.5457 76.2104 55.7264 76.2104 55.9494C76.2104 56.1723 76.3912 56.3531 76.6141 56.3531Z" fill="#383A48"/>
<path d="M76.6141 58.3473C76.8371 58.3473 77.0178 58.1666 77.0178 57.9436C77.0178 57.7207 76.8371 57.5399 76.6141 57.5399C76.3912 57.5399 76.2104 57.7207 76.2104 57.9436C76.2104 58.1666 76.3912 58.3473 76.6141 58.3473Z" fill="#383A48"/>
<path d="M76.6141 60.3335C76.8371 60.3335 77.0178 60.1528 77.0178 59.9298C77.0178 59.7069 76.8371 59.5261 76.6141 59.5261C76.3912 59.5261 76.2104 59.7069 76.2104 59.9298C76.2104 60.1528 76.3912 60.3335 76.6141 60.3335Z" fill="#383A48"/>
<path d="M76.6141 62.3278C76.8371 62.3278 77.0178 62.147 77.0178 61.9241C77.0178 61.7011 76.8371 61.5204 76.6141 61.5204C76.3912 61.5204 76.2104 61.7011 76.2104 61.9241C76.2104 62.147 76.3912 62.3278 76.6141 62.3278Z" fill="#383A48"/>
<path d="M76.6141 64.322C76.8371 64.322 77.0178 64.1413 77.0178 63.9183C77.0178 63.6954 76.8371 63.5146 76.6141 63.5146C76.3912 63.5146 76.2104 63.6954 76.2104 63.9183C76.2104 64.1413 76.3912 64.322 76.6141 64.322Z" fill="#383A48"/>
<path d="M76.6141 66.3083C76.8371 66.3083 77.0178 66.1275 77.0178 65.9046C77.0178 65.6816 76.8371 65.5009 76.6141 65.5009C76.3912 65.5009 76.2104 65.6816 76.2104 65.9046C76.2104 66.1275 76.3912 66.3083 76.6141 66.3083Z" fill="#383A48"/>
<path d="M76.6141 68.3025C76.8371 68.3025 77.0178 68.1218 77.0178 67.8988C77.0178 67.6759 76.8371 67.4951 76.6141 67.4951C76.3912 67.4951 76.2104 67.6759 76.2104 67.8988C76.2104 68.1218 76.3912 68.3025 76.6141 68.3025Z" fill="#383A48"/>
<path d="M75.0203 50.0388C75.0561 49.8188 74.9066 49.6114 74.6865 49.5757C74.4664 49.54 74.2591 49.6894 74.2234 49.9095C74.1876 50.1296 74.3371 50.3369 74.5572 50.3727C74.7773 50.4084 74.9846 50.2589 75.0203 50.0388Z" fill="#383A48"/>
<path d="M75.0203 52.0331C75.0561 51.813 74.9066 51.6056 74.6865 51.5699C74.4664 51.5342 74.2591 51.6837 74.2234 51.9038C74.1876 52.1238 74.3371 52.3312 74.5572 52.3669C74.7773 52.4026 74.9846 52.2532 75.0203 52.0331Z" fill="#383A48"/>
<path d="M75.0204 54.0194C75.0561 53.7993 74.9066 53.592 74.6865 53.5563C74.4665 53.5205 74.2591 53.67 74.2234 53.8901C74.1876 54.1102 74.3371 54.3175 74.5572 54.3532C74.7773 54.389 74.9846 54.2395 75.0204 54.0194Z" fill="#383A48"/>
<path d="M75.0203 56.0137C75.0561 55.7936 74.9066 55.5862 74.6865 55.5505C74.4664 55.5148 74.2591 55.6643 74.2234 55.8843C74.1876 56.1044 74.3371 56.3118 74.5572 56.3475C74.7773 56.3832 74.9846 56.2338 75.0203 56.0137Z" fill="#383A48"/>
<path d="M75.0203 58.008C75.0561 57.7879 74.9066 57.5805 74.6865 57.5448C74.4664 57.5091 74.2591 57.6585 74.2234 57.8786C74.1876 58.0987 74.3371 58.3061 74.5572 58.3418C74.7773 58.3775 74.9846 58.228 75.0203 58.008Z" fill="#383A48"/>
<path d="M75.0206 59.9943C75.0563 59.7742 74.9069 59.5668 74.6868 59.5311C74.4667 59.4954 74.2593 59.6449 74.2236 59.8649C74.1879 60.085 74.3373 60.2924 74.5574 60.3281C74.7775 60.3638 74.9849 60.2144 75.0206 59.9943Z" fill="#383A48"/>
<path d="M75.0206 61.9885C75.0563 61.7685 74.9069 61.5611 74.6868 61.5254C74.4667 61.4897 74.2593 61.6391 74.2236 61.8592C74.1879 62.0793 74.3373 62.2866 74.5574 62.3224C74.7775 62.3581 74.9849 62.2086 75.0206 61.9885Z" fill="#383A48"/>
<path d="M75.0206 63.9829C75.0563 63.7628 74.9069 63.5555 74.6868 63.5198C74.4667 63.484 74.2593 63.6335 74.2236 63.8536C74.1879 64.0737 74.3373 64.281 74.5574 64.3167C74.7775 64.3525 74.9849 64.203 75.0206 63.9829Z" fill="#383A48"/>
<path d="M75.0206 65.9691C75.0563 65.7491 74.9069 65.5417 74.6868 65.506C74.4667 65.4703 74.2593 65.6197 74.2236 65.8398C74.1879 66.0599 74.3373 66.2672 74.5574 66.303C74.7775 66.3387 74.9849 66.1892 75.0206 65.9691Z" fill="#383A48"/>
<path d="M75.0206 67.9634C75.0563 67.7433 74.9069 67.5359 74.6868 67.5002C74.4667 67.4645 74.2593 67.614 74.2236 67.8341C74.1879 68.0541 74.3373 68.2615 74.5574 68.2972C74.7775 68.3329 74.9849 68.1835 75.0206 67.9634Z" fill="#383A48"/>
<path d="M72.6256 50.3782C72.8486 50.3782 73.0293 50.1975 73.0293 49.9745C73.0293 49.7515 72.8486 49.5708 72.6256 49.5708C72.4027 49.5708 72.2219 49.7515 72.2219 49.9745C72.2219 50.1975 72.4027 50.3782 72.6256 50.3782Z" fill="#383A48"/>
<path d="M72.6256 52.3725C72.8486 52.3725 73.0293 52.1917 73.0293 51.9688C73.0293 51.7458 72.8486 51.5651 72.6256 51.5651C72.4027 51.5651 72.2219 51.7458 72.2219 51.9688C72.2219 52.1917 72.4027 52.3725 72.6256 52.3725Z" fill="#383A48"/>
<path d="M72.6256 54.3587C72.8486 54.3587 73.0293 54.1779 73.0293 53.955C73.0293 53.732 72.8486 53.5513 72.6256 53.5513C72.4027 53.5513 72.2219 53.732 72.2219 53.955C72.2219 54.1779 72.4027 54.3587 72.6256 54.3587Z" fill="#383A48"/>
<path d="M72.6256 56.3531C72.8486 56.3531 73.0293 56.1723 73.0293 55.9494C73.0293 55.7264 72.8486 55.5457 72.6256 55.5457C72.4027 55.5457 72.2219 55.7264 72.2219 55.9494C72.2219 56.1723 72.4027 56.3531 72.6256 56.3531Z" fill="#383A48"/>
<path d="M72.6256 58.3473C72.8486 58.3473 73.0293 58.1666 73.0293 57.9436C73.0293 57.7207 72.8486 57.5399 72.6256 57.5399C72.4027 57.5399 72.2219 57.7207 72.2219 57.9436C72.2219 58.1666 72.4027 58.3473 72.6256 58.3473Z" fill="#383A48"/>
<path d="M72.6256 60.3335C72.8486 60.3335 73.0293 60.1528 73.0293 59.9298C73.0293 59.7069 72.8486 59.5261 72.6256 59.5261C72.4027 59.5261 72.2219 59.7069 72.2219 59.9298C72.2219 60.1528 72.4027 60.3335 72.6256 60.3335Z" fill="#383A48"/>
<path d="M72.6256 62.3278C72.8486 62.3278 73.0293 62.147 73.0293 61.9241C73.0293 61.7011 72.8486 61.5204 72.6256 61.5204C72.4027 61.5204 72.2219 61.7011 72.2219 61.9241C72.2219 62.147 72.4027 62.3278 72.6256 62.3278Z" fill="#383A48"/>
<path d="M72.6256 64.322C72.8486 64.322 73.0293 64.1413 73.0293 63.9183C73.0293 63.6954 72.8486 63.5146 72.6256 63.5146C72.4027 63.5146 72.2219 63.6954 72.2219 63.9183C72.2219 64.1413 72.4027 64.322 72.6256 64.322Z" fill="#383A48"/>
<path d="M72.6256 66.3083C72.8486 66.3083 73.0293 66.1275 73.0293 65.9046C73.0293 65.6816 72.8486 65.5009 72.6256 65.5009C72.4027 65.5009 72.2219 65.6816 72.2219 65.9046C72.2219 66.1275 72.4027 66.3083 72.6256 66.3083Z" fill="#383A48"/>
<path d="M72.6256 68.3025C72.8486 68.3025 73.0293 68.1218 73.0293 67.8988C73.0293 67.6759 72.8486 67.4951 72.6256 67.4951C72.4027 67.4951 72.2219 67.6759 72.2219 67.8988C72.2219 68.1218 72.4027 68.3025 72.6256 68.3025Z" fill="#383A48"/>
<path d="M70.6395 50.3782C70.8625 50.3782 71.0432 50.1975 71.0432 49.9745C71.0432 49.7515 70.8625 49.5708 70.6395 49.5708C70.4166 49.5708 70.2358 49.7515 70.2358 49.9745C70.2358 50.1975 70.4166 50.3782 70.6395 50.3782Z" fill="#383A48"/>
<path d="M70.6395 52.3725C70.8625 52.3725 71.0432 52.1917 71.0432 51.9688C71.0432 51.7458 70.8625 51.5651 70.6395 51.5651C70.4166 51.5651 70.2358 51.7458 70.2358 51.9688C70.2358 52.1917 70.4166 52.3725 70.6395 52.3725Z" fill="#383A48"/>
<path d="M70.6395 54.3587C70.8625 54.3587 71.0432 54.1779 71.0432 53.955C71.0432 53.732 70.8625 53.5513 70.6395 53.5513C70.4166 53.5513 70.2358 53.732 70.2358 53.955C70.2358 54.1779 70.4166 54.3587 70.6395 54.3587Z" fill="#383A48"/>
<path d="M70.6395 56.3531C70.8625 56.3531 71.0432 56.1723 71.0432 55.9494C71.0432 55.7264 70.8625 55.5457 70.6395 55.5457C70.4166 55.5457 70.2358 55.7264 70.2358 55.9494C70.2358 56.1723 70.4166 56.3531 70.6395 56.3531Z" fill="#383A48"/>
<path d="M70.6395 58.3473C70.8625 58.3473 71.0432 58.1666 71.0432 57.9436C71.0432 57.7207 70.8625 57.5399 70.6395 57.5399C70.4166 57.5399 70.2358 57.7207 70.2358 57.9436C70.2358 58.1666 70.4166 58.3473 70.6395 58.3473Z" fill="#383A48"/>
<path d="M70.6395 60.3335C70.8625 60.3335 71.0432 60.1528 71.0432 59.9298C71.0432 59.7069 70.8625 59.5261 70.6395 59.5261C70.4166 59.5261 70.2358 59.7069 70.2358 59.9298C70.2358 60.1528 70.4166 60.3335 70.6395 60.3335Z" fill="#383A48"/>
<path d="M70.6395 62.3278C70.8625 62.3278 71.0432 62.147 71.0432 61.9241C71.0432 61.7011 70.8625 61.5204 70.6395 61.5204C70.4166 61.5204 70.2358 61.7011 70.2358 61.9241C70.2358 62.147 70.4166 62.3278 70.6395 62.3278Z" fill="#383A48"/>
<path d="M70.6395 64.322C70.8625 64.322 71.0432 64.1413 71.0432 63.9183C71.0432 63.6954 70.8625 63.5146 70.6395 63.5146C70.4166 63.5146 70.2358 63.6954 70.2358 63.9183C70.2358 64.1413 70.4166 64.322 70.6395 64.322Z" fill="#383A48"/>
<path d="M70.6395 66.3083C70.8625 66.3083 71.0432 66.1275 71.0432 65.9046C71.0432 65.6816 70.8625 65.5009 70.6395 65.5009C70.4166 65.5009 70.2358 65.6816 70.2358 65.9046C70.2358 66.1275 70.4166 66.3083 70.6395 66.3083Z" fill="#383A48"/>
<path d="M70.6395 68.3025C70.8625 68.3025 71.0432 68.1218 71.0432 67.8988C71.0432 67.6759 70.8625 67.4951 70.6395 67.4951C70.4166 67.4951 70.2358 67.6759 70.2358 67.8988C70.2358 68.1218 70.4166 68.3025 70.6395 68.3025Z" fill="#383A48"/>
<path d="M68.6452 50.3782C68.8681 50.3782 69.0489 50.1975 69.0489 49.9745C69.0489 49.7515 68.8681 49.5708 68.6452 49.5708C68.4222 49.5708 68.2415 49.7515 68.2415 49.9745C68.2415 50.1975 68.4222 50.3782 68.6452 50.3782Z" fill="#383A48"/>
<path d="M68.6452 52.3725C68.8681 52.3725 69.0489 52.1917 69.0489 51.9688C69.0489 51.7458 68.8681 51.5651 68.6452 51.5651C68.4222 51.5651 68.2415 51.7458 68.2415 51.9688C68.2415 52.1917 68.4222 52.3725 68.6452 52.3725Z" fill="#383A48"/>
<path d="M68.6452 54.3587C68.8681 54.3587 69.0489 54.1779 69.0489 53.955C69.0489 53.732 68.8681 53.5513 68.6452 53.5513C68.4222 53.5513 68.2415 53.732 68.2415 53.955C68.2415 54.1779 68.4222 54.3587 68.6452 54.3587Z" fill="#383A48"/>
<path d="M68.6452 56.3531C68.8681 56.3531 69.0489 56.1723 69.0489 55.9494C69.0489 55.7264 68.8681 55.5457 68.6452 55.5457C68.4222 55.5457 68.2415 55.7264 68.2415 55.9494C68.2415 56.1723 68.4222 56.3531 68.6452 56.3531Z" fill="#383A48"/>
<path d="M68.6452 58.3473C68.8681 58.3473 69.0489 58.1666 69.0489 57.9436C69.0489 57.7207 68.8681 57.5399 68.6452 57.5399C68.4222 57.5399 68.2415 57.7207 68.2415 57.9436C68.2415 58.1666 68.4222 58.3473 68.6452 58.3473Z" fill="#383A48"/>
<path d="M68.6452 60.3335C68.8681 60.3335 69.0489 60.1528 69.0489 59.9298C69.0489 59.7069 68.8681 59.5261 68.6452 59.5261C68.4222 59.5261 68.2415 59.7069 68.2415 59.9298C68.2415 60.1528 68.4222 60.3335 68.6452 60.3335Z" fill="#383A48"/>
<path d="M68.6452 62.3278C68.8681 62.3278 69.0489 62.147 69.0489 61.9241C69.0489 61.7011 68.8681 61.5204 68.6452 61.5204C68.4222 61.5204 68.2415 61.7011 68.2415 61.9241C68.2415 62.147 68.4222 62.3278 68.6452 62.3278Z" fill="#383A48"/>
<path d="M68.6452 64.322C68.8681 64.322 69.0489 64.1413 69.0489 63.9183C69.0489 63.6954 68.8681 63.5146 68.6452 63.5146C68.4222 63.5146 68.2415 63.6954 68.2415 63.9183C68.2415 64.1413 68.4222 64.322 68.6452 64.322Z" fill="#383A48"/>
<path d="M68.6452 66.3083C68.8681 66.3083 69.0489 66.1275 69.0489 65.9046C69.0489 65.6816 68.8681 65.5009 68.6452 65.5009C68.4222 65.5009 68.2415 65.6816 68.2415 65.9046C68.2415 66.1275 68.4222 66.3083 68.6452 66.3083Z" fill="#383A48"/>
<path d="M68.6452 68.3025C68.8681 68.3025 69.0489 68.1218 69.0489 67.8988C69.0489 67.6759 68.8681 67.4951 68.6452 67.4951C68.4222 67.4951 68.2415 67.6759 68.2415 67.8988C68.2415 68.1218 68.4222 68.3025 68.6452 68.3025Z" fill="#383A48"/>
<path d="M66.651 50.3782C66.874 50.3782 67.0547 50.1975 67.0547 49.9745C67.0547 49.7515 66.874 49.5708 66.651 49.5708C66.4281 49.5708 66.2473 49.7515 66.2473 49.9745C66.2473 50.1975 66.4281 50.3782 66.651 50.3782Z" fill="#383A48"/>
<path d="M66.651 52.3725C66.874 52.3725 67.0547 52.1917 67.0547 51.9688C67.0547 51.7458 66.874 51.5651 66.651 51.5651C66.4281 51.5651 66.2473 51.7458 66.2473 51.9688C66.2473 52.1917 66.4281 52.3725 66.651 52.3725Z" fill="#383A48"/>
<path d="M66.651 54.3587C66.874 54.3587 67.0547 54.1779 67.0547 53.955C67.0547 53.732 66.874 53.5513 66.651 53.5513C66.4281 53.5513 66.2473 53.732 66.2473 53.955C66.2473 54.1779 66.4281 54.3587 66.651 54.3587Z" fill="#383A48"/>
<path d="M66.651 56.3531C66.874 56.3531 67.0547 56.1723 67.0547 55.9494C67.0547 55.7264 66.874 55.5457 66.651 55.5457C66.4281 55.5457 66.2473 55.7264 66.2473 55.9494C66.2473 56.1723 66.4281 56.3531 66.651 56.3531Z" fill="#383A48"/>
<path d="M66.651 58.3473C66.874 58.3473 67.0547 58.1666 67.0547 57.9436C67.0547 57.7207 66.874 57.5399 66.651 57.5399C66.4281 57.5399 66.2473 57.7207 66.2473 57.9436C66.2473 58.1666 66.4281 58.3473 66.651 58.3473Z" fill="#383A48"/>
<path d="M66.651 60.3335C66.874 60.3335 67.0547 60.1528 67.0547 59.9298C67.0547 59.7069 66.874 59.5261 66.651 59.5261C66.4281 59.5261 66.2473 59.7069 66.2473 59.9298C66.2473 60.1528 66.4281 60.3335 66.651 60.3335Z" fill="#383A48"/>
<path d="M66.651 62.3278C66.874 62.3278 67.0547 62.147 67.0547 61.9241C67.0547 61.7011 66.874 61.5204 66.651 61.5204C66.4281 61.5204 66.2473 61.7011 66.2473 61.9241C66.2473 62.147 66.4281 62.3278 66.651 62.3278Z" fill="#383A48"/>
<path d="M66.651 64.322C66.874 64.322 67.0547 64.1413 67.0547 63.9183C67.0547 63.6954 66.874 63.5146 66.651 63.5146C66.4281 63.5146 66.2473 63.6954 66.2473 63.9183C66.2473 64.1413 66.4281 64.322 66.651 64.322Z" fill="#383A48"/>
<path d="M66.651 66.3083C66.874 66.3083 67.0547 66.1275 67.0547 65.9046C67.0547 65.6816 66.874 65.5009 66.651 65.5009C66.4281 65.5009 66.2473 65.6816 66.2473 65.9046C66.2473 66.1275 66.4281 66.3083 66.651 66.3083Z" fill="#383A48"/>
<path d="M66.651 68.3025C66.874 68.3025 67.0547 68.1218 67.0547 67.8988C67.0547 67.6759 66.874 67.4951 66.651 67.4951C66.4281 67.4951 66.2473 67.6759 66.2473 67.8988C66.2473 68.1218 66.4281 68.3025 66.651 68.3025Z" fill="#383A48"/>
<path d="M64.6647 50.3782C64.8876 50.3782 65.0684 50.1975 65.0684 49.9745C65.0684 49.7515 64.8876 49.5708 64.6647 49.5708C64.4417 49.5708 64.261 49.7515 64.261 49.9745C64.261 50.1975 64.4417 50.3782 64.6647 50.3782Z" fill="#383A48"/>
<path d="M64.6647 52.3725C64.8876 52.3725 65.0684 52.1917 65.0684 51.9688C65.0684 51.7458 64.8876 51.5651 64.6647 51.5651C64.4417 51.5651 64.261 51.7458 64.261 51.9688C64.261 52.1917 64.4417 52.3725 64.6647 52.3725Z" fill="#383A48"/>
<path d="M64.6647 54.3587C64.8876 54.3587 65.0684 54.1779 65.0684 53.955C65.0684 53.732 64.8876 53.5513 64.6647 53.5513C64.4417 53.5513 64.261 53.732 64.261 53.955C64.261 54.1779 64.4417 54.3587 64.6647 54.3587Z" fill="#383A48"/>
<path d="M64.6647 56.3531C64.8876 56.3531 65.0684 56.1723 65.0684 55.9494C65.0684 55.7264 64.8876 55.5457 64.6647 55.5457C64.4417 55.5457 64.261 55.7264 64.261 55.9494C64.261 56.1723 64.4417 56.3531 64.6647 56.3531Z" fill="#383A48"/>
<path d="M64.6647 58.3473C64.8876 58.3473 65.0684 58.1666 65.0684 57.9436C65.0684 57.7207 64.8876 57.5399 64.6647 57.5399C64.4417 57.5399 64.261 57.7207 64.261 57.9436C64.261 58.1666 64.4417 58.3473 64.6647 58.3473Z" fill="#383A48"/>
<path d="M64.6647 60.3335C64.8876 60.3335 65.0684 60.1528 65.0684 59.9298C65.0684 59.7069 64.8876 59.5261 64.6647 59.5261C64.4417 59.5261 64.261 59.7069 64.261 59.9298C64.261 60.1528 64.4417 60.3335 64.6647 60.3335Z" fill="#383A48"/>
<path d="M64.6647 62.3278C64.8876 62.3278 65.0684 62.147 65.0684 61.9241C65.0684 61.7011 64.8876 61.5204 64.6647 61.5204C64.4417 61.5204 64.261 61.7011 64.261 61.9241C64.261 62.147 64.4417 62.3278 64.6647 62.3278Z" fill="#383A48"/>
<path d="M64.6647 64.322C64.8876 64.322 65.0684 64.1413 65.0684 63.9183C65.0684 63.6954 64.8876 63.5146 64.6647 63.5146C64.4417 63.5146 64.261 63.6954 64.261 63.9183C64.261 64.1413 64.4417 64.322 64.6647 64.322Z" fill="#383A48"/>
<path d="M64.6647 66.3083C64.8876 66.3083 65.0684 66.1275 65.0684 65.9046C65.0684 65.6816 64.8876 65.5009 64.6647 65.5009C64.4417 65.5009 64.261 65.6816 64.261 65.9046C64.261 66.1275 64.4417 66.3083 64.6647 66.3083Z" fill="#383A48"/>
<path d="M64.6647 68.3025C64.8876 68.3025 65.0684 68.1218 65.0684 67.8988C65.0684 67.6759 64.8876 67.4951 64.6647 67.4951C64.4417 67.4951 64.261 67.6759 64.261 67.8988C64.261 68.1218 64.4417 68.3025 64.6647 68.3025Z" fill="#383A48"/>
<path d="M62.6703 50.3782C62.8933 50.3782 63.074 50.1975 63.074 49.9745C63.074 49.7515 62.8933 49.5708 62.6703 49.5708C62.4473 49.5708 62.2666 49.7515 62.2666 49.9745C62.2666 50.1975 62.4473 50.3782 62.6703 50.3782Z" fill="#383A48"/>
<path d="M62.6703 52.3725C62.8933 52.3725 63.074 52.1917 63.074 51.9688C63.074 51.7458 62.8933 51.5651 62.6703 51.5651C62.4473 51.5651 62.2666 51.7458 62.2666 51.9688C62.2666 52.1917 62.4473 52.3725 62.6703 52.3725Z" fill="#383A48"/>
<path d="M62.6703 54.3587C62.8933 54.3587 63.074 54.1779 63.074 53.955C63.074 53.732 62.8933 53.5513 62.6703 53.5513C62.4473 53.5513 62.2666 53.732 62.2666 53.955C62.2666 54.1779 62.4473 54.3587 62.6703 54.3587Z" fill="#383A48"/>
<path d="M62.6703 56.3531C62.8933 56.3531 63.074 56.1723 63.074 55.9494C63.074 55.7264 62.8933 55.5457 62.6703 55.5457C62.4473 55.5457 62.2666 55.7264 62.2666 55.9494C62.2666 56.1723 62.4473 56.3531 62.6703 56.3531Z" fill="#383A48"/>
<path d="M62.6703 58.3473C62.8933 58.3473 63.074 58.1666 63.074 57.9436C63.074 57.7207 62.8933 57.5399 62.6703 57.5399C62.4473 57.5399 62.2666 57.7207 62.2666 57.9436C62.2666 58.1666 62.4473 58.3473 62.6703 58.3473Z" fill="#383A48"/>
<path d="M62.6703 60.3335C62.8933 60.3335 63.074 60.1528 63.074 59.9298C63.074 59.7069 62.8933 59.5261 62.6703 59.5261C62.4473 59.5261 62.2666 59.7069 62.2666 59.9298C62.2666 60.1528 62.4473 60.3335 62.6703 60.3335Z" fill="#383A48"/>
<path d="M62.6703 62.3278C62.8933 62.3278 63.074 62.147 63.074 61.9241C63.074 61.7011 62.8933 61.5204 62.6703 61.5204C62.4473 61.5204 62.2666 61.7011 62.2666 61.9241C62.2666 62.147 62.4473 62.3278 62.6703 62.3278Z" fill="#383A48"/>
<path d="M62.6703 64.322C62.8933 64.322 63.074 64.1413 63.074 63.9183C63.074 63.6954 62.8933 63.5146 62.6703 63.5146C62.4473 63.5146 62.2666 63.6954 62.2666 63.9183C62.2666 64.1413 62.4473 64.322 62.6703 64.322Z" fill="#383A48"/>
<path d="M62.6703 66.3083C62.8933 66.3083 63.074 66.1275 63.074 65.9046C63.074 65.6816 62.8933 65.5009 62.6703 65.5009C62.4473 65.5009 62.2666 65.6816 62.2666 65.9046C62.2666 66.1275 62.4473 66.3083 62.6703 66.3083Z" fill="#383A48"/>
<path d="M62.6703 68.3025C62.8933 68.3025 63.074 68.1218 63.074 67.8988C63.074 67.6759 62.8933 67.4951 62.6703 67.4951C62.4473 67.4951 62.2666 67.6759 62.2666 67.8988C62.2666 68.1218 62.4473 68.3025 62.6703 68.3025Z" fill="#383A48"/>
<path d="M60.6762 50.3782C60.8991 50.3782 61.0799 50.1975 61.0799 49.9745C61.0799 49.7515 60.8991 49.5708 60.6762 49.5708C60.4532 49.5708 60.2725 49.7515 60.2725 49.9745C60.2725 50.1975 60.4532 50.3782 60.6762 50.3782Z" fill="#383A48"/>
<path d="M60.6762 52.3725C60.8991 52.3725 61.0799 52.1917 61.0799 51.9688C61.0799 51.7458 60.8991 51.5651 60.6762 51.5651C60.4532 51.5651 60.2725 51.7458 60.2725 51.9688C60.2725 52.1917 60.4532 52.3725 60.6762 52.3725Z" fill="#383A48"/>
<path d="M60.6762 54.3587C60.8991 54.3587 61.0799 54.1779 61.0799 53.955C61.0799 53.732 60.8991 53.5513 60.6762 53.5513C60.4532 53.5513 60.2725 53.732 60.2725 53.955C60.2725 54.1779 60.4532 54.3587 60.6762 54.3587Z" fill="#383A48"/>
<path d="M60.6762 56.3531C60.8991 56.3531 61.0799 56.1723 61.0799 55.9494C61.0799 55.7264 60.8991 55.5457 60.6762 55.5457C60.4532 55.5457 60.2725 55.7264 60.2725 55.9494C60.2725 56.1723 60.4532 56.3531 60.6762 56.3531Z" fill="#383A48"/>
<path d="M60.6762 58.3473C60.8991 58.3473 61.0799 58.1666 61.0799 57.9436C61.0799 57.7207 60.8991 57.5399 60.6762 57.5399C60.4532 57.5399 60.2725 57.7207 60.2725 57.9436C60.2725 58.1666 60.4532 58.3473 60.6762 58.3473Z" fill="#383A48"/>
<path d="M60.6762 60.3335C60.8991 60.3335 61.0799 60.1528 61.0799 59.9298C61.0799 59.7069 60.8991 59.5261 60.6762 59.5261C60.4532 59.5261 60.2725 59.7069 60.2725 59.9298C60.2725 60.1528 60.4532 60.3335 60.6762 60.3335Z" fill="#383A48"/>
<path d="M60.6762 62.3278C60.8991 62.3278 61.0799 62.147 61.0799 61.9241C61.0799 61.7011 60.8991 61.5204 60.6762 61.5204C60.4532 61.5204 60.2725 61.7011 60.2725 61.9241C60.2725 62.147 60.4532 62.3278 60.6762 62.3278Z" fill="#383A48"/>
<path d="M60.6762 64.322C60.8991 64.322 61.0799 64.1413 61.0799 63.9183C61.0799 63.6954 60.8991 63.5146 60.6762 63.5146C60.4532 63.5146 60.2725 63.6954 60.2725 63.9183C60.2725 64.1413 60.4532 64.322 60.6762 64.322Z" fill="#383A48"/>
<path d="M60.6762 66.3083C60.8991 66.3083 61.0799 66.1275 61.0799 65.9046C61.0799 65.6816 60.8991 65.5009 60.6762 65.5009C60.4532 65.5009 60.2725 65.6816 60.2725 65.9046C60.2725 66.1275 60.4532 66.3083 60.6762 66.3083Z" fill="#383A48"/>
<path d="M60.6762 68.3025C60.8991 68.3025 61.0799 68.1218 61.0799 67.8988C61.0799 67.6759 60.8991 67.4951 60.6762 67.4951C60.4532 67.4951 60.2725 67.6759 60.2725 67.8988C60.2725 68.1218 60.4532 68.3025 60.6762 68.3025Z" fill="#383A48"/>
<path d="M58.6898 50.3782C58.9128 50.3782 59.0935 50.1975 59.0935 49.9745C59.0935 49.7515 58.9128 49.5708 58.6898 49.5708C58.4669 49.5708 58.2861 49.7515 58.2861 49.9745C58.2861 50.1975 58.4669 50.3782 58.6898 50.3782Z" fill="#383A48"/>
<path d="M58.6898 52.3725C58.9128 52.3725 59.0935 52.1917 59.0935 51.9688C59.0935 51.7458 58.9128 51.5651 58.6898 51.5651C58.4669 51.5651 58.2861 51.7458 58.2861 51.9688C58.2861 52.1917 58.4669 52.3725 58.6898 52.3725Z" fill="#383A48"/>
<path d="M58.6898 54.3587C58.9128 54.3587 59.0935 54.1779 59.0935 53.955C59.0935 53.732 58.9128 53.5513 58.6898 53.5513C58.4669 53.5513 58.2861 53.732 58.2861 53.955C58.2861 54.1779 58.4669 54.3587 58.6898 54.3587Z" fill="#383A48"/>
<path d="M58.6898 56.3531C58.9128 56.3531 59.0935 56.1723 59.0935 55.9494C59.0935 55.7264 58.9128 55.5457 58.6898 55.5457C58.4669 55.5457 58.2861 55.7264 58.2861 55.9494C58.2861 56.1723 58.4669 56.3531 58.6898 56.3531Z" fill="#383A48"/>
<path d="M58.6898 58.3473C58.9128 58.3473 59.0935 58.1666 59.0935 57.9436C59.0935 57.7207 58.9128 57.5399 58.6898 57.5399C58.4669 57.5399 58.2861 57.7207 58.2861 57.9436C58.2861 58.1666 58.4669 58.3473 58.6898 58.3473Z" fill="#383A48"/>
<path d="M58.6898 60.3335C58.9128 60.3335 59.0935 60.1528 59.0935 59.9298C59.0935 59.7069 58.9128 59.5261 58.6898 59.5261C58.4669 59.5261 58.2861 59.7069 58.2861 59.9298C58.2861 60.1528 58.4669 60.3335 58.6898 60.3335Z" fill="#383A48"/>
<path d="M58.6898 62.3278C58.9128 62.3278 59.0935 62.147 59.0935 61.9241C59.0935 61.7011 58.9128 61.5204 58.6898 61.5204C58.4669 61.5204 58.2861 61.7011 58.2861 61.9241C58.2861 62.147 58.4669 62.3278 58.6898 62.3278Z" fill="#383A48"/>
<path d="M58.6898 64.322C58.9128 64.322 59.0935 64.1413 59.0935 63.9183C59.0935 63.6954 58.9128 63.5146 58.6898 63.5146C58.4669 63.5146 58.2861 63.6954 58.2861 63.9183C58.2861 64.1413 58.4669 64.322 58.6898 64.322Z" fill="#383A48"/>
<path d="M58.6898 66.3083C58.9128 66.3083 59.0935 66.1275 59.0935 65.9046C59.0935 65.6816 58.9128 65.5009 58.6898 65.5009C58.4669 65.5009 58.2861 65.6816 58.2861 65.9046C58.2861 66.1275 58.4669 66.3083 58.6898 66.3083Z" fill="#383A48"/>
<path d="M58.6898 68.3025C58.9128 68.3025 59.0935 68.1218 59.0935 67.8988C59.0935 67.6759 58.9128 67.4951 58.6898 67.4951C58.4669 67.4951 58.2861 67.6759 58.2861 67.8988C58.2861 68.1218 58.4669 68.3025 58.6898 68.3025Z" fill="#383A48"/>
<path d="M56.6957 52.3725C56.9187 52.3725 57.0994 52.1917 57.0994 51.9688C57.0994 51.7458 56.9187 51.5651 56.6957 51.5651C56.4727 51.5651 56.292 51.7458 56.292 51.9688C56.292 52.1917 56.4727 52.3725 56.6957 52.3725Z" fill="#383A48"/>
<path d="M56.6957 54.3587C56.9187 54.3587 57.0994 54.1779 57.0994 53.955C57.0994 53.732 56.9187 53.5513 56.6957 53.5513C56.4727 53.5513 56.292 53.732 56.292 53.955C56.292 54.1779 56.4727 54.3587 56.6957 54.3587Z" fill="#383A48"/>
<path d="M56.6957 56.3531C56.9187 56.3531 57.0994 56.1723 57.0994 55.9494C57.0994 55.7264 56.9187 55.5457 56.6957 55.5457C56.4727 55.5457 56.292 55.7264 56.292 55.9494C56.292 56.1723 56.4727 56.3531 56.6957 56.3531Z" fill="#383A48"/>
<path d="M56.6957 58.3473C56.9187 58.3473 57.0994 58.1666 57.0994 57.9436C57.0994 57.7207 56.9187 57.5399 56.6957 57.5399C56.4727 57.5399 56.292 57.7207 56.292 57.9436C56.292 58.1666 56.4727 58.3473 56.6957 58.3473Z" fill="#383A48"/>
<path d="M56.6957 60.3335C56.9187 60.3335 57.0994 60.1528 57.0994 59.9298C57.0994 59.7069 56.9187 59.5261 56.6957 59.5261C56.4727 59.5261 56.292 59.7069 56.292 59.9298C56.292 60.1528 56.4727 60.3335 56.6957 60.3335Z" fill="#383A48"/>
<path d="M56.6957 62.3278C56.9187 62.3278 57.0994 62.147 57.0994 61.9241C57.0994 61.7011 56.9187 61.5204 56.6957 61.5204C56.4727 61.5204 56.292 61.7011 56.292 61.9241C56.292 62.147 56.4727 62.3278 56.6957 62.3278Z" fill="#383A48"/>
<path d="M56.6957 64.322C56.9187 64.322 57.0994 64.1413 57.0994 63.9183C57.0994 63.6954 56.9187 63.5146 56.6957 63.5146C56.4727 63.5146 56.292 63.6954 56.292 63.9183C56.292 64.1413 56.4727 64.322 56.6957 64.322Z" fill="#383A48"/>
<path d="M56.6957 66.3083C56.9187 66.3083 57.0994 66.1275 57.0994 65.9046C57.0994 65.6816 56.9187 65.5009 56.6957 65.5009C56.4727 65.5009 56.292 65.6816 56.292 65.9046C56.292 66.1275 56.4727 66.3083 56.6957 66.3083Z" fill="#383A48"/>
<path d="M56.6957 68.3025C56.9187 68.3025 57.0994 68.1218 57.0994 67.8988C57.0994 67.6759 56.9187 67.4951 56.6957 67.4951C56.4727 67.4951 56.292 67.6759 56.292 67.8988C56.292 68.1218 56.4727 68.3025 56.6957 68.3025Z" fill="#383A48"/>
<path d="M54.7013 62.3278C54.9243 62.3278 55.105 62.147 55.105 61.9241C55.105 61.7011 54.9243 61.5204 54.7013 61.5204C54.4783 61.5204 54.2976 61.7011 54.2976 61.9241C54.2976 62.147 54.4783 62.3278 54.7013 62.3278Z" fill="#383A48"/>
<path d="M54.7013 64.322C54.9243 64.322 55.105 64.1413 55.105 63.9183C55.105 63.6954 54.9243 63.5146 54.7013 63.5146C54.4783 63.5146 54.2976 63.6954 54.2976 63.9183C54.2976 64.1413 54.4783 64.322 54.7013 64.322Z" fill="#383A48"/>
<path d="M54.7013 66.3083C54.9243 66.3083 55.105 66.1275 55.105 65.9046C55.105 65.6816 54.9243 65.5009 54.7013 65.5009C54.4783 65.5009 54.2976 65.6816 54.2976 65.9046C54.2976 66.1275 54.4783 66.3083 54.7013 66.3083Z" fill="#383A48"/>
<path d="M54.7013 68.3025C54.9243 68.3025 55.105 68.1218 55.105 67.8988C55.105 67.6759 54.9243 67.4951 54.7013 67.4951C54.4783 67.4951 54.2976 67.6759 54.2976 67.8988C54.2976 68.1218 54.4783 68.3025 54.7013 68.3025Z" fill="#383A48"/>
<path d="M52.7152 64.322C52.9382 64.322 53.1189 64.1413 53.1189 63.9183C53.1189 63.6954 52.9382 63.5146 52.7152 63.5146C52.4923 63.5146 52.3115 63.6954 52.3115 63.9183C52.3115 64.1413 52.4923 64.322 52.7152 64.322Z" fill="#383A48"/>
<path d="M52.7152 66.3083C52.9382 66.3083 53.1189 66.1275 53.1189 65.9046C53.1189 65.6816 52.9382 65.5009 52.7152 65.5009C52.4923 65.5009 52.3115 65.6816 52.3115 65.9046C52.3115 66.1275 52.4923 66.3083 52.7152 66.3083Z" fill="#383A48"/>
<path d="M52.7152 68.3025C52.9382 68.3025 53.1189 68.1218 53.1189 67.8988C53.1189 67.6759 52.9382 67.4951 52.7152 67.4951C52.4923 67.4951 52.3115 67.6759 52.3115 67.8988C52.3115 68.1218 52.4923 68.3025 52.7152 68.3025Z" fill="#383A48"/>
<path d="M50.7208 66.3083C50.9438 66.3083 51.1245 66.1275 51.1245 65.9046C51.1245 65.6816 50.9438 65.5009 50.7208 65.5009C50.4979 65.5009 50.3171 65.6816 50.3171 65.9046C50.3171 66.1275 50.4979 66.3083 50.7208 66.3083Z" fill="#383A48"/>
<path d="M50.7208 68.3025C50.9438 68.3025 51.1245 68.1218 51.1245 67.8988C51.1245 67.6759 50.9438 67.4951 50.7208 67.4951C50.4979 67.4951 50.3171 67.6759 50.3171 67.8988C50.3171 68.1218 50.4979 68.3025 50.7208 68.3025Z" fill="#383A48"/>
<path d="M50.7208 70.2969C50.9438 70.2969 51.1245 70.1162 51.1245 69.8932C51.1245 69.6702 50.9438 69.4895 50.7208 69.4895C50.4979 69.4895 50.3171 69.6702 50.3171 69.8932C50.3171 70.1162 50.4979 70.2969 50.7208 70.2969Z" fill="#383A48"/>
<path d="M56.2596 49.2559V56.1996L50.1152 65.8642L56.2596 63.442L78.9314 63.5469C81.9026 63.5631 84.3248 61.157 84.3248 58.1858V49.2559C84.3248 46.2928 81.9188 43.8948 78.9637 43.8948H61.6288C58.6656 43.8867 56.2596 46.2928 56.2596 49.2559Z" fill="#D0D1E4"/>
<path fill-rule="evenodd" clip-rule="evenodd" d="M49.8004 66.1225C49.8811 66.2194 49.9941 66.2679 50.1152 66.2679C50.1718 66.2679 50.2202 66.2598 50.2687 66.2356L56.3403 63.8457L78.9395 63.9506C80.4816 63.9587 81.9349 63.3612 83.033 62.2712C84.123 61.1812 84.7285 59.7279 84.7285 58.1858V49.2559C84.7285 46.0828 82.1449 43.4911 78.9637 43.4911H61.6126C58.4396 43.4911 55.8478 46.0748 55.8478 49.2559V56.0785L49.7681 65.6462C49.6793 65.7996 49.6873 65.9853 49.8004 66.1225ZM56.6713 49.2479C56.6713 46.5189 58.8917 44.2904 61.6288 44.2904V44.2985H78.9637C81.6927 44.2985 83.9211 46.5189 83.9211 49.2559V58.1858C83.9211 59.518 83.4044 60.7695 82.4597 61.7061C81.5231 62.6427 80.2717 63.1594 78.9395 63.1513L56.2676 63.0464C56.2111 63.0464 56.1627 63.0544 56.1142 63.0706L51.1245 65.0326L56.6067 56.4095C56.6471 56.3449 56.6713 56.2642 56.6713 56.1915V49.2479Z" fill="#383A48"/>
<path d="M82.589 37.9684C82.812 37.9684 82.9927 37.7877 82.9927 37.5647C82.9927 37.3418 82.812 37.161 82.589 37.161C82.366 37.161 82.1853 37.3418 82.1853 37.5647C82.1853 37.7877 82.366 37.9684 82.589 37.9684Z" fill="#383A48"/>
<path d="M82.589 39.9546C82.812 39.9546 82.9927 39.7739 82.9927 39.5509C82.9927 39.328 82.812 39.1472 82.589 39.1472C82.366 39.1472 82.1853 39.328 82.1853 39.5509C82.1853 39.7739 82.366 39.9546 82.589 39.9546Z" fill="#383A48"/>
<path d="M82.589 41.9489C82.812 41.9489 82.9927 41.7681 82.9927 41.5452C82.9927 41.3222 82.812 41.1415 82.589 41.1415C82.366 41.1415 82.1853 41.3222 82.1853 41.5452C82.1853 41.7681 82.366 41.9489 82.589 41.9489Z" fill="#383A48"/>
<path d="M80.5946 37.9684C80.8176 37.9684 80.9983 37.7877 80.9983 37.5647C80.9983 37.3418 80.8176 37.161 80.5946 37.161C80.3717 37.161 80.1909 37.3418 80.1909 37.5647C80.1909 37.7877 80.3717 37.9684 80.5946 37.9684Z" fill="#383A48"/>
<path d="M80.5946 39.9546C80.8176 39.9546 80.9983 39.7739 80.9983 39.5509C80.9983 39.328 80.8176 39.1472 80.5946 39.1472C80.3717 39.1472 80.1909 39.328 80.1909 39.5509C80.1909 39.7739 80.3717 39.9546 80.5946 39.9546Z" fill="#383A48"/>
<path d="M78.6005 31.9937C78.8234 31.9937 79.0042 31.8129 79.0042 31.59C79.0042 31.367 78.8234 31.1863 78.6005 31.1863C78.3775 31.1863 78.1968 31.367 78.1968 31.59C78.1968 31.8129 78.3775 31.9937 78.6005 31.9937Z" fill="#383A48"/>
<path d="M78.6005 33.9799C78.8234 33.9799 79.0042 33.7991 79.0042 33.5762C79.0042 33.3532 78.8234 33.1725 78.6005 33.1725C78.3775 33.1725 78.1968 33.3532 78.1968 33.5762C78.1968 33.7991 78.3775 33.9799 78.6005 33.9799Z" fill="#383A48"/>
<path d="M78.6005 35.9741C78.8234 35.9741 79.0042 35.7934 79.0042 35.5704C79.0042 35.3475 78.8234 35.1667 78.6005 35.1667C78.3775 35.1667 78.1968 35.3475 78.1968 35.5704C78.1968 35.7934 78.3775 35.9741 78.6005 35.9741Z" fill="#383A48"/>
<path d="M78.6005 37.9684C78.8234 37.9684 79.0042 37.7877 79.0042 37.5647C79.0042 37.3418 78.8234 37.161 78.6005 37.161C78.3775 37.161 78.1968 37.3418 78.1968 37.5647C78.1968 37.7877 78.3775 37.9684 78.6005 37.9684Z" fill="#383A48"/>
<path d="M78.6005 39.9546C78.8234 39.9546 79.0042 39.7739 79.0042 39.5509C79.0042 39.328 78.8234 39.1472 78.6005 39.1472C78.3775 39.1472 78.1968 39.328 78.1968 39.5509C78.1968 39.7739 78.3775 39.9546 78.6005 39.9546Z" fill="#383A48"/>
<path d="M76.6141 31.9937C76.8371 31.9937 77.0178 31.8129 77.0178 31.59C77.0178 31.367 76.8371 31.1863 76.6141 31.1863C76.3912 31.1863 76.2104 31.367 76.2104 31.59C76.2104 31.8129 76.3912 31.9937 76.6141 31.9937Z" fill="#383A48"/>
<path d="M76.6141 33.9799C76.8371 33.9799 77.0178 33.7991 77.0178 33.5762C77.0178 33.3532 76.8371 33.1725 76.6141 33.1725C76.3912 33.1725 76.2104 33.3532 76.2104 33.5762C76.2104 33.7991 76.3912 33.9799 76.6141 33.9799Z" fill="#383A48"/>
<path d="M76.6141 35.9741C76.8371 35.9741 77.0178 35.7934 77.0178 35.5704C77.0178 35.3475 76.8371 35.1667 76.6141 35.1667C76.3912 35.1667 76.2104 35.3475 76.2104 35.5704C76.2104 35.7934 76.3912 35.9741 76.6141 35.9741Z" fill="#383A48"/>
<path d="M76.6141 37.9684C76.8371 37.9684 77.0178 37.7877 77.0178 37.5647C77.0178 37.3418 76.8371 37.161 76.6141 37.161C76.3912 37.161 76.2104 37.3418 76.2104 37.5647C76.2104 37.7877 76.3912 37.9684 76.6141 37.9684Z" fill="#383A48"/>
<path d="M76.6141 39.9546C76.8371 39.9546 77.0178 39.7739 77.0178 39.5509C77.0178 39.328 76.8371 39.1472 76.6141 39.1472C76.3912 39.1472 76.2104 39.328 76.2104 39.5509C76.2104 39.7739 76.3912 39.9546 76.6141 39.9546Z" fill="#383A48"/>
<path d="M75.0201 31.6539C75.0558 31.4339 74.9064 31.2265 74.6863 31.1908C74.4662 31.1551 74.2588 31.3045 74.2231 31.5246C74.1874 31.7447 74.3369 31.9521 74.5569 31.9878C74.777 32.0235 74.9844 31.874 75.0201 31.6539Z" fill="#383A48"/>
<path d="M75.0201 33.6402C75.0558 33.4201 74.9064 33.2127 74.6863 33.177C74.4662 33.1413 74.2588 33.2907 74.2231 33.5108C74.1874 33.7309 74.3369 33.9383 74.5569 33.974C74.777 34.0097 74.9844 33.8602 75.0201 33.6402Z" fill="#383A48"/>
<path d="M75.0201 35.6344C75.0558 35.4143 74.9064 35.207 74.6863 35.1712C74.4662 35.1355 74.2588 35.285 74.2231 35.5051C74.1874 35.7252 74.3369 35.9325 74.5569 35.9682C74.777 36.004 74.9844 35.8545 75.0201 35.6344Z" fill="#383A48"/>
<path d="M75.0201 37.6288C75.0558 37.4087 74.9064 37.2014 74.6863 37.1656C74.4662 37.1299 74.2588 37.2794 74.2231 37.4995C74.1874 37.7195 74.3369 37.9269 74.5569 37.9626C74.777 37.9983 74.9844 37.8489 75.0201 37.6288Z" fill="#383A48"/>
<path d="M75.0201 39.615C75.0558 39.3949 74.9064 39.1876 74.6863 39.1518C74.4662 39.1161 74.2588 39.2656 74.2231 39.4857C74.1874 39.7057 74.3369 39.9131 74.5569 39.9488C74.777 39.9845 74.9844 39.8351 75.0201 39.615Z" fill="#383A48"/>
<path d="M72.6256 31.9937C72.8486 31.9937 73.0293 31.8129 73.0293 31.59C73.0293 31.367 72.8486 31.1863 72.6256 31.1863C72.4027 31.1863 72.2219 31.367 72.2219 31.59C72.2219 31.8129 72.4027 31.9937 72.6256 31.9937Z" fill="#383A48"/>
<path d="M72.6256 33.9799C72.8486 33.9799 73.0293 33.7991 73.0293 33.5762C73.0293 33.3532 72.8486 33.1725 72.6256 33.1725C72.4027 33.1725 72.2219 33.3532 72.2219 33.5762C72.2219 33.7991 72.4027 33.9799 72.6256 33.9799Z" fill="#383A48"/>
<path d="M72.6256 35.9741C72.8486 35.9741 73.0293 35.7934 73.0293 35.5704C73.0293 35.3475 72.8486 35.1667 72.6256 35.1667C72.4027 35.1667 72.2219 35.3475 72.2219 35.5704C72.2219 35.7934 72.4027 35.9741 72.6256 35.9741Z" fill="#383A48"/>
<path d="M72.6256 37.9684C72.8486 37.9684 73.0293 37.7877 73.0293 37.5647C73.0293 37.3418 72.8486 37.161 72.6256 37.161C72.4027 37.161 72.2219 37.3418 72.2219 37.5647C72.2219 37.7877 72.4027 37.9684 72.6256 37.9684Z" fill="#383A48"/>
<path d="M72.6256 39.9546C72.8486 39.9546 73.0293 39.7739 73.0293 39.5509C73.0293 39.328 72.8486 39.1472 72.6256 39.1472C72.4027 39.1472 72.2219 39.328 72.2219 39.5509C72.2219 39.7739 72.4027 39.9546 72.6256 39.9546Z" fill="#383A48"/>
<path d="M70.6395 31.9937C70.8625 31.9937 71.0432 31.8129 71.0432 31.59C71.0432 31.367 70.8625 31.1863 70.6395 31.1863C70.4166 31.1863 70.2358 31.367 70.2358 31.59C70.2358 31.8129 70.4166 31.9937 70.6395 31.9937Z" fill="#383A48"/>
<path d="M70.6395 33.9799C70.8625 33.9799 71.0432 33.7991 71.0432 33.5762C71.0432 33.3532 70.8625 33.1725 70.6395 33.1725C70.4166 33.1725 70.2358 33.3532 70.2358 33.5762C70.2358 33.7991 70.4166 33.9799 70.6395 33.9799Z" fill="#383A48"/>
<path d="M70.6395 35.9741C70.8625 35.9741 71.0432 35.7934 71.0432 35.5704C71.0432 35.3475 70.8625 35.1667 70.6395 35.1667C70.4166 35.1667 70.2358 35.3475 70.2358 35.5704C70.2358 35.7934 70.4166 35.9741 70.6395 35.9741Z" fill="#383A48"/>
<path d="M70.6395 37.9684C70.8625 37.9684 71.0432 37.7877 71.0432 37.5647C71.0432 37.3418 70.8625 37.161 70.6395 37.161C70.4166 37.161 70.2358 37.3418 70.2358 37.5647C70.2358 37.7877 70.4166 37.9684 70.6395 37.9684Z" fill="#383A48"/>
<path d="M70.6395 39.9546C70.8625 39.9546 71.0432 39.7739 71.0432 39.5509C71.0432 39.328 70.8625 39.1472 70.6395 39.1472C70.4166 39.1472 70.2358 39.328 70.2358 39.5509C70.2358 39.7739 70.4166 39.9546 70.6395 39.9546Z" fill="#383A48"/>
<path d="M68.6452 31.9937C68.8681 31.9937 69.0489 31.8129 69.0489 31.59C69.0489 31.367 68.8681 31.1863 68.6452 31.1863C68.4222 31.1863 68.2415 31.367 68.2415 31.59C68.2415 31.8129 68.4222 31.9937 68.6452 31.9937Z" fill="#383A48"/>
<path d="M68.6452 33.9799C68.8681 33.9799 69.0489 33.7991 69.0489 33.5762C69.0489 33.3532 68.8681 33.1725 68.6452 33.1725C68.4222 33.1725 68.2415 33.3532 68.2415 33.5762C68.2415 33.7991 68.4222 33.9799 68.6452 33.9799Z" fill="#383A48"/>
<path d="M68.6452 35.9741C68.8681 35.9741 69.0489 35.7934 69.0489 35.5704C69.0489 35.3475 68.8681 35.1667 68.6452 35.1667C68.4222 35.1667 68.2415 35.3475 68.2415 35.5704C68.2415 35.7934 68.4222 35.9741 68.6452 35.9741Z" fill="#383A48"/>
<path d="M68.6452 37.9684C68.8681 37.9684 69.0489 37.7877 69.0489 37.5647C69.0489 37.3418 68.8681 37.161 68.6452 37.161C68.4222 37.161 68.2415 37.3418 68.2415 37.5647C68.2415 37.7877 68.4222 37.9684 68.6452 37.9684Z" fill="#383A48"/>
<path d="M68.6452 39.9546C68.8681 39.9546 69.0489 39.7739 69.0489 39.5509C69.0489 39.328 68.8681 39.1472 68.6452 39.1472C68.4222 39.1472 68.2415 39.328 68.2415 39.5509C68.2415 39.7739 68.4222 39.9546 68.6452 39.9546Z" fill="#383A48"/>
<path d="M66.651 31.9937C66.874 31.9937 67.0547 31.8129 67.0547 31.59C67.0547 31.367 66.874 31.1863 66.651 31.1863C66.4281 31.1863 66.2473 31.367 66.2473 31.59C66.2473 31.8129 66.4281 31.9937 66.651 31.9937Z" fill="#383A48"/>
<path d="M66.651 33.9799C66.874 33.9799 67.0547 33.7991 67.0547 33.5762C67.0547 33.3532 66.874 33.1725 66.651 33.1725C66.4281 33.1725 66.2473 33.3532 66.2473 33.5762C66.2473 33.7991 66.4281 33.9799 66.651 33.9799Z" fill="#383A48"/>
<path d="M66.651 35.9741C66.874 35.9741 67.0547 35.7934 67.0547 35.5704C67.0547 35.3475 66.874 35.1667 66.651 35.1667C66.4281 35.1667 66.2473 35.3475 66.2473 35.5704C66.2473 35.7934 66.4281 35.9741 66.651 35.9741Z" fill="#383A48"/>
<path d="M66.651 37.9684C66.874 37.9684 67.0547 37.7877 67.0547 37.5647C67.0547 37.3418 66.874 37.161 66.651 37.161C66.4281 37.161 66.2473 37.3418 66.2473 37.5647C66.2473 37.7877 66.4281 37.9684 66.651 37.9684Z" fill="#383A48"/>
<path d="M66.651 39.9546C66.874 39.9546 67.0547 39.7739 67.0547 39.5509C67.0547 39.328 66.874 39.1472 66.651 39.1472C66.4281 39.1472 66.2473 39.328 66.2473 39.5509C66.2473 39.7739 66.4281 39.9546 66.651 39.9546Z" fill="#383A48"/>
<path d="M64.6647 31.9937C64.8876 31.9937 65.0684 31.8129 65.0684 31.59C65.0684 31.367 64.8876 31.1863 64.6647 31.1863C64.4417 31.1863 64.261 31.367 64.261 31.59C64.261 31.8129 64.4417 31.9937 64.6647 31.9937Z" fill="#383A48"/>
<path d="M64.6647 33.9799C64.8876 33.9799 65.0684 33.7991 65.0684 33.5762C65.0684 33.3532 64.8876 33.1725 64.6647 33.1725C64.4417 33.1725 64.261 33.3532 64.261 33.5762C64.261 33.7991 64.4417 33.9799 64.6647 33.9799Z" fill="#383A48"/>
<path d="M64.6647 35.9741C64.8876 35.9741 65.0684 35.7934 65.0684 35.5704C65.0684 35.3475 64.8876 35.1667 64.6647 35.1667C64.4417 35.1667 64.261 35.3475 64.261 35.5704C64.261 35.7934 64.4417 35.9741 64.6647 35.9741Z" fill="#383A48"/>
<path d="M64.6647 37.9684C64.8876 37.9684 65.0684 37.7877 65.0684 37.5647C65.0684 37.3418 64.8876 37.161 64.6647 37.161C64.4417 37.161 64.261 37.3418 64.261 37.5647C64.261 37.7877 64.4417 37.9684 64.6647 37.9684Z" fill="#383A48"/>
<path d="M64.6647 39.9546C64.8876 39.9546 65.0684 39.7739 65.0684 39.5509C65.0684 39.328 64.8876 39.1472 64.6647 39.1472C64.4417 39.1472 64.261 39.328 64.261 39.5509C64.261 39.7739 64.4417 39.9546 64.6647 39.9546Z" fill="#383A48"/>
<path d="M62.6703 31.9937C62.8933 31.9937 63.074 31.8129 63.074 31.59C63.074 31.367 62.8933 31.1863 62.6703 31.1863C62.4473 31.1863 62.2666 31.367 62.2666 31.59C62.2666 31.8129 62.4473 31.9937 62.6703 31.9937Z" fill="#383A48"/>
<path d="M62.6703 33.9799C62.8933 33.9799 63.074 33.7991 63.074 33.5762C63.074 33.3532 62.8933 33.1725 62.6703 33.1725C62.4473 33.1725 62.2666 33.3532 62.2666 33.5762C62.2666 33.7991 62.4473 33.9799 62.6703 33.9799Z" fill="#383A48"/>
<path d="M62.6703 35.9741C62.8933 35.9741 63.074 35.7934 63.074 35.5704C63.074 35.3475 62.8933 35.1667 62.6703 35.1667C62.4473 35.1667 62.2666 35.3475 62.2666 35.5704C62.2666 35.7934 62.4473 35.9741 62.6703 35.9741Z" fill="#383A48"/>
<path d="M62.6703 37.9684C62.8933 37.9684 63.074 37.7877 63.074 37.5647C63.074 37.3418 62.8933 37.161 62.6703 37.161C62.4473 37.161 62.2666 37.3418 62.2666 37.5647C62.2666 37.7877 62.4473 37.9684 62.6703 37.9684Z" fill="#383A48"/>
<path d="M62.6703 39.9546C62.8933 39.9546 63.074 39.7739 63.074 39.5509C63.074 39.328 62.8933 39.1472 62.6703 39.1472C62.4473 39.1472 62.2666 39.328 62.2666 39.5509C62.2666 39.7739 62.4473 39.9546 62.6703 39.9546Z" fill="#383A48"/>
<path d="M60.6762 31.9937C60.8991 31.9937 61.0799 31.8129 61.0799 31.59C61.0799 31.367 60.8991 31.1863 60.6762 31.1863C60.4532 31.1863 60.2725 31.367 60.2725 31.59C60.2725 31.8129 60.4532 31.9937 60.6762 31.9937Z" fill="#383A48"/>
<path d="M60.6762 33.9799C60.8991 33.9799 61.0799 33.7991 61.0799 33.5762C61.0799 33.3532 60.8991 33.1725 60.6762 33.1725C60.4532 33.1725 60.2725 33.3532 60.2725 33.5762C60.2725 33.7991 60.4532 33.9799 60.6762 33.9799Z" fill="#383A48"/>
<path d="M60.6762 35.9741C60.8991 35.9741 61.0799 35.7934 61.0799 35.5704C61.0799 35.3475 60.8991 35.1667 60.6762 35.1667C60.4532 35.1667 60.2725 35.3475 60.2725 35.5704C60.2725 35.7934 60.4532 35.9741 60.6762 35.9741Z" fill="#383A48"/>
<path d="M60.6762 37.9684C60.8991 37.9684 61.0799 37.7877 61.0799 37.5647C61.0799 37.3418 60.8991 37.161 60.6762 37.161C60.4532 37.161 60.2725 37.3418 60.2725 37.5647C60.2725 37.7877 60.4532 37.9684 60.6762 37.9684Z" fill="#383A48"/>
<path d="M60.6762 39.9546C60.8991 39.9546 61.0799 39.7739 61.0799 39.5509C61.0799 39.328 60.8991 39.1472 60.6762 39.1472C60.4532 39.1472 60.2725 39.328 60.2725 39.5509C60.2725 39.7739 60.4532 39.9546 60.6762 39.9546Z" fill="#383A48"/>
<path d="M58.6898 31.9937C58.9128 31.9937 59.0935 31.8129 59.0935 31.59C59.0935 31.367 58.9128 31.1863 58.6898 31.1863C58.4669 31.1863 58.2861 31.367 58.2861 31.59C58.2861 31.8129 58.4669 31.9937 58.6898 31.9937Z" fill="#383A48"/>
<path d="M58.6898 33.9799C58.9128 33.9799 59.0935 33.7991 59.0935 33.5762C59.0935 33.3532 58.9128 33.1725 58.6898 33.1725C58.4669 33.1725 58.2861 33.3532 58.2861 33.5762C58.2861 33.7991 58.4669 33.9799 58.6898 33.9799Z" fill="#383A48"/>
<path d="M58.6898 35.9741C58.9128 35.9741 59.0935 35.7934 59.0935 35.5704C59.0935 35.3475 58.9128 35.1667 58.6898 35.1667C58.4669 35.1667 58.2861 35.3475 58.2861 35.5704C58.2861 35.7934 58.4669 35.9741 58.6898 35.9741Z" fill="#383A48"/>
<path d="M58.6898 37.9684C58.9128 37.9684 59.0935 37.7877 59.0935 37.5647C59.0935 37.3418 58.9128 37.161 58.6898 37.161C58.4669 37.161 58.2861 37.3418 58.2861 37.5647C58.2861 37.7877 58.4669 37.9684 58.6898 37.9684Z" fill="#383A48"/>
<path d="M58.6898 39.9546C58.9128 39.9546 59.0935 39.7739 59.0935 39.5509C59.0935 39.328 58.9128 39.1472 58.6898 39.1472C58.4669 39.1472 58.2861 39.328 58.2861 39.5509C58.2861 39.7739 58.4669 39.9546 58.6898 39.9546Z" fill="#383A48"/>
<path d="M56.6957 31.9937C56.9187 31.9937 57.0994 31.8129 57.0994 31.59C57.0994 31.367 56.9187 31.1863 56.6957 31.1863C56.4727 31.1863 56.292 31.367 56.292 31.59C56.292 31.8129 56.4727 31.9937 56.6957 31.9937Z" fill="#383A48"/>
<path d="M56.6957 33.9799C56.9187 33.9799 57.0994 33.7991 57.0994 33.5762C57.0994 33.3532 56.9187 33.1725 56.6957 33.1725C56.4727 33.1725 56.292 33.3532 56.292 33.5762C56.292 33.7991 56.4727 33.9799 56.6957 33.9799Z" fill="#383A48"/>
<path d="M56.6957 35.9741C56.9187 35.9741 57.0994 35.7934 57.0994 35.5704C57.0994 35.3475 56.9187 35.1667 56.6957 35.1667C56.4727 35.1667 56.292 35.3475 56.292 35.5704C56.292 35.7934 56.4727 35.9741 56.6957 35.9741Z" fill="#383A48"/>
<path d="M56.6957 37.9684C56.9187 37.9684 57.0994 37.7877 57.0994 37.5647C57.0994 37.3418 56.9187 37.161 56.6957 37.161C56.4727 37.161 56.292 37.3418 56.292 37.5647C56.292 37.7877 56.4727 37.9684 56.6957 37.9684Z" fill="#383A48"/>
<path d="M56.6957 39.9546C56.9187 39.9546 57.0994 39.7739 57.0994 39.5509C57.0994 39.328 56.9187 39.1472 56.6957 39.1472C56.4727 39.1472 56.292 39.328 56.292 39.5509C56.292 39.7739 56.4727 39.9546 56.6957 39.9546Z" fill="#383A48"/>
<path d="M54.7013 31.9937C54.9243 31.9937 55.105 31.8129 55.105 31.59C55.105 31.367 54.9243 31.1863 54.7013 31.1863C54.4783 31.1863 54.2976 31.367 54.2976 31.59C54.2976 31.8129 54.4783 31.9937 54.7013 31.9937Z" fill="#383A48"/>
<path d="M54.7013 33.9799C54.9243 33.9799 55.105 33.7991 55.105 33.5762C55.105 33.3532 54.9243 33.1725 54.7013 33.1725C54.4783 33.1725 54.2976 33.3532 54.2976 33.5762C54.2976 33.7991 54.4783 33.9799 54.7013 33.9799Z" fill="#383A48"/>
<path d="M54.7013 35.9741C54.9243 35.9741 55.105 35.7934 55.105 35.5704C55.105 35.3475 54.9243 35.1667 54.7013 35.1667C54.4783 35.1667 54.2976 35.3475 54.2976 35.5704C54.2976 35.7934 54.4783 35.9741 54.7013 35.9741Z" fill="#383A48"/>
<path d="M54.7013 37.9684C54.9243 37.9684 55.105 37.7877 55.105 37.5647C55.105 37.3418 54.9243 37.161 54.7013 37.161C54.4783 37.161 54.2976 37.3418 54.2976 37.5647C54.2976 37.7877 54.4783 37.9684 54.7013 37.9684Z" fill="#383A48"/>
<path d="M54.7013 39.9546C54.9243 39.9546 55.105 39.7739 55.105 39.5509C55.105 39.328 54.9243 39.1472 54.7013 39.1472C54.4783 39.1472 54.2976 39.328 54.2976 39.5509C54.2976 39.7739 54.4783 39.9546 54.7013 39.9546Z" fill="#383A48"/>
<path d="M52.7152 31.9937C52.9382 31.9937 53.1189 31.8129 53.1189 31.59C53.1189 31.367 52.9382 31.1863 52.7152 31.1863C52.4923 31.1863 52.3115 31.367 52.3115 31.59C52.3115 31.8129 52.4923 31.9937 52.7152 31.9937Z" fill="#383A48"/>
<path d="M52.7152 33.9799C52.9382 33.9799 53.1189 33.7991 53.1189 33.5762C53.1189 33.3532 52.9382 33.1725 52.7152 33.1725C52.4923 33.1725 52.3115 33.3532 52.3115 33.5762C52.3115 33.7991 52.4923 33.9799 52.7152 33.9799Z" fill="#383A48"/>
<path d="M52.7152 35.9741C52.9382 35.9741 53.1189 35.7934 53.1189 35.5704C53.1189 35.3475 52.9382 35.1667 52.7152 35.1667C52.4923 35.1667 52.3115 35.3475 52.3115 35.5704C52.3115 35.7934 52.4923 35.9741 52.7152 35.9741Z" fill="#383A48"/>
<path d="M52.7152 37.9684C52.9382 37.9684 53.1189 37.7877 53.1189 37.5647C53.1189 37.3418 52.9382 37.161 52.7152 37.161C52.4923 37.161 52.3115 37.3418 52.3115 37.5647C52.3115 37.7877 52.4923 37.9684 52.7152 37.9684Z" fill="#383A48"/>
<path d="M52.7152 39.9546C52.9382 39.9546 53.1189 39.7739 53.1189 39.5509C53.1189 39.328 52.9382 39.1472 52.7152 39.1472C52.4923 39.1472 52.3115 39.328 52.3115 39.5509C52.3115 39.7739 52.4923 39.9546 52.7152 39.9546Z" fill="#383A48"/>
<path d="M50.7208 31.9937C50.9438 31.9937 51.1245 31.8129 51.1245 31.59C51.1245 31.367 50.9438 31.1863 50.7208 31.1863C50.4979 31.1863 50.3171 31.367 50.3171 31.59C50.3171 31.8129 50.4979 31.9937 50.7208 31.9937Z" fill="#383A48"/>
<path d="M50.7208 33.9799C50.9438 33.9799 51.1245 33.7991 51.1245 33.5762C51.1245 33.3532 50.9438 33.1725 50.7208 33.1725C50.4979 33.1725 50.3171 33.3532 50.3171 33.5762C50.3171 33.7991 50.4979 33.9799 50.7208 33.9799Z" fill="#383A48"/>
<path d="M50.7208 35.9741C50.9438 35.9741 51.1245 35.7934 51.1245 35.5704C51.1245 35.3475 50.9438 35.1667 50.7208 35.1667C50.4979 35.1667 50.3171 35.3475 50.3171 35.5704C50.3171 35.7934 50.4979 35.9741 50.7208 35.9741Z" fill="#383A48"/>
<path d="M50.7208 37.9684C50.9438 37.9684 51.1245 37.7877 51.1245 37.5647C51.1245 37.3418 50.9438 37.161 50.7208 37.161C50.4979 37.161 50.3171 37.3418 50.3171 37.5647C50.3171 37.7877 50.4979 37.9684 50.7208 37.9684Z" fill="#383A48"/>
<path d="M78.8831 29.2405V32.9223L83.5499 38.0493L78.8831 36.7655L53.1109 36.822C51.5365 36.8301 50.2527 35.5544 50.2527 33.98V29.2486C50.2527 27.6742 51.5284 26.4065 53.0947 26.4065H76.033C77.6155 26.3985 78.8831 27.6742 78.8831 29.2405Z" fill="#EEBED3"/>
<path fill-rule="evenodd" clip-rule="evenodd" d="M83.4448 38.4368C83.4771 38.4449 83.5175 38.4529 83.5498 38.4529C83.6871 38.4529 83.8162 38.3803 83.8889 38.2672C83.9777 38.1138 83.9616 37.912 83.8405 37.7828L79.2867 32.7769V29.2486C79.2867 27.4561 77.8334 26.0028 76.041 26.0028H53.0946C51.3022 26.0028 49.8489 27.4561 49.8489 29.2486V33.9799C49.8489 34.8519 50.1961 35.6674 50.8097 36.281C51.4314 36.8946 52.2469 37.2338 53.1189 37.2257L78.8346 37.1692L83.4448 38.4368ZM78.988 36.3779C78.9557 36.3699 78.9154 36.3618 78.8831 36.3618L53.1108 36.4102C52.4487 36.4183 51.8351 36.1599 51.3749 35.6997C50.9147 35.2395 50.6563 34.6259 50.6563 33.9719V29.2405C50.6563 27.9002 51.7463 26.8021 53.0947 26.8021H76.041C77.3813 26.8021 78.4794 27.8921 78.4794 29.2405V32.9222C78.4794 33.0272 78.5197 33.1241 78.5843 33.1968L82.3064 37.2903L78.988 36.3779Z" fill="#383A48"/>
</svg>
