<svg width="96" height="96" viewBox="0 0 96 96" fill="none" xmlns="http://www.w3.org/2000/svg">
<path fill-rule="evenodd" clip-rule="evenodd" d="M30.1736 88.5601C47.978 88.5601 94.3112 63.5251 95.9249 49.6126C97.5387 35.7001 50.0421 7.56006 32.2377 7.56006C14.4333 7.56006 0 21.9821 0 39.7726C0 57.563 12.3692 88.5601 30.1736 88.5601Z" fill="#D74781"/>
<mask id="mask0_139_7333" style="mask-type:luminance" maskUnits="userSpaceOnUse" x="0" y="7" width="96" height="82">
<path fill-rule="evenodd" clip-rule="evenodd" d="M30.1736 88.5601C47.978 88.5601 94.3112 63.5251 95.9249 49.6126C97.5387 35.7001 50.0421 7.56006 32.2377 7.56006C14.4333 7.56006 0 21.9821 0 39.7726C0 57.563 12.3692 88.5601 30.1736 88.5601Z" fill="white"/>
</mask>
<g mask="url(#mask0_139_7333)">
<path d="M73.4883 88.0561C63.5401 86.0687 57.6107 83.0037 54.2452 78.0996C51.0677 73.4723 50.2362 67.3817 49.1869 59.6795C48.9097 57.6229 48.6128 55.4972 48.2564 53.2231C47.6031 49.0803 46.1282 45.6197 43.7426 42.6535C41.6639 40.073 39.1694 38.1944 36.962 36.5432C33.6558 34.0615 30.7951 31.9159 30.2209 28.2181C29.3795 22.8493 30.4585 18.2418 33.3291 14.8801C35.0812 12.8334 37.4866 11.2514 40.4958 10.1638C43.7129 9.00702 47.6229 8.41378 52.107 8.41378C52.3842 8.41378 52.602 8.19626 52.602 7.91941C52.602 7.64257 52.3842 7.42505 52.107 7.42505H0.524722C0.247557 7.42505 0.0297852 7.64257 0.0297852 7.91941V67.0357C0.0297852 72.9087 2.31639 78.4357 6.47386 82.5884C10.6313 86.7411 16.1647 89.025 22.0446 89.025H73.3893C73.6467 89.025 73.8546 88.8372 73.8843 88.5801C73.914 88.323 73.7358 88.1055 73.4883 88.0561Z" fill="#F3F6E6"/>
<path d="M22.3366 7.41016H0.690923C0.320686 7.41016 0.0297852 7.70083 0.0297852 8.07078V29.6995C0.0297852 30.0695 0.320686 30.3602 0.690923 30.3602C12.9881 30.3602 22.9977 20.3583 22.9977 8.07078C22.9977 7.71404 22.7068 7.41016 22.3366 7.41016Z" fill="#AAC6FC"/>
</g>
<path d="M40.1777 44.8499C40.3848 44.8499 40.5527 44.682 40.5527 44.4749C40.5527 44.2677 40.3848 44.0999 40.1777 44.0999C39.9706 44.0999 39.8027 44.2677 39.8027 44.4749C39.8027 44.682 39.9706 44.8499 40.1777 44.8499Z" fill="#383A48"/>
<path d="M40.1777 46.7024C40.3848 46.7024 40.5527 46.5345 40.5527 46.3274C40.5527 46.1203 40.3848 45.9524 40.1777 45.9524C39.9706 45.9524 39.8027 46.1203 39.8027 46.3274C39.8027 46.5345 39.9706 46.7024 40.1777 46.7024Z" fill="#383A48"/>
<path d="M40.1777 48.5474C40.3848 48.5474 40.5527 48.3795 40.5527 48.1724C40.5527 47.9653 40.3848 47.7974 40.1777 47.7974C39.9706 47.7974 39.8027 47.9653 39.8027 48.1724C39.8027 48.3795 39.9706 48.5474 40.1777 48.5474Z" fill="#383A48"/>
<path d="M40.1777 50.3999C40.3848 50.3999 40.5527 50.232 40.5527 50.0249C40.5527 49.8178 40.3848 49.6499 40.1777 49.6499C39.9706 49.6499 39.8027 49.8178 39.8027 50.0249C39.8027 50.232 39.9706 50.3999 40.1777 50.3999Z" fill="#383A48"/>
<path d="M40.1777 52.2524C40.3848 52.2524 40.5527 52.0845 40.5527 51.8774C40.5527 51.6703 40.3848 51.5024 40.1777 51.5024C39.9706 51.5024 39.8027 51.6703 39.8027 51.8774C39.8027 52.0845 39.9706 52.2524 40.1777 52.2524Z" fill="#383A48"/>
<path d="M40.1777 54.0974C40.3848 54.0974 40.5527 53.9295 40.5527 53.7224C40.5527 53.5153 40.3848 53.3474 40.1777 53.3474C39.9706 53.3474 39.8027 53.5153 39.8027 53.7224C39.8027 53.9295 39.9706 54.0974 40.1777 54.0974Z" fill="#383A48"/>
<path d="M40.1777 55.95C40.3848 55.95 40.5527 55.7821 40.5527 55.575C40.5527 55.3678 40.3848 55.2 40.1777 55.2C39.9706 55.2 39.8027 55.3678 39.8027 55.575C39.8027 55.7821 39.9706 55.95 40.1777 55.95Z" fill="#383A48"/>
<path d="M40.1777 57.8022C40.3848 57.8022 40.5527 57.6344 40.5527 57.4272C40.5527 57.2201 40.3848 57.0522 40.1777 57.0522C39.9706 57.0522 39.8027 57.2201 39.8027 57.4272C39.8027 57.6344 39.9706 57.8022 40.1777 57.8022Z" fill="#383A48"/>
<path d="M40.1777 59.6475C40.3848 59.6475 40.5527 59.4796 40.5527 59.2725C40.5527 59.0654 40.3848 58.8975 40.1777 58.8975C39.9706 58.8975 39.8027 59.0654 39.8027 59.2725C39.8027 59.4796 39.9706 59.6475 40.1777 59.6475Z" fill="#383A48"/>
<path d="M40.1777 61.4998C40.3848 61.4998 40.5527 61.3319 40.5527 61.1248C40.5527 60.9176 40.3848 60.7498 40.1777 60.7498C39.9706 60.7498 39.8027 60.9176 39.8027 61.1248C39.8027 61.3319 39.9706 61.4998 40.1777 61.4998Z" fill="#383A48"/>
<path d="M40.1777 63.3523C40.3848 63.3523 40.5527 63.1844 40.5527 62.9773C40.5527 62.7702 40.3848 62.6023 40.1777 62.6023C39.9706 62.6023 39.8027 62.7702 39.8027 62.9773C39.8027 63.1844 39.9706 63.3523 40.1777 63.3523Z" fill="#383A48"/>
<path d="M40.1777 65.1973C40.3848 65.1973 40.5527 65.0294 40.5527 64.8223C40.5527 64.6152 40.3848 64.4473 40.1777 64.4473C39.9706 64.4473 39.8027 64.6152 39.8027 64.8223C39.8027 65.0294 39.9706 65.1973 40.1777 65.1973Z" fill="#383A48"/>
<path d="M40.1777 67.0498C40.3848 67.0498 40.5527 66.8819 40.5527 66.6748C40.5527 66.4677 40.3848 66.2998 40.1777 66.2998C39.9706 66.2998 39.8027 66.4677 39.8027 66.6748C39.8027 66.8819 39.9706 67.0498 40.1777 67.0498Z" fill="#383A48"/>
<path d="M40.1777 68.9023C40.3848 68.9023 40.5527 68.7345 40.5527 68.5273C40.5527 68.3202 40.3848 68.1523 40.1777 68.1523C39.9706 68.1523 39.8027 68.3202 39.8027 68.5273C39.8027 68.7345 39.9706 68.9023 40.1777 68.9023Z" fill="#383A48"/>
<path d="M40.1777 70.7473C40.3848 70.7473 40.5527 70.5794 40.5527 70.3723C40.5527 70.1652 40.3848 69.9973 40.1777 69.9973C39.9706 69.9973 39.8027 70.1652 39.8027 70.3723C39.8027 70.5794 39.9706 70.7473 40.1777 70.7473Z" fill="#383A48"/>
<path d="M40.1777 72.5999C40.3848 72.5999 40.5527 72.432 40.5527 72.2249C40.5527 72.0177 40.3848 71.8499 40.1777 71.8499C39.9706 71.8499 39.8027 72.0177 39.8027 72.2249C39.8027 72.432 39.9706 72.5999 40.1777 72.5999Z" fill="#383A48"/>
<path d="M40.1777 74.4524C40.3848 74.4524 40.5527 74.2845 40.5527 74.0774C40.5527 73.8703 40.3848 73.7024 40.1777 73.7024C39.9706 73.7024 39.8027 73.8703 39.8027 74.0774C39.8027 74.2845 39.9706 74.4524 40.1777 74.4524Z" fill="#383A48"/>
<path d="M40.1777 76.2974C40.3848 76.2974 40.5527 76.1295 40.5527 75.9224C40.5527 75.7153 40.3848 75.5474 40.1777 75.5474C39.9706 75.5474 39.8027 75.7153 39.8027 75.9224C39.8027 76.1295 39.9706 76.2974 40.1777 76.2974Z" fill="#383A48"/>
<path d="M38.3252 44.8499C38.5323 44.8499 38.7002 44.682 38.7002 44.4749C38.7002 44.2677 38.5323 44.0999 38.3252 44.0999C38.1181 44.0999 37.9502 44.2677 37.9502 44.4749C37.9502 44.682 38.1181 44.8499 38.3252 44.8499Z" fill="#383A48"/>
<path d="M38.3252 46.7024C38.5323 46.7024 38.7002 46.5345 38.7002 46.3274C38.7002 46.1203 38.5323 45.9524 38.3252 45.9524C38.1181 45.9524 37.9502 46.1203 37.9502 46.3274C37.9502 46.5345 38.1181 46.7024 38.3252 46.7024Z" fill="#383A48"/>
<path d="M38.3252 48.5474C38.5323 48.5474 38.7002 48.3795 38.7002 48.1724C38.7002 47.9653 38.5323 47.7974 38.3252 47.7974C38.1181 47.7974 37.9502 47.9653 37.9502 48.1724C37.9502 48.3795 38.1181 48.5474 38.3252 48.5474Z" fill="#383A48"/>
<path d="M38.3252 50.3999C38.5323 50.3999 38.7002 50.232 38.7002 50.0249C38.7002 49.8178 38.5323 49.6499 38.3252 49.6499C38.1181 49.6499 37.9502 49.8178 37.9502 50.0249C37.9502 50.232 38.1181 50.3999 38.3252 50.3999Z" fill="#383A48"/>
<path d="M38.3252 52.2524C38.5323 52.2524 38.7002 52.0845 38.7002 51.8774C38.7002 51.6703 38.5323 51.5024 38.3252 51.5024C38.1181 51.5024 37.9502 51.6703 37.9502 51.8774C37.9502 52.0845 38.1181 52.2524 38.3252 52.2524Z" fill="#383A48"/>
<path d="M38.3252 54.0974C38.5323 54.0974 38.7002 53.9295 38.7002 53.7224C38.7002 53.5153 38.5323 53.3474 38.3252 53.3474C38.1181 53.3474 37.9502 53.5153 37.9502 53.7224C37.9502 53.9295 38.1181 54.0974 38.3252 54.0974Z" fill="#383A48"/>
<path d="M38.3252 55.95C38.5323 55.95 38.7002 55.7821 38.7002 55.575C38.7002 55.3678 38.5323 55.2 38.3252 55.2C38.1181 55.2 37.9502 55.3678 37.9502 55.575C37.9502 55.7821 38.1181 55.95 38.3252 55.95Z" fill="#383A48"/>
<path d="M38.3252 57.8022C38.5323 57.8022 38.7002 57.6344 38.7002 57.4272C38.7002 57.2201 38.5323 57.0522 38.3252 57.0522C38.1181 57.0522 37.9502 57.2201 37.9502 57.4272C37.9502 57.6344 38.1181 57.8022 38.3252 57.8022Z" fill="#383A48"/>
<path d="M38.3252 59.6475C38.5323 59.6475 38.7002 59.4796 38.7002 59.2725C38.7002 59.0654 38.5323 58.8975 38.3252 58.8975C38.1181 58.8975 37.9502 59.0654 37.9502 59.2725C37.9502 59.4796 38.1181 59.6475 38.3252 59.6475Z" fill="#383A48"/>
<path d="M38.3252 61.4998C38.5323 61.4998 38.7002 61.3319 38.7002 61.1248C38.7002 60.9176 38.5323 60.7498 38.3252 60.7498C38.1181 60.7498 37.9502 60.9176 37.9502 61.1248C37.9502 61.3319 38.1181 61.4998 38.3252 61.4998Z" fill="#383A48"/>
<path d="M38.3252 63.3523C38.5323 63.3523 38.7002 63.1844 38.7002 62.9773C38.7002 62.7702 38.5323 62.6023 38.3252 62.6023C38.1181 62.6023 37.9502 62.7702 37.9502 62.9773C37.9502 63.1844 38.1181 63.3523 38.3252 63.3523Z" fill="#383A48"/>
<path d="M38.3252 65.1973C38.5323 65.1973 38.7002 65.0294 38.7002 64.8223C38.7002 64.6152 38.5323 64.4473 38.3252 64.4473C38.1181 64.4473 37.9502 64.6152 37.9502 64.8223C37.9502 65.0294 38.1181 65.1973 38.3252 65.1973Z" fill="#383A48"/>
<path d="M38.3252 67.0498C38.5323 67.0498 38.7002 66.8819 38.7002 66.6748C38.7002 66.4677 38.5323 66.2998 38.3252 66.2998C38.1181 66.2998 37.9502 66.4677 37.9502 66.6748C37.9502 66.8819 38.1181 67.0498 38.3252 67.0498Z" fill="#383A48"/>
<path d="M38.3252 68.9023C38.5323 68.9023 38.7002 68.7345 38.7002 68.5273C38.7002 68.3202 38.5323 68.1523 38.3252 68.1523C38.1181 68.1523 37.9502 68.3202 37.9502 68.5273C37.9502 68.7345 38.1181 68.9023 38.3252 68.9023Z" fill="#383A48"/>
<path d="M38.3252 70.7473C38.5323 70.7473 38.7002 70.5794 38.7002 70.3723C38.7002 70.1652 38.5323 69.9973 38.3252 69.9973C38.1181 69.9973 37.9502 70.1652 37.9502 70.3723C37.9502 70.5794 38.1181 70.7473 38.3252 70.7473Z" fill="#383A48"/>
<path d="M38.3252 72.5999C38.5323 72.5999 38.7002 72.432 38.7002 72.2249C38.7002 72.0177 38.5323 71.8499 38.3252 71.8499C38.1181 71.8499 37.9502 72.0177 37.9502 72.2249C37.9502 72.432 38.1181 72.5999 38.3252 72.5999Z" fill="#383A48"/>
<path d="M38.3252 74.4524C38.5323 74.4524 38.7002 74.2845 38.7002 74.0774C38.7002 73.8703 38.5323 73.7024 38.3252 73.7024C38.1181 73.7024 37.9502 73.8703 37.9502 74.0774C37.9502 74.2845 38.1181 74.4524 38.3252 74.4524Z" fill="#383A48"/>
<path d="M38.3252 76.2974C38.5323 76.2974 38.7002 76.1295 38.7002 75.9224C38.7002 75.7153 38.5323 75.5474 38.3252 75.5474C38.1181 75.5474 37.9502 75.7153 37.9502 75.9224C37.9502 76.1295 38.1181 76.2974 38.3252 76.2974Z" fill="#383A48"/>
<path d="M36.4727 44.8499C36.6798 44.8499 36.8477 44.682 36.8477 44.4749C36.8477 44.2677 36.6798 44.0999 36.4727 44.0999C36.2655 44.0999 36.0977 44.2677 36.0977 44.4749C36.0977 44.682 36.2655 44.8499 36.4727 44.8499Z" fill="#383A48"/>
<path d="M36.4727 46.7024C36.6798 46.7024 36.8477 46.5345 36.8477 46.3274C36.8477 46.1203 36.6798 45.9524 36.4727 45.9524C36.2655 45.9524 36.0977 46.1203 36.0977 46.3274C36.0977 46.5345 36.2655 46.7024 36.4727 46.7024Z" fill="#383A48"/>
<path d="M36.4727 48.5474C36.6798 48.5474 36.8477 48.3795 36.8477 48.1724C36.8477 47.9653 36.6798 47.7974 36.4727 47.7974C36.2655 47.7974 36.0977 47.9653 36.0977 48.1724C36.0977 48.3795 36.2655 48.5474 36.4727 48.5474Z" fill="#383A48"/>
<path d="M36.4727 50.3999C36.6798 50.3999 36.8477 50.232 36.8477 50.0249C36.8477 49.8178 36.6798 49.6499 36.4727 49.6499C36.2655 49.6499 36.0977 49.8178 36.0977 50.0249C36.0977 50.232 36.2655 50.3999 36.4727 50.3999Z" fill="#383A48"/>
<path d="M36.4727 52.2524C36.6798 52.2524 36.8477 52.0845 36.8477 51.8774C36.8477 51.6703 36.6798 51.5024 36.4727 51.5024C36.2655 51.5024 36.0977 51.6703 36.0977 51.8774C36.0977 52.0845 36.2655 52.2524 36.4727 52.2524Z" fill="#383A48"/>
<path d="M36.4727 54.0974C36.6798 54.0974 36.8477 53.9295 36.8477 53.7224C36.8477 53.5153 36.6798 53.3474 36.4727 53.3474C36.2655 53.3474 36.0977 53.5153 36.0977 53.7224C36.0977 53.9295 36.2655 54.0974 36.4727 54.0974Z" fill="#383A48"/>
<path d="M36.4727 55.95C36.6798 55.95 36.8477 55.7821 36.8477 55.575C36.8477 55.3678 36.6798 55.2 36.4727 55.2C36.2655 55.2 36.0977 55.3678 36.0977 55.575C36.0977 55.7821 36.2655 55.95 36.4727 55.95Z" fill="#383A48"/>
<path d="M36.4727 57.8022C36.6798 57.8022 36.8477 57.6344 36.8477 57.4272C36.8477 57.2201 36.6798 57.0522 36.4727 57.0522C36.2655 57.0522 36.0977 57.2201 36.0977 57.4272C36.0977 57.6344 36.2655 57.8022 36.4727 57.8022Z" fill="#383A48"/>
<path d="M36.4727 59.6475C36.6798 59.6475 36.8477 59.4796 36.8477 59.2725C36.8477 59.0654 36.6798 58.8975 36.4727 58.8975C36.2655 58.8975 36.0977 59.0654 36.0977 59.2725C36.0977 59.4796 36.2655 59.6475 36.4727 59.6475Z" fill="#383A48"/>
<path d="M36.4727 61.4998C36.6798 61.4998 36.8477 61.3319 36.8477 61.1248C36.8477 60.9176 36.6798 60.7498 36.4727 60.7498C36.2655 60.7498 36.0977 60.9176 36.0977 61.1248C36.0977 61.3319 36.2655 61.4998 36.4727 61.4998Z" fill="#383A48"/>
<path d="M36.4727 63.3523C36.6798 63.3523 36.8477 63.1844 36.8477 62.9773C36.8477 62.7702 36.6798 62.6023 36.4727 62.6023C36.2655 62.6023 36.0977 62.7702 36.0977 62.9773C36.0977 63.1844 36.2655 63.3523 36.4727 63.3523Z" fill="#383A48"/>
<path d="M36.4727 65.1973C36.6798 65.1973 36.8477 65.0294 36.8477 64.8223C36.8477 64.6152 36.6798 64.4473 36.4727 64.4473C36.2655 64.4473 36.0977 64.6152 36.0977 64.8223C36.0977 65.0294 36.2655 65.1973 36.4727 65.1973Z" fill="#383A48"/>
<path d="M36.4727 67.0498C36.6798 67.0498 36.8477 66.8819 36.8477 66.6748C36.8477 66.4677 36.6798 66.2998 36.4727 66.2998C36.2655 66.2998 36.0977 66.4677 36.0977 66.6748C36.0977 66.8819 36.2655 67.0498 36.4727 67.0498Z" fill="#383A48"/>
<path d="M36.4727 68.9023C36.6798 68.9023 36.8477 68.7345 36.8477 68.5273C36.8477 68.3202 36.6798 68.1523 36.4727 68.1523C36.2655 68.1523 36.0977 68.3202 36.0977 68.5273C36.0977 68.7345 36.2655 68.9023 36.4727 68.9023Z" fill="#383A48"/>
<path d="M36.4727 70.7473C36.6798 70.7473 36.8477 70.5794 36.8477 70.3723C36.8477 70.1652 36.6798 69.9973 36.4727 69.9973C36.2655 69.9973 36.0977 70.1652 36.0977 70.3723C36.0977 70.5794 36.2655 70.7473 36.4727 70.7473Z" fill="#383A48"/>
<path d="M36.4727 72.5999C36.6798 72.5999 36.8477 72.432 36.8477 72.2249C36.8477 72.0177 36.6798 71.8499 36.4727 71.8499C36.2655 71.8499 36.0977 72.0177 36.0977 72.2249C36.0977 72.432 36.2655 72.5999 36.4727 72.5999Z" fill="#383A48"/>
<path d="M36.4727 74.4524C36.6798 74.4524 36.8477 74.2845 36.8477 74.0774C36.8477 73.8703 36.6798 73.7024 36.4727 73.7024C36.2655 73.7024 36.0977 73.8703 36.0977 74.0774C36.0977 74.2845 36.2655 74.4524 36.4727 74.4524Z" fill="#383A48"/>
<path d="M36.4727 76.2974C36.6798 76.2974 36.8477 76.1295 36.8477 75.9224C36.8477 75.7153 36.6798 75.5474 36.4727 75.5474C36.2655 75.5474 36.0977 75.7153 36.0977 75.9224C36.0977 76.1295 36.2655 76.2974 36.4727 76.2974Z" fill="#383A48"/>
<path d="M34.6279 44.8499C34.835 44.8499 35.0029 44.682 35.0029 44.4749C35.0029 44.2677 34.835 44.0999 34.6279 44.0999C34.4208 44.0999 34.2529 44.2677 34.2529 44.4749C34.2529 44.682 34.4208 44.8499 34.6279 44.8499Z" fill="#383A48"/>
<path d="M34.6279 46.7024C34.835 46.7024 35.0029 46.5345 35.0029 46.3274C35.0029 46.1203 34.835 45.9524 34.6279 45.9524C34.4208 45.9524 34.2529 46.1203 34.2529 46.3274C34.2529 46.5345 34.4208 46.7024 34.6279 46.7024Z" fill="#383A48"/>
<path d="M34.6279 48.5474C34.835 48.5474 35.0029 48.3795 35.0029 48.1724C35.0029 47.9653 34.835 47.7974 34.6279 47.7974C34.4208 47.7974 34.2529 47.9653 34.2529 48.1724C34.2529 48.3795 34.4208 48.5474 34.6279 48.5474Z" fill="#383A48"/>
<path d="M34.6279 50.3999C34.835 50.3999 35.0029 50.232 35.0029 50.0249C35.0029 49.8178 34.835 49.6499 34.6279 49.6499C34.4208 49.6499 34.2529 49.8178 34.2529 50.0249C34.2529 50.232 34.4208 50.3999 34.6279 50.3999Z" fill="#383A48"/>
<path d="M34.6279 52.2524C34.835 52.2524 35.0029 52.0845 35.0029 51.8774C35.0029 51.6703 34.835 51.5024 34.6279 51.5024C34.4208 51.5024 34.2529 51.6703 34.2529 51.8774C34.2529 52.0845 34.4208 52.2524 34.6279 52.2524Z" fill="#383A48"/>
<path d="M34.6279 54.0974C34.835 54.0974 35.0029 53.9295 35.0029 53.7224C35.0029 53.5153 34.835 53.3474 34.6279 53.3474C34.4208 53.3474 34.2529 53.5153 34.2529 53.7224C34.2529 53.9295 34.4208 54.0974 34.6279 54.0974Z" fill="#383A48"/>
<path d="M34.6279 55.95C34.835 55.95 35.0029 55.7821 35.0029 55.575C35.0029 55.3678 34.835 55.2 34.6279 55.2C34.4208 55.2 34.2529 55.3678 34.2529 55.575C34.2529 55.7821 34.4208 55.95 34.6279 55.95Z" fill="#383A48"/>
<path d="M34.6279 57.8022C34.835 57.8022 35.0029 57.6344 35.0029 57.4272C35.0029 57.2201 34.835 57.0522 34.6279 57.0522C34.4208 57.0522 34.2529 57.2201 34.2529 57.4272C34.2529 57.6344 34.4208 57.8022 34.6279 57.8022Z" fill="#383A48"/>
<path d="M34.6279 59.6475C34.835 59.6475 35.0029 59.4796 35.0029 59.2725C35.0029 59.0654 34.835 58.8975 34.6279 58.8975C34.4208 58.8975 34.2529 59.0654 34.2529 59.2725C34.2529 59.4796 34.4208 59.6475 34.6279 59.6475Z" fill="#383A48"/>
<path d="M34.6279 61.4998C34.835 61.4998 35.0029 61.3319 35.0029 61.1248C35.0029 60.9176 34.835 60.7498 34.6279 60.7498C34.4208 60.7498 34.2529 60.9176 34.2529 61.1248C34.2529 61.3319 34.4208 61.4998 34.6279 61.4998Z" fill="#383A48"/>
<path d="M34.6279 63.3523C34.835 63.3523 35.0029 63.1844 35.0029 62.9773C35.0029 62.7702 34.835 62.6023 34.6279 62.6023C34.4208 62.6023 34.2529 62.7702 34.2529 62.9773C34.2529 63.1844 34.4208 63.3523 34.6279 63.3523Z" fill="#383A48"/>
<path d="M34.6279 65.1973C34.835 65.1973 35.0029 65.0294 35.0029 64.8223C35.0029 64.6152 34.835 64.4473 34.6279 64.4473C34.4208 64.4473 34.2529 64.6152 34.2529 64.8223C34.2529 65.0294 34.4208 65.1973 34.6279 65.1973Z" fill="#383A48"/>
<path d="M34.6279 67.0498C34.835 67.0498 35.0029 66.8819 35.0029 66.6748C35.0029 66.4677 34.835 66.2998 34.6279 66.2998C34.4208 66.2998 34.2529 66.4677 34.2529 66.6748C34.2529 66.8819 34.4208 67.0498 34.6279 67.0498Z" fill="#383A48"/>
<path d="M34.6279 68.9023C34.835 68.9023 35.0029 68.7345 35.0029 68.5273C35.0029 68.3202 34.835 68.1523 34.6279 68.1523C34.4208 68.1523 34.2529 68.3202 34.2529 68.5273C34.2529 68.7345 34.4208 68.9023 34.6279 68.9023Z" fill="#383A48"/>
<path d="M34.6279 70.7473C34.835 70.7473 35.0029 70.5794 35.0029 70.3723C35.0029 70.1652 34.835 69.9973 34.6279 69.9973C34.4208 69.9973 34.2529 70.1652 34.2529 70.3723C34.2529 70.5794 34.4208 70.7473 34.6279 70.7473Z" fill="#383A48"/>
<path d="M34.6279 72.5999C34.835 72.5999 35.0029 72.432 35.0029 72.2249C35.0029 72.0177 34.835 71.8499 34.6279 71.8499C34.4208 71.8499 34.2529 72.0177 34.2529 72.2249C34.2529 72.432 34.4208 72.5999 34.6279 72.5999Z" fill="#383A48"/>
<path d="M34.6279 74.4524C34.835 74.4524 35.0029 74.2845 35.0029 74.0774C35.0029 73.8703 34.835 73.7024 34.6279 73.7024C34.4208 73.7024 34.2529 73.8703 34.2529 74.0774C34.2529 74.2845 34.4208 74.4524 34.6279 74.4524Z" fill="#383A48"/>
<path d="M34.6279 76.2974C34.835 76.2974 35.0029 76.1295 35.0029 75.9224C35.0029 75.7153 34.835 75.5474 34.6279 75.5474C34.4208 75.5474 34.2529 75.7153 34.2529 75.9224C34.2529 76.1295 34.4208 76.2974 34.6279 76.2974Z" fill="#383A48"/>
<path d="M32.7754 44.8499C32.9825 44.8499 33.1504 44.682 33.1504 44.4749C33.1504 44.2677 32.9825 44.0999 32.7754 44.0999C32.5683 44.0999 32.4004 44.2677 32.4004 44.4749C32.4004 44.682 32.5683 44.8499 32.7754 44.8499Z" fill="#383A48"/>
<path d="M32.7754 46.7024C32.9825 46.7024 33.1504 46.5345 33.1504 46.3274C33.1504 46.1203 32.9825 45.9524 32.7754 45.9524C32.5683 45.9524 32.4004 46.1203 32.4004 46.3274C32.4004 46.5345 32.5683 46.7024 32.7754 46.7024Z" fill="#383A48"/>
<path d="M32.7754 48.5474C32.9825 48.5474 33.1504 48.3795 33.1504 48.1724C33.1504 47.9653 32.9825 47.7974 32.7754 47.7974C32.5683 47.7974 32.4004 47.9653 32.4004 48.1724C32.4004 48.3795 32.5683 48.5474 32.7754 48.5474Z" fill="#383A48"/>
<path d="M32.7754 50.3999C32.9825 50.3999 33.1504 50.232 33.1504 50.0249C33.1504 49.8178 32.9825 49.6499 32.7754 49.6499C32.5683 49.6499 32.4004 49.8178 32.4004 50.0249C32.4004 50.232 32.5683 50.3999 32.7754 50.3999Z" fill="#383A48"/>
<path d="M32.7754 52.2524C32.9825 52.2524 33.1504 52.0845 33.1504 51.8774C33.1504 51.6703 32.9825 51.5024 32.7754 51.5024C32.5683 51.5024 32.4004 51.6703 32.4004 51.8774C32.4004 52.0845 32.5683 52.2524 32.7754 52.2524Z" fill="#383A48"/>
<path d="M32.7754 54.0974C32.9825 54.0974 33.1504 53.9295 33.1504 53.7224C33.1504 53.5153 32.9825 53.3474 32.7754 53.3474C32.5683 53.3474 32.4004 53.5153 32.4004 53.7224C32.4004 53.9295 32.5683 54.0974 32.7754 54.0974Z" fill="#383A48"/>
<path d="M32.7754 55.95C32.9825 55.95 33.1504 55.7821 33.1504 55.575C33.1504 55.3678 32.9825 55.2 32.7754 55.2C32.5683 55.2 32.4004 55.3678 32.4004 55.575C32.4004 55.7821 32.5683 55.95 32.7754 55.95Z" fill="#383A48"/>
<path d="M32.7754 57.8022C32.9825 57.8022 33.1504 57.6344 33.1504 57.4272C33.1504 57.2201 32.9825 57.0522 32.7754 57.0522C32.5683 57.0522 32.4004 57.2201 32.4004 57.4272C32.4004 57.6344 32.5683 57.8022 32.7754 57.8022Z" fill="#383A48"/>
<path d="M32.7754 59.6475C32.9825 59.6475 33.1504 59.4796 33.1504 59.2725C33.1504 59.0654 32.9825 58.8975 32.7754 58.8975C32.5683 58.8975 32.4004 59.0654 32.4004 59.2725C32.4004 59.4796 32.5683 59.6475 32.7754 59.6475Z" fill="#383A48"/>
<path d="M32.7754 61.4998C32.9825 61.4998 33.1504 61.3319 33.1504 61.1248C33.1504 60.9176 32.9825 60.7498 32.7754 60.7498C32.5683 60.7498 32.4004 60.9176 32.4004 61.1248C32.4004 61.3319 32.5683 61.4998 32.7754 61.4998Z" fill="#383A48"/>
<path d="M32.7754 63.3523C32.9825 63.3523 33.1504 63.1844 33.1504 62.9773C33.1504 62.7702 32.9825 62.6023 32.7754 62.6023C32.5683 62.6023 32.4004 62.7702 32.4004 62.9773C32.4004 63.1844 32.5683 63.3523 32.7754 63.3523Z" fill="#383A48"/>
<path d="M32.7754 65.1973C32.9825 65.1973 33.1504 65.0294 33.1504 64.8223C33.1504 64.6152 32.9825 64.4473 32.7754 64.4473C32.5683 64.4473 32.4004 64.6152 32.4004 64.8223C32.4004 65.0294 32.5683 65.1973 32.7754 65.1973Z" fill="#383A48"/>
<path d="M32.7754 67.0498C32.9825 67.0498 33.1504 66.8819 33.1504 66.6748C33.1504 66.4677 32.9825 66.2998 32.7754 66.2998C32.5683 66.2998 32.4004 66.4677 32.4004 66.6748C32.4004 66.8819 32.5683 67.0498 32.7754 67.0498Z" fill="#383A48"/>
<path d="M32.7754 68.9023C32.9825 68.9023 33.1504 68.7345 33.1504 68.5273C33.1504 68.3202 32.9825 68.1523 32.7754 68.1523C32.5683 68.1523 32.4004 68.3202 32.4004 68.5273C32.4004 68.7345 32.5683 68.9023 32.7754 68.9023Z" fill="#383A48"/>
<path d="M32.7754 70.7473C32.9825 70.7473 33.1504 70.5794 33.1504 70.3723C33.1504 70.1652 32.9825 69.9973 32.7754 69.9973C32.5683 69.9973 32.4004 70.1652 32.4004 70.3723C32.4004 70.5794 32.5683 70.7473 32.7754 70.7473Z" fill="#383A48"/>
<path d="M32.7754 72.5999C32.9825 72.5999 33.1504 72.432 33.1504 72.2249C33.1504 72.0177 32.9825 71.8499 32.7754 71.8499C32.5683 71.8499 32.4004 72.0177 32.4004 72.2249C32.4004 72.432 32.5683 72.5999 32.7754 72.5999Z" fill="#383A48"/>
<path d="M32.7754 74.4524C32.9825 74.4524 33.1504 74.2845 33.1504 74.0774C33.1504 73.8703 32.9825 73.7024 32.7754 73.7024C32.5683 73.7024 32.4004 73.8703 32.4004 74.0774C32.4004 74.2845 32.5683 74.4524 32.7754 74.4524Z" fill="#383A48"/>
<path d="M30.9229 44.8499C31.13 44.8499 31.2979 44.682 31.2979 44.4749C31.2979 44.2677 31.13 44.0999 30.9229 44.0999C30.7157 44.0999 30.5479 44.2677 30.5479 44.4749C30.5479 44.682 30.7157 44.8499 30.9229 44.8499Z" fill="#383A48"/>
<path d="M30.9229 46.7024C31.13 46.7024 31.2979 46.5345 31.2979 46.3274C31.2979 46.1203 31.13 45.9524 30.9229 45.9524C30.7157 45.9524 30.5479 46.1203 30.5479 46.3274C30.5479 46.5345 30.7157 46.7024 30.9229 46.7024Z" fill="#383A48"/>
<path d="M30.9229 48.5474C31.13 48.5474 31.2979 48.3795 31.2979 48.1724C31.2979 47.9653 31.13 47.7974 30.9229 47.7974C30.7157 47.7974 30.5479 47.9653 30.5479 48.1724C30.5479 48.3795 30.7157 48.5474 30.9229 48.5474Z" fill="#383A48"/>
<path d="M30.9229 50.3999C31.13 50.3999 31.2979 50.232 31.2979 50.0249C31.2979 49.8178 31.13 49.6499 30.9229 49.6499C30.7157 49.6499 30.5479 49.8178 30.5479 50.0249C30.5479 50.232 30.7157 50.3999 30.9229 50.3999Z" fill="#383A48"/>
<path d="M30.9229 52.2524C31.13 52.2524 31.2979 52.0845 31.2979 51.8774C31.2979 51.6703 31.13 51.5024 30.9229 51.5024C30.7157 51.5024 30.5479 51.6703 30.5479 51.8774C30.5479 52.0845 30.7157 52.2524 30.9229 52.2524Z" fill="#383A48"/>
<path d="M30.9229 54.0974C31.13 54.0974 31.2979 53.9295 31.2979 53.7224C31.2979 53.5153 31.13 53.3474 30.9229 53.3474C30.7157 53.3474 30.5479 53.5153 30.5479 53.7224C30.5479 53.9295 30.7157 54.0974 30.9229 54.0974Z" fill="#383A48"/>
<path d="M30.9229 55.95C31.13 55.95 31.2979 55.7821 31.2979 55.575C31.2979 55.3678 31.13 55.2 30.9229 55.2C30.7157 55.2 30.5479 55.3678 30.5479 55.575C30.5479 55.7821 30.7157 55.95 30.9229 55.95Z" fill="#383A48"/>
<path d="M30.9229 57.8022C31.13 57.8022 31.2979 57.6344 31.2979 57.4272C31.2979 57.2201 31.13 57.0522 30.9229 57.0522C30.7157 57.0522 30.5479 57.2201 30.5479 57.4272C30.5479 57.6344 30.7157 57.8022 30.9229 57.8022Z" fill="#383A48"/>
<path d="M30.9229 59.6475C31.13 59.6475 31.2979 59.4796 31.2979 59.2725C31.2979 59.0654 31.13 58.8975 30.9229 58.8975C30.7157 58.8975 30.5479 59.0654 30.5479 59.2725C30.5479 59.4796 30.7157 59.6475 30.9229 59.6475Z" fill="#383A48"/>
<path d="M30.9229 61.4998C31.13 61.4998 31.2979 61.3319 31.2979 61.1248C31.2979 60.9176 31.13 60.7498 30.9229 60.7498C30.7157 60.7498 30.5479 60.9176 30.5479 61.1248C30.5479 61.3319 30.7157 61.4998 30.9229 61.4998Z" fill="#383A48"/>
<path d="M30.9229 63.3523C31.13 63.3523 31.2979 63.1844 31.2979 62.9773C31.2979 62.7702 31.13 62.6023 30.9229 62.6023C30.7157 62.6023 30.5479 62.7702 30.5479 62.9773C30.5479 63.1844 30.7157 63.3523 30.9229 63.3523Z" fill="#383A48"/>
<path d="M30.9229 65.1973C31.13 65.1973 31.2979 65.0294 31.2979 64.8223C31.2979 64.6152 31.13 64.4473 30.9229 64.4473C30.7157 64.4473 30.5479 64.6152 30.5479 64.8223C30.5479 65.0294 30.7157 65.1973 30.9229 65.1973Z" fill="#383A48"/>
<path d="M30.9229 67.0498C31.13 67.0498 31.2979 66.8819 31.2979 66.6748C31.2979 66.4677 31.13 66.2998 30.9229 66.2998C30.7157 66.2998 30.5479 66.4677 30.5479 66.6748C30.5479 66.8819 30.7157 67.0498 30.9229 67.0498Z" fill="#383A48"/>
<path d="M30.9229 68.9023C31.13 68.9023 31.2979 68.7345 31.2979 68.5273C31.2979 68.3202 31.13 68.1523 30.9229 68.1523C30.7157 68.1523 30.5479 68.3202 30.5479 68.5273C30.5479 68.7345 30.7157 68.9023 30.9229 68.9023Z" fill="#383A48"/>
<path d="M30.9229 70.7473C31.13 70.7473 31.2979 70.5794 31.2979 70.3723C31.2979 70.1652 31.13 69.9973 30.9229 69.9973C30.7157 69.9973 30.5479 70.1652 30.5479 70.3723C30.5479 70.5794 30.7157 70.7473 30.9229 70.7473Z" fill="#383A48"/>
<path d="M29.0776 44.8499C29.2847 44.8499 29.4526 44.682 29.4526 44.4749C29.4526 44.2677 29.2847 44.0999 29.0776 44.0999C28.8705 44.0999 28.7026 44.2677 28.7026 44.4749C28.7026 44.682 28.8705 44.8499 29.0776 44.8499Z" fill="#383A48"/>
<path d="M29.0776 46.7024C29.2847 46.7024 29.4526 46.5345 29.4526 46.3274C29.4526 46.1203 29.2847 45.9524 29.0776 45.9524C28.8705 45.9524 28.7026 46.1203 28.7026 46.3274C28.7026 46.5345 28.8705 46.7024 29.0776 46.7024Z" fill="#383A48"/>
<path d="M29.0776 48.5474C29.2847 48.5474 29.4526 48.3795 29.4526 48.1724C29.4526 47.9653 29.2847 47.7974 29.0776 47.7974C28.8705 47.7974 28.7026 47.9653 28.7026 48.1724C28.7026 48.3795 28.8705 48.5474 29.0776 48.5474Z" fill="#383A48"/>
<path d="M29.0776 50.3999C29.2847 50.3999 29.4526 50.232 29.4526 50.0249C29.4526 49.8178 29.2847 49.6499 29.0776 49.6499C28.8705 49.6499 28.7026 49.8178 28.7026 50.0249C28.7026 50.232 28.8705 50.3999 29.0776 50.3999Z" fill="#383A48"/>
<path d="M29.0776 52.2524C29.2847 52.2524 29.4526 52.0845 29.4526 51.8774C29.4526 51.6703 29.2847 51.5024 29.0776 51.5024C28.8705 51.5024 28.7026 51.6703 28.7026 51.8774C28.7026 52.0845 28.8705 52.2524 29.0776 52.2524Z" fill="#383A48"/>
<path d="M29.0776 54.0974C29.2847 54.0974 29.4526 53.9295 29.4526 53.7224C29.4526 53.5153 29.2847 53.3474 29.0776 53.3474C28.8705 53.3474 28.7026 53.5153 28.7026 53.7224C28.7026 53.9295 28.8705 54.0974 29.0776 54.0974Z" fill="#383A48"/>
<path d="M29.0776 55.95C29.2847 55.95 29.4526 55.7821 29.4526 55.575C29.4526 55.3678 29.2847 55.2 29.0776 55.2C28.8705 55.2 28.7026 55.3678 28.7026 55.575C28.7026 55.7821 28.8705 55.95 29.0776 55.95Z" fill="#383A48"/>
<path d="M27.2251 44.8499C27.4322 44.8499 27.6001 44.682 27.6001 44.4749C27.6001 44.2677 27.4322 44.0999 27.2251 44.0999C27.018 44.0999 26.8501 44.2677 26.8501 44.4749C26.8501 44.682 27.018 44.8499 27.2251 44.8499Z" fill="#383A48"/>
<path d="M27.2251 46.7024C27.4322 46.7024 27.6001 46.5345 27.6001 46.3274C27.6001 46.1203 27.4322 45.9524 27.2251 45.9524C27.018 45.9524 26.8501 46.1203 26.8501 46.3274C26.8501 46.5345 27.018 46.7024 27.2251 46.7024Z" fill="#383A48"/>
<path d="M27.2251 48.5474C27.4322 48.5474 27.6001 48.3795 27.6001 48.1724C27.6001 47.9653 27.4322 47.7974 27.2251 47.7974C27.018 47.7974 26.8501 47.9653 26.8501 48.1724C26.8501 48.3795 27.018 48.5474 27.2251 48.5474Z" fill="#383A48"/>
<path d="M27.2251 50.3999C27.4322 50.3999 27.6001 50.232 27.6001 50.0249C27.6001 49.8178 27.4322 49.6499 27.2251 49.6499C27.018 49.6499 26.8501 49.8178 26.8501 50.0249C26.8501 50.232 27.018 50.3999 27.2251 50.3999Z" fill="#383A48"/>
<path d="M27.2251 52.2524C27.4322 52.2524 27.6001 52.0845 27.6001 51.8774C27.6001 51.6703 27.4322 51.5024 27.2251 51.5024C27.018 51.5024 26.8501 51.6703 26.8501 51.8774C26.8501 52.0845 27.018 52.2524 27.2251 52.2524Z" fill="#383A48"/>
<path d="M27.2251 54.0974C27.4322 54.0974 27.6001 53.9295 27.6001 53.7224C27.6001 53.5153 27.4322 53.3474 27.2251 53.3474C27.018 53.3474 26.8501 53.5153 26.8501 53.7224C26.8501 53.9295 27.018 54.0974 27.2251 54.0974Z" fill="#383A48"/>
<path d="M27.2251 55.95C27.4322 55.95 27.6001 55.7821 27.6001 55.575C27.6001 55.3678 27.4322 55.2 27.2251 55.2C27.018 55.2 26.8501 55.3678 26.8501 55.575C26.8501 55.7821 27.018 55.95 27.2251 55.95Z" fill="#383A48"/>
<path d="M25.373 44.8499C25.5802 44.8499 25.748 44.682 25.748 44.4749C25.748 44.2677 25.5802 44.0999 25.373 44.0999C25.1659 44.0999 24.998 44.2677 24.998 44.4749C24.998 44.682 25.1659 44.8499 25.373 44.8499Z" fill="#383A48"/>
<path d="M25.373 46.7024C25.5802 46.7024 25.748 46.5345 25.748 46.3274C25.748 46.1203 25.5802 45.9524 25.373 45.9524C25.1659 45.9524 24.998 46.1203 24.998 46.3274C24.998 46.5345 25.1659 46.7024 25.373 46.7024Z" fill="#383A48"/>
<path d="M25.373 48.5474C25.5802 48.5474 25.748 48.3795 25.748 48.1724C25.748 47.9653 25.5802 47.7974 25.373 47.7974C25.1659 47.7974 24.998 47.9653 24.998 48.1724C24.998 48.3795 25.1659 48.5474 25.373 48.5474Z" fill="#383A48"/>
<path d="M25.373 50.3999C25.5802 50.3999 25.748 50.232 25.748 50.0249C25.748 49.8178 25.5802 49.6499 25.373 49.6499C25.1659 49.6499 24.998 49.8178 24.998 50.0249C24.998 50.232 25.1659 50.3999 25.373 50.3999Z" fill="#383A48"/>
<path d="M25.373 52.2524C25.5802 52.2524 25.748 52.0845 25.748 51.8774C25.748 51.6703 25.5802 51.5024 25.373 51.5024C25.1659 51.5024 24.998 51.6703 24.998 51.8774C24.998 52.0845 25.1659 52.2524 25.373 52.2524Z" fill="#383A48"/>
<path d="M25.373 54.0974C25.5802 54.0974 25.748 53.9295 25.748 53.7224C25.748 53.5153 25.5802 53.3474 25.373 53.3474C25.1659 53.3474 24.998 53.5153 24.998 53.7224C24.998 53.9295 25.1659 54.0974 25.373 54.0974Z" fill="#383A48"/>
<path d="M25.373 55.95C25.5802 55.95 25.748 55.7821 25.748 55.575C25.748 55.3678 25.5802 55.2 25.373 55.2C25.1659 55.2 24.998 55.3678 24.998 55.575C24.998 55.7821 25.1659 55.95 25.373 55.95Z" fill="#383A48"/>
<path d="M23.5278 46.7024C23.7349 46.7024 23.9028 46.5345 23.9028 46.3274C23.9028 46.1203 23.7349 45.9524 23.5278 45.9524C23.3207 45.9524 23.1528 46.1203 23.1528 46.3274C23.1528 46.5345 23.3207 46.7024 23.5278 46.7024Z" fill="#383A48"/>
<path d="M23.5278 48.5474C23.7349 48.5474 23.9028 48.3795 23.9028 48.1724C23.9028 47.9653 23.7349 47.7974 23.5278 47.7974C23.3207 47.7974 23.1528 47.9653 23.1528 48.1724C23.1528 48.3795 23.3207 48.5474 23.5278 48.5474Z" fill="#383A48"/>
<path d="M23.5278 50.3999C23.7349 50.3999 23.9028 50.232 23.9028 50.0249C23.9028 49.8178 23.7349 49.6499 23.5278 49.6499C23.3207 49.6499 23.1528 49.8178 23.1528 50.0249C23.1528 50.232 23.3207 50.3999 23.5278 50.3999Z" fill="#383A48"/>
<path d="M23.5278 52.2524C23.7349 52.2524 23.9028 52.0845 23.9028 51.8774C23.9028 51.6703 23.7349 51.5024 23.5278 51.5024C23.3207 51.5024 23.1528 51.6703 23.1528 51.8774C23.1528 52.0845 23.3207 52.2524 23.5278 52.2524Z" fill="#383A48"/>
<path d="M23.5278 54.0974C23.7349 54.0974 23.9028 53.9295 23.9028 53.7224C23.9028 53.5153 23.7349 53.3474 23.5278 53.3474C23.3207 53.3474 23.1528 53.5153 23.1528 53.7224C23.1528 53.9295 23.3207 54.0974 23.5278 54.0974Z" fill="#383A48"/>
<path d="M21.6753 48.5474C21.8824 48.5474 22.0503 48.3795 22.0503 48.1724C22.0503 47.9653 21.8824 47.7974 21.6753 47.7974C21.4682 47.7974 21.3003 47.9653 21.3003 48.1724C21.3003 48.3795 21.4682 48.5474 21.6753 48.5474Z" fill="#383A48"/>
<path d="M21.6753 50.3999C21.8824 50.3999 22.0503 50.232 22.0503 50.0249C22.0503 49.8178 21.8824 49.6499 21.6753 49.6499C21.4682 49.6499 21.3003 49.8178 21.3003 50.0249C21.3003 50.232 21.4682 50.3999 21.6753 50.3999Z" fill="#383A48"/>
<path d="M68.6027 50.0398H35.1152V69.5998C35.1152 73.5598 38.3252 76.7698 42.2852 76.7698H61.4327C65.3927 76.7698 68.6027 73.5598 68.6027 69.5998V50.0398Z" fill="#E0719E"/>
<path fill-rule="evenodd" clip-rule="evenodd" d="M42.2852 77.1448H61.4327C65.5952 77.1448 68.9777 73.7623 68.9777 69.5998V50.0398C68.9777 49.8298 68.8127 49.6648 68.6027 49.6648H35.1152C34.9052 49.6648 34.7402 49.8298 34.7402 50.0398V69.5998C34.7402 73.7623 38.1227 77.1448 42.2852 77.1448ZM35.4902 69.5998V50.4148H68.2277V69.5998C68.2277 73.3423 65.1827 76.3948 61.4327 76.3948H42.2852C38.5427 76.3948 35.4902 73.3498 35.4902 69.5998Z" fill="#383A48"/>
<rect x="35.1152" y="54.3298" width="33.4875" height="10.1775" fill="#AAC6FC"/>
<path fill-rule="evenodd" clip-rule="evenodd" d="M35.1152 64.8898H68.6027C68.8127 64.8898 68.9777 64.7173 68.9777 64.5073V54.3298C68.9777 54.1198 68.8127 53.9548 68.6027 53.9548H35.1152C34.9052 53.9548 34.7402 54.1198 34.7402 54.3298V64.5148C34.7402 64.7248 34.9052 64.8898 35.1152 64.8898ZM68.2277 64.1398H35.4902V54.7048H68.2277V64.1398Z" fill="#383A48"/>
<path d="M67.7026 57.9521C67.9097 57.9521 68.0776 57.7843 68.0776 57.5771C68.0776 57.37 67.9097 57.2021 67.7026 57.2021C67.4955 57.2021 67.3276 57.37 67.3276 57.5771C67.3276 57.7843 67.4955 57.9521 67.7026 57.9521Z" fill="#383A48"/>
<path d="M67.7026 59.7971C67.9097 59.7971 68.0776 59.6292 68.0776 59.4221C68.0776 59.215 67.9097 59.0471 67.7026 59.0471C67.4955 59.0471 67.3276 59.215 67.3276 59.4221C67.3276 59.6292 67.4955 59.7971 67.7026 59.7971Z" fill="#383A48"/>
<path d="M67.7026 61.6497C67.9097 61.6497 68.0776 61.4818 68.0776 61.2747C68.0776 61.0676 67.9097 60.8997 67.7026 60.8997C67.4955 60.8997 67.3276 61.0676 67.3276 61.2747C67.3276 61.4818 67.4955 61.6497 67.7026 61.6497Z" fill="#383A48"/>
<path d="M67.7026 63.5022C67.9097 63.5022 68.0776 63.3343 68.0776 63.1272C68.0776 62.9201 67.9097 62.7522 67.7026 62.7522C67.4955 62.7522 67.3276 62.9201 67.3276 63.1272C67.3276 63.3343 67.4955 63.5022 67.7026 63.5022Z" fill="#383A48"/>
<path d="M65.8501 57.9521C66.0572 57.9521 66.2251 57.7843 66.2251 57.5771C66.2251 57.37 66.0572 57.2021 65.8501 57.2021C65.643 57.2021 65.4751 57.37 65.4751 57.5771C65.4751 57.7843 65.643 57.9521 65.8501 57.9521Z" fill="#383A48"/>
<path d="M65.8501 59.7971C66.0572 59.7971 66.2251 59.6292 66.2251 59.4221C66.2251 59.215 66.0572 59.0471 65.8501 59.0471C65.643 59.0471 65.4751 59.215 65.4751 59.4221C65.4751 59.6292 65.643 59.7971 65.8501 59.7971Z" fill="#383A48"/>
<path d="M65.8501 61.6497C66.0572 61.6497 66.2251 61.4818 66.2251 61.2747C66.2251 61.0676 66.0572 60.8997 65.8501 60.8997C65.643 60.8997 65.4751 61.0676 65.4751 61.2747C65.4751 61.4818 65.643 61.6497 65.8501 61.6497Z" fill="#383A48"/>
<path d="M65.8501 63.5022C66.0572 63.5022 66.2251 63.3343 66.2251 63.1272C66.2251 62.9201 66.0572 62.7522 65.8501 62.7522C65.643 62.7522 65.4751 62.9201 65.4751 63.1272C65.4751 63.3343 65.643 63.5022 65.8501 63.5022Z" fill="#383A48"/>
<path d="M63.9976 57.9521C64.2047 57.9521 64.3726 57.7843 64.3726 57.5771C64.3726 57.37 64.2047 57.2021 63.9976 57.2021C63.7905 57.2021 63.6226 57.37 63.6226 57.5771C63.6226 57.7843 63.7905 57.9521 63.9976 57.9521Z" fill="#383A48"/>
<path d="M63.9976 59.7971C64.2047 59.7971 64.3726 59.6292 64.3726 59.4221C64.3726 59.215 64.2047 59.0471 63.9976 59.0471C63.7905 59.0471 63.6226 59.215 63.6226 59.4221C63.6226 59.6292 63.7905 59.7971 63.9976 59.7971Z" fill="#383A48"/>
<path d="M63.9976 61.6497C64.2047 61.6497 64.3726 61.4818 64.3726 61.2747C64.3726 61.0676 64.2047 60.8997 63.9976 60.8997C63.7905 60.8997 63.6226 61.0676 63.6226 61.2747C63.6226 61.4818 63.7905 61.6497 63.9976 61.6497Z" fill="#383A48"/>
<path d="M63.9976 63.5022C64.2047 63.5022 64.3726 63.3343 64.3726 63.1272C64.3726 62.9201 64.2047 62.7522 63.9976 62.7522C63.7905 62.7522 63.6226 62.9201 63.6226 63.1272C63.6226 63.3343 63.7905 63.5022 63.9976 63.5022Z" fill="#383A48"/>
<path d="M62.1523 57.9521C62.3595 57.9521 62.5273 57.7843 62.5273 57.5771C62.5273 57.37 62.3595 57.2021 62.1523 57.2021C61.9452 57.2021 61.7773 57.37 61.7773 57.5771C61.7773 57.7843 61.9452 57.9521 62.1523 57.9521Z" fill="#383A48"/>
<path d="M62.1523 59.7971C62.3595 59.7971 62.5273 59.6292 62.5273 59.4221C62.5273 59.215 62.3595 59.0471 62.1523 59.0471C61.9452 59.0471 61.7773 59.215 61.7773 59.4221C61.7773 59.6292 61.9452 59.7971 62.1523 59.7971Z" fill="#383A48"/>
<path d="M62.1523 61.6497C62.3595 61.6497 62.5273 61.4818 62.5273 61.2747C62.5273 61.0676 62.3595 60.8997 62.1523 60.8997C61.9452 60.8997 61.7773 61.0676 61.7773 61.2747C61.7773 61.4818 61.9452 61.6497 62.1523 61.6497Z" fill="#383A48"/>
<path d="M62.1523 63.5022C62.3595 63.5022 62.5273 63.3343 62.5273 63.1272C62.5273 62.9201 62.3595 62.7522 62.1523 62.7522C61.9452 62.7522 61.7773 62.9201 61.7773 63.1272C61.7773 63.3343 61.9452 63.5022 62.1523 63.5022Z" fill="#383A48"/>
<path d="M60.3003 57.9521C60.5074 57.9521 60.6753 57.7843 60.6753 57.5771C60.6753 57.37 60.5074 57.2021 60.3003 57.2021C60.0932 57.2021 59.9253 57.37 59.9253 57.5771C59.9253 57.7843 60.0932 57.9521 60.3003 57.9521Z" fill="#383A48"/>
<path d="M60.3003 59.7971C60.5074 59.7971 60.6753 59.6292 60.6753 59.4221C60.6753 59.215 60.5074 59.0471 60.3003 59.0471C60.0932 59.0471 59.9253 59.215 59.9253 59.4221C59.9253 59.6292 60.0932 59.7971 60.3003 59.7971Z" fill="#383A48"/>
<path d="M60.3003 61.6497C60.5074 61.6497 60.6753 61.4818 60.6753 61.2747C60.6753 61.0676 60.5074 60.8997 60.3003 60.8997C60.0932 60.8997 59.9253 61.0676 59.9253 61.2747C59.9253 61.4818 60.0932 61.6497 60.3003 61.6497Z" fill="#383A48"/>
<path d="M60.3003 63.5022C60.5074 63.5022 60.6753 63.3343 60.6753 63.1272C60.6753 62.9201 60.5074 62.7522 60.3003 62.7522C60.0932 62.7522 59.9253 62.9201 59.9253 63.1272C59.9253 63.3343 60.0932 63.5022 60.3003 63.5022Z" fill="#383A48"/>
<path d="M58.8199 57.6372C58.8531 57.4328 58.7143 57.2401 58.5098 57.207C58.3054 57.1738 58.1128 57.3126 58.0796 57.517C58.0464 57.7215 58.1853 57.9141 58.3897 57.9473C58.5941 57.9805 58.7868 57.8416 58.8199 57.6372Z" fill="#383A48"/>
<path d="M58.8199 59.4824C58.8531 59.278 58.7143 59.0853 58.5098 59.0522C58.3054 59.019 58.1128 59.1578 58.0796 59.3623C58.0464 59.5667 58.1853 59.7593 58.3897 59.7925C58.5941 59.8257 58.7868 59.6868 58.8199 59.4824Z" fill="#383A48"/>
<path d="M58.8199 61.3349C58.8531 61.1305 58.7143 60.9379 58.5098 60.9047C58.3054 60.8715 58.1128 61.0104 58.0796 61.2148C58.0464 61.4192 58.1853 61.6119 58.3897 61.645C58.5941 61.6782 58.7868 61.5394 58.8199 61.3349Z" fill="#383A48"/>
<path d="M58.8199 63.1875C58.8531 62.9831 58.7143 62.7904 58.5098 62.7573C58.3054 62.7241 58.1128 62.8629 58.0796 63.0673C58.0464 63.2718 58.1853 63.4644 58.3897 63.4976C58.5941 63.5308 58.7868 63.3919 58.8199 63.1875Z" fill="#383A48"/>
<path d="M56.6025 57.9521C56.8096 57.9521 56.9775 57.7843 56.9775 57.5771C56.9775 57.37 56.8096 57.2021 56.6025 57.2021C56.3954 57.2021 56.2275 57.37 56.2275 57.5771C56.2275 57.7843 56.3954 57.9521 56.6025 57.9521Z" fill="#383A48"/>
<path d="M56.6025 59.7971C56.8096 59.7971 56.9775 59.6292 56.9775 59.4221C56.9775 59.215 56.8096 59.0471 56.6025 59.0471C56.3954 59.0471 56.2275 59.215 56.2275 59.4221C56.2275 59.6292 56.3954 59.7971 56.6025 59.7971Z" fill="#383A48"/>
<path d="M56.6025 61.6497C56.8096 61.6497 56.9775 61.4818 56.9775 61.2747C56.9775 61.0676 56.8096 60.8997 56.6025 60.8997C56.3954 60.8997 56.2275 61.0676 56.2275 61.2747C56.2275 61.4818 56.3954 61.6497 56.6025 61.6497Z" fill="#383A48"/>
<path d="M56.6025 63.5022C56.8096 63.5022 56.9775 63.3343 56.9775 63.1272C56.9775 62.9201 56.8096 62.7522 56.6025 62.7522C56.3954 62.7522 56.2275 62.9201 56.2275 63.1272C56.2275 63.3343 56.3954 63.5022 56.6025 63.5022Z" fill="#383A48"/>
<path d="M54.75 57.9521C54.9571 57.9521 55.125 57.7843 55.125 57.5771C55.125 57.37 54.9571 57.2021 54.75 57.2021C54.5429 57.2021 54.375 57.37 54.375 57.5771C54.375 57.7843 54.5429 57.9521 54.75 57.9521Z" fill="#383A48"/>
<path d="M54.75 59.7971C54.9571 59.7971 55.125 59.6292 55.125 59.4221C55.125 59.215 54.9571 59.0471 54.75 59.0471C54.5429 59.0471 54.375 59.215 54.375 59.4221C54.375 59.6292 54.5429 59.7971 54.75 59.7971Z" fill="#383A48"/>
<path d="M54.75 61.6497C54.9571 61.6497 55.125 61.4818 55.125 61.2747C55.125 61.0676 54.9571 60.8997 54.75 60.8997C54.5429 60.8997 54.375 61.0676 54.375 61.2747C54.375 61.4818 54.5429 61.6497 54.75 61.6497Z" fill="#383A48"/>
<path d="M54.75 63.5022C54.9571 63.5022 55.125 63.3343 55.125 63.1272C55.125 62.9201 54.9571 62.7522 54.75 62.7522C54.5429 62.7522 54.375 62.9201 54.375 63.1272C54.375 63.3343 54.5429 63.5022 54.75 63.5022Z" fill="#383A48"/>
<path d="M52.8975 57.9521C53.1046 57.9521 53.2725 57.7843 53.2725 57.5771C53.2725 57.37 53.1046 57.2021 52.8975 57.2021C52.6904 57.2021 52.5225 57.37 52.5225 57.5771C52.5225 57.7843 52.6904 57.9521 52.8975 57.9521Z" fill="#383A48"/>
<path d="M52.8975 59.7971C53.1046 59.7971 53.2725 59.6292 53.2725 59.4221C53.2725 59.215 53.1046 59.0471 52.8975 59.0471C52.6904 59.0471 52.5225 59.215 52.5225 59.4221C52.5225 59.6292 52.6904 59.7971 52.8975 59.7971Z" fill="#383A48"/>
<path d="M52.8975 61.6497C53.1046 61.6497 53.2725 61.4818 53.2725 61.2747C53.2725 61.0676 53.1046 60.8997 52.8975 60.8997C52.6904 60.8997 52.5225 61.0676 52.5225 61.2747C52.5225 61.4818 52.6904 61.6497 52.8975 61.6497Z" fill="#383A48"/>
<path d="M52.8975 63.5022C53.1046 63.5022 53.2725 63.3343 53.2725 63.1272C53.2725 62.9201 53.1046 62.7522 52.8975 62.7522C52.6904 62.7522 52.5225 62.9201 52.5225 63.1272C52.5225 63.3343 52.6904 63.5022 52.8975 63.5022Z" fill="#383A48"/>
<path d="M51.0527 57.9521C51.2598 57.9521 51.4277 57.7843 51.4277 57.5771C51.4277 57.37 51.2598 57.2021 51.0527 57.2021C50.8456 57.2021 50.6777 57.37 50.6777 57.5771C50.6777 57.7843 50.8456 57.9521 51.0527 57.9521Z" fill="#383A48"/>
<path d="M51.0527 59.7971C51.2598 59.7971 51.4277 59.6292 51.4277 59.4221C51.4277 59.215 51.2598 59.0471 51.0527 59.0471C50.8456 59.0471 50.6777 59.215 50.6777 59.4221C50.6777 59.6292 50.8456 59.7971 51.0527 59.7971Z" fill="#383A48"/>
<path d="M51.0527 61.6497C51.2598 61.6497 51.4277 61.4818 51.4277 61.2747C51.4277 61.0676 51.2598 60.8997 51.0527 60.8997C50.8456 60.8997 50.6777 61.0676 50.6777 61.2747C50.6777 61.4818 50.8456 61.6497 51.0527 61.6497Z" fill="#383A48"/>
<path d="M51.0527 63.5022C51.2598 63.5022 51.4277 63.3343 51.4277 63.1272C51.4277 62.9201 51.2598 62.7522 51.0527 62.7522C50.8456 62.7522 50.6777 62.9201 50.6777 63.1272C50.6777 63.3343 50.8456 63.5022 51.0527 63.5022Z" fill="#383A48"/>
<path d="M49.2002 57.9521C49.4073 57.9521 49.5752 57.7843 49.5752 57.5771C49.5752 57.37 49.4073 57.2021 49.2002 57.2021C48.9931 57.2021 48.8252 57.37 48.8252 57.5771C48.8252 57.7843 48.9931 57.9521 49.2002 57.9521Z" fill="#383A48"/>
<path d="M49.2002 59.7971C49.4073 59.7971 49.5752 59.6292 49.5752 59.4221C49.5752 59.215 49.4073 59.0471 49.2002 59.0471C48.9931 59.0471 48.8252 59.215 48.8252 59.4221C48.8252 59.6292 48.9931 59.7971 49.2002 59.7971Z" fill="#383A48"/>
<path d="M49.2002 61.6497C49.4073 61.6497 49.5752 61.4818 49.5752 61.2747C49.5752 61.0676 49.4073 60.8997 49.2002 60.8997C48.9931 60.8997 48.8252 61.0676 48.8252 61.2747C48.8252 61.4818 48.9931 61.6497 49.2002 61.6497Z" fill="#383A48"/>
<path d="M49.2002 63.5022C49.4073 63.5022 49.5752 63.3343 49.5752 63.1272C49.5752 62.9201 49.4073 62.7522 49.2002 62.7522C48.9931 62.7522 48.8252 62.9201 48.8252 63.1272C48.8252 63.3343 48.9931 63.5022 49.2002 63.5022Z" fill="#383A48"/>
<path d="M47.3477 57.9521C47.5548 57.9521 47.7227 57.7843 47.7227 57.5771C47.7227 57.37 47.5548 57.2021 47.3477 57.2021C47.1405 57.2021 46.9727 57.37 46.9727 57.5771C46.9727 57.7843 47.1405 57.9521 47.3477 57.9521Z" fill="#383A48"/>
<path d="M47.3477 59.7971C47.5548 59.7971 47.7227 59.6292 47.7227 59.4221C47.7227 59.215 47.5548 59.0471 47.3477 59.0471C47.1405 59.0471 46.9727 59.215 46.9727 59.4221C46.9727 59.6292 47.1405 59.7971 47.3477 59.7971Z" fill="#383A48"/>
<path d="M47.3477 61.6497C47.5548 61.6497 47.7227 61.4818 47.7227 61.2747C47.7227 61.0676 47.5548 60.8997 47.3477 60.8997C47.1405 60.8997 46.9727 61.0676 46.9727 61.2747C46.9727 61.4818 47.1405 61.6497 47.3477 61.6497Z" fill="#383A48"/>
<path d="M47.3477 63.5022C47.5548 63.5022 47.7227 63.3343 47.7227 63.1272C47.7227 62.9201 47.5548 62.7522 47.3477 62.7522C47.1405 62.7522 46.9727 62.9201 46.9727 63.1272C46.9727 63.3343 47.1405 63.5022 47.3477 63.5022Z" fill="#383A48"/>
<path d="M45.5024 57.9521C45.7095 57.9521 45.8774 57.7843 45.8774 57.5771C45.8774 57.37 45.7095 57.2021 45.5024 57.2021C45.2953 57.2021 45.1274 57.37 45.1274 57.5771C45.1274 57.7843 45.2953 57.9521 45.5024 57.9521Z" fill="#383A48"/>
<path d="M45.5024 59.7971C45.7095 59.7971 45.8774 59.6292 45.8774 59.4221C45.8774 59.215 45.7095 59.0471 45.5024 59.0471C45.2953 59.0471 45.1274 59.215 45.1274 59.4221C45.1274 59.6292 45.2953 59.7971 45.5024 59.7971Z" fill="#383A48"/>
<path d="M45.5024 61.6497C45.7095 61.6497 45.8774 61.4818 45.8774 61.2747C45.8774 61.0676 45.7095 60.8997 45.5024 60.8997C45.2953 60.8997 45.1274 61.0676 45.1274 61.2747C45.1274 61.4818 45.2953 61.6497 45.5024 61.6497Z" fill="#383A48"/>
<path d="M45.5024 63.5022C45.7095 63.5022 45.8774 63.3343 45.8774 63.1272C45.8774 62.9201 45.7095 62.7522 45.5024 62.7522C45.2953 62.7522 45.1274 62.9201 45.1274 63.1272C45.1274 63.3343 45.2953 63.5022 45.5024 63.5022Z" fill="#383A48"/>
<path d="M43.6499 57.9521C43.857 57.9521 44.0249 57.7843 44.0249 57.5771C44.0249 57.37 43.857 57.2021 43.6499 57.2021C43.4428 57.2021 43.2749 57.37 43.2749 57.5771C43.2749 57.7843 43.4428 57.9521 43.6499 57.9521Z" fill="#383A48"/>
<path d="M43.6499 59.7971C43.857 59.7971 44.0249 59.6292 44.0249 59.4221C44.0249 59.215 43.857 59.0471 43.6499 59.0471C43.4428 59.0471 43.2749 59.215 43.2749 59.4221C43.2749 59.6292 43.4428 59.7971 43.6499 59.7971Z" fill="#383A48"/>
<path d="M43.6499 61.6497C43.857 61.6497 44.0249 61.4818 44.0249 61.2747C44.0249 61.0676 43.857 60.8997 43.6499 60.8997C43.4428 60.8997 43.2749 61.0676 43.2749 61.2747C43.2749 61.4818 43.4428 61.6497 43.6499 61.6497Z" fill="#383A48"/>
<path d="M43.6499 63.5022C43.857 63.5022 44.0249 63.3343 44.0249 63.1272C44.0249 62.9201 43.857 62.7522 43.6499 62.7522C43.4428 62.7522 43.2749 62.9201 43.2749 63.1272C43.2749 63.3343 43.4428 63.5022 43.6499 63.5022Z" fill="#383A48"/>
<path d="M41.7974 57.9521C42.0045 57.9521 42.1724 57.7843 42.1724 57.5771C42.1724 57.37 42.0045 57.2021 41.7974 57.2021C41.5903 57.2021 41.4224 57.37 41.4224 57.5771C41.4224 57.7843 41.5903 57.9521 41.7974 57.9521Z" fill="#383A48"/>
<path d="M41.7974 59.7971C42.0045 59.7971 42.1724 59.6292 42.1724 59.4221C42.1724 59.215 42.0045 59.0471 41.7974 59.0471C41.5903 59.0471 41.4224 59.215 41.4224 59.4221C41.4224 59.6292 41.5903 59.7971 41.7974 59.7971Z" fill="#383A48"/>
<path d="M41.7974 61.6497C42.0045 61.6497 42.1724 61.4818 42.1724 61.2747C42.1724 61.0676 42.0045 60.8997 41.7974 60.8997C41.5903 60.8997 41.4224 61.0676 41.4224 61.2747C41.4224 61.4818 41.5903 61.6497 41.7974 61.6497Z" fill="#383A48"/>
<path d="M41.7974 63.5022C42.0045 63.5022 42.1724 63.3343 42.1724 63.1272C42.1724 62.9201 42.0045 62.7522 41.7974 62.7522C41.5903 62.7522 41.4224 62.9201 41.4224 63.1272C41.4224 63.3343 41.5903 63.5022 41.7974 63.5022Z" fill="#383A48"/>
<path d="M39.9526 57.9521C40.1597 57.9521 40.3276 57.7843 40.3276 57.5771C40.3276 57.37 40.1597 57.2021 39.9526 57.2021C39.7455 57.2021 39.5776 57.37 39.5776 57.5771C39.5776 57.7843 39.7455 57.9521 39.9526 57.9521Z" fill="#383A48"/>
<path d="M39.9526 59.7971C40.1597 59.7971 40.3276 59.6292 40.3276 59.4221C40.3276 59.215 40.1597 59.0471 39.9526 59.0471C39.7455 59.0471 39.5776 59.215 39.5776 59.4221C39.5776 59.6292 39.7455 59.7971 39.9526 59.7971Z" fill="#383A48"/>
<path d="M39.9526 61.6497C40.1597 61.6497 40.3276 61.4818 40.3276 61.2747C40.3276 61.0676 40.1597 60.8997 39.9526 60.8997C39.7455 60.8997 39.5776 61.0676 39.5776 61.2747C39.5776 61.4818 39.7455 61.6497 39.9526 61.6497Z" fill="#383A48"/>
<path d="M39.9526 63.5022C40.1597 63.5022 40.3276 63.3343 40.3276 63.1272C40.3276 62.9201 40.1597 62.7522 39.9526 62.7522C39.7455 62.7522 39.5776 62.9201 39.5776 63.1272C39.5776 63.3343 39.7455 63.5022 39.9526 63.5022Z" fill="#383A48"/>
<path d="M38.1001 57.9521C38.3072 57.9521 38.4751 57.7843 38.4751 57.5771C38.4751 57.37 38.3072 57.2021 38.1001 57.2021C37.893 57.2021 37.7251 57.37 37.7251 57.5771C37.7251 57.7843 37.893 57.9521 38.1001 57.9521Z" fill="#383A48"/>
<path d="M38.1001 59.7971C38.3072 59.7971 38.4751 59.6292 38.4751 59.4221C38.4751 59.215 38.3072 59.0471 38.1001 59.0471C37.893 59.0471 37.7251 59.215 37.7251 59.4221C37.7251 59.6292 37.893 59.7971 38.1001 59.7971Z" fill="#383A48"/>
<path d="M38.1001 61.6497C38.3072 61.6497 38.4751 61.4818 38.4751 61.2747C38.4751 61.0676 38.3072 60.8997 38.1001 60.8997C37.893 60.8997 37.7251 61.0676 37.7251 61.2747C37.7251 61.4818 37.893 61.6497 38.1001 61.6497Z" fill="#383A48"/>
<path d="M38.1001 63.5022C38.3072 63.5022 38.4751 63.3343 38.4751 63.1272C38.4751 62.9201 38.3072 62.7522 38.1001 62.7522C37.893 62.7522 37.7251 62.9201 37.7251 63.1272C37.7251 63.3343 37.893 63.5022 38.1001 63.5022Z" fill="#383A48"/>
<path d="M36.2476 57.9521C36.4547 57.9521 36.6226 57.7843 36.6226 57.5771C36.6226 57.37 36.4547 57.2021 36.2476 57.2021C36.0405 57.2021 35.8726 57.37 35.8726 57.5771C35.8726 57.7843 36.0405 57.9521 36.2476 57.9521Z" fill="#383A48"/>
<path d="M36.2476 59.7971C36.4547 59.7971 36.6226 59.6292 36.6226 59.4221C36.6226 59.215 36.4547 59.0471 36.2476 59.0471C36.0405 59.0471 35.8726 59.215 35.8726 59.4221C35.8726 59.6292 36.0405 59.7971 36.2476 59.7971Z" fill="#383A48"/>
<path d="M36.2476 61.6497C36.4547 61.6497 36.6226 61.4818 36.6226 61.2747C36.6226 61.0676 36.4547 60.8997 36.2476 60.8997C36.0405 60.8997 35.8726 61.0676 35.8726 61.2747C35.8726 61.4818 36.0405 61.6497 36.2476 61.6497Z" fill="#383A48"/>
<path d="M36.2476 63.5022C36.4547 63.5022 36.6226 63.3343 36.6226 63.1272C36.6226 62.9201 36.4547 62.7522 36.2476 62.7522C36.0405 62.7522 35.8726 62.9201 35.8726 63.1272C35.8726 63.3343 36.0405 63.5022 36.2476 63.5022Z" fill="#383A48"/>
<path d="M71.2877 56.3098H32.4302C28.7627 56.3098 25.7852 53.3323 25.7852 49.6648V49.6648C25.7852 45.9973 28.7627 43.0198 32.4302 43.0198H71.2952C74.9627 43.0198 77.9402 45.9973 77.9402 49.6648V49.6648C77.9327 53.3323 74.9627 56.3098 71.2877 56.3098Z" fill="#E0719E"/>
<path fill-rule="evenodd" clip-rule="evenodd" d="M32.4302 56.6848H71.2877C75.1652 56.6848 78.3152 53.5348 78.3152 49.6648C78.3152 45.7948 75.1651 42.6448 71.2952 42.6448H32.4302C28.5602 42.6448 25.4102 45.7948 25.4102 49.6648C25.4102 53.5348 28.5602 56.6848 32.4302 56.6848ZM26.1602 49.6648C26.1602 46.2073 28.9727 43.3948 32.4302 43.3948H71.2952C74.7527 43.3948 77.5652 46.2073 77.5652 49.6648C77.5652 53.1223 74.7527 55.9348 71.2952 55.9348H32.4302C28.9727 55.9348 26.1602 53.1223 26.1602 49.6648Z" fill="#383A48"/>
<path d="M66.6152 47.3022H37.1027C35.7977 47.3022 34.7402 48.3597 34.7402 49.6647C34.7402 50.9697 35.7977 52.0272 37.1027 52.0272H66.6227C67.9277 52.0272 68.9852 50.9697 68.9852 49.6647C68.9852 48.3597 67.9202 47.3022 66.6152 47.3022Z" fill="#383A48"/>
<path d="M39.1199 23.6923C45.9299 20.4823 48.4949 38.2948 49.4774 51.6298H42.1724C42.1724 51.6298 31.8749 27.1048 39.1199 23.6923Z" fill="#F3F6E6"/>
<path fill-rule="evenodd" clip-rule="evenodd" d="M42.1726 52.0048H49.4776C49.5826 52.0048 49.6801 51.9598 49.7626 51.8773C49.8301 51.8023 49.8676 51.6973 49.8601 51.5923C49.3501 44.7148 48.6001 38.9398 47.6176 34.4398C47.0026 31.6123 46.2901 29.2798 45.5026 27.5023C44.5951 25.4548 43.5601 24.0823 42.4201 23.4148C41.3551 22.7923 40.1851 22.7698 38.9626 23.3473C35.7676 24.8548 35.3026 30.1273 37.5676 39.0298C39.1525 45.2548 41.581 51.1712 41.8102 51.7298C41.8207 51.7553 41.8266 51.7697 41.8276 51.7723C41.8876 51.9148 42.0226 52.0048 42.1726 52.0048ZM49.0801 51.2548H42.4276C41.9476 50.0773 39.7576 44.5948 38.2951 38.8498C35.5951 28.2598 37.3426 24.9523 39.2776 24.0373C40.2826 23.5648 41.1826 23.5723 42.0376 24.0748C43.9726 25.1998 45.6001 28.7473 46.8826 34.6048C47.8426 38.9848 48.5776 44.5873 49.0801 51.2548Z" fill="#383A48"/>
<path d="M64.5977 23.6923C57.7877 20.4823 55.2227 38.2948 54.2402 51.6298H61.5452C61.5452 51.6298 71.8427 27.1048 64.5977 23.6923Z" fill="#F3F6E6"/>
<path fill-rule="evenodd" clip-rule="evenodd" d="M54.2402 52.0049H61.5452C61.6952 52.0049 61.8302 51.9149 61.8977 51.7799C61.8987 51.7772 61.9046 51.7629 61.9151 51.7373C62.1444 51.1787 64.5728 45.2623 66.1577 39.0374C68.4227 30.1349 67.9502 24.8549 64.7627 23.3549C63.5402 22.7774 62.3777 22.7999 61.3052 23.4224C60.1652 24.0899 59.1302 25.4624 58.2227 27.5099C57.4352 29.2874 56.7227 31.6199 56.1077 34.4474C55.1252 38.9474 54.3677 44.7149 53.8652 51.5999C53.8577 51.7049 53.8952 51.8099 53.9627 51.8849C54.0377 51.9599 54.1352 52.0049 54.2402 52.0049ZM61.2977 51.2549H54.6452C55.1477 44.5874 55.8827 38.9849 56.8427 34.6124C58.1177 28.7474 59.7452 25.2074 61.6802 24.0749C62.5352 23.5799 63.4352 23.5649 64.4402 24.0374C66.3827 24.9449 68.1227 28.2524 65.4302 38.8424C63.9677 44.5949 61.7777 50.0774 61.2977 51.2549Z" fill="#383A48"/>
<path d="M56.9775 51.6298L60.9075 34.0573C60.9525 33.8473 61.095 33.7048 61.26 33.7048V33.7048C61.4925 33.7048 61.665 33.9898 61.62 34.2973L58.9725 51.6298" fill="#E0719E"/>
<path d="M46.74 51.6298L42.81 34.0573C42.765 33.8473 42.6225 33.7048 42.4575 33.7048V33.7048C42.225 33.7048 42.0525 33.9898 42.0975 34.2973L44.745 51.6298" fill="#E0719E"/>
<path d="M63.105 52.0049H39.915C39.705 52.0049 39.54 51.8399 39.54 51.6299C39.54 51.4199 39.705 51.2549 39.915 51.2549H63.105C63.315 51.2549 63.48 51.4199 63.48 51.6299C63.48 51.8399 63.315 52.0049 63.105 52.0049Z" fill="#383A48"/>
<path d="M7.67274 38.8725L31.4327 23.04C31.6052 22.9275 31.8377 22.9725 31.9502 23.145C32.0627 23.31 32.0177 23.535 31.8602 23.655L8.79024 40.4775C8.35524 40.7925 7.74024 40.7025 7.42524 40.26C7.11024 39.825 7.20024 39.21 7.64274 38.895C7.65024 38.8875 7.66524 38.88 7.67274 38.8725Z" fill="#383A48"/>
<path d="M30.6529 21.1349C30.4654 21.1349 30.3079 20.9999 30.2779 20.8124L30.0829 19.3574C30.0529 19.1549 30.2029 18.9599 30.4054 18.9374C30.6079 18.9074 30.8029 19.0574 30.8254 19.2599L31.0204 20.7149C31.0504 20.9174 30.9004 21.1124 30.6979 21.1349C30.6829 21.1349 30.6679 21.1349 30.6529 21.1349Z" fill="#F3F6E6"/>
<path d="M32.6253 21.1423C32.5803 21.1423 32.5428 21.1348 32.4978 21.1198C32.3028 21.0523 32.2053 20.8348 32.2728 20.6398L32.7678 19.2598C32.8353 19.0648 33.0528 18.9598 33.2478 19.0348C33.4428 19.1023 33.5403 19.3198 33.4728 19.5148L32.9778 20.8948C32.9253 21.0448 32.7828 21.1423 32.6253 21.1423Z" fill="#F3F6E6"/>
<path d="M34.2151 22.6949C34.0651 22.6949 33.9301 22.6049 33.8701 22.4624C33.7951 22.2674 33.8851 22.0499 34.0801 21.9749L35.4376 21.4274C35.6326 21.3524 35.8501 21.4424 35.9251 21.6374C36.0001 21.8324 35.9101 22.0499 35.7151 22.1249L34.3576 22.6724C34.3051 22.6874 34.2601 22.6949 34.2151 22.6949Z" fill="#F3F6E6"/>
<path d="M35.333 25.8C35.2805 25.8 35.228 25.7925 35.183 25.77L33.8405 25.1775C33.653 25.095 33.563 24.87 33.6455 24.6825C33.728 24.495 33.953 24.405 34.1405 24.4875L35.483 25.08C35.6705 25.1625 35.7605 25.3875 35.678 25.575C35.6105 25.71 35.4755 25.8 35.333 25.8Z" fill="#F3F6E6"/>
<path d="M22.4178 63.0299C21.5628 63.0299 21.4728 62.2124 21.4728 61.8674C21.4728 61.6574 21.3078 61.4924 21.0978 61.4924C20.8878 61.4924 20.7228 61.6574 20.7228 61.8674C20.7228 62.2199 20.6328 63.0299 19.7778 63.0299C19.5678 63.0299 19.4028 63.1949 19.4028 63.4049C19.4028 63.6149 19.5678 63.7799 19.7778 63.7799C20.6328 63.7799 20.7228 64.5974 20.7228 64.9424C20.7228 65.1524 20.8878 65.3174 21.0978 65.3174C21.3078 65.3174 21.4728 65.1524 21.4728 64.9424C21.4728 64.5899 21.5628 63.7799 22.4178 63.7799C22.6278 63.7799 22.7928 63.6149 22.7928 63.4049C22.7928 63.1949 22.6203 63.0299 22.4178 63.0299Z" fill="#383A48"/>
<path d="M52.8304 28.1249C51.9754 28.1249 51.8854 27.3074 51.8854 26.9624C51.8854 26.7524 51.7204 26.5874 51.5104 26.5874C51.3004 26.5874 51.1354 26.7524 51.1354 26.9624C51.1354 27.3149 51.0454 28.1249 50.1904 28.1249C49.9804 28.1249 49.8154 28.2899 49.8154 28.4999C49.8154 28.7099 49.9804 28.8749 50.1904 28.8749C51.0454 28.8749 51.1354 29.6924 51.1354 30.0374C51.1354 30.2474 51.3004 30.4124 51.5104 30.4124C51.7204 30.4124 51.8854 30.2474 51.8854 30.0374C51.8854 29.6849 51.9754 28.8749 52.8304 28.8749C53.0404 28.8749 53.2054 28.7099 53.2054 28.4999C53.2054 28.2899 53.0404 28.1249 52.8304 28.1249Z" fill="#F6E049"/>
<path d="M78.5404 62.1825C77.6854 62.1825 77.5954 61.365 77.5954 61.02C77.5954 60.81 77.4304 60.645 77.2204 60.645C77.0104 60.645 76.8454 60.81 76.8454 61.02C76.8454 61.3725 76.7554 62.1825 75.9004 62.1825C75.6904 62.1825 75.5254 62.3475 75.5254 62.5575C75.5254 62.7675 75.6904 62.9325 75.9004 62.9325C76.7554 62.9325 76.8454 63.75 76.8454 64.095C76.8454 64.305 77.0104 64.47 77.2204 64.47C77.4304 64.47 77.5954 64.305 77.5954 64.095C77.5954 63.7425 77.6854 62.9325 78.5404 62.9325C78.7504 62.9325 78.9154 62.7675 78.9154 62.5575C78.9154 62.3475 78.7504 62.1825 78.5404 62.1825Z" fill="#F6E049"/>
<path d="M76.8677 77.145H25.7852C25.5752 77.145 25.4102 76.98 25.4102 76.77C25.4102 76.56 25.5752 76.395 25.7852 76.395H76.8677C77.0777 76.395 77.2427 76.56 77.2427 76.77C77.2427 76.98 77.0702 77.145 76.8677 77.145Z" fill="#383A48"/>
<path fill-rule="evenodd" clip-rule="evenodd" d="M86.7687 71.851C86.9262 71.911 87.0912 71.941 87.2487 71.941C87.5487 71.941 87.8412 71.836 88.0812 71.6185C88.5762 71.206 89.0337 70.3135 88.4862 68.401C88.9062 68.251 89.4237 68.146 90.0012 68.161C91.4787 68.206 92.9337 69.031 94.3437 70.5985C94.4862 70.756 94.7187 70.7635 94.8762 70.6285C95.0337 70.486 95.0412 70.2535 94.9062 70.096C92.2062 67.0885 89.7687 67.1635 88.2612 67.696C87.4887 65.596 85.8612 63.1435 83.9262 61.186C81.4587 58.696 78.7287 57.2035 76.2312 57.001C76.0212 56.986 75.8412 57.136 75.8262 57.346C75.8112 57.556 75.9612 57.736 76.1712 57.751C81.1287 58.1635 86.1087 63.9535 87.5712 67.996C87.2112 68.1835 86.9487 68.3785 86.8137 68.4835C85.7487 69.331 85.7037 70.171 85.7712 70.5985C85.8612 71.176 86.2437 71.656 86.7687 71.851ZM87.2787 69.076C87.3912 68.986 87.5712 68.8585 87.8037 68.7235C88.1037 69.856 88.0362 70.696 87.6087 71.056C87.3912 71.236 87.1737 71.206 87.0312 71.1535C86.7612 71.0485 86.5587 70.786 86.5137 70.486C86.4387 70.021 86.7162 69.526 87.2787 69.076Z" fill="#383A48"/>
<path d="M8.09251 52.2C8.07001 52.2 8.04751 52.2 8.02501 52.1925C7.82251 52.155 7.68751 51.96 7.72501 51.7575L7.96501 50.415C8.06251 49.875 8.36251 49.4025 8.82001 49.095C9.27001 48.78 9.81751 48.6675 10.3575 48.765L11.58 48.99C12.285 49.1175 12.9675 48.645 13.095 47.94L13.32 46.7175C13.4175 46.1775 13.7175 45.705 14.175 45.3975C14.625 45.0825 15.1725 44.97 15.7125 45.0675L16.935 45.2925C17.28 45.3525 17.625 45.2775 17.91 45.0825C18.195 44.8875 18.39 44.5875 18.45 44.2425L18.675 43.02C18.7725 42.48 19.0725 42.0075 19.53 41.7C19.98 41.385 20.5275 41.2725 21.0675 41.37L22.2975 41.595C22.5 41.6325 22.635 41.8275 22.5975 42.03C22.56 42.2325 22.365 42.3675 22.1625 42.33L20.9325 42.105C20.5875 42.045 20.2425 42.12 19.9575 42.315C19.6725 42.51 19.4775 42.81 19.4175 43.155L19.1925 44.3775C19.095 44.9175 18.795 45.39 18.3375 45.6975C17.8875 46.0125 17.34 46.125 16.8 46.0275L15.5775 45.8025C15.2325 45.7425 14.8875 45.8175 14.6025 46.0125C14.3175 46.2075 14.1225 46.5075 14.0625 46.8525L13.8375 48.075C13.74 48.615 13.44 49.0875 12.9825 49.395C12.5325 49.71 11.985 49.8225 11.445 49.725L10.2225 49.5C9.87751 49.44 9.53251 49.515 9.24751 49.71C8.96251 49.905 8.76751 50.205 8.70751 50.55L8.46751 51.8925C8.42251 52.0725 8.26501 52.2 8.09251 52.2Z" fill="#383A48"/>
<path d="M74.3026 34.1698C74.2126 34.1698 74.1151 34.1323 74.0401 34.0648C73.8901 33.9223 73.8826 33.6823 74.0326 33.5323L77.1151 30.3148C77.2576 30.1648 77.4976 30.1573 77.6476 30.3073C77.7976 30.4498 77.8051 30.6898 77.6551 30.8398L74.5726 34.0573C74.5051 34.1323 74.4001 34.1698 74.3026 34.1698Z" fill="#F3F6E6"/>
<path d="M71.1452 30.6749C71.0852 30.6749 71.0252 30.6599 70.9652 30.6299C70.7852 30.5324 70.7177 30.3074 70.8152 30.1199L72.9902 26.0999C73.0877 25.9199 73.3127 25.8524 73.5002 25.9499C73.6802 26.0474 73.7477 26.2724 73.6502 26.4599L71.4752 30.4799C71.4077 30.5999 71.2802 30.6749 71.1452 30.6749Z" fill="#F3F6E6"/>
</svg>
