<svg width="96" height="96" viewBox="0 0 96 96" fill="none" xmlns="http://www.w3.org/2000/svg">
<path fill-rule="evenodd" clip-rule="evenodd" d="M48.811 86.0311C72.4212 86.0311 110.188 37.4625 90.5105 19.0776C70.8326 0.692602 60.9734 17.5825 43.1541 17.5825C25.3349 17.5825 0 28.9239 0 52.5341C0 76.1443 25.2008 86.0311 48.811 86.0311Z" fill="#D74781"/>
<mask id="mask0_138_3966" style="mask-type:luminance" maskUnits="userSpaceOnUse" x="0" y="10" width="96" height="77">
<path fill-rule="evenodd" clip-rule="evenodd" d="M48.811 86.0311C72.4212 86.0311 110.188 37.4625 90.5105 19.0776C70.8326 0.692602 60.9734 17.5825 43.1541 17.5825C25.3349 17.5825 0 28.9239 0 52.5341C0 76.1443 25.2008 86.0311 48.811 86.0311Z" fill="white"/>
</mask>
<g mask="url(#mask0_138_3966)">
<path d="M63.405 87.9375C63.315 87.8925 54.345 83.415 45.3 77.925C33.4125 70.71 26.8125 65.055 26.2125 61.59C24.405 51.21 20.3475 49.0875 16.4175 47.04C12.3375 44.91 8.4825 42.8925 7.4325 31.245C7.4175 31.05 7.2525 30.9 7.0575 30.9H0.375C0.165 30.9 0 31.065 0 31.275V77.415C0 83.61 5.04 88.65 11.235 88.65H63.2325C63.405 88.65 63.555 88.53 63.6 88.3575C63.645 88.185 63.5625 88.02 63.405 87.9375Z" fill="#F3F6E6"/>
<path d="M98.1339 4.89148H49.5283C49.3896 4.89148 49.2672 4.95674 49.1938 5.07096C49.1203 5.18517 49.104 5.32386 49.153 5.45439C52.0491 12.6743 55.7202 18.0749 60.3703 21.9744C64.4901 25.4253 68.8792 27.3261 73.1213 29.1617C78.5791 31.5275 83.7431 33.7547 88.0669 39.0493C90.3919 41.8964 92.2765 45.3718 93.8183 49.6874C95.556 54.5332 96.8368 60.3092 97.7342 67.3496C97.7587 67.5535 97.9382 67.7085 98.1421 67.7085C98.1503 67.7085 98.1584 67.7085 98.1666 67.7085C98.3787 67.6922 98.55 67.5127 98.55 67.3006V5.29938C98.5418 5.07096 98.3624 4.89148 98.1339 4.89148Z" fill="#F3F6E6"/>
<path d="M96.6659 7.5723C96.5776 7.48395 96.45 7.42505 96.3224 7.42505H77.504C77.2291 7.42505 77.0132 7.64101 77.0132 7.91588C77.0132 18.5668 85.6714 27.225 96.3224 27.225C96.5972 27.225 96.8132 27.0091 96.8132 26.7342V7.91588C96.8034 7.78826 96.7543 7.66065 96.6659 7.5723Z" fill="#AAC6FC"/>
</g>
<path d="M46.9051 48.4875C46.8526 48.3375 46.7101 48.2325 46.5526 48.2325C44.1826 48.2325 42.7726 46.6425 41.4076 45.105C40.0426 43.56 38.6251 41.9625 36.3001 42.0975C35.0626 42.165 34.0801 42.5475 33.2926 43.2675C32.5726 43.9275 32.0176 44.8875 31.5976 46.1925C30.8251 48.6225 30.5626 52.11 30.2326 56.5275C30.1276 57.8925 30.0226 59.3025 29.8951 60.825C29.8801 60.975 29.9551 61.11 30.0901 61.185C30.1501 61.215 30.2101 61.23 30.2701 61.23C30.3526 61.23 30.4276 61.2075 30.4951 61.155L46.7851 48.9075C46.9051 48.81 46.9576 48.645 46.9051 48.4875Z" fill="#383A48"/>
<path d="M66.8025 60.825C66.675 59.31 66.5625 57.8925 66.465 56.5275C66.135 52.11 65.8725 48.6225 65.1 46.1925C64.68 44.8875 64.1325 43.9275 63.405 43.2675C62.625 42.5475 61.635 42.165 60.3975 42.0975C58.0725 41.97 56.655 43.5675 55.29 45.105C53.925 46.6425 52.515 48.2325 50.145 48.2325C49.98 48.2325 49.8375 48.3375 49.7925 48.4875C49.74 48.6375 49.7925 48.81 49.92 48.9075L66.21 61.155C66.2775 61.2075 66.3525 61.23 66.435 61.23C66.495 61.23 66.5625 61.215 66.615 61.185C66.735 61.11 66.81 60.9675 66.8025 60.825Z" fill="#383A48"/>
<path d="M53.604 48.6H43.149C39.1365 48.6 35.4615 50.8425 33.6165 54.405L30.294 60.8475C28.7865 63.7725 28.704 67.2225 30.0615 70.215C31.8015 74.04 35.619 76.4925 39.819 76.4925H56.919C61.119 76.4925 64.9365 74.04 66.6765 70.215C68.0415 67.2225 67.959 63.7725 66.444 60.8475L63.1215 54.405C61.2915 50.8425 57.6165 48.6 53.604 48.6Z" fill="#F6E049"/>
<path fill-rule="evenodd" clip-rule="evenodd" d="M39.7951 76.8749H56.8951C61.2301 76.8749 65.1976 74.3249 66.9976 70.3799C68.4151 67.2599 68.3326 63.7274 66.7576 60.6824L63.4351 54.2399C61.5226 50.5349 57.7426 48.2324 53.5726 48.2324H43.1176C38.9476 48.2324 35.1676 50.5349 33.2551 54.2399L29.9326 60.6824C28.3576 63.7274 28.2751 67.2599 29.6926 70.3799C31.4926 74.3249 35.4601 76.8749 39.7951 76.8749ZM33.9226 54.5849C35.7076 51.1274 39.2251 48.9824 43.1176 48.9824H53.5876C57.4726 48.9824 60.9976 51.1274 62.7826 54.5849L66.1051 61.0274C67.5676 63.8624 67.6501 67.1549 66.3226 70.0649C64.6426 73.7474 60.9451 76.1249 56.9026 76.1249H39.8026C35.7601 76.1249 32.0626 73.7474 30.3826 70.0649C29.0551 67.1624 29.1376 63.8624 30.6001 61.0274L33.9226 54.5849Z" fill="#383A48"/>
<path d="M52.0474 70.6023H50.8324C49.1899 70.6023 47.8624 69.2748 47.8624 67.6323V67.3173C47.8624 65.6748 49.1899 64.3473 50.8324 64.3473H52.0474C53.6899 64.3473 55.0174 65.6748 55.0174 67.3173V67.6323C55.0174 69.2748 53.6899 70.6023 52.0474 70.6023Z" fill="#F3F6E6"/>
<path fill-rule="evenodd" clip-rule="evenodd" d="M50.8324 70.9773H52.0474C53.8924 70.9773 55.3924 69.4773 55.3924 67.6323V67.3173C55.3924 65.4723 53.8924 63.9723 52.0474 63.9723H50.8324C48.9874 63.9723 47.4874 65.4723 47.4874 67.3173V67.6323C47.4874 69.4773 48.9874 70.9773 50.8324 70.9773ZM48.2374 67.3173C48.2374 65.8848 49.3999 64.7223 50.8324 64.7223H52.0474C53.4799 64.7223 54.6424 65.8848 54.6424 67.3173V67.6323C54.6424 69.0648 53.4799 70.2273 52.0474 70.2273H50.8324C49.3999 70.2273 48.2374 69.0648 48.2374 67.6323V67.3173Z" fill="#F3F6E6"/>
<path d="M43.6848 70.6023H44.8998C46.5423 70.6023 47.8698 69.2748 47.8698 67.6323V67.3173C47.8698 65.6748 46.5423 64.3473 44.8998 64.3473H43.6848C42.0423 64.3473 40.7148 65.6748 40.7148 67.3173V67.6323C40.7148 69.2748 42.0498 70.6023 43.6848 70.6023Z" fill="#F3F6E6"/>
<path fill-rule="evenodd" clip-rule="evenodd" d="M43.6848 70.9773H44.8998C46.7448 70.9773 48.2448 69.4773 48.2448 67.6323V67.3173C48.2448 65.4723 46.7448 63.9723 44.8998 63.9723H43.6848C41.8398 63.9723 40.3398 65.4723 40.3398 67.3173V67.6323C40.3398 69.4773 41.8398 70.9773 43.6848 70.9773ZM41.0898 67.3173C41.0898 65.8848 42.2523 64.7223 43.6848 64.7223H44.8998C46.3323 64.7223 47.4948 65.8848 47.4948 67.3173V67.6323C47.4948 69.0648 46.3323 70.2273 44.8998 70.2273H43.6848C42.2523 70.2273 41.0898 69.0648 41.0898 67.6323V67.3173Z" fill="#F3F6E6"/>
<path d="M37.6324 63.9873C37.2949 63.9873 36.9499 63.9573 36.6049 63.8898C34.6099 63.5073 33.0574 62.0823 32.5624 60.1698C32.5099 59.9673 32.6299 59.7648 32.8324 59.7123C33.0349 59.6598 33.2374 59.7798 33.2899 59.9823C33.7099 61.6098 35.0374 62.8248 36.7474 63.1548C38.5699 63.4998 40.4074 62.7498 41.5399 61.1973C41.6599 61.0323 41.8999 60.9948 42.0649 61.1148C42.2299 61.2348 42.2674 61.4748 42.1474 61.6398C41.0599 63.1398 39.3874 63.9873 37.6324 63.9873Z" fill="#383A48"/>
<path d="M59.1574 63.9798C57.2374 63.9798 55.4524 62.9748 54.4024 61.2573C54.2974 61.0773 54.3499 60.8523 54.5299 60.7398C54.7099 60.6348 54.9349 60.6873 55.0474 60.8673C56.0524 62.5098 57.8224 63.4023 59.6674 63.2073C61.3999 63.0198 62.8174 61.9173 63.3724 60.3273C63.4399 60.1323 63.6574 60.0273 63.8524 60.0948C64.0474 60.1623 64.1524 60.3798 64.0849 60.5748C63.4324 62.4423 61.7749 63.7398 59.7574 63.9498C59.5549 63.9648 59.3524 63.9798 59.1574 63.9798Z" fill="#383A48"/>
<path d="M47.3074 64.6474L46.0474 63.2899C45.5899 62.8024 45.9424 61.9999 46.6099 61.9999H49.1224C49.7899 61.9999 50.1424 62.7949 49.6849 63.2899L48.4249 64.6474C48.1249 64.9774 47.6074 64.9774 47.3074 64.6474Z" fill="#383A48"/>
<path fill-rule="evenodd" clip-rule="evenodd" d="M47.03 64.9023C47.2475 65.1348 47.555 65.2698 47.87 65.2698C48.185 65.2698 48.4925 65.1348 48.7025 64.9023L49.9625 63.5448C50.2775 63.2073 50.36 62.7348 50.1725 62.3148C49.985 61.8948 49.58 61.6323 49.1225 61.6323H46.61C46.145 61.6323 45.7475 61.8948 45.56 62.3148C45.38 62.7348 45.455 63.2073 45.77 63.5448L47.03 64.9023ZM47.8625 64.5198C47.7575 64.5198 47.6525 64.4748 47.5775 64.3923L46.325 63.0348C46.16 62.8623 46.2275 62.6673 46.25 62.6148C46.2725 62.5623 46.37 62.3823 46.61 62.3823H49.1225C49.3625 62.3823 49.46 62.5623 49.4825 62.6148C49.505 62.6673 49.5725 62.8623 49.4075 63.0348L48.1475 64.3923C48.0725 64.4748 47.9675 64.5198 47.8625 64.5198Z" fill="#383A48"/>
<path d="M47.8699 70.3548C47.6599 70.3548 47.4949 70.1898 47.4949 69.9798V63.9498C47.4949 63.7398 47.6599 63.5748 47.8699 63.5748C48.0799 63.5748 48.2449 63.7398 48.2449 63.9498V69.9798C48.2449 70.1898 48.0724 70.3548 47.8699 70.3548Z" fill="#383A48"/>
<path d="M52.1025 57.405H44.6025C42.42 57.405 40.65 55.635 40.65 53.4525C40.65 51.27 42.42 49.5 44.6025 49.5H52.1025C54.285 49.5 56.055 51.27 56.055 53.4525C56.0475 55.635 54.2775 57.405 52.1025 57.405Z" fill="#F3F6E6"/>
<path fill-rule="evenodd" clip-rule="evenodd" d="M44.6025 57.7726H52.1025C54.4875 57.7726 56.4225 55.8376 56.43 53.4451C56.43 51.0601 54.4875 49.1176 52.1025 49.1176H44.6025C42.2175 49.1176 40.275 51.0601 40.275 53.4451C40.275 55.8301 42.2175 57.7726 44.6025 57.7726ZM41.025 53.4525C41.025 51.48 42.63 49.875 44.6025 49.875H52.1025C54.075 49.875 55.68 51.48 55.68 53.4525C55.68 55.425 54.075 57.03 52.1025 57.03H44.6025C42.63 57.03 41.025 55.425 41.025 53.4525Z" fill="#F3F6E6"/>
<path d="M45.7426 52.2225C45.7201 52.2225 45.6976 52.2225 45.6676 52.215C45.4651 52.1775 45.3301 51.975 45.3676 51.7725L45.9976 48.5325C46.0351 48.33 46.2301 48.195 46.4401 48.2325C46.6426 48.27 46.7776 48.4725 46.7401 48.675L46.1101 51.915C46.0801 52.1025 45.9226 52.2225 45.7426 52.2225Z" fill="#383A48"/>
<path d="M48.0976 52.2225C48.0751 52.2225 48.0526 52.2225 48.0226 52.215C47.8201 52.1775 47.6851 51.975 47.7226 51.7725L48.3526 48.5325C48.3901 48.33 48.5926 48.195 48.7951 48.2325C48.9976 48.27 49.1326 48.4725 49.0951 48.675L48.4651 51.915C48.4276 52.1025 48.2701 52.2225 48.0976 52.2225Z" fill="#383A48"/>
<path d="M50.4451 52.2225C50.4226 52.2225 50.4001 52.2225 50.3701 52.215C50.1676 52.1775 50.0326 51.975 50.0701 51.7725L50.7001 48.5325C50.7376 48.33 50.9401 48.195 51.1426 48.2325C51.3451 48.27 51.4801 48.4725 51.4426 48.675L50.8126 51.915C50.7751 52.1025 50.6176 52.2225 50.4451 52.2225Z" fill="#383A48"/>
<path d="M60.9901 66.9675C61.2718 66.9675 61.5001 66.7392 61.5001 66.4575C61.5001 66.1758 61.2718 65.9475 60.9901 65.9475C60.7084 65.9475 60.4801 66.1758 60.4801 66.4575C60.4801 66.7392 60.7084 66.9675 60.9901 66.9675Z" fill="#383A48"/>
<path fill-rule="evenodd" clip-rule="evenodd" d="M60.1051 66.4501C60.1051 66.9376 60.5026 67.3351 60.9901 67.3351C61.4776 67.3351 61.8751 66.9376 61.8751 66.4501C61.8751 65.9626 61.4776 65.5651 60.9901 65.5651C60.5026 65.5651 60.1051 65.9626 60.1051 66.4501ZM60.8551 66.4576C60.8551 66.3826 60.9151 66.3226 60.9901 66.3226C61.0651 66.3226 61.1251 66.3826 61.1251 66.4576C61.1251 66.5326 61.0651 66.5926 60.9901 66.5926C60.9151 66.5926 60.8551 66.5326 60.8551 66.4576Z" fill="#383A48"/>
<path d="M64.3951 69.3825C64.6768 69.3825 64.9051 69.1542 64.9051 68.8725C64.9051 68.5909 64.6768 68.3625 64.3951 68.3625C64.1135 68.3625 63.8851 68.5909 63.8851 68.8725C63.8851 69.1542 64.1135 69.3825 64.3951 69.3825Z" fill="#383A48"/>
<path fill-rule="evenodd" clip-rule="evenodd" d="M63.5101 68.865C63.5101 69.3525 63.9076 69.75 64.3951 69.75C64.8751 69.75 65.2801 69.3525 65.2801 68.865C65.2801 68.3775 64.8826 67.98 64.3951 67.98C63.9076 67.98 63.5101 68.3775 63.5101 68.865ZM64.2601 68.8725C64.2601 68.7975 64.3201 68.7375 64.3951 68.7375C64.4626 68.7375 64.5301 68.7975 64.5301 68.8725C64.5301 68.9475 64.4701 69.0075 64.3951 69.0075C64.3201 69.0075 64.2601 68.9475 64.2601 68.8725Z" fill="#383A48"/>
<path d="M64.3951 64.1175C64.6768 64.1175 64.9051 63.8892 64.9051 63.6075C64.9051 63.3259 64.6768 63.0975 64.3951 63.0975C64.1135 63.0975 63.8851 63.3259 63.8851 63.6075C63.8851 63.8892 64.1135 64.1175 64.3951 64.1175Z" fill="#383A48"/>
<path fill-rule="evenodd" clip-rule="evenodd" d="M63.5101 63.6075C63.5101 64.095 63.9076 64.4925 64.3951 64.4925C64.8751 64.4925 65.2801 64.095 65.2801 63.6075C65.2801 63.12 64.8826 62.7225 64.3951 62.7225C63.9076 62.7225 63.5101 63.12 63.5101 63.6075ZM64.2601 63.6075C64.2601 63.5325 64.3201 63.4725 64.3951 63.4725C64.4626 63.4725 64.5226 63.5325 64.5301 63.6075C64.5301 63.6825 64.4701 63.7425 64.3951 63.7425C64.3201 63.7425 64.2601 63.6825 64.2601 63.6075Z" fill="#383A48"/>
<path d="M32.8052 67.6875C33.0868 67.6875 33.3152 67.4591 33.3152 67.1775C33.3152 66.8958 33.0868 66.6675 32.8052 66.6675C32.5235 66.6675 32.2952 66.8958 32.2952 67.1775C32.2952 67.4591 32.5235 67.6875 32.8052 67.6875Z" fill="#383A48"/>
<path fill-rule="evenodd" clip-rule="evenodd" d="M31.9202 67.1775C31.9202 67.665 32.3177 68.0625 32.8052 68.0625C33.2927 68.0625 33.6902 67.665 33.6902 67.1775C33.6902 66.69 33.2927 66.2925 32.8052 66.2925C32.3177 66.2925 31.9202 66.69 31.9202 67.1775ZM32.6702 67.185C32.6702 67.11 32.7302 67.05 32.8052 67.05C32.8802 67.05 32.9402 67.11 32.9402 67.185C32.9402 67.26 32.8802 67.32 32.8052 67.32C32.7302 67.32 32.6702 67.26 32.6702 67.185Z" fill="#383A48"/>
<path d="M29.4076 63.8251C29.3701 63.8251 29.3326 63.8326 29.2951 63.8401C29.3176 63.9301 29.3251 64.0276 29.3326 64.1176C29.3401 64.3576 29.2876 64.5826 29.1826 64.7851C29.2501 64.8226 29.3251 64.8451 29.4151 64.8451C29.6926 64.8451 29.9251 64.6201 29.9251 64.3351C29.9176 64.0501 29.6851 63.8251 29.4076 63.8251Z" fill="#383A48"/>
<path d="M29.4076 65.2125C29.2726 65.2125 29.1376 65.1825 29.0101 65.115C28.9201 65.07 28.8526 64.9875 28.8226 64.8975C28.7926 64.8 28.8001 64.7025 28.8451 64.6125C28.9276 64.455 28.9576 64.2975 28.9576 64.14C28.9576 64.0725 28.9426 63.9975 28.9276 63.9225C28.8826 63.7275 29.0101 63.525 29.2051 63.48C29.2726 63.465 29.3401 63.4575 29.4076 63.4575C29.8951 63.4575 30.2926 63.855 30.2926 64.3425C30.2926 64.83 29.8951 65.2125 29.4076 65.2125Z" fill="#383A48"/>
<path fill-rule="evenodd" clip-rule="evenodd" d="M37.8076 39.5775C37.8301 39.585 37.8526 39.585 37.8751 39.585C38.0476 39.585 38.2126 39.4575 38.2426 39.2775C38.2801 39.075 38.1451 38.88 37.9426 38.8425C37.6351 38.7825 37.3201 38.745 37.0051 38.73C36.7951 38.715 36.6226 38.8725 36.6076 39.0825C36.5926 39.2925 36.7501 39.465 36.9601 39.48C37.2451 39.495 37.5301 39.525 37.8076 39.5775ZM61.8901 39.645C61.8676 39.645 61.8376 39.645 61.8151 39.6375C61.5376 39.5775 61.2526 39.54 60.9601 39.51C60.7576 39.4875 60.6076 39.3075 60.6226 39.0975C60.6451 38.895 60.8251 38.745 61.0351 38.76C61.3501 38.79 61.6651 38.8425 61.9651 38.9025C62.1676 38.9475 62.2951 39.1425 62.2576 39.345C62.2201 39.525 62.0626 39.645 61.8901 39.645ZM57.5326 39.555C57.5851 39.7125 57.7351 39.8175 57.8926 39.8175C57.9301 39.8175 57.9676 39.81 57.9976 39.795C58.2676 39.705 58.5451 39.6375 58.8226 39.585C59.0251 39.5475 59.1601 39.3525 59.1226 39.15C59.0851 38.9475 58.8901 38.8125 58.6876 38.85C58.3801 38.91 58.0726 38.985 57.7726 39.0825C57.5776 39.15 57.4726 39.36 57.5326 39.555ZM33.8776 39.8925C33.7201 39.8925 33.5776 39.795 33.5251 39.6375C33.4576 39.4425 33.5626 39.225 33.7651 39.165C34.0576 39.0675 34.3651 38.985 34.6726 38.9175C34.8751 38.8725 35.0776 39 35.1151 39.2025C35.1601 39.405 35.0326 39.6075 34.8301 39.645C34.5451 39.705 34.2676 39.78 34.0051 39.87C33.9526 39.885 33.9151 39.8925 33.8776 39.8925ZM40.5526 40.7175C40.6201 40.755 40.6876 40.7775 40.7626 40.7775C40.8826 40.7775 41.0026 40.7175 41.0776 40.6125C41.1901 40.44 41.1451 40.2075 40.9726 40.095C40.7101 39.9225 40.4326 39.7575 40.1626 39.615C39.9826 39.5175 39.7576 39.5925 39.6601 39.7725C39.5626 39.9525 39.6376 40.1775 39.8176 40.275C40.0651 40.41 40.3126 40.5525 40.5526 40.7175ZM64.7626 40.8825C64.6876 40.8825 64.6126 40.86 64.5451 40.815C64.3126 40.65 64.0726 40.5 63.8251 40.365C63.6451 40.2675 63.5776 40.035 63.6751 39.855C63.7726 39.675 64.0051 39.6075 64.1851 39.705C64.4626 39.855 64.7326 40.0275 64.9876 40.2075C65.1526 40.3275 65.1976 40.56 65.0701 40.7325C64.9951 40.83 64.8751 40.8825 64.7626 40.8825ZM54.8701 41.2125C54.9451 41.3025 55.0576 41.3475 55.1626 41.3475C55.2451 41.3475 55.3276 41.3175 55.4026 41.265C55.5751 41.115 55.7551 40.98 55.9351 40.8525L56.0926 40.74C56.2651 40.6275 56.3101 40.395 56.1901 40.2225C56.0776 40.05 55.8451 40.005 55.6726 40.125C55.6426 40.1437 55.6144 40.1644 55.5863 40.185C55.5582 40.2056 55.5301 40.2262 55.5001 40.245C55.3051 40.38 55.1101 40.53 54.9226 40.6875C54.7576 40.815 54.7351 41.055 54.8701 41.2125ZM31.1926 41.4975C31.0951 41.4975 30.9901 41.46 30.9226 41.3775C30.7801 41.2275 30.7876 40.9875 30.9376 40.845C30.9448 40.8377 30.9528 40.8305 30.9611 40.823C30.9786 40.8072 30.9973 40.7903 31.0126 40.77C31.2226 40.5825 31.4401 40.4025 31.6651 40.2375C31.8301 40.1175 32.0701 40.155 32.1901 40.32C32.3101 40.485 32.2726 40.725 32.1076 40.845C31.9051 40.995 31.7101 41.1525 31.5226 41.325L31.4551 41.3925C31.3726 41.46 31.2826 41.4975 31.1926 41.4975ZM42.8251 42.7575C42.9001 42.84 42.9976 42.8775 43.1026 42.8775C43.1926 42.8775 43.2826 42.84 43.3576 42.78C43.5076 42.6375 43.5226 42.3975 43.3801 42.2475C43.1551 41.9925 42.9451 41.775 42.7501 41.58C42.6001 41.4375 42.3676 41.4375 42.2176 41.58C42.0751 41.73 42.0751 41.9625 42.2176 42.1125L42.2401 42.1358C42.4212 42.3242 42.6163 42.527 42.8251 42.7575ZM52.9501 43.59C52.8601 43.59 52.7701 43.56 52.7026 43.4925C52.5451 43.3575 52.5301 43.1175 52.6726 42.96L52.7776 42.8475C52.9235 42.6884 53.0694 42.5234 53.2204 42.3525L53.2801 42.285C53.4226 42.135 53.6551 42.12 53.8126 42.2625C53.9701 42.405 53.9776 42.6375 53.8351 42.795C53.6626 42.9825 53.4976 43.17 53.3401 43.35L53.2351 43.4625C53.1601 43.545 53.0551 43.59 52.9501 43.59ZM29.205 44.0025C29.2575 44.025 29.3175 44.04 29.37 44.04C29.5125 44.04 29.6475 43.965 29.715 43.83C29.8425 43.56 29.9775 43.305 30.12 43.065C30.225 42.885 30.1725 42.6525 29.9925 42.5475C29.8125 42.4425 29.58 42.495 29.475 42.675C29.3175 42.9375 29.1675 43.215 29.0325 43.5C28.9425 43.6875 29.0175 43.9125 29.205 44.0025ZM45.2776 45.1425C45.1951 45.1425 45.1201 45.12 45.0526 45.0675C44.8426 44.9025 44.6176 44.7 44.3476 44.43C44.2051 44.28 44.2051 44.0475 44.3476 43.8975C44.4976 43.755 44.7301 43.755 44.8801 43.8975C45.1201 44.145 45.3301 44.3325 45.5101 44.4675C45.6751 44.595 45.7051 44.8275 45.5776 44.9925C45.5026 45.09 45.3901 45.1425 45.2776 45.1425ZM50.1976 45.2775C50.2351 45.45 50.3926 45.57 50.5651 45.57C50.5755 45.57 50.5876 45.5684 50.6005 45.5666C50.6154 45.5646 50.6315 45.5625 50.6476 45.5625C50.9701 45.4875 51.2701 45.345 51.5926 45.105C51.7575 44.9775 51.7875 44.745 51.6675 44.58C51.5401 44.415 51.3076 44.385 51.1426 44.505C50.9026 44.6775 50.7001 44.7825 50.4826 44.8275C50.2801 44.8725 50.1526 45.075 50.1976 45.2775ZM48.3151 45.6075H47.4151C47.2051 45.6075 47.0401 45.4425 47.0401 45.2325C47.0401 45.0225 47.2051 44.8575 47.4151 44.8575H48.3151C48.5251 44.8575 48.6901 45.0225 48.6901 45.2325C48.6901 45.4425 48.5251 45.6075 48.3151 45.6075ZM28.2826 47.01C28.3051 47.0175 28.3351 47.0175 28.3651 47.0175C28.5376 47.0175 28.6876 46.905 28.7326 46.7325C28.8001 46.4325 28.8751 46.1475 28.9501 45.8775C29.0101 45.675 28.8976 45.4725 28.6951 45.4125C28.4926 45.3525 28.2901 45.465 28.2301 45.6675C28.1551 45.9525 28.0801 46.2525 28.0051 46.56C27.9526 46.7625 28.0801 46.965 28.2826 47.01ZM27.8326 50.1225H27.7876C27.5851 50.0925 27.4351 49.905 27.4651 49.7025C27.5026 49.3875 27.5476 49.0875 27.5926 48.8025C27.6226 48.6 27.8101 48.4575 28.0201 48.4875C28.2226 48.5175 28.3651 48.7125 28.3351 48.915C28.2901 49.1925 28.2526 49.4925 28.2151 49.8C28.1776 49.9875 28.0201 50.1225 27.8326 50.1225ZM27.4726 53.2575H27.5026C27.6976 53.2575 27.8626 53.1075 27.8701 52.9125C27.8844 52.7688 27.8971 52.6252 27.9097 52.4823L27.9097 52.4823L27.9097 52.4823L27.9097 52.4823L27.9097 52.4823C27.9233 52.3269 27.9369 52.1724 27.9526 52.02C27.9751 51.8175 27.8251 51.6375 27.6151 51.615C27.4126 51.5925 27.2326 51.7425 27.2101 51.9525C27.1938 52.1116 27.1797 52.2728 27.1654 52.4363C27.1534 52.5735 27.1413 52.7122 27.1276 52.8525C27.1126 53.055 27.2626 53.2425 27.4726 53.2575ZM27.2251 56.3925H27.2551C27.4501 56.3925 27.6151 56.2425 27.6301 56.0475C27.6526 55.74 27.6751 55.44 27.6976 55.1475C27.7126 54.9375 27.5626 54.7575 27.3526 54.7425C27.1426 54.7275 26.9626 54.8775 26.9476 55.0875L26.8801 55.9875C26.8651 56.1975 27.0151 56.3775 27.2251 56.3925Z" fill="#383A48"/>
<path d="M55.1625 19.125H41.52C39.36 19.125 37.5975 20.8875 37.5975 23.0475V30.075C37.5975 32.235 39.36 33.9975 41.52 33.9975H44.6025L48.0525 38.31C48.12 38.4 48.2325 38.4525 48.345 38.4525C48.4575 38.4525 48.57 38.4 48.6375 38.31L52.0875 33.9975H55.17C57.33 33.9975 59.0925 32.235 59.0925 30.075V23.055C59.0925 20.8875 57.33 19.125 55.1625 19.125Z" fill="#E0719E"/>
<path d="M52.8451 25.7025C52.7851 25.0425 52.4701 24.45 51.9601 24.0225C50.9101 23.1525 49.3501 23.295 48.4801 24.345L48.3526 24.495L48.2026 24.3225C47.3326 23.2875 45.7726 23.1525 44.7301 24.015C44.2201 24.4425 43.9051 25.035 43.8451 25.7025C43.7851 26.3625 43.9876 27.0075 44.4151 27.5175C44.4226 27.5325 44.4376 27.54 44.4451 27.555L48.1126 30.9225C48.1876 30.99 48.2776 31.02 48.3676 31.02C48.4576 31.02 48.5476 30.99 48.6226 30.9225L52.2451 27.555C52.2601 27.5475 52.2676 27.5325 52.2751 27.5175C52.7101 27 52.9051 26.3625 52.8451 25.7025Z" fill="#F3F6E6"/>
<rect x="17.01" y="65.745" width="2.475" height="0.75" fill="#383A48"/>
<rect x="17.865" y="64.8824" width="0.75" height="2.47499" fill="#383A48"/>
<rect x="16.4175" y="3.95996" width="0.75" height="5.325" fill="#383A48"/>
<rect x="14.13" y="6.24744" width="5.325" height="0.75" fill="#383A48"/>
<path d="M14.6581 8.23401L18.4234 4.46817L18.9538 4.99849L15.1885 8.76433L14.6581 8.23401Z" fill="#383A48"/>
<path d="M14.6462 5.01147L15.1766 4.48115L18.9419 8.24646L18.4115 8.77678L14.6462 5.01147Z" fill="#383A48"/>
<path fill-rule="evenodd" clip-rule="evenodd" d="M88.3757 73.3248C88.5409 72.1159 88.4584 70.9966 88.1828 69.9679C87.3888 67.0049 85.0151 64.869 82.5066 63.9106C81.6844 63.5951 80.8808 63.4067 80.1285 63.352C80.1191 62.7955 80.0455 62.2018 79.8945 61.5513C79.8765 61.4551 79.8512 61.361 79.826 61.2668C79.0767 58.4704 77.004 55.5162 73.6567 52.4998C73.5034 52.3623 73.2652 52.3717 73.1277 52.5251C72.9902 52.6784 72.9997 52.9165 73.153 53.054C76.5003 56.0705 78.5232 58.9837 79.1695 61.7145C79.3011 62.2926 79.3684 62.8336 79.384 63.3264C77.9241 63.3837 76.7112 63.9571 75.9902 65.0044C75.4433 65.8032 75.3158 66.6604 75.6548 67.346C75.9338 67.9235 76.5004 68.2996 77.1396 68.338C77.8827 68.3874 78.5943 67.9715 79.0838 67.2192C79.4739 66.6177 79.9983 65.561 80.1101 64.0946C80.7768 64.1489 81.4983 64.3205 82.2345 64.6047C85.3438 65.8058 88.2163 68.934 87.6354 73.2281C87.6115 73.4287 87.7567 73.6227 87.9572 73.6466C88.1577 73.6705 88.3445 73.5273 88.3757 73.3248ZM76.3279 67.0181C76.2959 66.9568 76.2712 66.8936 76.2538 66.8284C76.1431 66.4154 76.2676 65.924 76.6178 65.4341C77.1859 64.5986 78.1714 64.1327 79.3675 64.0762C79.2546 65.3643 78.8025 66.2852 78.4621 66.8112C78.1197 67.33 77.6533 67.618 77.1871 67.5877C76.8155 67.563 76.4863 67.3484 76.3279 67.0181Z" fill="#383A48"/>
</svg>
