<svg xmlns="http://www.w3.org/2000/svg" fill="none" viewBox="0 0 496 509">
  <path fill="#F6E049" fill-rule="evenodd" d="M253.911.241c-133.974 0-225.77 95.536-225.77 229.495 0 133.958-86.418 179.344 43.625 258.25 130.044 78.907 424.171-81.267 424.171-246.581S387.885.241 253.911.241Z" clip-rule="evenodd"/>
  <mask id="a" width="496" height="509" x="0" y="0" maskUnits="userSpaceOnUse" style="mask-type:luminance">
    <path fill="#fff" fill-rule="evenodd" d="M253.911.241c-133.974 0-225.77 95.536-225.77 229.495 0 133.958-86.418 179.344 43.625 258.25 130.044 78.907 424.171-81.267 424.171-246.581S387.885.241 253.911.241Z" clip-rule="evenodd"/>
  </mask>
  <g mask="url(#a)">
    <path fill="#F3F6E6" d="M287.564 382.966c-.408-.204-41.08-20.499-82.092-45.383-53.9-32.704-83.826-58.336-86.546-74.041-8.196-47.049-26.593-56.67-44.413-65.951-18.5-9.654-28.735-108.682-74.44-71.457v209.137c0 28.08 22.853 50.924 50.942 50.924h235.767c.782 0 1.462-.544 1.666-1.325.204-.782-.17-1.53-.884-1.904ZM482.607 172.26l-47.461-22.922c-56.824 0-112.315-19.893-119.234 23.533-6.919 43.426 22.229 44.288 38.068 57.568 14.033 11.753 28.982 18.226 43.431 24.478 18.59 8.057 36.179 15.642 50.906 33.674 7.92 9.696 14.338 21.532 19.59 36.23 5.919 16.504 10.281 36.174 13.338 60.152a1.406 1.406 0 0 0 1.389 1.222h.084c.722-.055 1.306-.666 1.306-1.389V173.649c-.028-.778-.639-1.389-1.417-1.389Z"/>
    <path fill="#AAC6FC" fill-rule="evenodd" d="M471.825 205.6c24.247 0 43.904-19.654 43.904-43.898 0-24.245-19.657-43.899-43.904-43.899-24.247 0-43.904 19.654-43.904 43.899 0 24.244 19.657 43.898 43.904 43.898Z" clip-rule="evenodd"/>
  </g>
</svg>
