<svg width="496" height="509" viewBox="0 0 496 509" fill="none" xmlns="http://www.w3.org/2000/svg">
<path fill-rule="evenodd" clip-rule="evenodd" d="M253.911 0.241058C119.937 0.241058 28.1404 95.7773 28.1404 229.736C28.1404 363.694 -58.2775 409.08 71.7662 487.986C201.81 566.893 495.937 406.719 495.937 241.405C495.937 76.0909 387.885 0.241058 253.911 0.241058Z" fill="#F6E049"/>
<mask id="mask0_129_7728" style="mask-type:luminance" maskUnits="userSpaceOnUse" x="0" y="0" width="496" height="509">
<path fill-rule="evenodd" clip-rule="evenodd" d="M253.911 0.241058C119.937 0.241058 28.1404 95.7773 28.1404 229.736C28.1404 363.694 -58.2775 409.08 71.7662 487.986C201.81 566.893 495.937 406.719 495.937 241.405C495.937 76.0909 387.885 0.241058 253.911 0.241058Z" fill="white"/>
</mask>
<g mask="url(#mask0_129_7728)">
<path d="M287.564 382.966C287.156 382.762 246.484 362.467 205.472 337.583C151.572 304.879 121.646 279.247 118.926 263.542C110.73 216.493 92.3328 206.872 74.5134 197.591C56.0139 187.937 45.778 88.9094 0.0732731 126.134V335.271C0.0732731 363.351 22.9256 386.195 51.015 386.195H286.782C287.564 386.195 288.244 385.651 288.448 384.87C288.652 384.088 288.278 383.34 287.564 382.966Z" fill="#F3F6E6"/>
<path d="M482.607 172.26L435.146 149.338C378.322 149.338 322.831 129.445 315.912 172.871C308.993 216.297 338.141 217.159 353.98 230.439C368.013 242.192 382.962 248.665 397.411 254.917C416.001 262.974 433.59 270.559 448.317 288.591C456.237 298.287 462.655 310.123 467.907 324.821C473.826 341.325 478.188 360.995 481.245 384.973C481.328 385.668 481.94 386.195 482.634 386.195C482.662 386.195 482.69 386.195 482.718 386.195C483.44 386.14 484.024 385.529 484.024 384.806V173.649C483.996 172.871 483.385 172.26 482.607 172.26Z" fill="#F3F6E6"/>
<path fill-rule="evenodd" clip-rule="evenodd" d="M471.825 205.6C496.072 205.6 515.729 185.946 515.729 161.702C515.729 137.457 496.072 117.803 471.825 117.803C447.578 117.803 427.921 137.457 427.921 161.702C427.921 185.946 447.578 205.6 471.825 205.6Z" fill="#AAC6FC"/>
</g>
<path d="M482.606 386.195H91.614C90.8359 386.195 90.2246 385.584 90.2246 384.806C90.2246 384.028 90.8359 383.417 91.614 383.417H482.606C483.385 383.417 483.996 384.028 483.996 384.806C483.996 385.584 483.385 386.195 482.606 386.195Z" fill="#383A48"/>
<path d="M203.874 384.806H118.317V381.083C118.317 366.58 130.071 354.8 144.604 354.8H198.65" fill="#F6E049"/>
<path d="M203.874 386.195H118.318C117.54 386.195 116.928 385.584 116.928 384.806V381.083C116.928 365.83 129.349 353.41 144.604 353.41H198.65C199.428 353.41 200.039 354.022 200.039 354.8C200.039 355.578 199.428 356.189 198.65 356.189H144.604C130.877 356.189 119.707 367.358 119.707 381.083V383.417H203.874C204.652 383.417 205.263 384.028 205.263 384.806C205.263 385.584 204.624 386.195 203.874 386.195Z" fill="#383A48"/>
<path d="M144.604 356.272H149.078C152.913 356.272 156.025 359.384 156.025 363.218V376.443C156.025 380.277 152.913 383.389 149.078 383.389H119.679V381.222C119.679 367.414 130.85 356.272 144.604 356.272Z" fill="#F3F6E6"/>
<path d="M129.071 386.195C128.293 386.195 127.682 385.584 127.682 384.806V381.083C127.682 376.777 128.654 372.637 130.544 368.803C130.877 368.108 131.711 367.83 132.405 368.164C133.1 368.497 133.378 369.33 133.045 370.025C131.322 373.47 130.46 377.193 130.46 381.083V384.806C130.46 385.584 129.821 386.195 129.071 386.195Z" fill="#383A48"/>
<path d="M138.686 386.195C137.908 386.195 137.296 385.584 137.296 384.806V381.083C137.296 376.777 138.269 372.637 140.158 368.803C140.492 368.108 141.326 367.83 142.02 368.164C142.715 368.497 142.993 369.33 142.659 370.025C140.937 373.47 140.075 377.193 140.075 381.083V384.806C140.075 385.584 139.464 386.195 138.686 386.195Z" fill="#383A48"/>
<path d="M440.203 342.019C439.981 365.719 420.669 384.806 396.967 384.806H227.382V281.478C247.166 290.063 258.587 285.674 270.591 275.588C272.564 273.949 274.537 272.143 276.565 270.226C280.344 266.642 284.318 262.641 288.736 258.445C290.236 257.001 291.765 255.639 293.321 254.333C298.072 250.332 303.074 246.832 308.242 243.887C316.44 239.191 325.054 235.774 333.806 233.579C340.281 231.94 346.783 230.995 353.23 230.661C364.789 230.078 376.071 231.523 386.38 234.885C386.797 235.024 387.213 235.162 387.63 235.301C405.08 241.275 419.474 252.777 426.866 268.892C439.008 295.37 440.481 314.902 440.203 342.019Z" fill="#F6E049"/>
<path fill-rule="evenodd" clip-rule="evenodd" d="M227.382 386.195H396.967C408.804 386.195 419.947 381.611 428.366 373.332C436.786 364.996 441.482 353.911 441.593 342.075C441.704 330.183 441.537 317.486 439.537 305.039C437.564 292.731 433.924 281.061 428.088 268.336C420.864 252.555 406.637 240.358 388.047 233.996C388.019 233.968 388.019 233.968 387.992 233.968C387.783 233.898 387.582 233.829 387.38 233.759C387.179 233.69 386.977 233.62 386.769 233.551C376.321 230.161 364.706 228.689 353.119 229.272C346.533 229.606 339.92 230.606 333.473 232.217H333.445C324.387 234.496 315.689 237.996 307.603 242.636C307.59 242.636 307.583 242.643 307.576 242.65C307.569 242.657 307.562 242.664 307.548 242.664C302.241 245.72 297.128 249.304 292.432 253.278C290.876 254.611 289.292 256 287.791 257.445C286.44 258.742 285.124 260.028 283.835 261.286C283.136 261.969 282.445 262.643 281.761 263.307C279.622 265.391 277.593 267.364 275.62 269.225C273.37 271.337 271.48 273.032 269.702 274.532C263.061 280.089 257.503 283.062 251.64 284.173C244.721 285.479 237.191 284.201 227.938 280.2C227.521 280.006 227.021 280.061 226.632 280.311C226.215 280.561 225.993 281.006 225.993 281.478V384.806C225.993 385.584 226.604 386.195 227.382 386.195ZM396.967 383.417H228.771L228.744 283.59C237.663 287.174 245.138 288.23 252.14 286.924C258.504 285.729 264.478 282.562 271.48 276.672C273.286 275.143 275.204 273.421 277.51 271.254C279.049 269.8 280.604 268.281 282.214 266.709C282.697 266.237 283.185 265.761 283.679 265.28C285.596 263.391 287.597 261.446 289.681 259.446C291.153 258.056 292.682 256.695 294.21 255.389C298.795 251.527 303.713 248.082 308.882 245.109C308.896 245.109 308.902 245.102 308.909 245.095C308.916 245.088 308.923 245.081 308.937 245.081C316.801 240.553 325.276 237.135 334.085 234.912H334.14C340.42 233.329 346.867 232.356 353.285 232.023C364.539 231.439 375.821 232.884 385.935 236.163C386.144 236.232 386.345 236.302 386.547 236.371C386.748 236.441 386.95 236.51 387.158 236.579C387.186 236.607 387.186 236.607 387.214 236.607C405.053 242.72 418.696 254.389 425.588 269.448C431.312 281.923 434.868 293.37 436.814 305.428C438.647 316.986 438.953 328.405 438.814 341.991C438.731 353.077 434.313 363.496 426.421 371.303C418.53 379.111 408.054 383.417 396.967 383.417Z" fill="#383A48"/>
<path d="M325.415 306.122C324.303 306.511 323.192 306.706 322.08 306.706C318.107 306.706 314.383 304.261 312.938 300.288C308.659 288.535 301.462 280.061 291.514 275.116C284.456 271.587 278.566 271.198 278.51 271.198C278.26 271.198 278.01 271.17 277.76 271.142C281.539 267.558 285.512 263.557 289.931 259.334C291.431 257.89 292.959 256.528 294.515 255.222C296.322 255.917 298.239 256.723 300.184 257.695C310.215 262.696 323.72 272.976 331.222 293.647C333.056 298.704 330.472 304.289 325.415 306.122Z" fill="#F3F6E6"/>
<path d="M355.536 285.812C354.619 286.062 353.73 286.201 352.841 286.174C348.617 286.146 344.755 283.367 343.532 279.117C339.586 265.197 331.973 255.167 320.886 249.277C316.328 246.859 312.021 245.609 308.993 244.998C317.218 240.33 325.859 236.968 334.585 234.801C344.838 241.442 356.37 253.222 362.233 273.81C363.678 278.95 360.677 284.34 355.536 285.812Z" fill="#F3F6E6"/>
<path d="M389.853 269.281C389.02 269.475 388.186 269.587 387.352 269.559C383.045 269.503 379.155 266.558 378.044 262.196C375.015 250.082 368.707 240.914 359.315 234.94C357.453 233.745 355.647 232.829 354.036 232.106C366.067 231.662 377.794 233.412 388.353 237.218C391.854 242.72 394.883 249.415 396.883 257.473C398.245 262.696 395.077 267.975 389.853 269.281Z" fill="#F3F6E6"/>
<path d="M202.679 281.033C202.485 280.478 201.957 280.089 201.373 280.089C192.592 280.089 187.368 274.199 182.311 268.503C177.254 262.78 172.002 256.862 163.388 257.362C158.803 257.612 155.163 259.029 152.245 261.696C149.578 264.141 147.522 267.697 145.966 272.532C143.103 281.534 142.131 294.453 140.908 310.818C140.519 315.874 140.13 321.098 139.658 326.738C139.602 327.294 139.88 327.794 140.38 328.072C140.603 328.183 140.825 328.238 141.047 328.238C141.353 328.238 141.631 328.155 141.881 327.96L202.234 282.589C202.679 282.228 202.874 281.617 202.679 281.033Z" fill="#383A48"/>
<path d="M392.27 266.586L372.097 242.886L386.935 236.135C387.463 235.885 387.769 235.357 387.741 234.801C387.713 234.218 387.324 233.745 386.796 233.551C376.376 230.161 364.733 228.689 353.146 229.272C346.533 229.606 339.92 230.606 333.501 232.217H333.473C324.414 234.496 315.717 237.996 307.631 242.636C307.603 242.636 307.603 242.664 307.575 242.664C302.24 245.72 297.155 249.277 292.459 253.278C290.875 254.611 289.319 256.028 287.819 257.445C285.707 259.446 283.706 261.418 281.789 263.308C279.649 265.391 277.649 267.364 275.648 269.225C273.397 271.365 271.508 273.06 269.729 274.532C269.257 274.921 269.118 275.56 269.34 276.116C269.563 276.644 270.063 276.977 270.618 276.977C270.646 276.977 270.674 276.977 270.702 276.977L391.326 268.864C391.854 268.836 392.298 268.503 392.521 268.031C392.687 267.531 392.604 266.975 392.27 266.586Z" fill="#383A48"/>
<path d="M390.743 250.138L269.563 275.643L339.753 173.649L349.423 206.406L395.077 175.899L408.693 196.348L363.233 226.716L390.743 250.138Z" fill="#F3F6E6"/>
<path fill-rule="evenodd" clip-rule="evenodd" d="M268.396 276.421C268.674 276.81 269.118 277.033 269.563 277.033H269.563C269.646 277.033 269.757 277.033 269.841 277.005L391.02 251.527C391.548 251.416 391.937 250.999 392.076 250.499C392.215 249.999 392.048 249.443 391.632 249.11L365.512 226.883L409.471 197.515C410.11 197.098 410.277 196.237 409.86 195.598L396.244 175.149C396.022 174.844 395.716 174.649 395.355 174.566C394.994 174.482 394.605 174.566 394.299 174.76L350.201 204.211L341.087 173.26C340.948 172.76 340.503 172.371 339.975 172.288C339.447 172.204 338.919 172.426 338.614 172.871L268.396 274.865C268.09 275.338 268.09 275.949 268.396 276.421ZM272.675 273.587L339.253 176.844L348.034 206.767C348.173 207.184 348.478 207.545 348.895 207.684C349.312 207.851 349.784 207.795 350.145 207.545L394.66 177.817L406.748 195.932L362.427 225.549C362.066 225.799 361.844 226.188 361.816 226.633C361.816 227.077 361.983 227.494 362.316 227.772L387.686 249.36L272.675 273.587Z" fill="#383A48"/>
<path d="M276.398 326.738C275.926 321.126 275.509 315.875 275.148 310.818C273.925 294.453 272.953 281.534 270.091 272.532C268.534 267.697 266.506 264.141 263.811 261.696C260.921 259.029 257.253 257.612 252.668 257.362C244.054 256.889 238.802 262.807 233.745 268.503C228.688 274.199 223.464 280.089 214.683 280.089C214.072 280.089 213.544 280.478 213.377 281.034C213.183 281.589 213.377 282.228 213.849 282.589L274.203 327.96C274.453 328.155 274.731 328.238 275.037 328.238C275.259 328.238 275.509 328.183 275.704 328.072C276.148 327.794 276.426 327.266 276.398 326.738Z" fill="#383A48"/>
<path d="M227.382 281.478H188.647C173.78 281.478 160.165 289.785 153.329 302.983L141.019 326.849C135.434 337.685 135.129 350.465 140.158 361.551C146.605 375.721 160.748 384.806 176.309 384.806H239.664C255.224 384.806 269.368 375.721 275.815 361.551C280.872 350.465 280.566 337.685 274.953 326.849L262.644 302.983C255.864 289.785 242.248 281.478 227.382 281.478Z" fill="#F6E049"/>
<path fill-rule="evenodd" clip-rule="evenodd" d="M176.337 386.195H239.692C255.753 386.195 270.452 376.749 277.121 362.135C282.373 350.576 282.067 337.49 276.232 326.21L263.922 302.344C256.836 288.619 242.832 280.089 227.382 280.089H188.647C173.197 280.089 159.192 288.619 152.107 302.344L139.797 326.21C133.962 337.49 133.656 350.576 138.908 362.135C145.577 376.749 160.276 386.195 176.337 386.195ZM154.58 303.622C161.193 290.813 174.225 282.867 188.647 282.867H227.437C241.831 282.867 254.891 290.813 261.504 303.622L273.814 327.488C279.233 337.99 279.538 350.188 274.62 360.968C268.396 374.609 254.697 383.417 239.719 383.417H176.365C161.388 383.417 147.688 374.609 141.464 360.968C136.546 350.215 136.851 337.99 142.27 327.488L154.58 303.622Z" fill="#383A48"/>
<path d="M211.848 362.94H207.347C201.262 362.94 196.343 358.023 196.343 351.938V350.771C196.343 344.686 201.262 339.769 207.347 339.769H211.848C217.934 339.769 222.852 344.686 222.852 350.771V351.938C222.852 358.023 217.934 362.94 211.848 362.94Z" fill="#F3F6E6"/>
<path fill-rule="evenodd" clip-rule="evenodd" d="M207.347 364.33H211.849C218.684 364.33 224.242 358.773 224.242 351.938V350.771C224.242 343.936 218.684 338.379 211.849 338.379H207.347C200.512 338.379 194.954 343.936 194.954 350.771V351.938C194.954 358.773 200.512 364.33 207.347 364.33ZM197.733 350.771C197.733 345.464 202.04 341.158 207.347 341.158H211.849C217.156 341.158 221.463 345.464 221.463 350.771V351.938C221.463 357.245 217.156 361.551 211.849 361.551H207.347C202.04 361.551 197.733 357.245 197.733 351.938V350.771Z" fill="#F3F6E6"/>
<path d="M180.866 362.94H185.368C191.453 362.94 196.371 358.023 196.371 351.938V350.771C196.371 344.686 191.453 339.769 185.368 339.769H180.866C174.781 339.769 169.862 344.686 169.862 350.771V351.938C169.862 358.023 174.808 362.94 180.866 362.94Z" fill="#F3F6E6"/>
<path fill-rule="evenodd" clip-rule="evenodd" d="M180.866 364.33H185.368C192.203 364.33 197.761 358.773 197.761 351.938V350.771C197.761 343.936 192.203 338.379 185.368 338.379H180.866C174.031 338.379 168.473 343.936 168.473 350.771V351.938C168.473 358.773 174.031 364.33 180.866 364.33ZM171.252 350.771C171.252 345.464 175.559 341.158 180.866 341.158H185.368C190.675 341.158 194.982 345.464 194.982 350.771V351.938C194.982 357.245 190.675 361.551 185.368 361.551H180.866C175.559 361.551 171.252 357.245 171.252 351.938V350.771Z" fill="#F3F6E6"/>
<path d="M158.442 338.435C157.192 338.435 155.913 338.324 154.635 338.074C147.244 336.657 141.492 331.378 139.658 324.293C139.463 323.543 139.908 322.793 140.658 322.598C141.409 322.404 142.159 322.848 142.353 323.598C143.909 329.627 148.828 334.128 155.163 335.351C161.915 336.629 168.723 333.851 172.919 328.099C173.364 327.488 174.253 327.349 174.864 327.794C175.476 328.238 175.614 329.127 175.17 329.739C171.141 335.295 164.944 338.435 158.442 338.435Z" fill="#383A48"/>
<path d="M238.191 338.407C231.077 338.407 224.464 334.684 220.574 328.322C220.185 327.655 220.379 326.821 221.046 326.404C221.713 326.015 222.547 326.21 222.964 326.877C226.687 332.961 233.245 336.268 240.08 335.545C246.499 334.851 251.751 330.767 253.807 324.876C254.057 324.154 254.863 323.765 255.586 324.015C256.308 324.265 256.697 325.071 256.447 325.793C254.03 332.711 247.889 337.518 240.414 338.296C239.664 338.352 238.913 338.407 238.191 338.407Z" fill="#383A48"/>
<path d="M194.288 340.88L189.619 335.851C187.924 334.045 189.23 331.072 191.703 331.072H201.012C203.485 331.072 204.791 334.017 203.096 335.851L198.428 340.88C197.316 342.102 195.399 342.102 194.288 340.88Z" fill="#383A48"/>
<path fill-rule="evenodd" clip-rule="evenodd" d="M193.259 341.825C194.065 342.686 195.204 343.186 196.371 343.186C197.539 343.186 198.678 342.686 199.456 341.825L204.124 336.796C205.291 335.545 205.597 333.795 204.902 332.239C204.207 330.683 202.707 329.711 201.012 329.711H191.703C189.98 329.711 188.508 330.683 187.813 332.239C187.146 333.795 187.424 335.545 188.591 336.796L193.259 341.825ZM196.344 340.408C195.955 340.408 195.566 340.241 195.288 339.935L190.647 334.906C190.036 334.267 190.286 333.545 190.369 333.35C190.453 333.156 190.814 332.489 191.703 332.489H201.012C201.901 332.489 202.262 333.156 202.346 333.35C202.429 333.545 202.679 334.267 202.068 334.906L197.4 339.935C197.122 340.241 196.733 340.408 196.344 340.408Z" fill="#383A48"/>
<path d="M196.371 362.023C195.593 362.023 194.982 361.412 194.982 360.634V338.296C194.982 337.518 195.593 336.907 196.371 336.907C197.149 336.907 197.761 337.518 197.761 338.296V360.634C197.761 361.412 197.122 362.023 196.371 362.023Z" fill="#383A48"/>
<path d="M215.266 314.041H187.479C179.393 314.041 172.835 307.484 172.835 299.399C172.835 291.314 179.393 284.757 187.479 284.757H215.266C223.352 284.757 229.91 291.314 229.91 299.399C229.882 307.484 223.325 314.041 215.266 314.041Z" fill="#F3F6E6"/>
<path fill-rule="evenodd" clip-rule="evenodd" d="M187.479 315.43H215.267C224.103 315.43 231.272 308.262 231.3 299.399C231.3 290.563 224.103 283.367 215.267 283.367H187.479C178.643 283.367 171.446 290.563 171.446 299.399C171.446 308.234 178.643 315.43 187.479 315.43ZM174.225 299.426C174.225 292.119 180.171 286.174 187.479 286.174H215.267C222.575 286.174 228.521 292.119 228.521 299.426C228.521 306.734 222.575 312.679 215.267 312.679H187.479C180.171 312.679 174.225 306.734 174.225 299.426Z" fill="#F3F6E6"/>
<path d="M190.314 294.87C190.231 294.87 190.147 294.87 190.036 294.842C189.286 294.703 188.786 293.953 188.925 293.203L191.259 281.2C191.398 280.45 192.12 279.95 192.898 280.089C193.648 280.228 194.149 280.978 194.01 281.728L191.675 293.731C191.564 294.425 190.981 294.87 190.314 294.87Z" fill="#383A48"/>
<path d="M199.039 294.87C198.956 294.87 198.872 294.87 198.761 294.842C198.011 294.703 197.511 293.953 197.65 293.203L199.984 281.2C200.123 280.45 200.873 279.95 201.623 280.089C202.373 280.228 202.874 280.978 202.735 281.728L200.401 293.731C200.262 294.425 199.678 294.87 199.039 294.87Z" fill="#383A48"/>
<path d="M207.736 294.87C207.653 294.87 207.57 294.87 207.458 294.842C206.708 294.703 206.208 293.953 206.347 293.203L208.681 281.2C208.82 280.45 209.57 279.95 210.32 280.089C211.071 280.228 211.571 280.978 211.432 281.728L209.098 293.731C208.959 294.425 208.375 294.87 207.736 294.87Z" fill="#383A48"/>
<path d="M254.863 349.493C255.907 349.493 256.753 348.647 256.753 347.604C256.753 346.56 255.907 345.714 254.863 345.714C253.82 345.714 252.974 346.56 252.974 347.604C252.974 348.647 253.82 349.493 254.863 349.493Z" fill="#383A48"/>
<path fill-rule="evenodd" clip-rule="evenodd" d="M251.584 347.576C251.584 349.382 253.057 350.854 254.863 350.854C256.67 350.854 258.142 349.382 258.142 347.576C258.142 345.77 256.67 344.297 254.863 344.297C253.057 344.297 251.584 345.77 251.584 347.576ZM254.363 347.604C254.363 347.326 254.585 347.104 254.863 347.104C255.141 347.104 255.364 347.326 255.364 347.604C255.364 347.881 255.141 348.104 254.863 348.104C254.585 348.104 254.363 347.881 254.363 347.604Z" fill="#383A48"/>
<path d="M267.478 358.439C268.522 358.439 269.368 357.593 269.368 356.55C269.368 355.507 268.522 354.661 267.478 354.661C266.435 354.661 265.589 355.507 265.589 356.55C265.589 357.593 266.435 358.439 267.478 358.439Z" fill="#383A48"/>
<path fill-rule="evenodd" clip-rule="evenodd" d="M264.2 356.522C264.2 358.328 265.672 359.801 267.479 359.801C269.257 359.801 270.757 358.328 270.757 356.522C270.757 354.716 269.285 353.244 267.479 353.244C265.672 353.244 264.2 354.716 264.2 356.522ZM266.978 356.55C266.978 356.272 267.201 356.05 267.479 356.05C267.729 356.05 267.979 356.272 267.979 356.55C267.979 356.828 267.756 357.05 267.479 357.05C267.201 357.05 266.978 356.828 266.978 356.55Z" fill="#383A48"/>
<path d="M267.478 338.935C268.522 338.935 269.368 338.089 269.368 337.046C269.368 336.002 268.522 335.156 267.478 335.156C266.435 335.156 265.589 336.002 265.589 337.046C265.589 338.089 266.435 338.935 267.478 338.935Z" fill="#383A48"/>
<path fill-rule="evenodd" clip-rule="evenodd" d="M264.2 337.046C264.2 338.852 265.672 340.324 267.479 340.324C269.257 340.324 270.757 338.852 270.757 337.046C270.757 335.24 269.285 333.767 267.479 333.767C265.672 333.767 264.2 335.24 264.2 337.046ZM266.978 337.046C266.978 336.768 267.201 336.546 267.479 336.546C267.729 336.546 267.951 336.768 267.979 337.046C267.979 337.324 267.756 337.546 267.479 337.546C267.201 337.546 266.978 337.324 266.978 337.046Z" fill="#383A48"/>
<path d="M150.439 352.16C151.483 352.16 152.329 351.314 152.329 350.271C152.329 349.227 151.483 348.382 150.439 348.382C149.396 348.382 148.55 349.227 148.55 350.271C148.55 351.314 149.396 352.16 150.439 352.16Z" fill="#383A48"/>
<path fill-rule="evenodd" clip-rule="evenodd" d="M147.161 350.271C147.161 352.077 148.633 353.549 150.44 353.549C152.246 353.549 153.718 352.077 153.718 350.271C153.718 348.465 152.246 346.992 150.44 346.992C148.633 346.992 147.161 348.465 147.161 350.271ZM149.939 350.299C149.939 350.021 150.162 349.799 150.44 349.799C150.717 349.799 150.94 350.021 150.94 350.299C150.94 350.577 150.717 350.799 150.44 350.799C150.162 350.799 149.939 350.577 149.939 350.299Z" fill="#383A48"/>
<path d="M137.852 337.851C137.713 337.851 137.574 337.879 137.435 337.907C137.518 338.24 137.546 338.601 137.574 338.935C137.602 339.824 137.407 340.657 137.018 341.408C137.268 341.547 137.546 341.63 137.879 341.63C138.908 341.63 139.769 340.796 139.769 339.741C139.741 338.685 138.88 337.851 137.852 337.851Z" fill="#383A48"/>
<path d="M137.852 342.991C137.352 342.991 136.851 342.88 136.379 342.63C136.046 342.464 135.796 342.158 135.684 341.825C135.573 341.463 135.601 341.102 135.768 340.769C136.073 340.185 136.185 339.602 136.185 339.018C136.185 338.768 136.129 338.49 136.073 338.213C135.907 337.49 136.379 336.74 137.102 336.573C137.352 336.518 137.602 336.49 137.852 336.49C139.658 336.49 141.131 337.963 141.131 339.768C141.131 341.574 139.658 342.991 137.852 342.991Z" fill="#383A48"/>
<path d="M315.439 384.806H229.883V381.083C229.883 366.58 241.637 354.8 256.169 354.8H310.215" fill="#F6E049"/>
<path d="M315.439 386.195H229.883C229.104 386.195 228.493 385.584 228.493 384.806V381.083C228.493 365.83 240.914 353.41 256.169 353.41H310.215C310.993 353.41 311.604 354.022 311.604 354.8C311.604 355.578 310.993 356.189 310.215 356.189H256.169C242.442 356.189 231.272 367.358 231.272 381.083V383.417H315.439C316.217 383.417 316.828 384.028 316.828 384.806C316.828 385.584 316.189 386.195 315.439 386.195Z" fill="#383A48"/>
<path d="M256.058 356.272H260.532C264.366 356.272 267.478 359.384 267.478 363.218V376.443C267.478 380.277 264.366 383.389 260.532 383.389H231.133V381.222C231.133 367.414 242.275 356.272 256.058 356.272Z" fill="#F3F6E6"/>
<path d="M240.636 386.195C239.858 386.195 239.247 385.584 239.247 384.806V381.083C239.247 376.777 240.22 372.637 242.109 368.803C242.443 368.108 243.276 367.83 243.971 368.164C244.666 368.497 244.943 369.33 244.61 370.025C242.887 373.47 242.026 377.193 242.026 381.083V384.806C242.026 385.584 241.414 386.195 240.636 386.195Z" fill="#383A48"/>
<path d="M250.251 386.195C249.473 386.195 248.861 385.584 248.861 384.806V381.083C248.861 376.777 249.834 372.637 251.723 368.803C252.057 368.108 252.89 367.83 253.585 368.164C254.28 368.497 254.558 369.33 254.224 370.025C252.501 373.47 251.64 377.193 251.64 381.083V384.806C251.64 385.584 251.029 386.195 250.251 386.195Z" fill="#383A48"/>
<path d="M397.55 273.782L389.603 279.311C370.68 292.536 365.428 318.236 377.627 337.824L388.102 354.661H354.897C340.67 354.661 329.11 366.191 329.11 380.444V384.806H362.594" fill="#F6E049"/>
<path d="M362.594 386.195H329.111C328.333 386.195 327.721 385.584 327.721 384.806V380.444C327.721 365.469 339.92 353.271 354.897 353.271H385.602L376.46 338.574C363.872 318.347 369.291 291.814 388.825 278.172L396.772 272.643C397.411 272.198 398.273 272.365 398.717 272.976C399.162 273.615 398.995 274.476 398.384 274.921L390.437 280.45C372.125 293.258 367.012 318.125 378.822 337.101L389.297 353.938C389.575 354.355 389.575 354.911 389.325 355.355C389.075 355.8 388.603 356.078 388.103 356.078H354.897C341.448 356.078 330.5 367.024 330.5 380.472V383.417H362.594C363.372 383.417 363.983 384.028 363.983 384.806C363.983 385.584 363.372 386.195 362.594 386.195Z" fill="#383A48"/>
<path d="M355.508 356.272H359.982C363.816 356.272 366.929 359.384 366.929 363.218V376.443C366.929 380.277 363.816 383.389 359.982 383.389H330.583V381.222C330.583 367.414 341.753 356.272 355.508 356.272Z" fill="#F3F6E6"/>
<path d="M454.097 354.661H399.995C391.659 354.661 384.935 361.412 384.935 369.72C384.935 378.055 391.687 384.778 399.995 384.778H454.097C462.433 384.778 469.157 378.027 469.157 369.72C469.157 361.412 462.433 354.661 454.097 354.661Z" fill="#F6E049"/>
<path fill-rule="evenodd" clip-rule="evenodd" d="M399.995 386.195H454.097C463.183 386.195 470.547 378.805 470.547 369.747C470.547 360.69 463.183 353.299 454.097 353.299H399.995C390.937 353.299 383.545 360.69 383.545 369.747C383.545 378.805 390.909 386.195 399.995 386.195ZM386.324 369.72C386.324 362.19 392.437 356.05 399.995 356.05H454.097C461.627 356.05 467.768 362.19 467.768 369.72C467.768 377.249 461.655 383.389 454.097 383.389H399.995C392.465 383.389 386.324 377.249 386.324 369.72Z" fill="#383A48"/>
<rect x="410.61" y="356.05" width="13.6157" height="27.3671" fill="#F3F6E6"/>
<rect x="439.175" y="356.05" width="13.6157" height="27.3671" fill="#F3F6E6"/>
<path d="M339.142 386.195C338.364 386.195 337.752 385.584 337.752 384.806V381.083C337.752 376.777 338.725 372.637 340.615 368.803C340.948 368.108 341.782 367.83 342.476 368.164C343.171 368.497 343.449 369.33 343.115 370.025C341.393 373.47 340.531 377.193 340.531 381.083V384.806C340.531 385.584 339.892 386.195 339.142 386.195Z" fill="#383A48"/>
<path d="M348.756 386.195C347.978 386.195 347.367 385.584 347.367 384.806V381.083C347.367 376.777 348.339 372.637 350.229 368.803C350.562 368.108 351.396 367.83 352.091 368.164C352.785 368.497 353.063 369.33 352.73 370.025C351.007 373.47 350.145 377.193 350.145 381.083V384.806C350.145 385.584 349.534 386.195 348.756 386.195Z" fill="#383A48"/>
<path fill-rule="evenodd" clip-rule="evenodd" d="M168.973 248.026C169.056 248.054 169.14 248.054 169.223 248.054C169.862 248.054 170.474 247.582 170.585 246.915C170.724 246.165 170.223 245.442 169.473 245.303C168.334 245.081 167.167 244.942 166 244.887C165.222 244.831 164.583 245.415 164.527 246.193C164.472 246.97 165.055 247.61 165.833 247.665C166.889 247.721 167.945 247.832 168.973 248.026ZM258.197 248.276C258.114 248.276 258.003 248.276 257.92 248.249C256.891 248.026 255.836 247.887 254.752 247.776C254.002 247.693 253.446 247.026 253.501 246.248C253.585 245.498 254.252 244.942 255.03 244.998C256.197 245.109 257.364 245.303 258.475 245.526C259.226 245.692 259.698 246.415 259.559 247.165C259.42 247.832 258.837 248.276 258.197 248.276ZM242.053 247.943C242.248 248.526 242.803 248.915 243.387 248.915C243.526 248.915 243.665 248.888 243.776 248.832C244.776 248.499 245.804 248.249 246.833 248.054C247.583 247.915 248.083 247.193 247.944 246.443C247.805 245.692 247.083 245.192 246.332 245.331C245.193 245.554 244.054 245.831 242.942 246.193C242.22 246.443 241.831 247.221 242.053 247.943ZM154.413 249.193C153.829 249.193 153.301 248.832 153.107 248.249C152.857 247.526 153.246 246.72 153.996 246.498C155.079 246.137 156.219 245.831 157.358 245.581C158.108 245.415 158.859 245.887 158.997 246.637C159.164 247.387 158.692 248.137 157.942 248.276C156.886 248.499 155.858 248.776 154.885 249.11C154.69 249.165 154.552 249.193 154.413 249.193ZM179.143 252.249C179.393 252.388 179.643 252.472 179.921 252.472C180.366 252.472 180.81 252.249 181.088 251.86C181.505 251.221 181.338 250.36 180.699 249.943C179.727 249.304 178.699 248.693 177.698 248.165C177.031 247.804 176.198 248.082 175.836 248.749C175.475 249.415 175.753 250.249 176.42 250.61C177.337 251.11 178.254 251.638 179.143 252.249ZM268.84 252.861C268.562 252.861 268.284 252.777 268.034 252.611C267.173 251.999 266.284 251.444 265.367 250.944C264.7 250.582 264.45 249.721 264.811 249.054C265.172 248.387 266.033 248.137 266.7 248.499C267.728 249.054 268.729 249.693 269.674 250.36C270.285 250.805 270.452 251.666 269.979 252.305C269.701 252.666 269.257 252.861 268.84 252.861ZM232.189 254.083C232.467 254.417 232.883 254.583 233.272 254.583C233.578 254.583 233.884 254.472 234.162 254.278C234.801 253.722 235.468 253.222 236.135 252.75L236.718 252.333C237.357 251.916 237.524 251.055 237.079 250.416C236.662 249.777 235.801 249.61 235.162 250.055C235.051 250.124 234.947 250.2 234.842 250.277C234.738 250.353 234.634 250.43 234.523 250.499C233.8 250.999 233.078 251.555 232.383 252.138C231.772 252.611 231.689 253.5 232.189 254.083ZM144.465 255.139C144.104 255.139 143.715 255 143.464 254.694C142.937 254.139 142.964 253.25 143.52 252.722C143.547 252.695 143.577 252.668 143.607 252.64C143.672 252.582 143.741 252.519 143.798 252.444C144.576 251.749 145.382 251.083 146.215 250.471C146.827 250.027 147.716 250.166 148.161 250.777C148.605 251.388 148.466 252.277 147.855 252.722C147.105 253.277 146.382 253.861 145.687 254.5L145.437 254.75C145.132 255 144.798 255.139 144.465 255.139ZM187.563 259.807C187.84 260.112 188.202 260.251 188.591 260.251C188.924 260.251 189.258 260.112 189.536 259.89C190.091 259.362 190.147 258.473 189.619 257.917C188.785 256.973 188.007 256.167 187.285 255.445C186.729 254.917 185.868 254.917 185.312 255.445C184.784 256 184.784 256.862 185.312 257.417L185.395 257.504C186.067 258.202 186.789 258.953 187.563 259.807ZM225.075 262.891C224.742 262.891 224.408 262.78 224.158 262.529C223.575 262.029 223.519 261.14 224.047 260.557L224.436 260.14C224.976 259.551 225.517 258.94 226.076 258.307L226.298 258.056C226.826 257.501 227.687 257.445 228.271 257.973C228.854 258.501 228.882 259.362 228.354 259.946C227.715 260.64 227.104 261.335 226.52 262.002L226.131 262.418C225.853 262.724 225.464 262.891 225.075 262.891ZM137.101 264.419C137.296 264.502 137.518 264.558 137.713 264.558C138.241 264.558 138.741 264.28 138.991 263.78C139.463 262.78 139.963 261.835 140.491 260.946C140.88 260.279 140.686 259.418 140.019 259.029C139.352 258.64 138.491 258.834 138.102 259.501C137.518 260.473 136.962 261.501 136.462 262.557C136.129 263.252 136.407 264.085 137.101 264.419ZM196.649 268.642C196.343 268.642 196.065 268.559 195.815 268.364C195.037 267.753 194.204 267.003 193.203 266.002C192.675 265.447 192.675 264.585 193.203 264.03C193.759 263.502 194.621 263.502 195.176 264.03C196.065 264.947 196.844 265.641 197.51 266.141C198.122 266.614 198.233 267.475 197.76 268.086C197.483 268.447 197.066 268.642 196.649 268.642ZM214.877 269.142C215.016 269.781 215.6 270.226 216.239 270.226C216.278 270.226 216.322 270.22 216.37 270.213C216.425 270.206 216.485 270.198 216.545 270.198C217.739 269.92 218.851 269.392 220.046 268.503C220.657 268.031 220.768 267.169 220.324 266.558C219.851 265.947 218.99 265.836 218.379 266.28C217.489 266.919 216.739 267.308 215.933 267.475C215.183 267.642 214.711 268.392 214.877 269.142ZM207.903 270.364H204.568C203.79 270.364 203.179 269.753 203.179 268.975C203.179 268.197 203.79 267.586 204.568 267.586H207.903C208.681 267.586 209.292 268.197 209.292 268.975C209.292 269.753 208.681 270.364 207.903 270.364ZM133.683 275.56C133.767 275.588 133.878 275.588 133.989 275.588C134.628 275.588 135.184 275.171 135.351 274.532C135.601 273.421 135.879 272.365 136.156 271.365C136.379 270.615 135.962 269.864 135.212 269.642C134.461 269.42 133.711 269.837 133.489 270.587C133.211 271.643 132.933 272.754 132.655 273.893C132.461 274.643 132.933 275.393 133.683 275.56ZM132.016 287.09H131.849C131.099 286.979 130.543 286.285 130.655 285.534C130.794 284.368 130.96 283.256 131.127 282.2C131.238 281.45 131.933 280.922 132.711 281.033C133.461 281.145 133.989 281.867 133.878 282.617C133.711 283.645 133.572 284.757 133.433 285.896C133.294 286.59 132.711 287.09 132.016 287.09ZM130.682 298.704H130.794C131.516 298.704 132.127 298.148 132.155 297.426C132.208 296.894 132.255 296.361 132.302 295.832C132.352 295.256 132.403 294.684 132.461 294.12C132.544 293.37 131.988 292.703 131.21 292.619C130.46 292.536 129.793 293.092 129.71 293.87C129.649 294.459 129.597 295.056 129.544 295.662L129.544 295.662L129.544 295.662C129.5 296.17 129.455 296.684 129.404 297.204C129.349 297.954 129.904 298.648 130.682 298.704ZM129.765 310.318H129.877C130.599 310.318 131.21 309.762 131.266 309.04C131.349 307.9 131.433 306.789 131.516 305.706C131.572 304.928 131.016 304.261 130.238 304.205C129.46 304.15 128.793 304.705 128.737 305.483L128.487 308.817C128.432 309.595 128.987 310.262 129.765 310.318Z" fill="#383A48"/>
<path d="M233.273 172.26H182.728C174.725 172.26 168.195 178.789 168.195 186.791V212.824C168.195 220.826 174.725 227.355 182.728 227.355H194.148L206.931 243.331C207.181 243.664 207.597 243.859 208.014 243.859C208.431 243.859 208.848 243.664 209.098 243.331L221.88 227.355H233.301C241.303 227.355 247.833 220.826 247.833 212.824V186.819C247.833 178.789 241.303 172.26 233.273 172.26Z" fill="#E0719E"/>
<path d="M224.687 196.626C224.464 194.181 223.297 191.986 221.408 190.403C217.517 187.18 211.738 187.708 208.514 191.597L208.042 192.153L207.486 191.514C204.263 187.68 198.483 187.18 194.621 190.375C192.731 191.959 191.564 194.153 191.342 196.626C191.12 199.071 191.87 201.461 193.454 203.35C193.482 203.406 193.537 203.433 193.565 203.489L207.153 215.964C207.431 216.214 207.764 216.325 208.098 216.325C208.431 216.325 208.765 216.214 209.042 215.964L222.464 203.489C222.519 203.461 222.547 203.406 222.575 203.35C224.186 201.433 224.909 199.071 224.687 196.626Z" fill="#F3F6E6"/>
</svg>
