<svg xmlns="http://www.w3.org/2000/svg" fill="none" viewBox="0 0 394 215">
  <path fill="#383A48" d="M392.606 214.195H1.614c-.778 0-1.39-.611-1.39-1.389s.612-1.389 1.39-1.389h390.992c.779 0 1.39.611 1.39 1.389s-.611 1.389-1.39 1.389Z"/>
  <path fill="#F6E049" d="M113.874 212.806H28.317v-3.723c0-14.503 11.754-26.283 26.287-26.283h54.046"/>
  <path fill="#383A48" d="M113.874 214.195H28.318c-.779 0-1.39-.611-1.39-1.389v-3.723c0-15.253 12.421-27.673 27.676-27.673h54.046c.778 0 1.389.612 1.389 1.39 0 .778-.611 1.389-1.389 1.389H54.604c-13.727 0-24.897 11.169-24.897 24.894v2.334h84.167c.778 0 1.389.611 1.389 1.389s-.639 1.389-1.389 1.389Z"/>
  <path fill="#F3F6E6" d="M54.604 184.272h4.474a6.95 6.95 0 0 1 6.947 6.946v13.225a6.95 6.95 0 0 1-6.947 6.946H29.679v-2.167c0-13.808 11.17-24.95 24.925-24.95Z"/>
  <path fill="#383A48" d="M39.071 214.195c-.778 0-1.39-.611-1.39-1.389v-3.723c0-4.306.973-8.446 2.863-12.28a1.389 1.389 0 0 1 1.862-.639c.694.333.972 1.166.639 1.861-1.723 3.445-2.585 7.168-2.585 11.058v3.723c0 .778-.639 1.389-1.389 1.389ZM48.686 214.195c-.778 0-1.39-.611-1.39-1.389v-3.723c0-4.306.973-8.446 2.862-12.28a1.389 1.389 0 0 1 1.862-.639c.695.333.973 1.166.64 1.861-1.723 3.445-2.585 7.168-2.585 11.058v3.723c0 .778-.611 1.389-1.39 1.389Z"/>
  <path fill="#F6E049" d="M350.203 170.019c-.222 23.7-19.534 42.787-43.236 42.787H137.382V109.478c19.784 8.585 31.205 4.196 43.209-5.89 1.973-1.639 3.946-3.445 5.974-5.362 3.779-3.584 7.753-7.585 12.171-11.78a89.872 89.872 0 0 1 4.585-4.113c4.751-4 9.753-7.501 14.921-10.446a100.707 100.707 0 0 1 25.564-10.308 100.145 100.145 0 0 1 19.424-2.918c11.559-.583 22.841.862 33.15 4.224l1.25.416c17.45 5.974 31.844 17.476 39.236 33.591 12.142 26.478 13.615 46.01 13.337 73.127Z"/>
  <path fill="#383A48" fill-rule="evenodd" d="M137.382 214.195h169.585c11.837 0 22.98-4.584 31.399-12.863 8.42-8.336 13.116-19.421 13.227-31.257.111-11.892-.056-24.589-2.056-37.036-1.973-12.308-5.613-23.978-11.449-36.703-7.224-15.78-21.451-27.978-40.041-34.34-.028-.028-.028-.028-.055-.028-.209-.07-.41-.14-.612-.209-.201-.07-.403-.139-.611-.208-10.448-3.39-22.063-4.862-33.65-4.279a102.644 102.644 0 0 0-19.646 2.945h-.028a101.812 101.812 0 0 0-25.842 10.42c-.013 0-.02.006-.027.013-.007.007-.014.014-.028.014a103.44 103.44 0 0 0-15.116 10.614c-1.556 1.333-3.14 2.722-4.641 4.167-1.351 1.297-2.667 2.583-3.956 3.841-.699.683-1.39 1.357-2.074 2.022a539.875 539.875 0 0 1-6.141 5.917c-2.25 2.112-4.14 3.807-5.918 5.307-6.641 5.557-12.199 8.53-18.062 9.641-6.919 1.306-14.449.028-23.702-3.973-.417-.194-.917-.139-1.306.111-.417.25-.639.695-.639 1.167v103.328c0 .778.611 1.389 1.389 1.389Zm169.585-2.778H138.771l-.027-99.827c8.919 3.584 16.394 4.64 23.396 3.334 6.364-1.195 12.338-4.362 19.34-10.252 1.806-1.529 3.724-3.251 6.03-5.418 1.539-1.454 3.094-2.973 4.704-4.545l1.465-1.429a636.705 636.705 0 0 1 6.002-5.835c1.472-1.389 3.001-2.75 4.529-4.056a100.808 100.808 0 0 1 14.672-10.28c.014 0 .02-.007.027-.014.007-.007.014-.014.028-.014a98.885 98.885 0 0 1 25.148-10.169h.055a99.655 99.655 0 0 1 19.145-2.89c11.254-.583 22.536.862 32.65 4.14.209.07.41.14.612.209a59 59 0 0 0 .611.208c.028.028.028.028.056.028 17.839 6.113 31.482 17.782 38.374 32.84 5.724 12.476 9.28 23.923 11.226 35.981 1.833 11.558 2.139 22.977 2 36.563-.083 11.086-4.501 21.505-12.393 29.312-7.891 7.808-18.367 12.114-29.454 12.114Z" clip-rule="evenodd"/>
  <path fill="#F3F6E6" d="M235.415 134.122a10.042 10.042 0 0 1-3.335.584 9.721 9.721 0 0 1-9.142-6.418c-4.279-11.753-11.476-20.227-21.424-25.172-7.058-3.529-12.948-3.918-13.004-3.918-.25 0-.5-.028-.75-.056 3.779-3.584 7.752-7.585 12.171-11.808a89.759 89.759 0 0 1 4.584-4.112c1.807.695 3.724 1.5 5.669 2.473 10.031 5.001 23.536 15.281 31.038 35.952 1.834 5.057-.75 10.642-5.807 12.475ZM265.536 113.812c-.917.25-1.806.389-2.695.362-4.224-.028-8.086-2.807-9.309-7.057-3.946-13.92-11.559-23.95-22.646-29.84-4.558-2.418-8.865-3.668-11.893-4.28a101.307 101.307 0 0 1 25.592-10.196c10.253 6.64 21.785 18.421 27.648 39.009 1.445 5.14-1.556 10.53-6.697 12.002ZM299.853 97.28c-.833.195-1.667.306-2.501.279a9.763 9.763 0 0 1-9.308-7.363c-3.029-12.114-9.337-21.282-18.729-27.256a40.168 40.168 0 0 0-5.279-2.834c12.031-.444 23.758 1.306 34.317 5.112 3.501 5.501 6.53 12.197 8.53 20.255 1.362 5.223-1.806 10.502-7.03 11.808Z"/>
  <path fill="#383A48" d="M112.679 109.033a1.403 1.403 0 0 0-1.306-.944c-8.781 0-14.005-5.89-19.062-11.586-5.057-5.724-10.309-11.641-18.923-11.141-4.585.25-8.225 1.667-11.143 4.334-2.667 2.445-4.723 6.001-6.28 10.836-2.862 9.002-3.834 21.921-5.057 38.286-.389 5.056-.778 10.28-1.25 15.92-.056.556.222 1.056.722 1.334.223.111.445.166.667.166.306 0 .584-.083.834-.278l60.353-45.371c.445-.361.64-.972.445-1.556ZM302.27 94.586l-20.173-23.7 14.838-6.751c.528-.25.834-.778.806-1.334-.028-.583-.417-1.056-.945-1.25-10.42-3.39-22.063-4.862-33.65-4.279a101.99 101.99 0 0 0-19.645 2.945h-.028a101.8 101.8 0 0 0-25.842 10.42c-.028 0-.028.027-.056.027a99.939 99.939 0 0 0-15.116 10.614 109.81 109.81 0 0 0-4.64 4.167c-2.112 2-4.113 3.973-6.03 5.863-2.14 2.083-4.14 4.056-6.141 5.917-2.251 2.14-4.14 3.835-5.919 5.307a1.376 1.376 0 0 0-.389 1.584c.223.528.723.861 1.278.861h.084l120.624-8.113c.528-.028.972-.36 1.195-.833.166-.5.083-1.056-.251-1.445Z"/>
  <path fill="#F3F6E6" d="m300.743 78.138-121.18 25.505 70.19-101.994 9.67 32.757L305.077 3.9l13.616 20.45-45.46 30.367 27.51 23.422Z"/>
  <path fill="#383A48" fill-rule="evenodd" d="M178.396 104.421a1.45 1.45 0 0 0 1.167.612c.083 0 .194 0 .278-.028L301.02 79.527c.528-.111.917-.528 1.056-1.028a1.332 1.332 0 0 0-.444-1.39l-26.12-22.226 43.959-29.368a1.384 1.384 0 0 0 .389-1.917L306.244 3.15a1.487 1.487 0 0 0-.889-.583 1.41 1.41 0 0 0-1.056.194l-44.098 29.451-9.114-30.951c-.139-.5-.584-.89-1.112-.972a1.383 1.383 0 0 0-1.361.583l-70.218 101.994a1.433 1.433 0 0 0 0 1.556Zm4.279-2.834 66.578-96.743 8.781 29.923c.139.417.444.778.861.917.417.167.889.111 1.25-.139L304.66 5.817l12.088 18.115-44.321 29.617a1.41 1.41 0 0 0-.611 1.084c0 .444.167.861.5 1.139l25.37 21.588-115.011 24.227Z" clip-rule="evenodd"/>
  <path fill="#383A48" d="M186.398 154.738c-.472-5.612-.889-10.863-1.25-15.92-1.223-16.365-2.195-29.284-5.057-38.286-1.557-4.835-3.585-8.391-6.28-10.836-2.89-2.667-6.558-4.084-11.143-4.334-8.614-.473-13.866 5.445-18.923 11.141-5.057 5.696-10.281 11.586-19.062 11.586-.611 0-1.139.389-1.306.945a1.4 1.4 0 0 0 .472 1.555l60.354 45.371c.25.195.528.278.834.278a1.4 1.4 0 0 0 .667-.166c.444-.278.722-.806.694-1.334Z"/>
  <path fill="#F6E049" d="M137.382 109.478H98.646c-14.866 0-28.481 8.307-35.317 21.505l-12.31 23.866a39.82 39.82 0 0 0-.861 34.702c6.447 14.17 20.59 23.255 36.151 23.255h63.355c15.56 0 29.704-9.085 36.151-23.255a39.634 39.634 0 0 0-.862-34.702l-12.309-23.866c-6.78-13.198-20.396-21.505-35.262-21.505Z"/>
  <path fill="#383A48" fill-rule="evenodd" d="M86.337 214.195h63.355c16.061 0 30.76-9.446 37.429-24.06 5.252-11.559 4.946-24.645-.889-35.925l-12.31-23.866c-7.086-13.725-21.09-22.255-36.54-22.255H98.647c-15.45 0-29.455 8.53-36.54 22.255l-12.31 23.866c-5.835 11.28-6.141 24.366-.89 35.925 6.67 14.614 21.369 24.06 37.43 24.06ZM64.58 131.622c6.613-12.809 19.645-20.755 34.067-20.755h38.79c14.394 0 27.454 7.946 34.067 20.755l12.31 23.866c5.419 10.502 5.724 22.7.806 33.48-6.224 13.641-19.923 22.449-34.901 22.449H86.365c-14.977 0-28.676-8.808-34.9-22.449-4.92-10.753-4.614-22.978.805-33.48l12.31-23.866Z" clip-rule="evenodd"/>
  <path fill="#F3F6E6" d="M121.848 190.94h-4.501a10.993 10.993 0 0 1-11.004-11.002v-1.167a10.993 10.993 0 0 1 11.004-11.002h4.501a10.992 10.992 0 0 1 11.004 11.002v1.167a10.992 10.992 0 0 1-11.004 11.002Z"/>
  <path fill="#F3F6E6" fill-rule="evenodd" d="M117.347 192.33h4.502c6.835 0 12.393-5.557 12.393-12.392v-1.167c0-6.835-5.558-12.392-12.393-12.392h-4.502c-6.835 0-12.393 5.557-12.393 12.392v1.167c0 6.835 5.558 12.392 12.393 12.392Zm-9.614-13.559c0-5.307 4.307-9.613 9.614-9.613h4.502c5.307 0 9.614 4.306 9.614 9.613v1.167c0 5.307-4.307 9.613-9.614 9.613h-4.502c-5.307 0-9.614-4.306-9.614-9.613v-1.167Z" clip-rule="evenodd"/>
  <path fill="#F3F6E6" d="M90.866 190.94h4.502a10.992 10.992 0 0 0 11.003-11.002v-1.167a10.992 10.992 0 0 0-11.003-11.002h-4.502a10.992 10.992 0 0 0-11.004 11.002v1.167c0 6.085 4.946 11.002 11.004 11.002Z"/>
  <path fill="#F3F6E6" fill-rule="evenodd" d="M90.866 192.33h4.502c6.835 0 12.393-5.557 12.393-12.392v-1.167c0-6.835-5.558-12.392-12.393-12.392h-4.502c-6.835 0-12.393 5.557-12.393 12.392v1.167c0 6.835 5.558 12.392 12.393 12.392Zm-9.614-13.559c0-5.307 4.307-9.613 9.614-9.613h4.502c5.307 0 9.614 4.306 9.614 9.613v1.167c0 5.307-4.307 9.613-9.614 9.613h-4.502c-5.307 0-9.614-4.306-9.614-9.613v-1.167Z" clip-rule="evenodd"/>
  <path fill="#383A48" d="M68.442 166.435c-1.25 0-2.529-.111-3.807-.361-7.391-1.417-13.143-6.696-14.977-13.781-.195-.75.25-1.5 1-1.695.75-.194 1.5.25 1.695 1 1.556 6.029 6.475 10.53 12.81 11.753 6.752 1.278 13.56-1.5 17.756-7.252a1.41 1.41 0 0 1 1.945-.305c.611.444.75 1.333.306 1.945-4.03 5.556-10.226 8.696-16.728 8.696ZM148.191 166.407c-7.114 0-13.727-3.723-17.617-10.085a1.402 1.402 0 0 1 .472-1.918 1.402 1.402 0 0 1 1.918.473c3.723 6.084 10.281 9.391 17.116 8.668 6.419-.694 11.671-4.778 13.727-10.669a1.407 1.407 0 0 1 1.779-.861 1.407 1.407 0 0 1 .861 1.778c-2.417 6.918-8.558 11.725-16.033 12.503-.75.056-1.501.111-2.223.111ZM104.288 168.88l-4.669-5.029c-1.695-1.806-.389-4.779 2.084-4.779h9.309c2.473 0 3.779 2.945 2.084 4.779l-4.668 5.029a2.796 2.796 0 0 1-4.14 0Z"/>
  <path fill="#383A48" fill-rule="evenodd" d="M103.259 169.825a4.295 4.295 0 0 0 3.112 1.361c1.168 0 2.307-.5 3.085-1.361l4.668-5.029c1.167-1.251 1.473-3.001.778-4.557a4.226 4.226 0 0 0-3.89-2.528h-9.309c-1.722 0-3.195.972-3.89 2.528-.667 1.556-.389 3.306.778 4.557l4.668 5.029Zm3.085-1.417c-.389 0-.778-.167-1.056-.473l-4.641-5.029c-.611-.639-.361-1.361-.278-1.556a1.428 1.428 0 0 1 1.334-.861h9.309c.889 0 1.25.667 1.334.861.083.195.333.917-.278 1.556l-4.668 5.029a1.435 1.435 0 0 1-1.056.473Z" clip-rule="evenodd"/>
  <path fill="#383A48" d="M106.371 190.023a1.375 1.375 0 0 1-1.389-1.389v-22.338c0-.778.611-1.389 1.389-1.389s1.39.611 1.39 1.389v22.338c0 .778-.639 1.389-1.39 1.389Z"/>
  <path fill="#F3F6E6" d="M125.266 142.041H97.479c-8.086 0-14.644-6.557-14.644-14.642 0-8.085 6.558-14.642 14.644-14.642h27.787c8.086 0 14.644 6.557 14.644 14.642-.028 8.085-6.585 14.642-14.644 14.642Z"/>
  <path fill="#F3F6E6" fill-rule="evenodd" d="M97.48 143.43h27.787c8.836 0 16.005-7.168 16.033-16.031 0-8.836-7.197-16.032-16.033-16.032H97.48c-8.837 0-16.034 7.196-16.034 16.032 0 8.835 7.197 16.031 16.034 16.031Zm-13.255-16.004c0-7.307 5.946-13.252 13.254-13.252h27.788c7.308 0 13.254 5.945 13.254 13.252 0 7.308-5.946 13.253-13.254 13.253H97.479c-7.308 0-13.254-5.945-13.254-13.253Z" clip-rule="evenodd"/>
  <path fill="#383A48" d="M100.314 122.87c-.083 0-.167 0-.278-.028-.75-.139-1.25-.889-1.112-1.639l2.335-12.003a1.4 1.4 0 0 1 1.639-1.111c.75.139 1.251.889 1.112 1.639l-2.335 12.003c-.111.694-.694 1.139-1.361 1.139ZM109.039 122.87c-.083 0-.167 0-.278-.028-.75-.139-1.25-.889-1.111-1.639l2.334-12.003c.139-.75.889-1.25 1.639-1.111s1.251.889 1.112 1.639l-2.334 12.003a1.391 1.391 0 0 1-1.362 1.139ZM117.736 122.87c-.083 0-.166 0-.278-.028-.75-.139-1.25-.889-1.111-1.639l2.334-12.003c.139-.75.889-1.25 1.639-1.111.751.139 1.251.889 1.112 1.639l-2.334 12.003a1.391 1.391 0 0 1-1.362 1.139ZM164.863 177.493a1.89 1.89 0 1 0 0-3.78 1.89 1.89 0 0 0 0 3.78Z"/>
  <path fill="#383A48" fill-rule="evenodd" d="M161.584 175.576a3.284 3.284 0 0 0 3.279 3.278 3.284 3.284 0 0 0 3.279-3.278 3.285 3.285 0 0 0-3.279-3.279 3.285 3.285 0 0 0-3.279 3.279Zm2.779.028c0-.278.222-.5.5-.5s.501.222.501.5a.5.5 0 0 1-.501.5.498.498 0 0 1-.5-.5Z" clip-rule="evenodd"/>
  <path fill="#383A48" d="M177.478 186.439a1.89 1.89 0 1 0 0-3.78 1.89 1.89 0 0 0 0 3.78Z"/>
  <path fill="#383A48" fill-rule="evenodd" d="M174.2 184.522a3.285 3.285 0 0 0 3.279 3.279c1.778 0 3.278-1.473 3.278-3.279a3.284 3.284 0 0 0-3.278-3.278 3.284 3.284 0 0 0-3.279 3.278Zm2.778.028c0-.278.223-.5.501-.5.25 0 .5.222.5.5s-.223.5-.5.5a.498.498 0 0 1-.501-.5Z" clip-rule="evenodd"/>
  <path fill="#383A48" d="M177.478 166.935a1.89 1.89 0 1 0 0-3.78 1.89 1.89 0 0 0 0 3.78Z"/>
  <path fill="#383A48" fill-rule="evenodd" d="M174.2 165.046a3.284 3.284 0 0 0 3.279 3.278c1.778 0 3.278-1.472 3.278-3.278a3.284 3.284 0 0 0-3.278-3.279 3.285 3.285 0 0 0-3.279 3.279Zm2.778 0c0-.278.223-.5.501-.5.25 0 .472.222.5.5 0 .278-.223.5-.5.5a.498.498 0 0 1-.501-.5Z" clip-rule="evenodd"/>
  <path fill="#383A48" d="M60.44 180.16a1.89 1.89 0 1 0 0-3.779 1.89 1.89 0 0 0 0 3.779Z"/>
  <path fill="#383A48" fill-rule="evenodd" d="M57.16 178.271a3.284 3.284 0 0 0 3.28 3.278 3.284 3.284 0 0 0 3.278-3.278 3.285 3.285 0 0 0-3.279-3.279 3.285 3.285 0 0 0-3.278 3.279Zm2.78.028c0-.278.222-.5.5-.5.277 0 .5.222.5.5s-.223.5-.5.5a.498.498 0 0 1-.5-.5Z" clip-rule="evenodd"/>
  <path fill="#383A48" d="M47.852 165.851c-.14 0-.278.028-.417.056.083.333.111.694.139 1.028a4.983 4.983 0 0 1-.556 2.473c.25.139.528.222.861.222 1.029 0 1.89-.834 1.89-1.889a1.934 1.934 0 0 0-1.917-1.89Z"/>
  <path fill="#383A48" d="M47.852 170.991c-.5 0-1-.111-1.473-.361a1.41 1.41 0 0 1-.695-.805 1.391 1.391 0 0 1 .084-1.056 3.684 3.684 0 0 0 .416-1.751c0-.25-.055-.528-.11-.805a1.387 1.387 0 0 1 1.028-1.64 3.285 3.285 0 0 1 4.03 3.195c-.001 1.806-1.474 3.223-3.28 3.223Z"/>
  <path fill="#F6E049" d="M225.439 212.806h-85.556v-3.723c0-14.503 11.754-26.283 26.286-26.283h54.046"/>
  <path fill="#383A48" d="M225.439 214.195h-85.556c-.779 0-1.39-.611-1.39-1.389v-3.723c0-15.253 12.421-27.673 27.676-27.673h54.046c.778 0 1.389.612 1.389 1.39 0 .778-.611 1.389-1.389 1.389h-54.046c-13.727 0-24.897 11.169-24.897 24.894v2.334h84.167c.778 0 1.389.611 1.389 1.389s-.639 1.389-1.389 1.389Z"/>
  <path fill="#F3F6E6" d="M166.058 184.272h4.474a6.949 6.949 0 0 1 6.946 6.946v13.225a6.949 6.949 0 0 1-6.946 6.946h-29.399v-2.167c0-13.808 11.142-24.95 24.925-24.95Z"/>
  <path fill="#383A48" d="M150.636 214.195a1.375 1.375 0 0 1-1.389-1.389v-3.723c0-4.306.973-8.446 2.862-12.28a1.39 1.39 0 0 1 1.862-.639c.695.333.972 1.166.639 1.861-1.723 3.445-2.584 7.168-2.584 11.058v3.723c0 .778-.612 1.389-1.39 1.389ZM160.251 214.195c-.778 0-1.39-.611-1.39-1.389v-3.723c0-4.306.973-8.446 2.862-12.28a1.39 1.39 0 0 1 1.862-.639c.695.333.973 1.166.639 1.861-1.723 3.445-2.584 7.168-2.584 11.058v3.723c0 .778-.611 1.389-1.389 1.389Z"/>
  <path fill="#F6E049" d="m307.55 101.782-7.947 5.529c-18.923 13.225-24.175 38.925-11.976 58.513l10.475 16.837h-33.205c-14.227 0-25.787 11.53-25.787 25.783v4.362h33.484"/>
  <path fill="#383A48" d="M272.594 214.195h-33.483c-.778 0-1.39-.611-1.39-1.389v-4.362c0-14.975 12.199-27.173 27.176-27.173h30.705l-9.142-14.697c-12.588-20.227-7.169-46.76 12.365-60.402l7.947-5.529a1.41 1.41 0 0 1 1.945.333 1.41 1.41 0 0 1-.333 1.945l-7.947 5.529c-18.312 12.808-23.425 37.675-11.615 56.651l10.475 16.837c.278.417.278.973.028 1.417-.25.445-.722.723-1.222.723h-33.206c-13.449 0-24.397 10.946-24.397 24.394v2.945h32.094c.778 0 1.389.611 1.389 1.389s-.611 1.389-1.389 1.389Z"/>
  <path fill="#F3F6E6" d="M265.508 184.272h4.474a6.95 6.95 0 0 1 6.947 6.946v13.225a6.95 6.95 0 0 1-6.947 6.946h-29.399v-2.167c0-13.808 11.17-24.95 24.925-24.95Z"/>
  <path fill="#F6E049" d="M364.097 182.661h-54.102c-8.336 0-15.06 6.751-15.06 15.059 0 8.335 6.752 15.058 15.06 15.058h54.102c8.336 0 15.06-6.751 15.06-15.058 0-8.308-6.724-15.059-15.06-15.059Z"/>
  <path fill="#383A48" fill-rule="evenodd" d="M309.995 214.195h54.102c9.086 0 16.45-7.39 16.45-16.448 0-9.057-7.364-16.448-16.45-16.448h-54.102c-9.058 0-16.45 7.391-16.45 16.448 0 9.058 7.364 16.448 16.45 16.448Zm-13.671-16.475c0-7.53 6.113-13.67 13.671-13.67h54.102c7.53 0 13.671 6.14 13.671 13.67 0 7.529-6.113 13.669-13.671 13.669h-54.102c-7.53 0-13.671-6.14-13.671-13.669Z" clip-rule="evenodd"/>
  <path fill="#F3F6E6" d="M320.61 184.05h13.616v27.367H320.61zM349.175 184.05h13.616v27.367h-13.616z"/>
  <path fill="#383A48" d="M249.142 214.195c-.778 0-1.39-.611-1.39-1.389v-3.723c0-4.306.973-8.446 2.863-12.28a1.388 1.388 0 0 1 1.861-.639c.695.333.973 1.166.639 1.861-1.722 3.445-2.584 7.168-2.584 11.058v3.723c0 .778-.639 1.389-1.389 1.389ZM258.756 214.195a1.375 1.375 0 0 1-1.389-1.389v-3.723c0-4.306.972-8.446 2.862-12.28a1.389 1.389 0 0 1 1.862-.639 1.39 1.39 0 0 1 .639 1.861c-1.723 3.445-2.585 7.168-2.585 11.058v3.723c0 .778-.611 1.389-1.389 1.389Z"/>
  <path fill="#383A48" fill-rule="evenodd" d="M78.973 76.026c.083.028.167.028.25.028a1.386 1.386 0 0 0 .25-2.75A24.195 24.195 0 0 0 76 72.886c-.778-.056-1.417.528-1.473 1.306-.055.778.528 1.416 1.306 1.472 1.056.056 2.112.167 3.14.361Zm89.224.25c-.083 0-.194 0-.277-.027-1.029-.223-2.084-.362-3.168-.473a1.422 1.422 0 0 1-1.251-1.528 1.423 1.423 0 0 1 1.529-1.25c1.167.111 2.334.305 3.445.528a1.41 1.41 0 0 1 1.084 1.639 1.392 1.392 0 0 1-1.362 1.111Zm-16.144-.333c.195.583.75.972 1.334.972a.886.886 0 0 0 .389-.083c1-.333 2.028-.583 3.057-.778a1.386 1.386 0 0 0 1.111-1.611 1.386 1.386 0 0 0-1.612-1.112c-1.139.222-2.278.5-3.39.862a1.415 1.415 0 0 0-.889 1.75Zm-87.64 1.25a1.367 1.367 0 0 1-1.306-.944 1.358 1.358 0 0 1 .889-1.75 33.263 33.263 0 0 1 3.362-.918c.75-.166 1.5.306 1.64 1.056.166.75-.306 1.5-1.056 1.64-1.056.222-2.084.5-3.057.833a1.696 1.696 0 0 1-.472.083Zm24.73 3.056c.25.14.5.223.778.223.445 0 .89-.223 1.167-.611.417-.64.25-1.5-.389-1.918-.972-.639-2-1.25-3-1.778-.668-.361-1.501-.083-1.862.584-.362.666-.084 1.5.583 1.861.917.5 1.834 1.028 2.723 1.64Zm89.697.612c-.278 0-.556-.084-.806-.25a26.637 26.637 0 0 0-2.667-1.667 1.407 1.407 0 0 1-.556-1.89 1.406 1.406 0 0 1 1.889-.555 29.714 29.714 0 0 1 2.974 1.861 1.38 1.38 0 0 1 .305 1.945 1.46 1.46 0 0 1-1.139.556Zm-36.651 1.222c.278.334.694.5 1.083.5.306 0 .612-.11.89-.305a25.048 25.048 0 0 1 1.973-1.529l.583-.416a1.354 1.354 0 0 0 .361-1.917 1.354 1.354 0 0 0-1.917-.361c-.111.069-.215.145-.32.222a5.217 5.217 0 0 1-.319.222c-.723.5-1.445 1.056-2.14 1.64a1.35 1.35 0 0 0-.194 1.944ZM54.465 83.14c-.361 0-.75-.139-1-.445a1.4 1.4 0 0 1 .055-1.972c.027-.027.057-.054.087-.082.065-.058.134-.12.19-.196a32.566 32.566 0 0 1 2.418-1.973 1.41 1.41 0 0 1 1.945.306c.445.611.306 1.5-.305 1.945-.75.555-1.473 1.139-2.167 1.778l-.25.25c-.306.25-.64.389-.973.389Zm43.098 4.668c.278.305.639.444 1.028.444.333 0 .667-.139.945-.361.555-.528.611-1.417.083-1.973a53.596 53.596 0 0 0-2.334-2.472 1.427 1.427 0 0 0-1.973 0 1.426 1.426 0 0 0 0 1.972l.083.087c.672.698 1.394 1.449 2.168 2.303Zm37.512 3.084a1.28 1.28 0 0 1-.917-.362 1.377 1.377 0 0 1-.111-1.972l.389-.417c.54-.59 1.081-1.2 1.64-1.833l.222-.25a1.401 1.401 0 0 1 1.973-.084c.583.528.611 1.39.083 1.973-.639.694-1.25 1.389-1.834 2.056l-.389.416a1.436 1.436 0 0 1-1.056.473Zm-87.974 1.528c.195.083.417.139.611.139.528 0 1.029-.278 1.279-.778.472-1 .972-1.945 1.5-2.834.39-.667.195-1.528-.472-1.917-.667-.39-1.528-.195-1.917.472-.584.972-1.14 2-1.64 3.056a1.39 1.39 0 0 0 .64 1.862Zm59.548 4.223c-.306 0-.584-.084-.834-.278-.778-.611-1.611-1.361-2.612-2.362a1.426 1.426 0 0 1 0-1.972 1.427 1.427 0 0 1 1.973 0c.889.917 1.668 1.611 2.334 2.111.612.473.723 1.334.25 1.945a1.405 1.405 0 0 1-1.111.556Zm18.228.5a1.397 1.397 0 0 0 1.362 1.084c.039 0 .083-.006.131-.013.055-.007.115-.015.175-.015 1.194-.278 2.306-.806 3.501-1.695a1.409 1.409 0 0 0 .278-1.945 1.408 1.408 0 0 0-1.945-.278c-.89.64-1.64 1.028-2.446 1.195a1.399 1.399 0 0 0-1.056 1.667Zm-6.974 1.223h-3.335a1.376 1.376 0 0 1-1.389-1.39c0-.778.611-1.389 1.389-1.389h3.335c.778 0 1.389.611 1.389 1.39 0 .777-.611 1.389-1.389 1.389Zm-74.22 5.195c.084.028.195.028.306.028.64 0 1.195-.417 1.362-1.056.25-1.111.528-2.167.806-3.167a1.37 1.37 0 0 0-.945-1.723 1.37 1.37 0 0 0-1.723.945 190.232 190.232 0 0 0-.834 3.306 1.36 1.36 0 0 0 1.028 1.667Zm-1.667 11.53h-.166c-.75-.111-1.306-.805-1.195-1.556.139-1.166.305-2.278.472-3.334a1.389 1.389 0 0 1 1.584-1.167c.75.112 1.278.834 1.167 1.584a86.114 86.114 0 0 0-.445 3.279c-.139.694-.722 1.194-1.417 1.194Zm-1.334 11.614h.112c.722 0 1.333-.556 1.361-1.278.053-.532.1-1.065.147-1.594.05-.576.1-1.148.159-1.712.083-.75-.473-1.417-1.25-1.501-.75-.083-1.418.473-1.501 1.251-.06.589-.113 1.186-.166 1.792-.044.508-.09 1.022-.14 1.542-.055.75.5 1.444 1.278 1.5Zm-.917 11.614h.112c.722 0 1.333-.556 1.389-1.278.083-1.14.167-2.251.25-3.334.056-.778-.5-1.445-1.278-1.501-.778-.055-1.445.5-1.5 1.278l-.25 3.334c-.056.778.5 1.445 1.277 1.501Z" clip-rule="evenodd"/>
  <path fill="#E0719E" d="M143.273.26H92.728c-8.003 0-14.533 6.529-14.533 14.53v26.034c0 8.002 6.53 14.531 14.533 14.531h11.42l12.783 15.976c.25.333.666.528 1.083.528a1.37 1.37 0 0 0 1.084-.528l12.782-15.976h11.421c8.002 0 14.532-6.53 14.532-14.53V14.817c0-8.029-6.53-14.558-14.56-14.558Z"/>
  <path fill="#F3F6E6" d="M134.687 24.626c-.223-2.445-1.39-4.64-3.279-6.223-3.891-3.223-9.67-2.695-12.894 1.194l-.472.556-.556-.639c-3.223-3.834-9.003-4.334-12.865-1.14-1.89 1.585-3.057 3.78-3.279 6.252a9.116 9.116 0 0 0 2.112 6.724c.028.055.083.083.111.139l13.588 12.475c.278.25.611.361.945.361.333 0 .667-.111.944-.361l13.422-12.475c.055-.028.083-.084.111-.14a9.04 9.04 0 0 0 2.112-6.723Z"/>
</svg>
