<svg xmlns="http://www.w3.org/2000/svg" fill="none" viewBox="0 0 498 538">
  <path fill="#AAC6FC" fill-rule="evenodd" d="M193.678 537.841c-123.517 0-162.036-104.093-162.036-227.6 0-123.507-88.186-188.501 31.708-261.25 119.894-72.75 434.418-76.883 434.418 75.533s-180.572 413.317-304.09 413.317Z" clip-rule="evenodd"/>
  <mask id="a" width="498" height="538" x="0" y="0" maskUnits="userSpaceOnUse" style="mask-type:luminance">
    <path fill="#fff" fill-rule="evenodd" d="M193.678 537.841c-123.517 0-162.036-104.093-162.036-227.6 0-123.507-88.186-188.501 31.708-261.25 119.894-72.75 434.418-76.883 434.418 75.533s-180.572 413.317-304.09 413.317Z" clip-rule="evenodd"/>
  </mask>
  <g mask="url(#a)">
    <path fill="#F3F6E6" d="M1.242 163.79h67.87c.807 0 1.49.621 1.552 1.428l19.653 228.115c.03.435-.124.869-.404 1.18-.28.31-.714.496-1.148.496H1.242c-.87 0-1.552-.683-1.552-1.552V165.343c0-.839.714-1.553 1.552-1.553Z"/>
    <path fill="#4053FA" d="M1.242 163.79h23.875c.621 0 1.18.373 1.428.963.249.59.094 1.242-.341 1.676L2.329 190.302c-.31.311-.683.466-1.087.466-.186 0-.404-.031-.59-.124a1.549 1.549 0 0 1-.962-1.428v-23.873c0-.839.714-1.553 1.552-1.553Z"/>
    <path fill="#F3F6E6" d="M396.724 164.535c.279-.465.776-.714 1.304-.714h107.393c.869 0 1.552.683 1.552 1.553v127.685c0 .87-.683 1.553-1.552 1.553h-.124c-16.176 0-29.992-11.611-32.849-27.63-5.743-31.976-22.292-45.48-39.802-59.76-13.133-10.711-26.701-21.794-36.015-41.196a1.498 1.498 0 0 1 .093-1.491Z"/>
  </g>
</svg>
