<svg width="498" height="538" viewBox="0 0 498 538" fill="none" xmlns="http://www.w3.org/2000/svg">
<path fill-rule="evenodd" clip-rule="evenodd" d="M193.678 537.841C70.1606 537.841 31.642 433.748 31.642 310.241C31.642 186.734 -56.5436 121.74 63.3503 48.9904C183.244 -23.7595 497.768 -27.892 497.768 124.524C497.768 276.94 317.196 537.841 193.678 537.841Z" fill="#AAC6FC"/>
<mask id="mask0_129_7865" style="mask-type:luminance" maskUnits="userSpaceOnUse" x="0" y="0" width="498" height="538">
<path fill-rule="evenodd" clip-rule="evenodd" d="M193.678 537.841C70.1606 537.841 31.642 433.748 31.642 310.241C31.642 186.734 -56.5436 121.74 63.3503 48.9904C183.244 -23.7595 497.768 -27.892 497.768 124.524C497.768 276.94 317.196 537.841 193.678 537.841Z" fill="white"/>
</mask>
<g mask="url(#mask0_129_7865)">
<path d="M1.24194 163.79H69.1115C69.9188 163.79 70.6018 164.411 70.6639 165.218L90.3169 393.333C90.3479 393.768 90.1927 394.202 89.9133 394.513C89.6338 394.823 89.1992 395.009 88.7645 395.009H1.24194C0.37262 395.009 -0.310425 394.326 -0.310425 393.457V165.343C-0.310425 164.504 0.403671 163.79 1.24194 163.79Z" fill="#F3F6E6"/>
<path d="M1.24191 163.79H25.1173C25.7383 163.79 26.2971 164.163 26.5455 164.753C26.7939 165.343 26.6387 165.995 26.204 166.429L2.32857 190.302C2.01809 190.613 1.64552 190.768 1.24191 190.768C1.05562 190.768 0.838291 190.737 0.652006 190.644C0.0621071 190.395 -0.310461 189.837 -0.310461 189.216V165.343C-0.310461 164.504 0.403627 163.79 1.24191 163.79Z" fill="#4053FA"/>
<path d="M396.724 164.535C397.003 164.07 397.5 163.821 398.028 163.821H505.421C506.29 163.821 506.973 164.504 506.973 165.374V293.059C506.973 293.929 506.29 294.612 505.421 294.612H505.297C489.121 294.612 475.305 283.001 472.448 266.982C466.705 235.006 450.156 221.502 432.646 207.222C419.513 196.511 405.945 185.428 396.631 166.026C396.382 165.529 396.444 164.97 396.724 164.535Z" fill="#F3F6E6"/>
</g>
<path d="M254.402 266.485C254.495 266.485 254.588 266.485 254.682 266.454C257.29 265.989 259.773 265.15 262.133 263.971C262.909 263.598 263.22 262.636 262.816 261.891C262.412 261.146 261.481 260.804 260.736 261.208C258.656 262.263 256.42 263.008 254.123 263.412C253.284 263.567 252.726 264.374 252.881 265.213C253.005 265.958 253.657 266.485 254.402 266.485Z" fill="#F3F6E6"/>
<path d="M273.093 229.511C273.31 229.511 273.558 229.449 273.776 229.356C274.552 228.984 274.862 228.052 274.49 227.276C274.117 226.531 273.745 225.817 273.31 225.103C272.875 224.358 271.913 224.141 271.168 224.575C270.423 225.01 270.205 225.972 270.64 226.717C271.013 227.338 271.385 227.99 271.696 228.642C271.975 229.201 272.534 229.511 273.093 229.511Z" fill="#F3F6E6"/>
<path fill-rule="evenodd" clip-rule="evenodd" d="M245.678 215.293C245.616 215.324 245.522 215.324 245.429 215.324C244.684 215.324 244.032 214.796 243.908 214.02C243.753 213.151 244.343 212.375 245.181 212.22C246.982 211.909 248.845 211.785 250.645 211.847C251.484 211.878 252.167 212.592 252.136 213.461C252.105 214.3 251.359 214.983 250.521 214.952C248.907 214.921 247.261 215.014 245.678 215.293ZM266.262 219.267C265.983 219.701 265.486 219.919 265.02 219.919C264.71 219.919 264.399 219.826 264.12 219.608C262.816 218.646 261.388 217.839 259.928 217.156C259.152 216.814 258.811 215.883 259.152 215.107C259.494 214.331 260.425 213.989 261.201 214.331C262.847 215.107 264.43 216.007 265.921 217.094C266.604 217.59 266.759 218.584 266.262 219.267Z" fill="#F3F6E6"/>
<path d="M233.911 220.353C234.253 220.353 234.563 220.26 234.842 220.043C235.432 219.608 236.022 219.174 236.643 218.801C237.357 218.335 237.575 217.373 237.109 216.659C236.643 215.945 235.681 215.728 234.967 216.193C234.284 216.628 233.601 217.125 232.949 217.621C232.265 218.149 232.141 219.112 232.669 219.795C233.011 220.136 233.445 220.353 233.911 220.353Z" fill="#F3F6E6"/>
<path d="M331.555 353.627C330.698 353.627 330.003 352.932 330.003 352.075C330.003 351.218 330.698 350.523 331.555 350.523C332.412 350.523 333.107 351.218 333.107 352.075C333.107 352.932 332.412 353.627 331.555 353.627Z" fill="#383A48"/>
<path d="M331.555 361.295C330.698 361.295 330.003 360.6 330.003 359.743C330.003 358.886 330.698 358.191 331.555 358.191C332.412 358.191 333.107 358.886 333.107 359.743C333.107 360.6 332.412 361.295 331.555 361.295Z" fill="#383A48"/>
<path d="M331.555 368.963C330.698 368.963 330.003 368.268 330.003 367.411C330.003 366.554 330.698 365.859 331.555 365.859C332.412 365.859 333.107 366.554 333.107 367.411C333.107 368.268 332.412 368.963 331.555 368.963Z" fill="#383A48"/>
<path d="M331.555 376.6C330.698 376.6 330.003 375.905 330.003 375.048C330.003 374.191 330.698 373.496 331.555 373.496C332.412 373.496 333.107 374.191 333.107 375.048C333.107 375.905 332.412 376.6 331.555 376.6Z" fill="#383A48"/>
<path d="M331.555 384.268C330.698 384.268 330.003 383.573 330.003 382.716C330.003 381.859 330.698 381.164 331.555 381.164C332.412 381.164 333.107 381.859 333.107 382.716C333.107 383.573 332.412 384.268 331.555 384.268Z" fill="#383A48"/>
<path d="M331.555 391.936C330.698 391.936 330.003 391.241 330.003 390.384C330.003 389.526 330.698 388.832 331.555 388.832C332.412 388.832 333.107 389.526 333.107 390.384C333.107 391.241 332.412 391.936 331.555 391.936Z" fill="#383A48"/>
<path d="M339.193 353.627C338.335 353.627 337.64 352.932 337.64 352.075C337.64 351.218 338.335 350.523 339.193 350.523C340.05 350.523 340.745 351.218 340.745 352.075C340.745 352.932 340.05 353.627 339.193 353.627Z" fill="#383A48"/>
<path d="M339.193 361.295C338.335 361.295 337.64 360.6 337.64 359.743C337.64 358.886 338.335 358.191 339.193 358.191C340.05 358.191 340.745 358.886 340.745 359.743C340.745 360.6 340.05 361.295 339.193 361.295Z" fill="#383A48"/>
<path d="M339.193 368.963C338.335 368.963 337.64 368.268 337.64 367.411C337.64 366.554 338.335 365.859 339.193 365.859C340.05 365.859 340.745 366.554 340.745 367.411C340.745 368.268 340.05 368.963 339.193 368.963Z" fill="#383A48"/>
<path d="M339.193 376.6C338.335 376.6 337.64 375.905 337.64 375.048C337.64 374.191 338.335 373.496 339.193 373.496C340.05 373.496 340.745 374.191 340.745 375.048C340.745 375.905 340.05 376.6 339.193 376.6Z" fill="#383A48"/>
<path d="M339.193 384.268C338.335 384.268 337.64 383.573 337.64 382.716C337.64 381.859 338.335 381.164 339.193 381.164C340.05 381.164 340.745 381.859 340.745 382.716C340.745 383.573 340.05 384.268 339.193 384.268Z" fill="#383A48"/>
<path d="M339.193 391.936C338.335 391.936 337.64 391.241 337.64 390.384C337.64 389.526 338.335 388.832 339.193 388.832C340.05 388.832 340.745 389.526 340.745 390.384C340.745 391.241 340.05 391.936 339.193 391.936Z" fill="#383A48"/>
<path d="M346.861 353.627C346.004 353.627 345.309 352.932 345.309 352.075C345.309 351.218 346.004 350.523 346.861 350.523C347.719 350.523 348.414 351.218 348.414 352.075C348.414 352.932 347.719 353.627 346.861 353.627Z" fill="#383A48"/>
<path d="M346.861 361.295C346.004 361.295 345.309 360.6 345.309 359.743C345.309 358.886 346.004 358.191 346.861 358.191C347.719 358.191 348.414 358.886 348.414 359.743C348.414 360.6 347.719 361.295 346.861 361.295Z" fill="#383A48"/>
<path d="M346.861 368.963C346.004 368.963 345.309 368.268 345.309 367.411C345.309 366.554 346.004 365.859 346.861 365.859C347.719 365.859 348.414 366.554 348.414 367.411C348.414 368.268 347.719 368.963 346.861 368.963Z" fill="#383A48"/>
<path d="M346.861 376.6C346.004 376.6 345.309 375.905 345.309 375.048C345.309 374.191 346.004 373.496 346.861 373.496C347.719 373.496 348.414 374.191 348.414 375.048C348.414 375.905 347.719 376.6 346.861 376.6Z" fill="#383A48"/>
<path d="M346.861 384.268C346.004 384.268 345.309 383.573 345.309 382.716C345.309 381.859 346.004 381.164 346.861 381.164C347.719 381.164 348.414 381.859 348.414 382.716C348.414 383.573 347.719 384.268 346.861 384.268Z" fill="#383A48"/>
<path d="M346.861 391.936C346.004 391.936 345.309 391.241 345.309 390.384C345.309 389.526 346.004 388.832 346.861 388.832C347.719 388.832 348.414 389.526 348.414 390.384C348.414 391.241 347.719 391.936 346.861 391.936Z" fill="#383A48"/>
<path d="M354.53 353.627C353.673 353.627 352.978 352.932 352.978 352.075C352.978 351.218 353.673 350.523 354.53 350.523C355.388 350.523 356.083 351.218 356.083 352.075C356.083 352.932 355.388 353.627 354.53 353.627Z" fill="#383A48"/>
<path d="M354.53 361.295C353.673 361.295 352.978 360.6 352.978 359.743C352.978 358.886 353.673 358.191 354.53 358.191C355.388 358.191 356.083 358.886 356.083 359.743C356.083 360.6 355.388 361.295 354.53 361.295Z" fill="#383A48"/>
<path d="M354.53 368.963C353.673 368.963 352.978 368.268 352.978 367.411C352.978 366.554 353.673 365.859 354.53 365.859C355.388 365.859 356.083 366.554 356.083 367.411C356.083 368.268 355.388 368.963 354.53 368.963Z" fill="#383A48"/>
<path d="M354.53 376.6C353.673 376.6 352.978 375.905 352.978 375.048C352.978 374.191 353.673 373.496 354.53 373.496C355.388 373.496 356.083 374.191 356.083 375.048C356.083 375.905 355.388 376.6 354.53 376.6Z" fill="#383A48"/>
<path d="M354.53 384.268C353.673 384.268 352.978 383.573 352.978 382.716C352.978 381.859 353.673 381.164 354.53 381.164C355.388 381.164 356.083 381.859 356.083 382.716C356.083 383.573 355.388 384.268 354.53 384.268Z" fill="#383A48"/>
<path d="M354.53 391.936C353.673 391.936 352.978 391.241 352.978 390.384C352.978 389.526 353.673 388.832 354.53 388.832C355.388 388.832 356.083 389.526 356.083 390.384C356.083 391.241 355.388 391.936 354.53 391.936Z" fill="#383A48"/>
<path d="M362.168 353.627C361.31 353.627 360.615 352.932 360.615 352.075C360.615 351.218 361.31 350.523 362.168 350.523C363.025 350.523 363.72 351.218 363.72 352.075C363.72 352.932 363.025 353.627 362.168 353.627Z" fill="#383A48"/>
<path d="M362.168 361.295C361.31 361.295 360.615 360.6 360.615 359.743C360.615 358.886 361.31 358.191 362.168 358.191C363.025 358.191 363.72 358.886 363.72 359.743C363.72 360.6 363.025 361.295 362.168 361.295Z" fill="#383A48"/>
<path d="M362.168 368.963C361.31 368.963 360.615 368.268 360.615 367.411C360.615 366.554 361.31 365.859 362.168 365.859C363.025 365.859 363.72 366.554 363.72 367.411C363.72 368.268 363.025 368.963 362.168 368.963Z" fill="#383A48"/>
<path d="M362.168 376.6C361.31 376.6 360.615 375.905 360.615 375.048C360.615 374.191 361.31 373.496 362.168 373.496C363.025 373.496 363.72 374.191 363.72 375.048C363.72 375.905 363.025 376.6 362.168 376.6Z" fill="#383A48"/>
<path d="M362.168 384.268C361.31 384.268 360.615 383.573 360.615 382.716C360.615 381.859 361.31 381.164 362.168 381.164C363.025 381.164 363.72 381.859 363.72 382.716C363.72 383.573 363.025 384.268 362.168 384.268Z" fill="#383A48"/>
<path d="M362.168 391.936C361.31 391.936 360.615 391.241 360.615 390.384C360.615 389.526 361.31 388.832 362.168 388.832C363.025 388.832 363.72 389.526 363.72 390.384C363.72 391.241 363.025 391.936 362.168 391.936Z" fill="#383A48"/>
<path d="M369.836 353.627C368.979 353.627 368.284 352.932 368.284 352.075C368.284 351.218 368.979 350.523 369.836 350.523C370.694 350.523 371.389 351.218 371.389 352.075C371.389 352.932 370.694 353.627 369.836 353.627Z" fill="#383A48"/>
<path d="M369.836 361.295C368.979 361.295 368.284 360.6 368.284 359.743C368.284 358.886 368.979 358.191 369.836 358.191C370.694 358.191 371.389 358.886 371.389 359.743C371.389 360.6 370.694 361.295 369.836 361.295Z" fill="#383A48"/>
<path d="M369.836 368.963C368.979 368.963 368.284 368.268 368.284 367.411C368.284 366.554 368.979 365.859 369.836 365.859C370.694 365.859 371.389 366.554 371.389 367.411C371.389 368.268 370.694 368.963 369.836 368.963Z" fill="#383A48"/>
<path d="M369.836 376.6C368.979 376.6 368.284 375.905 368.284 375.048C368.284 374.191 368.979 373.496 369.836 373.496C370.694 373.496 371.389 374.191 371.389 375.048C371.389 375.905 370.694 376.6 369.836 376.6Z" fill="#383A48"/>
<path d="M369.836 384.268C368.979 384.268 368.284 383.573 368.284 382.716C368.284 381.859 368.979 381.164 369.836 381.164C370.694 381.164 371.389 381.859 371.389 382.716C371.389 383.573 370.694 384.268 369.836 384.268Z" fill="#383A48"/>
<path d="M369.836 391.936C368.979 391.936 368.284 391.241 368.284 390.384C368.284 389.526 368.979 388.832 369.836 388.832C370.694 388.832 371.389 389.526 371.389 390.384C371.389 391.241 370.694 391.936 369.836 391.936Z" fill="#383A48"/>
<path d="M377.505 353.627C376.648 353.627 375.953 352.932 375.953 352.075C375.953 351.218 376.648 350.523 377.505 350.523C378.363 350.523 379.058 351.218 379.058 352.075C379.058 352.932 378.363 353.627 377.505 353.627Z" fill="#383A48"/>
<path d="M377.505 361.295C376.648 361.295 375.953 360.6 375.953 359.743C375.953 358.886 376.648 358.191 377.505 358.191C378.363 358.191 379.058 358.886 379.058 359.743C379.058 360.6 378.363 361.295 377.505 361.295Z" fill="#383A48"/>
<path d="M377.505 368.963C376.648 368.963 375.953 368.268 375.953 367.411C375.953 366.554 376.648 365.859 377.505 365.859C378.363 365.859 379.058 366.554 379.058 367.411C379.058 368.268 378.363 368.963 377.505 368.963Z" fill="#383A48"/>
<path d="M377.505 376.6C376.648 376.6 375.953 375.905 375.953 375.048C375.953 374.191 376.648 373.496 377.505 373.496C378.363 373.496 379.058 374.191 379.058 375.048C379.058 375.905 378.363 376.6 377.505 376.6Z" fill="#383A48"/>
<path d="M377.505 384.268C376.648 384.268 375.953 383.573 375.953 382.716C375.953 381.859 376.648 381.164 377.505 381.164C378.363 381.164 379.058 381.859 379.058 382.716C379.058 383.573 378.363 384.268 377.505 384.268Z" fill="#383A48"/>
<path d="M377.505 391.936C376.648 391.936 375.953 391.241 375.953 390.384C375.953 389.526 376.648 388.832 377.505 388.832C378.363 388.832 379.058 389.526 379.058 390.384C379.058 391.241 378.363 391.936 377.505 391.936Z" fill="#383A48"/>
<path d="M385.143 353.627C384.286 353.627 383.591 352.932 383.591 352.075C383.591 351.218 384.286 350.523 385.143 350.523C386 350.523 386.695 351.218 386.695 352.075C386.695 352.932 386 353.627 385.143 353.627Z" fill="#383A48"/>
<path d="M385.143 361.295C384.286 361.295 383.591 360.6 383.591 359.743C383.591 358.886 384.286 358.191 385.143 358.191C386 358.191 386.695 358.886 386.695 359.743C386.695 360.6 386 361.295 385.143 361.295Z" fill="#383A48"/>
<path d="M385.143 368.963C384.286 368.963 383.591 368.268 383.591 367.411C383.591 366.554 384.286 365.859 385.143 365.859C386 365.859 386.695 366.554 386.695 367.411C386.695 368.268 386 368.963 385.143 368.963Z" fill="#383A48"/>
<path d="M385.143 376.6C384.286 376.6 383.591 375.905 383.591 375.048C383.591 374.191 384.286 373.496 385.143 373.496C386 373.496 386.695 374.191 386.695 375.048C386.695 375.905 386 376.6 385.143 376.6Z" fill="#383A48"/>
<path d="M385.143 384.268C384.286 384.268 383.591 383.573 383.591 382.716C383.591 381.859 384.286 381.164 385.143 381.164C386 381.164 386.695 381.859 386.695 382.716C386.695 383.573 386 384.268 385.143 384.268Z" fill="#383A48"/>
<path d="M385.143 391.936C384.286 391.936 383.591 391.241 383.591 390.384C383.591 389.526 384.286 388.832 385.143 388.832C386 388.832 386.695 389.526 386.695 390.384C386.695 391.241 386 391.936 385.143 391.936Z" fill="#383A48"/>
<path d="M392.811 353.627C391.954 353.627 391.259 352.932 391.259 352.075C391.259 351.218 391.954 350.523 392.811 350.523C393.669 350.523 394.364 351.218 394.364 352.075C394.364 352.932 393.669 353.627 392.811 353.627Z" fill="#383A48"/>
<path d="M392.811 361.295C391.954 361.295 391.259 360.6 391.259 359.743C391.259 358.886 391.954 358.191 392.811 358.191C393.669 358.191 394.364 358.886 394.364 359.743C394.364 360.6 393.669 361.295 392.811 361.295Z" fill="#383A48"/>
<path d="M392.811 368.963C391.954 368.963 391.259 368.268 391.259 367.411C391.259 366.554 391.954 365.859 392.811 365.859C393.669 365.859 394.364 366.554 394.364 367.411C394.364 368.268 393.669 368.963 392.811 368.963Z" fill="#383A48"/>
<path d="M392.811 376.6C391.954 376.6 391.259 375.905 391.259 375.048C391.259 374.191 391.954 373.496 392.811 373.496C393.669 373.496 394.364 374.191 394.364 375.048C394.364 375.905 393.669 376.6 392.811 376.6Z" fill="#383A48"/>
<path d="M392.811 384.268C391.954 384.268 391.259 383.573 391.259 382.716C391.259 381.859 391.954 381.164 392.811 381.164C393.669 381.164 394.364 381.859 394.364 382.716C394.364 383.573 393.669 384.268 392.811 384.268Z" fill="#383A48"/>
<path d="M392.811 391.936C391.954 391.936 391.259 391.241 391.259 390.384C391.259 389.526 391.954 388.832 392.811 388.832C393.669 388.832 394.364 389.526 394.364 390.384C394.364 391.241 393.669 391.936 392.811 391.936Z" fill="#383A48"/>
<path d="M400.48 353.627C399.623 353.627 398.927 352.932 398.927 352.075C398.927 351.218 399.623 350.523 400.48 350.523C401.337 350.523 402.032 351.218 402.032 352.075C402.032 352.932 401.337 353.627 400.48 353.627Z" fill="#383A48"/>
<path d="M400.48 361.295C399.623 361.295 398.927 360.6 398.927 359.743C398.927 358.886 399.623 358.191 400.48 358.191C401.337 358.191 402.032 358.886 402.032 359.743C402.032 360.6 401.337 361.295 400.48 361.295Z" fill="#383A48"/>
<path d="M400.48 368.963C399.623 368.963 398.927 368.268 398.927 367.411C398.927 366.554 399.623 365.859 400.48 365.859C401.337 365.859 402.032 366.554 402.032 367.411C402.032 368.268 401.337 368.963 400.48 368.963Z" fill="#383A48"/>
<path d="M400.48 376.6C399.623 376.6 398.927 375.905 398.927 375.048C398.927 374.191 399.623 373.496 400.48 373.496C401.337 373.496 402.032 374.191 402.032 375.048C402.032 375.905 401.337 376.6 400.48 376.6Z" fill="#383A48"/>
<path d="M400.48 384.268C399.623 384.268 398.927 383.573 398.927 382.716C398.927 381.859 399.623 381.164 400.48 381.164C401.337 381.164 402.032 381.859 402.032 382.716C402.032 383.573 401.337 384.268 400.48 384.268Z" fill="#383A48"/>
<path d="M400.48 391.936C399.623 391.936 398.927 391.241 398.927 390.384C398.927 389.526 399.623 388.832 400.48 388.832C401.337 388.832 402.032 389.526 402.032 390.384C402.032 391.241 401.337 391.936 400.48 391.936Z" fill="#383A48"/>
<path d="M408.118 353.627C407.26 353.627 406.565 352.932 406.565 352.075C406.565 351.218 407.26 350.523 408.118 350.523C408.975 350.523 409.67 351.218 409.67 352.075C409.67 352.932 408.975 353.627 408.118 353.627Z" fill="#383A48"/>
<path d="M408.118 361.295C407.26 361.295 406.565 360.6 406.565 359.743C406.565 358.886 407.26 358.191 408.118 358.191C408.975 358.191 409.67 358.886 409.67 359.743C409.67 360.6 408.975 361.295 408.118 361.295Z" fill="#383A48"/>
<path d="M408.118 368.963C407.26 368.963 406.565 368.268 406.565 367.411C406.565 366.554 407.26 365.859 408.118 365.859C408.975 365.859 409.67 366.554 409.67 367.411C409.67 368.268 408.975 368.963 408.118 368.963Z" fill="#383A48"/>
<path d="M408.118 376.6C407.26 376.6 406.565 375.905 406.565 375.048C406.565 374.191 407.26 373.496 408.118 373.496C408.975 373.496 409.67 374.191 409.67 375.048C409.67 375.905 408.975 376.6 408.118 376.6Z" fill="#383A48"/>
<path d="M408.118 384.268C407.26 384.268 406.565 383.573 406.565 382.716C406.565 381.859 407.26 381.164 408.118 381.164C408.975 381.164 409.67 381.859 409.67 382.716C409.67 383.573 408.975 384.268 408.118 384.268Z" fill="#383A48"/>
<path d="M408.118 391.936C407.26 391.936 406.565 391.241 406.565 390.384C406.565 389.526 407.26 388.832 408.118 388.832C408.975 388.832 409.67 389.526 409.67 390.384C409.67 391.241 408.975 391.936 408.118 391.936Z" fill="#383A48"/>
<path d="M415.786 353.627C414.929 353.627 414.234 352.932 414.234 352.075C414.234 351.218 414.929 350.523 415.786 350.523C416.644 350.523 417.339 351.218 417.339 352.075C417.339 352.932 416.644 353.627 415.786 353.627Z" fill="#383A48"/>
<path d="M415.786 361.295C414.929 361.295 414.234 360.6 414.234 359.743C414.234 358.886 414.929 358.191 415.786 358.191C416.644 358.191 417.339 358.886 417.339 359.743C417.339 360.6 416.644 361.295 415.786 361.295Z" fill="#383A48"/>
<path d="M415.786 368.963C414.929 368.963 414.234 368.268 414.234 367.411C414.234 366.554 414.929 365.859 415.786 365.859C416.644 365.859 417.339 366.554 417.339 367.411C417.339 368.268 416.644 368.963 415.786 368.963Z" fill="#383A48"/>
<path d="M415.786 376.6C414.929 376.6 414.234 375.905 414.234 375.048C414.234 374.191 414.929 373.496 415.786 373.496C416.644 373.496 417.339 374.191 417.339 375.048C417.339 375.905 416.644 376.6 415.786 376.6Z" fill="#383A48"/>
<path d="M415.786 384.268C414.929 384.268 414.234 383.573 414.234 382.716C414.234 381.859 414.929 381.164 415.786 381.164C416.644 381.164 417.339 381.859 417.339 382.716C417.339 383.573 416.644 384.268 415.786 384.268Z" fill="#383A48"/>
<path d="M415.786 391.936C414.929 391.936 414.234 391.241 414.234 390.384C414.234 389.526 414.929 388.832 415.786 388.832C416.644 388.832 417.339 389.526 417.339 390.384C417.339 391.241 416.644 391.936 415.786 391.936Z" fill="#383A48"/>
<path d="M423.455 353.627C422.598 353.627 421.903 352.932 421.903 352.075C421.903 351.218 422.598 350.523 423.455 350.523C424.313 350.523 425.008 351.218 425.008 352.075C425.008 352.932 424.313 353.627 423.455 353.627Z" fill="#383A48"/>
<path d="M423.455 361.295C422.598 361.295 421.903 360.6 421.903 359.743C421.903 358.886 422.598 358.191 423.455 358.191C424.313 358.191 425.008 358.886 425.008 359.743C425.008 360.6 424.313 361.295 423.455 361.295Z" fill="#383A48"/>
<path d="M423.455 368.963C422.598 368.963 421.903 368.268 421.903 367.411C421.903 366.554 422.598 365.859 423.455 365.859C424.313 365.859 425.008 366.554 425.008 367.411C425.008 368.268 424.313 368.963 423.455 368.963Z" fill="#383A48"/>
<path d="M423.455 376.6C422.598 376.6 421.903 375.905 421.903 375.048C421.903 374.191 422.598 373.496 423.455 373.496C424.313 373.496 425.008 374.191 425.008 375.048C425.008 375.905 424.313 376.6 423.455 376.6Z" fill="#383A48"/>
<path d="M423.455 384.268C422.598 384.268 421.903 383.573 421.903 382.716C421.903 381.859 422.598 381.164 423.455 381.164C424.313 381.164 425.008 381.859 425.008 382.716C425.008 383.573 424.313 384.268 423.455 384.268Z" fill="#383A48"/>
<path d="M423.455 391.936C422.598 391.936 421.903 391.241 421.903 390.384C421.903 389.526 422.598 388.832 423.455 388.832C424.313 388.832 425.008 389.526 425.008 390.384C425.008 391.241 424.313 391.936 423.455 391.936Z" fill="#383A48"/>
<path d="M431.093 353.627C430.236 353.627 429.541 352.932 429.541 352.075C429.541 351.218 430.236 350.523 431.093 350.523C431.95 350.523 432.646 351.218 432.646 352.075C432.646 352.932 431.95 353.627 431.093 353.627Z" fill="#383A48"/>
<path d="M431.093 361.295C430.236 361.295 429.541 360.6 429.541 359.743C429.541 358.886 430.236 358.191 431.093 358.191C431.95 358.191 432.646 358.886 432.646 359.743C432.646 360.6 431.95 361.295 431.093 361.295Z" fill="#383A48"/>
<path d="M431.093 368.963C430.236 368.963 429.541 368.268 429.541 367.411C429.541 366.554 430.236 365.859 431.093 365.859C431.95 365.859 432.646 366.554 432.646 367.411C432.646 368.268 431.95 368.963 431.093 368.963Z" fill="#383A48"/>
<path d="M431.093 376.6C430.236 376.6 429.541 375.905 429.541 375.048C429.541 374.191 430.236 373.496 431.093 373.496C431.95 373.496 432.646 374.191 432.646 375.048C432.646 375.905 431.95 376.6 431.093 376.6Z" fill="#383A48"/>
<path d="M431.093 384.268C430.236 384.268 429.541 383.573 429.541 382.716C429.541 381.859 430.236 381.164 431.093 381.164C431.95 381.164 432.646 381.859 432.646 382.716C432.646 383.573 431.95 384.268 431.093 384.268Z" fill="#383A48"/>
<path d="M431.093 391.936C430.236 391.936 429.541 391.241 429.541 390.384C429.541 389.526 430.236 388.832 431.093 388.832C431.95 388.832 432.646 389.526 432.646 390.384C432.646 391.241 431.95 391.936 431.093 391.936Z" fill="#383A48"/>
<path d="M438.762 353.627C437.904 353.627 437.209 352.932 437.209 352.075C437.209 351.218 437.904 350.523 438.762 350.523C439.619 350.523 440.314 351.218 440.314 352.075C440.314 352.932 439.619 353.627 438.762 353.627Z" fill="#383A48"/>
<path d="M438.762 361.295C437.904 361.295 437.209 360.6 437.209 359.743C437.209 358.886 437.904 358.191 438.762 358.191C439.619 358.191 440.314 358.886 440.314 359.743C440.314 360.6 439.619 361.295 438.762 361.295Z" fill="#383A48"/>
<path d="M438.762 368.963C437.904 368.963 437.209 368.268 437.209 367.411C437.209 366.554 437.904 365.859 438.762 365.859C439.619 365.859 440.314 366.554 440.314 367.411C440.314 368.268 439.619 368.963 438.762 368.963Z" fill="#383A48"/>
<path d="M438.762 376.6C437.904 376.6 437.209 375.905 437.209 375.048C437.209 374.191 437.904 373.496 438.762 373.496C439.619 373.496 440.314 374.191 440.314 375.048C440.314 375.905 439.619 376.6 438.762 376.6Z" fill="#383A48"/>
<path d="M438.762 384.268C437.904 384.268 437.209 383.573 437.209 382.716C437.209 381.859 437.904 381.164 438.762 381.164C439.619 381.164 440.314 381.859 440.314 382.716C440.314 383.573 439.619 384.268 438.762 384.268Z" fill="#383A48"/>
<path d="M438.762 391.936C437.904 391.936 437.209 391.241 437.209 390.384C437.209 389.526 437.904 388.832 438.762 388.832C439.619 388.832 440.314 389.526 440.314 390.384C440.314 391.241 439.619 391.936 438.762 391.936Z" fill="#383A48"/>
<path d="M446.43 353.627C445.573 353.627 444.878 352.932 444.878 352.075C444.878 351.218 445.573 350.523 446.43 350.523C447.287 350.523 447.982 351.218 447.982 352.075C447.982 352.932 447.287 353.627 446.43 353.627Z" fill="#383A48"/>
<path d="M446.43 361.295C445.573 361.295 444.878 360.6 444.878 359.743C444.878 358.886 445.573 358.191 446.43 358.191C447.287 358.191 447.982 358.886 447.982 359.743C447.982 360.6 447.287 361.295 446.43 361.295Z" fill="#383A48"/>
<path d="M446.43 368.963C445.573 368.963 444.878 368.268 444.878 367.411C444.878 366.554 445.573 365.859 446.43 365.859C447.287 365.859 447.982 366.554 447.982 367.411C447.982 368.268 447.287 368.963 446.43 368.963Z" fill="#383A48"/>
<path d="M446.43 376.6C445.573 376.6 444.878 375.905 444.878 375.048C444.878 374.191 445.573 373.496 446.43 373.496C447.287 373.496 447.982 374.191 447.982 375.048C447.982 375.905 447.287 376.6 446.43 376.6Z" fill="#383A48"/>
<path d="M446.43 384.268C445.573 384.268 444.878 383.573 444.878 382.716C444.878 381.859 445.573 381.164 446.43 381.164C447.287 381.164 447.982 381.859 447.982 382.716C447.982 383.573 447.287 384.268 446.43 384.268Z" fill="#383A48"/>
<path d="M446.43 391.936C445.573 391.936 444.878 391.241 444.878 390.384C444.878 389.526 445.573 388.832 446.43 388.832C447.287 388.832 447.982 389.526 447.982 390.384C447.982 391.241 447.287 391.936 446.43 391.936Z" fill="#383A48"/>
<path d="M454.068 361.295C453.21 361.295 452.515 360.6 452.515 359.743C452.515 358.886 453.21 358.191 454.068 358.191C454.925 358.191 455.62 358.886 455.62 359.743C455.62 360.6 454.925 361.295 454.068 361.295Z" fill="#383A48"/>
<path d="M454.068 368.963C453.21 368.963 452.515 368.268 452.515 367.411C452.515 366.554 453.21 365.859 454.068 365.859C454.925 365.859 455.62 366.554 455.62 367.411C455.62 368.268 454.925 368.963 454.068 368.963Z" fill="#383A48"/>
<path d="M454.068 376.6C453.21 376.6 452.515 375.905 452.515 375.048C452.515 374.191 453.21 373.496 454.068 373.496C454.925 373.496 455.62 374.191 455.62 375.048C455.62 375.905 454.925 376.6 454.068 376.6Z" fill="#383A48"/>
<path d="M454.068 384.268C453.21 384.268 452.515 383.573 452.515 382.716C452.515 381.859 453.21 381.164 454.068 381.164C454.925 381.164 455.62 381.859 455.62 382.716C455.62 383.573 454.925 384.268 454.068 384.268Z" fill="#383A48"/>
<path d="M461.737 368.963C460.879 368.963 460.184 368.268 460.184 367.411C460.184 366.554 460.879 365.859 461.737 365.859C462.594 365.859 463.289 366.554 463.289 367.411C463.289 368.268 462.594 368.963 461.737 368.963Z" fill="#383A48"/>
<path d="M461.737 376.6C460.879 376.6 460.184 375.905 460.184 375.048C460.184 374.191 460.879 373.496 461.737 373.496C462.594 373.496 463.289 374.191 463.289 375.048C463.289 375.905 462.594 376.6 461.737 376.6Z" fill="#383A48"/>
<path d="M153.063 392.929L180.447 313.673C180.571 313.269 180.882 312.928 181.285 312.773C181.689 312.586 182.124 312.586 182.527 312.742C201.59 320.565 215.934 334.783 229.781 348.536C240.524 359.184 251.639 370.205 264.958 378.369C279.892 387.466 296.037 391.905 314.386 391.905C315.255 391.905 315.938 392.588 315.938 393.457C315.938 394.326 315.255 395.009 314.386 395.009H154.523C154.026 395.009 153.56 394.761 153.25 394.357C152.97 393.954 152.908 393.426 153.063 392.929Z" fill="#F3F6E6"/>
<rect width="3.10477" height="10.2447" transform="matrix(-1 0 0 1 437.52 203.093)" fill="#383A48"/>
<rect width="10.2456" height="3.10445" transform="matrix(-1 0 0 1 441.059 206.663)" fill="#383A48"/>
<rect width="3.10474" height="10.2447" transform="matrix(-1 0 0 1 255.675 321.341)" fill="#F3F6E6"/>
<rect width="10.2456" height="3.10446" transform="matrix(-1 0 0 1 259.246 324.911)" fill="#F3F6E6"/>
<rect width="3.10474" height="10.2447" transform="matrix(-1 0 0 1 331.059 189.278)" fill="#F3F6E6"/>
<rect width="10.2456" height="3.10445" transform="matrix(-1 0 0 1 334.629 192.848)" fill="#F3F6E6"/>
<rect width="3.10466" height="11.4874" transform="matrix(-0.660817 -0.750547 -0.75061 0.660746 282.734 195.544)" fill="#383A48"/>
<rect width="11.4863" height="3.10454" transform="matrix(-0.532057 -0.846709 -0.846755 0.531983 241.359 195.477)" fill="#383A48"/>
<rect width="3.10489" height="10.5556" transform="matrix(-0.989653 -0.143479 -0.143507 0.989649 260.158 185.026)" fill="#383A48"/>
<path d="M33.2826 321.496C33.8725 321.279 34.5556 321.434 34.9902 321.931L74.0479 366.48L128.909 392.091C129.561 392.402 129.933 393.116 129.778 393.83C129.623 394.544 129.002 395.04 128.257 395.04H33.8415C32.9722 395.04 32.2891 394.357 32.2891 393.488V322.924C32.2581 322.272 32.6617 321.713 33.2826 321.496Z" fill="#383A48"/>
<path d="M90.5038 378.711C96.4028 378.711 101.184 373.93 101.184 368.032C101.184 362.133 96.4028 357.352 90.5038 357.352C71.0371 357.352 55.2029 341.52 55.2029 322.055C55.2029 312.214 59.1459 303.087 66.3489 296.319C66.6594 296.04 66.9388 295.729 67.1872 295.419C73.0241 288.527 77.4949 280.735 80.5065 272.229C82.4625 266.672 79.5441 260.556 73.9866 258.6C68.4291 256.644 62.3128 259.562 60.3568 265.119C58.2766 270.987 55.2029 276.42 51.2289 281.2C40.176 291.849 33.8423 306.688 33.8423 322.055C33.8113 353.286 59.2391 378.711 90.5038 378.711Z" fill="#F6E049"/>
<path fill-rule="evenodd" clip-rule="evenodd" d="M102.736 368.032C102.736 374.768 97.2409 380.263 90.5037 380.263C58.3696 380.263 32.2588 354.124 32.2898 322.055C32.2898 306.346 38.7787 291.073 50.111 280.145C53.9298 275.488 56.8793 270.273 58.8974 264.592C59.9841 261.518 62.2195 259.035 65.169 257.638C68.1185 256.241 71.4406 256.054 74.5143 257.141C77.5879 258.228 80.0717 260.463 81.4689 263.412C82.866 266.361 83.0523 269.683 81.9656 272.756C78.8919 281.449 74.328 289.396 68.3669 296.443C68.0564 296.816 67.7459 297.157 67.4044 297.468C60.5429 303.925 56.7552 312.648 56.7552 322.055C56.7552 340.682 71.9063 355.8 90.5037 355.8C97.2409 355.8 102.736 361.295 102.736 368.032ZM73.4587 260.028C72.4651 259.687 71.4406 259.5 70.416 259.5C69.081 259.5 67.7459 259.811 66.5351 260.37C64.3307 261.425 62.6542 263.288 61.8469 265.585C59.7047 271.639 56.5378 277.227 52.4396 282.163L52.3154 282.287C41.573 292.625 35.3946 307.123 35.3946 322.024C35.3946 352.416 60.1083 377.128 90.5037 377.128C95.5333 377.128 99.6316 373.03 99.6316 368.001C99.6316 362.971 95.5333 358.874 90.5037 358.874C70.1676 358.874 53.6504 342.327 53.6504 322.024C53.6504 311.748 57.7797 302.218 65.2932 295.17C65.5416 294.953 65.79 294.705 66.0073 294.425C71.72 287.658 76.0977 280.021 79.0472 271.701C79.8544 269.404 79.7302 266.92 78.6746 264.716C77.619 262.512 75.7562 260.835 73.4587 260.028Z" fill="#383A48"/>
<path d="M75.6936 355.055C74.2344 350.119 73.0856 343.724 73.0856 338.291C73.0856 322.427 79.7919 308.147 90.5032 298.089C111.398 277.972 117.266 257.948 105.282 226.904L104.723 225.01L170.295 231.778L183.149 333.045C183.304 334.783 183.397 336.553 183.397 338.322C183.397 368.777 158.714 393.457 128.257 393.457C110.684 393.457 95.0051 385.23 84.9147 372.409" fill="#F6E049"/>
<path d="M128.226 395.009C159.491 395.009 184.918 369.584 184.918 338.322C184.918 336.522 184.825 334.721 184.67 332.889C184.67 332.858 184.67 332.858 184.67 332.827L171.816 231.56C171.723 230.846 171.164 230.288 170.45 230.226L104.878 223.458C104.351 223.396 103.854 223.613 103.512 224.017C103.171 224.42 103.078 224.948 103.233 225.445L103.792 227.338C103.792 227.369 103.823 227.401 103.823 227.463C109.691 242.674 111.243 255.03 108.697 266.268C106.306 276.885 100.159 286.633 89.4167 296.971C83.8282 302.218 79.4505 308.395 76.3458 315.38C73.1479 322.614 71.5334 330.313 71.5334 338.291C71.5334 343.351 72.5269 349.778 74.2035 355.49C74.4519 356.297 75.3212 356.794 76.1284 356.545C76.9357 356.297 77.4324 355.428 77.1841 354.621C75.5696 349.157 74.6382 343.072 74.6382 338.291C74.6382 330.747 76.1595 323.483 79.2021 316.653C82.1206 310.041 86.2809 304.204 91.559 299.237C113.882 277.786 118.322 256.769 106.896 226.811L168.898 233.206L181.596 333.2C181.752 334.907 181.845 336.615 181.845 338.322C181.845 367.877 157.814 391.905 128.257 391.905C111.74 391.905 96.3713 384.454 86.1257 371.447C85.5979 370.764 84.6044 370.671 83.9524 371.198C83.2693 371.726 83.1762 372.719 83.704 373.371C94.5085 387.124 110.746 395.009 128.226 395.009Z" fill="#383A48"/>
<path d="M98.0482 165.001C99.4142 163.884 101.246 163.511 102.954 164.039C111.554 166.74 127.109 172.576 134.436 181.548C138.286 186.267 141.235 191.327 142.881 196.201C143.16 197.008 142.725 197.908 141.918 198.188C141.39 198.374 140.831 198.25 140.428 197.908L126.115 214.827C126.612 215.231 126.798 215.914 126.581 216.535C126.363 217.156 125.742 217.559 125.121 217.559C124.935 217.559 124.749 217.528 124.594 217.466C118.633 215.262 112.392 210.481 107.083 203.962C99.7558 194.99 97.0857 178.599 96.1543 169.627C95.968 167.826 96.6821 166.119 98.0482 165.001Z" fill="#383A48"/>
<path d="M107.114 232.026C105.562 227.866 104.724 223.365 104.786 218.646C105.065 199.181 120.806 183.224 140.242 182.697C144.433 182.572 148.5 183.193 152.257 184.373C157.38 185.987 162.937 185.366 167.501 182.603L184.422 172.297C188.427 169.844 193.674 171.769 195.196 176.208L199.977 190.271C202.585 197.939 200.722 206.414 195.102 212.251L168.898 239.353" fill="#F6E049"/>
<path d="M168.929 240.936C169.333 240.936 169.736 240.781 170.047 240.47L196.251 213.368C202.274 207.066 204.261 198.032 201.467 189.806L196.686 175.743C195.816 173.166 193.86 171.179 191.283 170.248C188.737 169.316 185.943 169.596 183.615 171.024L166.725 181.299C162.565 183.845 157.473 184.435 152.754 182.914C148.717 181.641 144.495 181.051 140.21 181.144C130.399 181.393 121.178 185.428 114.224 192.475C107.269 199.523 103.357 208.805 103.233 218.615C103.171 223.427 103.978 228.115 105.655 232.554C105.965 233.361 106.866 233.765 107.642 233.454C108.449 233.144 108.853 232.243 108.542 231.467C106.99 227.369 106.245 223.085 106.307 218.646C106.431 209.643 110.001 201.106 116.397 194.649C122.793 188.191 131.269 184.497 140.273 184.249C144.216 184.156 148.096 184.683 151.791 185.863C157.38 187.633 163.403 186.919 168.308 183.938L185.229 173.632C186.75 172.7 188.551 172.545 190.228 173.135C191.873 173.725 193.177 175.029 193.736 176.705L198.517 190.768C200.939 197.908 199.232 205.731 194.016 211.195L167.812 238.297C167.222 238.918 167.222 239.911 167.843 240.501C168.153 240.781 168.526 240.936 168.929 240.936Z" fill="#383A48"/>
<path d="M152.94 298.554L191.345 317.15C193.705 318.299 196.22 318.919 198.735 319.013C202.057 319.137 205.41 318.361 208.39 316.684C213.637 313.735 217.084 308.458 217.643 302.466C217.705 301.876 218.729 293.215 222.331 284.088C225.001 277.258 229.72 268.628 236.985 266.113C246.579 262.822 251.702 252.36 248.411 242.768C245.12 233.175 234.657 228.052 225.063 231.343C208.515 237.024 195.599 250.963 187.744 271.67C187.433 272.477 187.123 273.315 186.844 274.122L161.167 261.705" fill="#F6E049"/>
<path d="M199.449 320.565C202.864 320.565 206.186 319.696 209.135 318.019C214.817 314.822 218.574 309.047 219.164 302.59C219.195 302.249 220.188 293.649 223.728 284.615C226.274 278.096 230.744 269.838 237.451 267.541C242.48 265.802 246.548 262.232 248.876 257.451C251.205 252.671 251.546 247.269 249.807 242.24C248.069 237.211 244.498 233.144 239.717 230.815C234.936 228.487 229.534 228.146 224.504 229.884C207.49 235.72 194.264 250.001 186.222 271.142C186.129 271.421 186.005 271.701 185.912 271.98L161.788 260.308C161.012 259.935 160.081 260.245 159.708 261.022C159.335 261.798 159.646 262.729 160.422 263.102L186.098 275.519C186.502 275.706 186.968 275.737 187.371 275.55C187.775 275.395 188.085 275.054 188.241 274.619C188.52 273.812 188.83 273.005 189.11 272.198C196.81 251.926 209.384 238.297 225.497 232.771C229.751 231.312 234.315 231.591 238.351 233.578C242.387 235.565 245.43 238.98 246.889 243.233C248.348 247.486 248.069 252.05 246.082 256.086C244.095 260.121 240.68 263.164 236.426 264.623C228.602 267.324 223.635 276.358 220.84 283.498C217.146 292.904 216.121 301.907 216.059 302.28C215.562 307.743 212.395 312.617 207.583 315.318C204.913 316.839 201.87 317.554 198.766 317.46C196.406 317.367 194.14 316.808 191.997 315.753L153.592 297.157C152.815 296.785 151.884 297.095 151.511 297.871C151.139 298.647 151.449 299.579 152.226 299.951L190.631 318.547C193.146 319.758 195.847 320.441 198.641 320.565C198.952 320.565 199.2 320.565 199.449 320.565Z" fill="#383A48"/>
<path d="M132.045 216.131C130.462 211.506 127.667 206.601 123.848 201.975C116.708 193.252 101.215 187.508 93.0805 184.963C90.5346 184.156 88.0197 186.236 88.2681 188.874C89.1374 197.349 91.7144 213.679 98.8553 222.402C104.04 228.735 110.063 233.361 115.714 235.441" fill="#F6E049"/>
<path d="M115.745 236.962C116.366 236.962 116.987 236.559 117.204 235.938C117.515 235.131 117.08 234.23 116.273 233.951C110.808 231.933 105.065 227.494 100.097 221.409C93.2666 213.058 90.7518 197.349 89.8825 188.719C89.8204 187.974 90.0998 187.291 90.6586 186.825C91.2175 186.36 91.9626 186.204 92.6767 186.422C100.966 188.998 115.869 194.586 122.7 202.937C126.332 207.377 129.064 212.127 130.617 216.628C130.896 217.435 131.765 217.87 132.604 217.59C133.411 217.311 133.846 216.442 133.566 215.604C131.89 210.73 128.971 205.669 125.121 200.951C117.794 191.979 102.239 186.142 93.6392 183.442C91.9316 182.914 90.0998 183.255 88.7337 184.404C87.3676 185.522 86.6535 187.26 86.8398 189.03C87.7712 198.001 90.4103 214.393 97.7685 223.365C103.109 229.884 109.318 234.665 115.279 236.869C115.372 236.931 115.559 236.962 115.745 236.962Z" fill="#383A48"/>
<path d="M192.494 182.138C194.823 181.113 195.971 178.506 195.164 176.084C193.612 171.645 188.365 169.813 184.391 172.266L184.236 172.359C181.876 173.818 181.224 176.953 182.776 179.22L184.236 181.362C185.54 183.317 188.054 184.031 190.228 183.1L192.494 182.138Z" fill="#383A48"/>
<path d="M112.454 364.182C108.169 378.618 118.974 393.085 134.001 393.147L234.47 393.488C234.47 377.624 221.617 364.741 205.72 364.741L166.135 359.836L169.271 349.157C175.791 331.213 162.502 312.245 143.408 312.245" fill="#F6E049"/>
<path d="M234.47 395.04C234.874 395.04 235.277 394.885 235.557 394.575C235.836 394.295 236.022 393.892 236.022 393.488C236.022 376.817 222.486 363.251 205.813 363.189L168.122 358.501L170.73 349.591C173.99 340.557 172.717 330.903 167.221 323.017C161.695 315.132 153.033 310.631 143.408 310.631C142.539 310.631 141.856 311.314 141.856 312.183C141.856 313.052 142.539 313.735 143.408 313.735C152.008 313.735 159.739 317.771 164.676 324.818C169.612 331.865 170.73 340.526 167.811 348.598C167.811 348.629 167.78 348.66 167.78 348.691L164.645 359.37C164.52 359.805 164.582 360.271 164.831 360.674C165.079 361.047 165.483 361.295 165.949 361.357L205.534 366.293C205.596 366.293 205.658 366.293 205.72 366.293C220.188 366.293 232.048 377.656 232.856 391.936L133.97 391.594C127.295 391.563 121.178 388.49 117.204 383.119C113.23 377.749 112.019 371.012 113.913 364.617C114.161 363.81 113.696 362.94 112.857 362.692C112.05 362.444 111.181 362.909 110.933 363.748C108.759 371.105 110.125 378.835 114.72 384.982C119.284 391.129 126.301 394.668 133.97 394.699L234.47 395.04Z" fill="#383A48"/>
<path d="M143.16 207.222C145.861 209.022 149.525 208.308 151.356 205.576C153.188 202.844 152.443 199.212 149.711 197.38" fill="#F6E049"/>
<path d="M146.42 209.736C148.842 209.736 151.201 208.556 152.629 206.414C153.747 204.769 154.12 202.782 153.747 200.826C153.343 198.871 152.226 197.194 150.58 196.077C149.866 195.611 148.904 195.797 148.438 196.511C147.972 197.225 148.158 198.188 148.873 198.653C149.835 199.305 150.487 200.268 150.735 201.416C150.953 202.565 150.735 203.714 150.083 204.676C148.748 206.663 146.047 207.222 144.06 205.887C143.346 205.421 142.384 205.607 141.918 206.321C141.452 207.035 141.639 207.998 142.353 208.463C143.563 209.333 145.023 209.736 146.42 209.736Z" fill="#383A48"/>
<path d="M410.788 238.98L249.776 239.384L367.88 348.846L371.016 305.136L432.614 329.785L444.102 300.417L382.721 275.892L410.788 238.98Z" fill="#F3F6E6"/>
<path fill-rule="evenodd" clip-rule="evenodd" d="M368.439 350.305C368.253 350.367 368.066 350.398 367.88 350.398C367.508 350.398 367.135 350.274 366.825 349.995L248.751 240.501C248.286 240.067 248.13 239.384 248.348 238.794C248.565 238.204 249.124 237.8 249.776 237.8L410.788 237.397C411.378 237.397 411.936 237.738 412.185 238.266C412.433 238.794 412.402 239.446 412.03 239.911L385.205 275.178L444.66 298.958C445.437 299.299 445.84 300.169 445.53 300.976L434.042 330.313C433.887 330.716 433.576 331.027 433.204 331.182C432.831 331.368 432.397 331.368 432.024 331.213L372.382 307.371L369.433 348.97C369.37 349.56 368.998 350.088 368.439 350.305ZM370.178 303.832C370.457 303.677 370.737 303.583 371.016 303.583C371.202 303.583 371.389 303.614 371.575 303.708L431.745 327.767L442.083 301.286L382.162 277.32C381.696 277.134 381.355 276.761 381.231 276.295C381.075 275.83 381.2 275.302 381.479 274.929L407.652 240.532L253.719 240.936L366.576 345.524L369.464 305.043C369.495 304.546 369.743 304.08 370.178 303.832Z" fill="#383A48"/>
<path d="M370.488 306.657C371.109 306.657 371.699 306.284 371.947 305.663C372.258 304.856 371.854 303.956 371.047 303.677L361.701 300.169C360.894 299.858 359.994 300.262 359.714 301.069C359.404 301.876 359.808 302.776 360.615 303.056L369.96 306.564C370.115 306.626 370.302 306.657 370.488 306.657Z" fill="#383A48"/>
<path d="M325.625 393.457H418.519V349.778H325.625C313.548 349.778 303.768 359.557 303.768 371.633C303.799 383.678 313.579 393.457 325.625 393.457Z" fill="#AAC6FC"/>
<path fill-rule="evenodd" clip-rule="evenodd" d="M418.519 395.009H325.625C312.74 395.009 302.215 384.547 302.215 371.633C302.215 358.718 312.709 348.225 325.625 348.225H418.519C419.388 348.225 420.071 348.908 420.071 349.778V393.457C420.071 394.326 419.388 395.009 418.519 395.009ZM325.625 391.905H416.967V351.299H325.625C314.417 351.299 305.32 360.395 305.32 371.602C305.32 382.809 314.448 391.905 325.625 391.905Z" fill="#383A48"/>
<path d="M418.519 393.457C406.448 393.457 396.662 383.672 396.662 371.602C396.662 359.532 406.448 349.747 418.519 349.747C430.591 349.747 440.376 359.532 440.376 371.602C440.376 383.672 430.591 393.457 418.519 393.457Z" fill="#E0719E"/>
<path fill-rule="evenodd" clip-rule="evenodd" d="M441.929 371.602C441.929 384.516 431.435 395.009 418.519 395.009C405.603 395.009 395.109 384.516 395.109 371.602C395.109 358.687 405.603 348.194 418.519 348.194C431.435 348.194 441.929 358.687 441.929 371.602ZM438.824 371.633C438.824 360.426 429.696 351.33 418.519 351.33C407.311 351.33 398.214 360.426 398.214 371.633C398.214 382.84 407.342 391.936 418.519 391.936C429.727 391.936 438.824 382.809 438.824 371.633Z" fill="#383A48"/>
<path d="M306.841 335.435C307.245 335.435 307.648 335.28 307.928 334.969C308.518 334.348 308.518 333.386 307.928 332.765L276.632 301.659C276.011 301.069 275.049 301.069 274.428 301.659C273.838 302.28 273.838 303.242 274.428 303.863L305.723 335C306.034 335.28 306.437 335.435 306.841 335.435Z" fill="#383A48"/>
</svg>
