<svg xmlns="http://www.w3.org/2000/svg" fill="none" viewBox="0 0 655 463">
  <path fill="#383A48" d="M522.953 391.37a2.22 2.22 0 0 0-2.411-.581c-4.508 1.653-8.526 3.307-12.276 5.05-16.874 7.954-28.391 18.5-35.221 32.13-.268.492-.492 1.028-.759 1.52-.313.67-.268 1.519.134 2.145a2.251 2.251 0 0 0 1.874 1.028h29.374a2.2 2.2 0 0 0 2.009-1.296l17.588-37.583c.447-.76.268-1.743-.312-2.413ZM588.173 362.322a2.275 2.275 0 0 0-2.946.537c-1.161 1.564-2.411 3.083-3.661 4.602-6.115 7.329-20.043 11.173-36.114 15.686-1.429.402-2.902.804-4.375 1.207a2.262 2.262 0 0 0-1.428 1.206l-20.535 43.929c-.313.67-.268 1.519.134 2.145a2.251 2.251 0 0 0 1.875 1.028h34.909a2.2 2.2 0 0 0 2.009-1.296l30.98-66.228a2.162 2.162 0 0 0-.848-2.816ZM383.405 421.311a2.234 2.234 0 0 0 2.232-2.235 2.233 2.233 0 1 0-4.464 0c0 1.234 1 2.235 2.232 2.235ZM383.405 432.349a2.234 2.234 0 0 0 2.232-2.235 2.233 2.233 0 1 0-4.464 0c0 1.234 1 2.235 2.232 2.235ZM372.424 421.311a2.234 2.234 0 0 0 2.232-2.235 2.233 2.233 0 1 0-4.464 0c0 1.234.999 2.235 2.232 2.235ZM372.424 432.349a2.234 2.234 0 0 0 2.232-2.235 2.233 2.233 0 1 0-4.464 0c0 1.234.999 2.235 2.232 2.235ZM361.398 421.311a2.234 2.234 0 0 0 0-4.469c-1.233 0-2.232 1-2.232 2.234s.999 2.235 2.232 2.235ZM361.398 432.349a2.234 2.234 0 0 0 0-4.469c-1.233 0-2.232 1-2.232 2.234s.999 2.235 2.232 2.235ZM350.371 421.311a2.234 2.234 0 0 0 2.232-2.235 2.233 2.233 0 1 0-4.464 0c0 1.234.999 2.235 2.232 2.235ZM350.371 432.349a2.234 2.234 0 0 0 2.232-2.235 2.233 2.233 0 1 0-4.464 0c0 1.234.999 2.235 2.232 2.235ZM339.39 421.311a2.234 2.234 0 0 0 0-4.469c-1.233 0-2.232 1-2.232 2.234s.999 2.235 2.232 2.235ZM339.39 432.349a2.234 2.234 0 0 0 0-4.469c-1.233 0-2.232 1-2.232 2.234s.999 2.235 2.232 2.235ZM328.363 421.311a2.234 2.234 0 0 0 2.232-2.235 2.233 2.233 0 1 0-4.464 0c0 1.234 1 2.235 2.232 2.235ZM328.363 432.349a2.234 2.234 0 0 0 2.232-2.235 2.233 2.233 0 1 0-4.464 0c0 1.234 1 2.235 2.232 2.235ZM317.337 421.311a2.234 2.234 0 0 0 2.232-2.235 2.233 2.233 0 1 0-4.464 0c0 1.234.999 2.235 2.232 2.235ZM317.337 432.349a2.234 2.234 0 0 0 2.232-2.235 2.233 2.233 0 1 0-4.464 0c0 1.234.999 2.235 2.232 2.235ZM306.356 421.311a2.234 2.234 0 0 0 0-4.469c-1.233 0-2.232 1-2.232 2.234s.999 2.235 2.232 2.235ZM306.356 432.349a2.234 2.234 0 0 0 0-4.469c-1.233 0-2.232 1-2.232 2.234s.999 2.235 2.232 2.235ZM295.329 421.311a2.234 2.234 0 0 0 2.232-2.235 2.233 2.233 0 1 0-4.464 0c0 1.234.999 2.235 2.232 2.235ZM295.329 432.349a2.234 2.234 0 0 0 2.232-2.235 2.233 2.233 0 1 0-4.464 0c0 1.234.999 2.235 2.232 2.235ZM284.303 421.311a2.234 2.234 0 0 0 2.232-2.235 2.233 2.233 0 1 0-4.464 0c0 1.234.999 2.235 2.232 2.235ZM284.303 432.349a2.234 2.234 0 0 0 2.232-2.235 2.233 2.233 0 1 0-4.464 0c0 1.234.999 2.235 2.232 2.235ZM273.321 421.311a2.234 2.234 0 0 0 2.232-2.235 2.233 2.233 0 1 0-4.464 0c0 1.234.999 2.235 2.232 2.235ZM273.321 432.349a2.234 2.234 0 0 0 2.232-2.235 2.233 2.233 0 1 0-4.464 0c0 1.234.999 2.235 2.232 2.235ZM262.295 421.311a2.234 2.234 0 0 0 2.232-2.235 2.233 2.233 0 1 0-4.464 0c0 1.234.999 2.235 2.232 2.235ZM262.295 432.349a2.234 2.234 0 0 0 2.232-2.235 2.233 2.233 0 1 0-4.464 0c0 1.234.999 2.235 2.232 2.235ZM251.269 421.311a2.234 2.234 0 0 0 0-4.469c-1.233 0-2.232 1-2.232 2.234s.999 2.235 2.232 2.235ZM251.269 432.349a2.234 2.234 0 0 0 0-4.469c-1.233 0-2.232 1-2.232 2.234s.999 2.235 2.232 2.235ZM240.287 421.311a2.234 2.234 0 0 0 0-4.469c-1.233 0-2.232 1-2.232 2.234s.999 2.235 2.232 2.235ZM240.287 432.349a2.234 2.234 0 0 0 0-4.469c-1.233 0-2.232 1-2.232 2.234s.999 2.235 2.232 2.235ZM229.26 421.311a2.234 2.234 0 0 0 2.232-2.235 2.233 2.233 0 1 0-4.464 0c0 1.234 1 2.235 2.232 2.235ZM229.26 432.349a2.234 2.234 0 0 0 2.232-2.235 2.233 2.233 0 1 0-4.464 0c0 1.234 1 2.235 2.232 2.235ZM218.234 421.311a2.234 2.234 0 0 0 0-4.469 2.234 2.234 0 0 0 0 4.469ZM218.234 432.349a2.234 2.234 0 0 0 0-4.469 2.234 2.234 0 0 0 0 4.469ZM207.253 421.311a2.234 2.234 0 0 0 0-4.469c-1.233 0-2.232 1-2.232 2.234s.999 2.235 2.232 2.235ZM207.253 432.349a2.234 2.234 0 0 0 0-4.469c-1.233 0-2.232 1-2.232 2.234s.999 2.235 2.232 2.235ZM196.226 421.311a2.234 2.234 0 0 0 2.232-2.235 2.233 2.233 0 1 0-4.464 0c0 1.234.999 2.235 2.232 2.235ZM196.226 432.349a2.234 2.234 0 0 0 2.232-2.235 2.233 2.233 0 1 0-4.464 0c0 1.234.999 2.235 2.232 2.235ZM185.2 421.311a2.234 2.234 0 0 0 2.232-2.235 2.233 2.233 0 1 0-4.464 0c0 1.234.999 2.235 2.232 2.235ZM185.2 432.349a2.234 2.234 0 0 0 2.232-2.235 2.233 2.233 0 1 0-4.464 0c0 1.234.999 2.235 2.232 2.235ZM174.218 145.763c1.233 0 2.232-1 2.232-2.234a2.234 2.234 0 0 0-2.232-2.235 2.234 2.234 0 0 0 0 4.469ZM174.218 156.757a2.234 2.234 0 0 0 2.232-2.235 2.233 2.233 0 1 0-4.464 0c0 1.234 1 2.235 2.232 2.235ZM174.218 167.795a2.234 2.234 0 0 0 2.232-2.235 2.233 2.233 0 1 0-4.464 0c0 1.234 1 2.235 2.232 2.235ZM174.218 178.833a2.234 2.234 0 0 0 2.232-2.235 2.233 2.233 0 1 0-4.464 0c0 1.234 1 2.235 2.232 2.235ZM174.218 189.826a2.234 2.234 0 0 0 2.232-2.235 2.233 2.233 0 1 0-4.464 0c0 1.234 1 2.235 2.232 2.235ZM174.218 200.864a2.234 2.234 0 0 0 2.232-2.235 2.233 2.233 0 1 0-4.464 0c0 1.234 1 2.235 2.232 2.235ZM174.218 211.902a2.234 2.234 0 0 0 2.232-2.235 2.233 2.233 0 1 0-4.464 0c0 1.234 1 2.235 2.232 2.235ZM174.218 222.895c1.233 0 2.232-1 2.232-2.234a2.234 2.234 0 0 0-2.232-2.235 2.234 2.234 0 0 0 0 4.469ZM174.218 233.933c1.233 0 2.232-1 2.232-2.234a2.234 2.234 0 0 0-2.232-2.235 2.234 2.234 0 0 0 0 4.469ZM174.218 244.971c1.233 0 2.232-1 2.232-2.234a2.234 2.234 0 0 0-2.232-2.235 2.234 2.234 0 0 0 0 4.469ZM174.218 255.964c1.233 0 2.232-1 2.232-2.234a2.233 2.233 0 1 0-4.464 0c0 1.234 1 2.234 2.232 2.234ZM174.218 267.002c1.233 0 2.232-1 2.232-2.234a2.233 2.233 0 1 0-4.464 0c0 1.234 1 2.234 2.232 2.234ZM174.218 278.04c1.233 0 2.232-1 2.232-2.234a2.233 2.233 0 1 0-4.464 0c0 1.234 1 2.234 2.232 2.234ZM174.218 289.034a2.234 2.234 0 0 0 2.232-2.235 2.233 2.233 0 1 0-4.464 0c0 1.234 1 2.235 2.232 2.235ZM174.218 300.072a2.234 2.234 0 0 0 2.232-2.235 2.233 2.233 0 1 0-4.464 0c0 1.234 1 2.235 2.232 2.235ZM174.218 311.11a2.234 2.234 0 0 0 2.232-2.235 2.233 2.233 0 1 0-4.464 0c0 1.234 1 2.235 2.232 2.235ZM174.218 322.103c1.233 0 2.232-1 2.232-2.234a2.234 2.234 0 0 0-2.232-2.235 2.234 2.234 0 0 0 0 4.469ZM174.218 333.141c1.233 0 2.232-1 2.232-2.234a2.234 2.234 0 0 0-2.232-2.235 2.234 2.234 0 0 0 0 4.469ZM174.218 344.179c1.233 0 2.232-1 2.232-2.234a2.234 2.234 0 0 0-2.232-2.235 2.234 2.234 0 0 0 0 4.469ZM174.218 355.172c1.233 0 2.232-1 2.232-2.234a2.234 2.234 0 0 0-2.232-2.235 2.234 2.234 0 0 0 0 4.469ZM174.218 366.21c1.233 0 2.232-1 2.232-2.234a2.234 2.234 0 0 0-2.232-2.235 2.234 2.234 0 0 0 0 4.469ZM174.218 377.248c1.233 0 2.232-1 2.232-2.234a2.234 2.234 0 0 0-2.232-2.235 2.234 2.234 0 0 0 0 4.469ZM174.218 388.242a2.234 2.234 0 0 0 2.232-2.235 2.233 2.233 0 1 0-4.464 0c0 1.234 1 2.235 2.232 2.235ZM174.218 399.279c1.233 0 2.232-1 2.232-2.234a2.233 2.233 0 1 0-4.464 0c0 1.234 1 2.234 2.232 2.234ZM174.218 410.318a2.234 2.234 0 0 0 2.232-2.235 2.233 2.233 0 1 0-4.464 0c0 1.234 1 2.235 2.232 2.235ZM174.218 421.311a2.234 2.234 0 0 0 2.232-2.235 2.233 2.233 0 1 0-4.464 0c0 1.234 1 2.235 2.232 2.235ZM174.218 432.349a2.234 2.234 0 0 0 2.232-2.235 2.233 2.233 0 1 0-4.464 0c0 1.234 1 2.235 2.232 2.235ZM163.192 145.763c1.233 0 2.232-1 2.232-2.234a2.234 2.234 0 0 0-2.232-2.235 2.234 2.234 0 0 0-2.232 2.235c0 1.234.999 2.234 2.232 2.234ZM163.192 156.757a2.234 2.234 0 0 0 2.232-2.235 2.233 2.233 0 1 0-4.464 0c0 1.234.999 2.235 2.232 2.235ZM163.192 167.795a2.234 2.234 0 0 0 2.232-2.235 2.233 2.233 0 1 0-4.464 0c0 1.234.999 2.235 2.232 2.235ZM163.192 178.833a2.234 2.234 0 0 0 2.232-2.235 2.233 2.233 0 1 0-4.464 0c0 1.234.999 2.235 2.232 2.235ZM163.192 189.826a2.234 2.234 0 0 0 2.232-2.235 2.233 2.233 0 1 0-4.464 0c0 1.234.999 2.235 2.232 2.235ZM163.192 200.864a2.234 2.234 0 0 0 2.232-2.235 2.233 2.233 0 1 0-4.464 0c0 1.234.999 2.235 2.232 2.235ZM163.192 211.902a2.234 2.234 0 0 0 2.232-2.235 2.233 2.233 0 1 0-4.464 0c0 1.234.999 2.235 2.232 2.235ZM163.192 222.895c1.233 0 2.232-1 2.232-2.234a2.234 2.234 0 0 0-2.232-2.235 2.234 2.234 0 0 0-2.232 2.235c0 1.234.999 2.234 2.232 2.234ZM163.192 233.933c1.233 0 2.232-1 2.232-2.234a2.234 2.234 0 0 0-2.232-2.235 2.234 2.234 0 0 0-2.232 2.235c0 1.234.999 2.234 2.232 2.234ZM163.192 244.971c1.233 0 2.232-1 2.232-2.234a2.234 2.234 0 0 0-2.232-2.235 2.234 2.234 0 0 0-2.232 2.235c0 1.234.999 2.234 2.232 2.234ZM163.192 255.964c1.233 0 2.232-1 2.232-2.234a2.233 2.233 0 1 0-4.464 0c0 1.234.999 2.234 2.232 2.234ZM163.192 267.002c1.233 0 2.232-1 2.232-2.234a2.233 2.233 0 1 0-4.464 0c0 1.234.999 2.234 2.232 2.234ZM163.192 278.04c1.233 0 2.232-1 2.232-2.234a2.233 2.233 0 1 0-4.464 0c0 1.234.999 2.234 2.232 2.234ZM163.192 289.034a2.234 2.234 0 0 0 2.232-2.235 2.233 2.233 0 1 0-4.464 0c0 1.234.999 2.235 2.232 2.235ZM163.192 300.072a2.234 2.234 0 0 0 2.232-2.235 2.233 2.233 0 1 0-4.464 0c0 1.234.999 2.235 2.232 2.235ZM163.192 311.11a2.234 2.234 0 0 0 2.232-2.235 2.233 2.233 0 1 0-4.464 0c0 1.234.999 2.235 2.232 2.235ZM163.192 322.103c1.233 0 2.232-1 2.232-2.234a2.234 2.234 0 0 0-2.232-2.235 2.234 2.234 0 0 0-2.232 2.235c0 1.234.999 2.234 2.232 2.234ZM163.192 333.141c1.233 0 2.232-1 2.232-2.234a2.234 2.234 0 0 0-2.232-2.235 2.234 2.234 0 0 0-2.232 2.235c0 1.234.999 2.234 2.232 2.234ZM163.192 344.179c1.233 0 2.232-1 2.232-2.234a2.234 2.234 0 0 0-2.232-2.235 2.234 2.234 0 0 0-2.232 2.235c0 1.234.999 2.234 2.232 2.234ZM163.192 355.172c1.233 0 2.232-1 2.232-2.234a2.234 2.234 0 0 0-2.232-2.235 2.234 2.234 0 0 0-2.232 2.235c0 1.234.999 2.234 2.232 2.234ZM163.192 366.21c1.233 0 2.232-1 2.232-2.234a2.234 2.234 0 0 0-2.232-2.235 2.234 2.234 0 0 0-2.232 2.235c0 1.234.999 2.234 2.232 2.234ZM163.192 377.248c1.233 0 2.232-1 2.232-2.234a2.234 2.234 0 0 0-2.232-2.235 2.234 2.234 0 0 0-2.232 2.235c0 1.234.999 2.234 2.232 2.234ZM163.192 388.242a2.234 2.234 0 0 0 2.232-2.235 2.233 2.233 0 1 0-4.464 0c0 1.234.999 2.235 2.232 2.235ZM163.192 399.279c1.233 0 2.232-1 2.232-2.234a2.233 2.233 0 1 0-4.464 0c0 1.234.999 2.234 2.232 2.234ZM163.192 410.318a2.234 2.234 0 0 0 2.232-2.235 2.233 2.233 0 1 0-4.464 0c0 1.234.999 2.235 2.232 2.235ZM163.192 421.311a2.234 2.234 0 0 0 2.232-2.235 2.233 2.233 0 1 0-4.464 0c0 1.234.999 2.235 2.232 2.235ZM163.192 432.349a2.234 2.234 0 0 0 2.232-2.235 2.233 2.233 0 1 0-4.464 0c0 1.234.999 2.235 2.232 2.235ZM152.166 145.763a2.234 2.234 0 0 0 0-4.469 2.234 2.234 0 0 0-2.232 2.235c0 1.234.999 2.234 2.232 2.234ZM152.166 156.757a2.234 2.234 0 0 0 0-4.469c-1.233 0-2.232 1-2.232 2.234s.999 2.235 2.232 2.235ZM152.166 167.795a2.234 2.234 0 0 0 0-4.469c-1.233 0-2.232 1-2.232 2.234s.999 2.235 2.232 2.235ZM152.166 178.833a2.234 2.234 0 0 0 0-4.469c-1.233 0-2.232 1-2.232 2.234s.999 2.235 2.232 2.235ZM152.166 189.826a2.234 2.234 0 0 0 0-4.469c-1.233 0-2.232 1-2.232 2.234s.999 2.235 2.232 2.235ZM152.166 200.864a2.234 2.234 0 0 0 0-4.469c-1.233 0-2.232 1-2.232 2.234s.999 2.235 2.232 2.235ZM152.166 211.902a2.234 2.234 0 0 0 0-4.469c-1.233 0-2.232 1-2.232 2.234s.999 2.235 2.232 2.235ZM152.166 222.895a2.234 2.234 0 0 0 0-4.469 2.234 2.234 0 0 0-2.232 2.235c0 1.234.999 2.234 2.232 2.234ZM152.166 233.933a2.234 2.234 0 0 0 0-4.469 2.234 2.234 0 0 0-2.232 2.235c0 1.234.999 2.234 2.232 2.234ZM152.166 244.971a2.234 2.234 0 0 0 0-4.469 2.234 2.234 0 0 0-2.232 2.235c0 1.234.999 2.234 2.232 2.234ZM152.166 255.964a2.233 2.233 0 0 0 0-4.468c-1.233 0-2.232 1-2.232 2.234s.999 2.234 2.232 2.234ZM152.166 267.002a2.233 2.233 0 0 0 0-4.468c-1.233 0-2.232 1-2.232 2.234s.999 2.234 2.232 2.234ZM152.166 278.04a2.233 2.233 0 0 0 0-4.468c-1.233 0-2.232 1-2.232 2.234s.999 2.234 2.232 2.234ZM152.166 289.034a2.234 2.234 0 0 0 0-4.469c-1.233 0-2.232 1-2.232 2.234s.999 2.235 2.232 2.235ZM152.166 300.072a2.234 2.234 0 0 0 0-4.469c-1.233 0-2.232 1-2.232 2.234s.999 2.235 2.232 2.235ZM152.166 311.11a2.234 2.234 0 0 0 0-4.469c-1.233 0-2.232 1-2.232 2.234s.999 2.235 2.232 2.235ZM152.166 322.103a2.234 2.234 0 0 0 0-4.469 2.234 2.234 0 0 0-2.232 2.235c0 1.234.999 2.234 2.232 2.234ZM152.166 333.141a2.234 2.234 0 0 0 0-4.469 2.234 2.234 0 0 0-2.232 2.235c0 1.234.999 2.234 2.232 2.234ZM152.166 344.179a2.234 2.234 0 0 0 0-4.469 2.234 2.234 0 0 0-2.232 2.235c0 1.234.999 2.234 2.232 2.234ZM152.166 355.172a2.234 2.234 0 0 0 0-4.469 2.234 2.234 0 0 0-2.232 2.235c0 1.234.999 2.234 2.232 2.234ZM152.166 366.21a2.234 2.234 0 0 0 0-4.469 2.234 2.234 0 0 0-2.232 2.235c0 1.234.999 2.234 2.232 2.234ZM152.166 377.248a2.234 2.234 0 0 0 0-4.469 2.234 2.234 0 0 0-2.232 2.235c0 1.234.999 2.234 2.232 2.234ZM152.166 388.242a2.234 2.234 0 0 0 0-4.469c-1.233 0-2.232 1-2.232 2.234s.999 2.235 2.232 2.235ZM152.166 399.279a2.233 2.233 0 0 0 0-4.468c-1.233 0-2.232 1-2.232 2.234s.999 2.234 2.232 2.234ZM152.166 410.318a2.234 2.234 0 0 0 0-4.469c-1.233 0-2.232 1-2.232 2.234s.999 2.235 2.232 2.235ZM152.166 421.311a2.234 2.234 0 0 0 0-4.469c-1.233 0-2.232 1-2.232 2.234s.999 2.235 2.232 2.235ZM152.166 432.349a2.234 2.234 0 0 0 0-4.469c-1.233 0-2.232 1-2.232 2.234s.999 2.235 2.232 2.235ZM141.184 145.763c1.233 0 2.232-1 2.232-2.234a2.234 2.234 0 0 0-2.232-2.235 2.234 2.234 0 0 0-2.232 2.235c0 1.234.999 2.234 2.232 2.234ZM141.184 156.757a2.234 2.234 0 0 0 2.232-2.235 2.233 2.233 0 1 0-4.464 0c0 1.234.999 2.235 2.232 2.235ZM141.184 167.795a2.234 2.234 0 0 0 2.232-2.235 2.233 2.233 0 1 0-4.464 0c0 1.234.999 2.235 2.232 2.235ZM141.184 178.833a2.234 2.234 0 0 0 2.232-2.235 2.233 2.233 0 1 0-4.464 0c0 1.234.999 2.235 2.232 2.235ZM141.184 189.826a2.234 2.234 0 0 0 2.232-2.235 2.233 2.233 0 1 0-4.464 0c0 1.234.999 2.235 2.232 2.235ZM141.184 200.864a2.234 2.234 0 0 0 2.232-2.235 2.233 2.233 0 1 0-4.464 0c0 1.234.999 2.235 2.232 2.235ZM141.184 211.902a2.234 2.234 0 0 0 2.232-2.235 2.233 2.233 0 1 0-4.464 0c0 1.234.999 2.235 2.232 2.235ZM141.184 222.895c1.233 0 2.232-1 2.232-2.234a2.234 2.234 0 0 0-2.232-2.235 2.234 2.234 0 0 0-2.232 2.235c0 1.234.999 2.234 2.232 2.234ZM141.184 233.933c1.233 0 2.232-1 2.232-2.234a2.234 2.234 0 0 0-2.232-2.235 2.234 2.234 0 0 0-2.232 2.235c0 1.234.999 2.234 2.232 2.234ZM141.184 244.971c1.233 0 2.232-1 2.232-2.234a2.234 2.234 0 0 0-2.232-2.235 2.234 2.234 0 0 0-2.232 2.235c0 1.234.999 2.234 2.232 2.234ZM141.184 255.964c1.233 0 2.232-1 2.232-2.234a2.233 2.233 0 1 0-4.464 0c0 1.234.999 2.234 2.232 2.234ZM141.184 267.002c1.233 0 2.232-1 2.232-2.234a2.233 2.233 0 1 0-4.464 0c0 1.234.999 2.234 2.232 2.234ZM141.184 278.04c1.233 0 2.232-1 2.232-2.234a2.233 2.233 0 1 0-4.464 0c0 1.234.999 2.234 2.232 2.234ZM141.184 289.034a2.234 2.234 0 0 0 2.232-2.235 2.233 2.233 0 1 0-4.464 0c0 1.234.999 2.235 2.232 2.235ZM141.184 300.072a2.234 2.234 0 0 0 2.232-2.235 2.233 2.233 0 1 0-4.464 0c0 1.234.999 2.235 2.232 2.235ZM141.184 311.11a2.234 2.234 0 0 0 2.232-2.235 2.233 2.233 0 1 0-4.464 0c0 1.234.999 2.235 2.232 2.235ZM141.184 322.103c1.233 0 2.232-1 2.232-2.234a2.234 2.234 0 0 0-2.232-2.235 2.234 2.234 0 0 0-2.232 2.235c0 1.234.999 2.234 2.232 2.234ZM141.184 333.141c1.233 0 2.232-1 2.232-2.234a2.234 2.234 0 0 0-2.232-2.235 2.234 2.234 0 0 0-2.232 2.235c0 1.234.999 2.234 2.232 2.234ZM141.184 344.179c1.233 0 2.232-1 2.232-2.234a2.234 2.234 0 0 0-2.232-2.235 2.234 2.234 0 0 0-2.232 2.235c0 1.234.999 2.234 2.232 2.234ZM141.184 355.172c1.233 0 2.232-1 2.232-2.234a2.234 2.234 0 0 0-2.232-2.235 2.234 2.234 0 0 0-2.232 2.235c0 1.234.999 2.234 2.232 2.234ZM141.184 366.21c1.233 0 2.232-1 2.232-2.234a2.234 2.234 0 0 0-2.232-2.235 2.234 2.234 0 0 0-2.232 2.235c0 1.234.999 2.234 2.232 2.234ZM141.184 377.248c1.233 0 2.232-1 2.232-2.234a2.234 2.234 0 0 0-2.232-2.235 2.234 2.234 0 0 0-2.232 2.235c0 1.234.999 2.234 2.232 2.234ZM141.184 388.242a2.234 2.234 0 0 0 2.232-2.235 2.233 2.233 0 1 0-4.464 0c0 1.234.999 2.235 2.232 2.235ZM141.184 399.279c1.233 0 2.232-1 2.232-2.234a2.233 2.233 0 1 0-4.464 0c0 1.234.999 2.234 2.232 2.234ZM141.184 410.318a2.234 2.234 0 0 0 2.232-2.235 2.233 2.233 0 1 0-4.464 0c0 1.234.999 2.235 2.232 2.235ZM141.184 421.311a2.234 2.234 0 0 0 2.232-2.235 2.233 2.233 0 1 0-4.464 0c0 1.234.999 2.235 2.232 2.235ZM141.184 432.349a2.234 2.234 0 0 0 2.232-2.235 2.233 2.233 0 1 0-4.464 0c0 1.234.999 2.235 2.232 2.235ZM130.158 145.763c1.233 0 2.232-1 2.232-2.234a2.234 2.234 0 0 0-2.232-2.235 2.234 2.234 0 0 0-2.232 2.235c0 1.234.999 2.234 2.232 2.234ZM130.158 156.757a2.234 2.234 0 0 0 2.232-2.235 2.233 2.233 0 1 0-4.464 0c0 1.234.999 2.235 2.232 2.235ZM130.158 167.795a2.234 2.234 0 0 0 2.232-2.235 2.233 2.233 0 1 0-4.464 0c0 1.234.999 2.235 2.232 2.235ZM130.158 178.833a2.234 2.234 0 0 0 2.232-2.235 2.233 2.233 0 1 0-4.464 0c0 1.234.999 2.235 2.232 2.235ZM130.158 189.826a2.234 2.234 0 0 0 2.232-2.235 2.233 2.233 0 1 0-4.464 0c0 1.234.999 2.235 2.232 2.235ZM130.158 200.864a2.234 2.234 0 0 0 2.232-2.235 2.233 2.233 0 1 0-4.464 0c0 1.234.999 2.235 2.232 2.235ZM130.158 211.902a2.234 2.234 0 0 0 2.232-2.235 2.233 2.233 0 1 0-4.464 0c0 1.234.999 2.235 2.232 2.235ZM130.158 222.895c1.233 0 2.232-1 2.232-2.234a2.234 2.234 0 0 0-2.232-2.235 2.234 2.234 0 0 0-2.232 2.235c0 1.234.999 2.234 2.232 2.234ZM130.158 233.933c1.233 0 2.232-1 2.232-2.234a2.234 2.234 0 0 0-2.232-2.235 2.234 2.234 0 0 0-2.232 2.235c0 1.234.999 2.234 2.232 2.234ZM130.158 244.971c1.233 0 2.232-1 2.232-2.234a2.234 2.234 0 0 0-2.232-2.235 2.234 2.234 0 0 0-2.232 2.235c0 1.234.999 2.234 2.232 2.234ZM130.158 255.964c1.233 0 2.232-1 2.232-2.234a2.233 2.233 0 1 0-4.464 0c0 1.234.999 2.234 2.232 2.234ZM130.158 267.002c1.233 0 2.232-1 2.232-2.234a2.233 2.233 0 1 0-4.464 0c0 1.234.999 2.234 2.232 2.234ZM130.158 278.04c1.233 0 2.232-1 2.232-2.234a2.233 2.233 0 1 0-4.464 0c0 1.234.999 2.234 2.232 2.234ZM130.158 289.034a2.234 2.234 0 0 0 2.232-2.235 2.233 2.233 0 1 0-4.464 0c0 1.234.999 2.235 2.232 2.235ZM130.158 300.072a2.234 2.234 0 0 0 2.232-2.235 2.233 2.233 0 1 0-4.464 0c0 1.234.999 2.235 2.232 2.235ZM130.158 311.11a2.234 2.234 0 0 0 2.232-2.235 2.233 2.233 0 1 0-4.464 0c0 1.234.999 2.235 2.232 2.235ZM130.158 322.103c1.233 0 2.232-1 2.232-2.234a2.234 2.234 0 0 0-2.232-2.235 2.234 2.234 0 0 0-2.232 2.235c0 1.234.999 2.234 2.232 2.234ZM130.158 333.141c1.233 0 2.232-1 2.232-2.234a2.234 2.234 0 0 0-2.232-2.235 2.234 2.234 0 0 0-2.232 2.235c0 1.234.999 2.234 2.232 2.234ZM130.158 344.179c1.233 0 2.232-1 2.232-2.234a2.234 2.234 0 0 0-2.232-2.235 2.234 2.234 0 0 0-2.232 2.235c0 1.234.999 2.234 2.232 2.234ZM130.158 355.172c1.233 0 2.232-1 2.232-2.234a2.234 2.234 0 0 0-2.232-2.235 2.234 2.234 0 0 0-2.232 2.235c0 1.234.999 2.234 2.232 2.234ZM130.158 366.21c1.233 0 2.232-1 2.232-2.234a2.234 2.234 0 0 0-2.232-2.235 2.234 2.234 0 0 0-2.232 2.235c0 1.234.999 2.234 2.232 2.234ZM130.158 377.248c1.233 0 2.232-1 2.232-2.234a2.234 2.234 0 0 0-2.232-2.235 2.234 2.234 0 0 0-2.232 2.235c0 1.234.999 2.234 2.232 2.234ZM130.158 388.242a2.234 2.234 0 0 0 2.232-2.235 2.233 2.233 0 1 0-4.464 0c0 1.234.999 2.235 2.232 2.235ZM130.158 399.279c1.233 0 2.232-1 2.232-2.234a2.233 2.233 0 1 0-4.464 0c0 1.234.999 2.234 2.232 2.234ZM130.158 410.318a2.234 2.234 0 0 0 2.232-2.235 2.233 2.233 0 1 0-4.464 0c0 1.234.999 2.235 2.232 2.235ZM130.158 421.311a2.234 2.234 0 0 0 2.232-2.235 2.233 2.233 0 1 0-4.464 0c0 1.234.999 2.235 2.232 2.235ZM130.158 432.349a2.234 2.234 0 0 0 2.232-2.235 2.233 2.233 0 1 0-4.464 0c0 1.234.999 2.235 2.232 2.235Z"/>
  <path fill="#F3F6E6" d="M372.201 190.005c0 11.663-6.92 21.182-15.446 21.182-4.509 0-8.571-2.637-11.384-6.838-1.562-2.145-3.794-3.083-5.982-3.083-3.839 0-7.544 2.905-7.544 7.508v53.223h-59.462c-7.276 0-10.267 9.295-4.419 13.586 2.098 1.43 3.839 3.128 5 5.049a11.805 11.805 0 0 1 1.83 6.346c0 8.535-9.464 15.462-21.16 15.462s-21.159-6.927-21.159-15.462c0-4.514 2.633-8.58 6.83-11.395 2.142-1.565 3.08-3.799 3.08-5.989 0-3.798-2.902-7.552-7.5-7.552h-53.078V111.89H331.8v59.48c0 7.284 9.286 10.278 13.571 4.424 1.429-2.101 3.125-3.799 5.045-5.005a11.765 11.765 0 0 1 6.339-1.833c8.526-.134 15.446 9.34 15.446 21.049Z"/>
  <path fill="#383A48" fill-rule="evenodd" d="M230.287 286.844c0 9.742 10.491 17.696 23.392 17.696s23.347-7.909 23.392-17.785c0-2.637-.759-5.14-2.188-7.508-1.339-2.19-3.214-4.111-5.624-5.72-2.232-1.654-2.456-4.111-1.875-5.854.58-1.743 2.187-3.62 5-3.62h59.417c1.25 0 2.232-.983 2.232-2.234V208.64c0-3.307 2.678-5.274 5.312-5.274 1.652 0 3.125.76 4.151 2.145 3.349 4.961 8.17 7.821 13.214 7.821 9.732 0 17.678-10.502 17.678-23.417 0-12.915-7.946-23.416-17.678-23.416-2.634 0-5.134.759-7.499 2.189-2.188 1.341-4.107 3.263-5.715 5.631-1.651 2.234-4.106 2.458-5.847 1.877-1.741-.581-3.616-2.19-3.616-5.005v-59.48a2.212 2.212 0 0 0-2.232-2.235H181.807c-1.25 0-2.232.984-2.232 2.235v150.152c0 1.252.982 2.235 2.232 2.235h53.168c3.303 0 5.267 2.726 5.267 5.362 0 1.654-.759 3.128-2.143 4.156-4.955 3.352-7.812 8.178-7.812 13.228Zm4.688-27.17h-50.936V113.99h145.53v57.335c0 4.29 2.633 7.91 6.696 9.25 4.107 1.341 8.348-.044 10.892-3.53 0-.022.011-.034.022-.045.012-.011.023-.022.023-.044 1.25-1.877 2.723-3.307 4.375-4.335 1.607-1.028 3.348-1.52 5.133-1.52 7.277 0 13.214 8.491 13.214 18.948s-5.937 18.948-13.214 18.948c-3.616 0-6.964-2.056-9.508-5.854 0-.022-.011-.034-.023-.045-.011-.011-.022-.022-.022-.044-1.875-2.548-4.732-4.022-7.812-4.022-4.777 0-9.776 3.619-9.776 9.742v50.944h-57.185c-4.286 0-7.902 2.637-9.241 6.703-1.339 4.112.045 8.357 3.527 10.904.022 0 .033.012.044.023.011.011.023.022.045.022 1.875 1.251 3.303 2.726 4.33 4.379 1.027 1.609 1.518 3.352 1.518 5.14 0 7.284-8.482 13.227-18.928 13.227-10.446 0-18.928-5.943-18.928-13.227 0-3.62 2.054-6.972 5.848-9.519.023 0 .034-.011.045-.022.011-.011.022-.023.045-.023 2.544-1.877 4.017-4.737 4.017-7.82 0-4.826-3.66-9.831-9.731-9.831Z" clip-rule="evenodd"/>
  <path fill="#7FD6C2" d="M267.964 275.493c2.098 1.43 3.839 3.128 5 5.05a11.803 11.803 0 0 1 1.83 6.346c0 8.535-9.464 15.462-21.16 15.462s-21.16-6.927-21.16-15.462c0-4.514 2.634-8.581 6.83-11.396 2.143-1.564 3.081-3.798 3.081-5.988 0-3.799-2.902-7.552-7.5-7.552h-34.418v-7.061c0-30.031 24.329-54.43 54.372-54.43 15 0 28.615 6.077 38.436 15.953 9.821 9.832 15.937 23.462 15.937 38.477v7.061h-36.873c-7.232-.045-10.223 9.25-4.375 13.54Z"/>
  <path fill="#383A48" fill-rule="evenodd" d="M230.287 286.844c0 9.742 10.491 17.696 23.392 17.696s23.347-7.909 23.392-17.785c0-2.637-.759-5.14-2.188-7.508-1.339-2.19-3.214-4.111-5.624-5.72-2.232-1.654-2.456-4.111-1.875-5.854.58-1.743 2.187-3.62 4.999-3.62h36.874c1.25 0 2.232-.983 2.232-2.234v-7.061c0-15.105-5.893-29.36-16.562-40.041-10.669-10.68-24.865-16.579-39.998-16.579-31.204 0-56.605 25.427-56.605 56.664v7.061c0 1.251.982 2.235 2.232 2.235h34.418c3.304 0 5.268 2.726 5.268 5.362 0 1.654-.759 3.128-2.143 4.156-4.955 3.352-7.812 8.178-7.812 13.228Zm4.687-27.171h-32.23v-4.781c0-28.779 23.392-52.196 52.14-52.196 13.928 0 27.053 5.407 36.874 15.283 9.865 9.876 15.267 22.97 15.267 36.913v4.826h-34.642c-4.285 0-7.901 2.637-9.24 6.703-1.339 4.112.044 8.357 3.526 10.904.023 0 .034.012.045.023.011.011.022.022.045.022 1.875 1.251 3.303 2.726 4.33 4.379 1.027 1.609 1.518 3.352 1.518 5.14 0 7.284-8.482 13.227-18.928 13.227-10.446 0-18.928-5.943-18.928-13.227 0-3.62 2.054-6.972 5.848-9.519.022 0 .034-.011.045-.022.011-.011.022-.023.044-.023 2.545-1.877 4.018-4.737 4.018-7.82 0-6.167-4.955-9.832-9.732-9.832Z" clip-rule="evenodd"/>
  <path fill="#F3F6E6" d="M481.794 111.756v150.152h-59.417c-3.08 0-5.401 1.698-6.607 3.932-1.607 3.039-1.205 7.195 2.188 9.653 2.098 1.43 3.839 3.128 5 5.05 1.205 1.922 1.83 4.067 1.83 6.301 0 8.535-9.464 15.462-21.16 15.462s-21.16-6.927-21.16-15.462c0-4.514 2.634-8.58 6.83-11.396 2.143-1.564 3.081-3.798 3.081-5.988a8.076 8.076 0 0 0-.893-3.664c-1.206-2.235-3.527-3.933-6.607-3.933h-53.078v-59.435c0-7.284-9.285-10.278-13.571-4.424-1.428 2.1-3.125 3.798-5.044 5.005-1.92 1.162-4.063 1.832-6.339 1.832-8.527 0-15.446-9.474-15.446-21.182 0-11.708 6.919-21.182 15.446-21.182 4.508 0 8.571 2.636 11.383 6.837 1.562 2.145 3.795 3.083 5.982 3.083 3.839 0 7.544-2.904 7.544-7.507v-53.134h150.038Z"/>
  <path fill="#383A48" fill-rule="evenodd" d="M380.281 286.889c0 9.742 10.49 17.696 23.392 17.696 12.856 0 23.347-7.954 23.347-17.741 0-2.637-.759-5.184-2.188-7.508-1.339-2.189-3.214-4.111-5.624-5.72-2.5-1.832-2.5-4.781-1.474-6.748.938-1.743 2.634-2.726 4.643-2.726h59.417c1.25 0 2.232-.983 2.232-2.234V111.755a2.211 2.211 0 0 0-2.232-2.234H331.801c-1.25 0-2.232.983-2.232 2.234v53.224c0 3.307-2.679 5.273-5.313 5.273-1.651 0-3.124-.759-4.151-2.145-3.348-4.96-8.169-7.82-13.214-7.82-9.732 0-17.678 10.502-17.678 23.417 0 12.914 7.946 23.416 17.678 23.416 2.634 0 5.134-.76 7.5-2.19 2.187-1.34 4.107-3.217 5.714-5.63 1.652-2.235 4.107-2.458 5.848-1.877 1.741.581 3.616 2.19 3.616 5.005v59.48c0 1.251.982 2.234 2.232 2.234h53.122c2.009 0 3.706 1.028 4.643 2.771.447.804.67 1.698.67 2.592 0 1.653-.759 3.128-2.143 4.156-4.955 3.352-7.812 8.178-7.812 13.228Zm4.687-27.215h-50.935v-57.246c0-4.29-2.634-7.91-6.696-9.251-4.107-1.34-8.348.045-10.893 3.531 0 .022-.011.033-.022.045-.011.011-.022.022-.022.044-1.25 1.877-2.723 3.307-4.375 4.335-1.607 1.028-3.348 1.519-5.134 1.519-7.276 0-13.214-8.49-13.214-18.947 0-10.458 5.938-18.948 13.214-18.948 3.616 0 6.964 2.055 9.509 5.854 0 .022.011.033.022.045.011.011.022.022.022.044 1.875 2.547 4.732 4.022 7.812 4.022 4.777 0 9.777-3.664 9.777-9.742V113.99h145.529v145.684h-57.185c-3.66 0-6.875 1.876-8.571 5.094-1.964 3.754-1.652 9.25 2.857 12.513.022 0 .034.011.045.022.011.011.022.022.044.022 1.875 1.252 3.304 2.726 4.331 4.38 1.026 1.609 1.517 3.351 1.517 5.139 0 7.284-8.481 13.228-18.927 13.228s-18.928-5.944-18.928-13.228c0-3.62 2.053-6.971 5.848-9.519.022 0 .033-.011.044-.022.012-.011.023-.022.045-.022 2.545-1.877 4.018-4.737 4.018-7.821 0-1.609-.402-3.262-1.161-4.692-1.696-3.173-4.91-5.094-8.571-5.094Z" clip-rule="evenodd"/>
  <path fill="#E0719E" d="M462.598 261.908h-40.266c-3.08 0-5.401 1.698-6.607 3.933h-24.239c-1.206-2.235-3.527-3.933-6.607-3.933h-27.812l35.267-49.112c8.526-11.843 26.115-11.887 34.641-.045l35.623 49.157Z"/>
  <path fill="#383A48" fill-rule="evenodd" d="M391.53 268.075h24.24c.848 0 1.607-.447 1.964-1.251.938-1.743 2.634-2.726 4.643-2.726h40.266c.848 0 1.607-.447 2.009-1.207a2.187 2.187 0 0 0-.179-2.324l-35.578-49.157c-4.509-6.167-11.473-9.742-19.107-9.742h-.044c-7.679 0-14.643 3.575-19.107 9.832l-35.266 49.112a2.189 2.189 0 0 0-.179 2.324c.358.759 1.116 1.206 1.965 1.206h27.811c2.009 0 3.66.983 4.598 2.726a2.226 2.226 0 0 0 1.964 1.207Zm23.035-4.469H392.78c-1.786-2.458-4.643-3.932-7.812-3.888h-23.481l32.722-45.582c3.616-5.094 9.285-7.999 15.49-7.999h.045c6.205 0 11.83 2.86 15.49 7.91l33.034 45.627h-35.891c-3.169 0-6.026 1.43-7.812 3.932Z" clip-rule="evenodd"/>
  <path fill="#F3F6E6" d="M372.156 340.157c0 11.708-6.919 21.182-15.446 21.182-4.509 0-8.571-2.636-11.383-6.837-1.563-2.145-3.795-3.084-5.982-3.084-3.795 0-7.544 2.905-7.544 7.508v53.224H181.807V261.997h54.373c7.276 0 10.267-9.295 4.419-13.585-2.098-1.43-3.839-3.128-5-5.05a11.762 11.762 0 0 1-1.83-6.301c0-8.535 9.464-15.462 21.16-15.462 11.651 0 21.16 6.927 21.16 15.462 0 4.514-2.634 8.58-6.83 11.396-2.143 1.564-3.081 3.798-3.081 5.988 0 3.843 2.902 7.552 7.5 7.552h58.212v59.48c0 7.284 9.285 10.279 13.571 4.424 1.428-2.1 3.124-3.843 5.044-5.005 1.92-1.162 4.062-1.832 6.339-1.832 8.437-.089 15.312 9.385 15.312 21.093Z"/>
  <path fill="#383A48" fill-rule="evenodd" d="M181.807 414.295h149.994c1.25 0 2.232-.983 2.232-2.235v-53.223c0-3.307 2.678-5.274 5.312-5.274 1.652 0 3.125.76 4.151 2.145 3.349 4.961 8.17 7.821 13.214 7.821 9.732 0 17.678-10.502 17.678-23.417 0-12.915-7.946-23.416-17.678-23.416-2.634 0-5.134.759-7.499 2.189-2.188 1.341-4.107 3.218-5.715 5.631-1.651 2.235-4.106 2.458-5.847 1.877-1.741-.581-3.616-2.19-3.616-5.005v-59.48a2.212 2.212 0 0 0-2.232-2.235h-58.212c-3.304 0-5.268-2.681-5.268-5.317 0-1.654.759-3.129 2.143-4.156 4.955-3.352 7.812-8.178 7.812-13.228 0-9.742-10.49-17.697-23.392-17.697-12.901 0-23.391 7.955-23.391 17.697 0 2.636.758 5.184 2.187 7.507 1.339 2.19 3.214 4.112 5.625 5.721 2.232 1.653 2.455 4.111 1.875 5.854-.581 1.743-2.188 3.619-5 3.619h-54.373c-1.25 0-2.232.984-2.232 2.235V412.06c0 1.252.982 2.235 2.232 2.235Zm147.762-4.469h-145.53V264.142h52.185c4.286 0 7.902-2.636 9.241-6.703 1.339-4.111-.045-8.357-3.527-10.904-.022 0-.033-.011-.044-.022-.011-.011-.022-.023-.045-.023-1.875-1.251-3.303-2.726-4.33-4.379-1.027-1.609-1.518-3.352-1.518-5.139 0-7.284 8.482-13.228 18.928-13.228 10.446 0 18.928 5.944 18.928 13.228 0 3.62-2.054 6.971-5.848 9.518-.023 0-.034.012-.045.023-.011.011-.022.022-.045.022-2.544 1.877-4.017 4.737-4.017 7.821 0 4.781 3.616 9.786 9.732 9.786h55.935v57.291c0 4.29 2.633 7.909 6.696 9.25 4.107 1.341 8.348-.045 10.892-3.53 0-.023.011-.034.022-.045.012-.011.023-.022.023-.045 1.25-1.877 2.723-3.307 4.375-4.334 1.607-1.028 3.348-1.52 5.133-1.52 7.277 0 13.214 8.491 13.214 18.948s-5.937 18.948-13.214 18.948c-3.616 0-6.964-2.056-9.508-5.854 0-.045-.045-.045-.045-.09-1.875-2.547-4.732-4.022-7.812-4.022-4.777 0-9.776 3.62-9.776 9.742v50.945Z" clip-rule="evenodd"/>
  <path fill="#F3F6E6" d="M291.043 409.334c0 .939-.044 1.833-.089 2.726h-74.416c-.09-.893-.09-1.832-.09-2.726 0-6.748 26.517-37.359 37.32-37.359s37.275 28.69 37.275 37.359Z"/>
  <path fill="#383A48" fill-rule="evenodd" d="M216.538 414.295h74.416c1.161 0 2.143-.894 2.277-2.056.044-.938.089-1.922.089-2.905 0-2.547-1.562-6.167-4.687-10.77-2.679-3.977-6.429-8.49-10.536-12.736-3.66-3.753-16.204-16.087-24.329-16.087-7.678 0-19.553 11.797-24.329 16.847-5.67 6.033-15.223 17.563-15.223 22.746 0 .983 0 1.967.09 2.905a2.238 2.238 0 0 0 2.232 2.056Zm72.273-4.469H218.68v-.536c0-1.922 4.956-10.055 13.973-19.663 8.794-9.34 17.053-15.418 21.071-15.418 4.106 0 12.588 5.944 21.115 14.748 9.062 9.384 13.972 17.517 13.972 20.377v.492Z" clip-rule="evenodd"/>
  <path fill="#F3F6E6" d="M481.794 261.908V412.06H331.801v-53.179c0-4.603-3.75-7.507-7.545-7.507-2.187 0-4.419.938-5.982 3.083-2.812 4.201-6.874 6.837-11.383 6.837-8.526 0-15.446-9.473-15.446-21.182 0-11.663 6.92-21.182 15.446-21.182 2.277 0 4.375.67 6.339 1.832 1.92 1.162 3.661 2.905 5.044 5.005 4.286 5.855 13.571 2.86 13.571-4.424v-59.435h59.373c4.598 0 7.499-3.754 7.499-7.552 0-2.19-.937-4.425-3.08-5.989-4.196-2.815-6.83-6.882-6.83-11.395 0-8.536 9.464-15.462 21.16-15.462 11.651 0 21.16 6.926 21.16 15.462 0 2.234-.67 4.379-1.831 6.301-1.205 1.922-2.901 3.664-4.999 5.05-5.848 4.29-2.857 13.585 4.419 13.585h53.078Z"/>
  <path fill="#383A48" fill-rule="evenodd" d="M331.801 414.295h149.993c1.25 0 2.232-.983 2.232-2.235V261.908a2.212 2.212 0 0 0-2.232-2.235h-53.212c-2.812 0-4.419-1.876-5-3.619-.58-1.743-.357-4.201 1.875-5.854 2.411-1.609 4.286-3.531 5.625-5.721 1.473-2.368 2.188-4.871 2.188-7.507 0-9.742-10.491-17.697-23.392-17.697-12.902 0-23.392 7.955-23.392 17.697 0 5.05 2.857 9.876 7.812 13.228 1.384 1.027 2.143 2.502 2.143 4.156 0 2.592-1.964 5.317-5.268 5.317h-59.372c-1.25 0-2.232.984-2.232 2.235v59.525c0 2.815-1.875 4.424-3.616 5.005-1.741.581-4.196.357-5.848-1.877-1.607-2.413-3.527-4.29-5.714-5.631-2.366-1.475-4.866-2.19-7.5-2.19-9.732 0-17.678 10.502-17.678 23.417 0 12.915 7.946 23.417 17.678 23.417 5.045 0 9.866-2.86 13.214-7.821 1.027-1.385 2.5-2.145 4.151-2.145 2.59 0 5.313 1.966 5.313 5.273v53.179c0 1.252.982 2.235 2.232 2.235Zm147.761-4.469H334.033v-50.989c0-6.078-4.955-9.742-9.777-9.742-3.124 0-5.937 1.474-7.812 4.022 0 .022-.011.033-.022.044-.011.011-.022.023-.022.045-2.5 3.754-5.893 5.854-9.509 5.854-7.276 0-13.214-8.491-13.214-18.948s5.938-18.948 13.214-18.948c1.741 0 3.482.492 5.134 1.52 1.652.983 3.125 2.458 4.375 4.335 0 .022.011.033.022.044.011.012.022.023.022.045 2.545 3.486 6.83 4.871 10.893 3.53 4.062-1.34 6.696-4.96 6.696-9.25v-57.246h57.14c6.071 0 9.732-4.96 9.732-9.786 0-3.129-1.473-5.944-4.018-7.821-.022 0-.033-.011-.044-.022-.012-.011-.023-.023-.045-.023-3.75-2.502-5.848-5.898-5.848-9.518 0-7.284 8.482-13.228 18.928-13.228 10.446 0 18.927 5.944 18.927 13.228 0 1.743-.491 3.486-1.517 5.139-.982 1.653-2.456 3.128-4.331 4.379-.022 0-.033.012-.044.023-.011.011-.022.022-.045.022-3.482 2.547-4.866 6.837-3.526 10.904 1.339 4.067 4.955 6.703 9.24 6.703h50.98v145.684Z" clip-rule="evenodd"/>
  <path fill="#F6E049" d="M254.929 371.975c19.452 0 35.221-15.786 35.221-35.259s-15.769-35.259-35.221-35.259c-19.453 0-35.222 15.786-35.222 35.259s15.769 35.259 35.222 35.259Z"/>
  <path fill="#383A48" fill-rule="evenodd" d="M217.475 336.761c0 20.646 16.785 37.493 37.454 37.493 20.624 0 37.454-16.847 37.454-37.493s-16.83-37.494-37.454-37.494c-20.624 0-37.454 16.848-37.454 37.494Zm4.464-.045c0-18.188 14.776-33.025 32.99-33.025 18.169 0 32.989 14.837 32.989 33.025s-14.82 33.025-32.989 33.025c-18.169 0-32.99-14.837-32.99-33.025Z" clip-rule="evenodd"/>
  <path fill="#383A48" d="M243.635 335.375c2.095 0 3.794-1.7 3.794-3.798a3.797 3.797 0 0 0-3.794-3.799 3.797 3.797 0 0 0-3.795 3.799 3.796 3.796 0 0 0 3.795 3.798ZM266.178 335.375c2.096 0 3.795-1.7 3.795-3.798a3.797 3.797 0 0 0-3.795-3.799 3.797 3.797 0 0 0-3.794 3.799 3.796 3.796 0 0 0 3.794 3.798ZM254.929 353.385c-5.714 0-10.982-3.352-13.393-8.58-.535-1.118 0-2.458 1.116-2.95 1.116-.491 2.456 0 2.947 1.117a10.284 10.284 0 0 0 9.33 5.989c4.017 0 7.633-2.369 9.33-5.989.535-1.117 1.83-1.608 2.946-1.117 1.116.536 1.607 1.832 1.116 2.95-2.411 5.228-7.678 8.58-13.392 8.58Z"/>
  <path fill="#F6E049" d="M409.654 203.903c19.453 0 35.222-15.786 35.222-35.259s-15.769-35.259-35.222-35.259c-19.452 0-35.221 15.786-35.221 35.259s15.769 35.259 35.221 35.259Z"/>
  <path fill="#383A48" fill-rule="evenodd" d="M372.201 168.644c0 20.646 16.785 37.493 37.453 37.493 20.669 0 37.454-16.847 37.454-37.493s-16.83-37.494-37.454-37.494c-20.624 0-37.453 16.848-37.453 37.494Zm4.464-.045c0-18.188 14.776-33.025 32.989-33.025 18.214 0 32.99 14.837 32.99 33.025s-14.776 33.025-32.99 33.025c-18.168 0-32.989-14.837-32.989-33.025Z" clip-rule="evenodd"/>
  <path fill="#383A48" d="M398.405 167.303a3.797 3.797 0 0 0 3.794-3.799 3.797 3.797 0 0 0-3.794-3.798 3.797 3.797 0 0 0-3.795 3.798 3.797 3.797 0 0 0 3.795 3.799ZM420.949 167.303a3.797 3.797 0 0 0 3.794-3.799 3.797 3.797 0 0 0-3.794-3.798 3.797 3.797 0 0 0-3.795 3.798 3.797 3.797 0 0 0 3.795 3.799ZM409.654 185.312a14.793 14.793 0 0 1-13.392-8.58c-.536-1.117 0-2.458 1.116-2.949 1.116-.536 2.455 0 2.946 1.117a10.285 10.285 0 0 0 9.33 5.988c3.973 0 7.634-2.368 9.33-5.988.536-1.117 1.831-1.609 2.947-1.117 1.116.536 1.607 1.832 1.116 2.949-2.411 5.184-7.634 8.58-13.393 8.58Z"/>
  <path fill="#F6E049" d="M257.161 199.881c19.452 0 35.222-15.786 35.222-35.259s-15.77-35.259-35.222-35.259-35.222 15.786-35.222 35.259 15.77 35.259 35.222 35.259Z"/>
  <path fill="#383A48" fill-rule="evenodd" d="M219.708 164.622c0 20.646 16.784 37.493 37.453 37.493 20.669 0 37.454-16.847 37.454-37.493s-16.83-37.494-37.454-37.494c-20.624 0-37.453 16.848-37.453 37.494Zm4.464-.045c0-18.188 14.776-33.025 32.989-33.025 18.169 0 32.99 14.837 32.99 33.025s-14.821 33.025-32.99 33.025c-18.169 0-32.989-14.837-32.989-33.025Z" clip-rule="evenodd"/>
  <path fill="#383A48" d="M245.867 163.281a3.797 3.797 0 0 0 3.795-3.798 3.797 3.797 0 0 0-3.795-3.799 3.797 3.797 0 0 0-3.794 3.799 3.797 3.797 0 0 0 3.794 3.798ZM268.411 163.281a3.797 3.797 0 0 0 3.794-3.798 3.797 3.797 0 0 0-3.794-3.799 3.797 3.797 0 0 0-3.795 3.799 3.797 3.797 0 0 0 3.795 3.798ZM257.161 181.29a14.792 14.792 0 0 1-13.392-8.58c-.536-1.117 0-2.458 1.116-2.949 1.116-.492 2.455 0 2.946 1.117a10.284 10.284 0 0 0 9.33 5.988c3.973 0 7.634-2.368 9.33-5.988.536-1.117 1.83-1.609 2.946-1.117 1.116.536 1.607 1.832 1.116 2.949-2.41 5.184-7.678 8.58-13.392 8.58ZM409.654 133.34c4.906 0 8.884-3.982 8.884-8.893 0-4.911-3.978-8.893-8.884-8.893-4.906 0-8.883 3.982-8.883 8.893 0 4.911 3.977 8.893 8.883 8.893Z"/>
  <path fill="#383A48" fill-rule="evenodd" d="M398.539 124.447c0 6.122 4.999 11.127 11.115 11.127 6.116 0 11.116-5.005 11.116-11.127 0-6.122-5-11.127-11.116-11.127s-11.115 5.005-11.115 11.127Zm4.464.045c0-3.665 2.991-6.659 6.651-6.659 3.661 0 6.652 2.994 6.652 6.659 0 3.664-2.991 6.658-6.652 6.658-3.66 0-6.651-2.994-6.651-6.658Z" clip-rule="evenodd"/>
  <path fill="#383A48" d="M409.654 133.34s.268 21.003-32.409 21.406c0 0 5.223-19.529 32.409-21.406Z"/>
  <path fill="#383A48" fill-rule="evenodd" d="m375.102 154.165-.759 2.86 2.947-.045c17.811-.223 26.248-6.524 30.221-11.753 4.42-5.854 4.42-11.708 4.42-11.932l-.045-2.368-2.366.178c-14.776.984-23.347 7.151-27.9 12.111-5 5.452-6.473 10.725-6.518 10.949Zm5.491-1.743c2.455-4.961 9.375-14.524 26.472-16.58a17.996 17.996 0 0 1-3.125 6.748c-4.419 5.765-12.455 9.161-23.347 9.832Z" clip-rule="evenodd"/>
  <path fill="#383A48" d="M409.654 133.34s-.267 21.003 32.41 21.406c0 0-5.223-19.529-32.41-21.406Z"/>
  <path fill="#383A48" fill-rule="evenodd" d="m442.064 156.98 2.946.045-.759-2.86c-.045-.224-1.518-5.497-6.518-10.949-4.598-4.96-13.124-11.083-27.9-12.111l-2.366-.178-.045 2.368c0 .268 0 6.078 4.42 11.932 7.232 9.474 20.401 11.619 30.222 11.753Zm-29.865-21.138c1.071 4.871 5.803 15.284 26.517 16.58-2.456-4.961-9.375-14.524-26.517-16.58Z" clip-rule="evenodd"/>
  <path fill="#383A48" d="M239.707 133.921s15.936 12.781 34.864 0c0 0-15.624-10.412-34.864 0Z"/>
  <path fill="#383A48" fill-rule="evenodd" d="M249.528 140.937c2.142.536 4.732.938 7.589.938 5.401 0 11.874-1.474 18.659-6.077l2.768-1.877-2.768-1.832c-.669-.447-16.963-11.038-37.141-.09l-2.946 1.609 2.634 2.1.026.02c.403.31 4.634 3.56 11.179 5.209Zm-5.223-6.748c4.776 2.503 14.419 5.809 25.713-.134-4.821-2.011-14.33-4.603-25.713.134Z" clip-rule="evenodd"/>
  <path fill="#383A48" d="M229.975 299.714v12.066h-12.053c-6.652 0-12.053-5.407-12.053-12.066 0-6.658 5.401-12.066 12.053-12.066 6.696.045 12.053 5.408 12.053 12.066Z"/>
  <path fill="#383A48" fill-rule="evenodd" d="M217.922 314.014h12.053c1.25 0 2.232-.983 2.232-2.234v-12.066c0-7.91-6.384-14.3-14.285-14.3-7.902 0-14.285 6.39-14.285 14.3 0 7.91 6.428 14.3 14.285 14.3Zm-9.777-14.255c0-5.407 4.42-9.832 9.821-9.832 5.402 0 9.777 4.38 9.821 9.832v9.831h-9.821c-5.401 0-9.821-4.424-9.821-9.831Z" clip-rule="evenodd"/>
  <path fill="#383A48" d="M291.847 311.78h-12.053v-12.066c0-6.658 5.401-12.066 12.053-12.066 6.651 0 12.053 5.408 12.053 12.066 0 6.659-5.402 12.066-12.053 12.066Z"/>
  <path fill="#383A48" fill-rule="evenodd" d="M279.794 314.014h12.053c7.902 0 14.285-6.39 14.285-14.3 0-7.91-6.383-14.3-14.285-14.3-7.901 0-14.285 6.435-14.285 14.3v12.066c0 1.251.982 2.234 2.232 2.234Zm12.098-4.468h-9.821v-9.832c0-5.407 4.419-9.831 9.821-9.831 5.401 0 9.821 4.424 9.821 9.831 0 5.407-4.42 9.832-9.821 9.832Z" clip-rule="evenodd"/>
  <path fill="#383A48" d="M229.975 311.78h49.819s-8.259-10.323-24.463-10.323c-16.16 0-25.356 10.323-25.356 10.323Z"/>
  <path fill="#383A48" fill-rule="evenodd" d="M229.975 314.014h49.863c.849 0 1.608-.536 1.965-1.296a2.278 2.278 0 0 0-.268-2.368c-.357-.447-9.152-11.172-26.204-11.172-17.009 0-26.651 10.636-27.053 11.083a2.273 2.273 0 0 0-.357 2.413 2.256 2.256 0 0 0 2.054 1.34Zm44.06-4.468h-37.9c4.018-2.682 10.535-5.855 19.196-5.855 8.794 0 14.999 3.173 18.704 5.855Z" clip-rule="evenodd"/>
  <path fill="#383A48" d="m108.601 27.377-4.91 5.899-5.223-6.167C89.629 16.607 73.96 15.222 63.38 23.98c-10.714 8.893-12.142 24.802-3.17 35.437l43.749 51.973 43.167-52.017c8.839-10.636 7.366-26.456-3.303-35.304-10.624-8.759-26.383-7.329-35.222 3.307Z"/>
  <path fill="#E0719E" d="m101.035 21.973-4.911 5.9-5.223-6.168c-8.839-10.502-24.508-11.887-35.088-3.128-10.714 8.893-12.142 24.802-3.17 35.438l43.749 51.972L139.56 53.97c8.838-10.636 7.365-26.455-3.304-35.304-10.624-8.759-26.383-7.329-35.221 3.307Z"/>
  <path fill="#383A48" fill-rule="evenodd" d="M94.65 107.462a2.208 2.208 0 0 0 1.697.804c.67 0 1.295-.313 1.741-.804l43.168-52.017c4.642-5.631 6.83-12.692 6.16-19.976-.669-7.284-4.107-13.853-9.732-18.5-11.562-9.564-28.748-8-38.346 3.574l-3.214 3.888-3.482-4.156C82.999 8.88 65.857 7.36 54.385 16.88c-5.67 4.692-9.107 11.306-9.777 18.59-.67 7.284 1.563 14.434 6.295 20.02l43.748 51.973ZM57.243 20.32c4.24-3.53 9.374-5.229 14.508-5.229 6.517 0 12.946 2.726 17.5 8.089l5.222 6.167c.402.536 1.027.804 1.696.804.67 0 1.295-.313 1.697-.804l4.91-5.9c7.991-9.652 22.41-10.992 32.052-2.993 4.688 3.888 7.634 9.384 8.17 15.462.535 6.078-1.295 12.021-5.179 16.713l-41.471 49.962L54.34 52.629c-3.929-4.692-5.803-10.636-5.268-16.758.536-6.122 3.438-11.619 8.17-15.551Z" clip-rule="evenodd"/>
  <path fill="#F6E049" d="M575.361 214.404 474.339 430.472H439.43l101.067-216.068h34.864Z"/>
  <path fill="#383A48" fill-rule="evenodd" d="M439.43 432.706h34.909c.893 0 1.652-.536 2.009-1.296L577.37 215.343c.313-.671.268-1.52-.134-2.145a2.25 2.25 0 0 0-1.875-1.028h-34.909c-.848 0-1.652.491-2.009 1.296L437.421 429.533c-.313.671-.268 1.52.134 2.145a2.25 2.25 0 0 0 1.875 1.028Zm33.48-4.469h-29.954l98.969-211.598h29.954L472.91 428.237Z" clip-rule="evenodd"/>
  <path fill="#F6E049" d="M639.644 214.404 538.622 430.472h-34.91l101.023-216.068h34.909Z"/>
  <path fill="#383A48" fill-rule="evenodd" d="M503.712 432.706h34.91c.892 0 1.651-.536 2.008-1.296l101.023-216.067c.312-.671.268-1.52-.134-2.145a2.25 2.25 0 0 0-1.875-1.028h-34.909c-.848 0-1.652.491-2.009 1.296L501.704 429.533c-.313.671-.268 1.52.134 2.145a2.249 2.249 0 0 0 1.874 1.028Zm33.481-4.469h-29.954l98.969-211.598h29.954l-98.969 211.598Z" clip-rule="evenodd"/>
  <path fill="#AAC6FC" d="M652.813 111.756v3.932c0 38.432-31.114 69.58-69.505 69.58-38.392 0-69.506-31.148-69.506-69.58v-3.932h30.757v2.725c0 21.406 17.366 38.79 38.749 38.79 21.383 0 38.748-17.384 38.748-38.79v-2.725h30.757Z"/>
  <path fill="#383A48" fill-rule="evenodd" d="M511.525 115.688c0 39.594 32.186 71.814 71.738 71.814 39.596 0 71.782-32.22 71.738-71.814v-3.933a2.211 2.211 0 0 0-2.232-2.234h-30.758c-1.25 0-2.232.983-2.232 2.234v2.726c0 20.155-16.383 36.555-36.516 36.555s-36.516-16.4-36.516-36.555v-2.726a2.212 2.212 0 0 0-2.232-2.234h-30.758c-1.25 0-2.232.983-2.232 2.234v3.933Zm4.464 0v-1.698h26.293v.491c0 22.613 18.392 41.024 40.981 41.024 22.588 0 40.98-18.411 40.98-41.024v-.491h26.294v1.698c0 37.136-30.178 67.345-67.274 67.345-37.097 0-67.274-30.209-67.274-67.345Z" clip-rule="evenodd"/>
  <path fill="#AAC6FC" d="M58.286 388.822c-19.598 0-35.535 15.909-35.535 35.572 0 19.618 15.893 35.572 35.535 35.572 19.597 0 35.534-15.909 35.534-35.572 0-19.663-15.937-35.572-35.534-35.572Z"/>
  <path fill="#383A48" fill-rule="evenodd" d="M20.52 424.394c0 20.87 16.963 37.807 37.766 37.807 20.802 0 37.766-16.937 37.766-37.807 0-20.869-16.964-37.806-37.766-37.806-20.848 0-37.767 16.937-37.767 37.806Zm4.464 0c0-18.367 14.954-33.337 33.302-33.337 18.347 0 33.302 14.97 33.302 33.337 0 18.367-14.91 33.338-33.302 33.338s-33.302-14.971-33.302-33.338Z" clip-rule="evenodd"/>
  <path fill="#383A48" d="M342.243 60.873c-.29-.503-.387-1.118-.201-1.69a2.21 2.21 0 0 1 2.745-1.587l7.539 1.99c4.391 1.178 8.952-1.459 10.129-5.854l2.01-7.509c1.813-6.776 8.811-10.82 15.618-9.027l7.501 2.012a8.235 8.235 0 0 0 6.27-.837c1.933-1.117 3.287-2.88 3.859-5.017l2.01-7.508c.882-3.297 2.957-6.044 5.934-7.765 2.977-1.72 6.391-2.146 9.662-1.301l7.501 2.012a8.231 8.231 0 0 0 6.269-.838c1.933-1.117 3.288-2.88 3.86-5.016l2.206-8.242a2.209 2.209 0 0 1 2.744-1.586 2.212 2.212 0 0 1 1.585 2.748l-2.206 8.24c-.882 3.297-2.957 6.045-5.934 7.765a12.835 12.835 0 0 1-9.662 1.302l-7.639-1.984a8.234 8.234 0 0 0-6.27.837c-1.933 1.117-3.287 2.88-3.859 5.017l-2.01 7.509c-.882 3.296-2.957 6.044-5.934 7.764a12.836 12.836 0 0 1-9.662 1.301l-7.423-2.056c-4.391-1.178-8.953 1.459-10.129 5.854l-2.01 7.509c-1.814 6.776-8.811 10.82-15.619 9.027l-7.539-1.99c-.594-.225-1.055-.577-1.345-1.08ZM632.323 189.2h14.732v4.469h-14.732z"/>
  <path fill="#383A48" d="M637.412 184.061h4.464v14.747h-4.464zM.922 160.779h14.732v4.469H.922z"/>
  <path fill="#383A48" d="M6.056 155.684h4.464v14.747H6.056zM581.03 95.891h4.464v31.729h-4.464z"/>
  <path fill="#383A48" d="M567.415 109.521h31.695v4.469h-31.695z"/>
  <path fill="#383A48" d="m570.559 121.357 22.412-22.439 3.157 3.16-22.412 22.44z"/>
  <path fill="#383A48" d="m570.488 102.157 3.156-3.16 22.412 22.436-3.156 3.16z"/>
  <mask id="a" width="114" height="131" x="345" y="280" maskUnits="userSpaceOnUse" style="mask-type:luminance">
    <path fill="#fff" d="M345.371 280.543h112.941v129.596H345.371z"/>
  </mask>
  <g mask="url(#a)">
    <path fill="#F3F6E6" d="M453.161 444.815c1.134-3.814 2.027-8.756 2.027-12.954 0-12.258-5.211-23.293-13.534-31.066-16.235-15.545-20.794-31.018-11.482-55.007l-50.515 3.766-9.987 78.253a45.562 45.562 0 0 0-.193 4.078c0 23.533 19.178 42.605 42.843 42.605a42.853 42.853 0 0 0 33.677-16.265"/>
    <path stroke="#383A48" stroke-dasharray="18" stroke-linecap="round" stroke-width="6" d="M453.161 444.815c1.134-3.814 2.027-8.756 2.027-12.954 0-12.258-5.211-23.293-13.534-31.066-16.235-15.545-20.794-31.018-11.482-55.007l-50.515 3.766-9.987 78.253a45.562 45.562 0 0 0-.193 4.078c0 23.533 19.178 42.605 42.843 42.605a42.853 42.853 0 0 0 33.677-16.265"/>
    <path fill="#F3F6E6" stroke="#383A48" stroke-dasharray="18" stroke-linecap="round" stroke-width="6" d="M435.828 297.567a4.121 4.121 0 0 0-3.833-.752c-6.721 2.111-18.877 6.671-24.604 13.682-3.008 3.688-5.313 7.642-6.599 11.45a1.227 1.227 0 0 0 .752 1.553c.412.146.849.049 1.165-.218l11.185 13.221a1.202 1.202 0 0 0-.364 1.334c.17.485.655.801 1.141.801.145 0 .291-.025.412-.073 4.659-1.723 9.536-5.458 13.685-10.553 5.726-7.011 7.812-19.819 8.54-26.83a4.086 4.086 0 0 0-1.48-3.615Z"/>
    <path fill="#F3F6E6" d="M428.842 349.502a28.635 28.635 0 0 0 1.791-10.356c-.215-15.065-12.321-27.416-27.269-27.824a27.953 27.953 0 0 0-9.241 1.297c-3.94 1.25-8.214.769-11.724-1.369l-13.013-7.977c-3.081-1.898-7.116-.409-8.286 3.027l-3.677 10.885c-2.006 5.935-.573 12.494 3.749 17.011l20.153 20.976"/>
    <path stroke="#383A48" stroke-dasharray="18" stroke-linecap="round" stroke-width="6" d="M428.842 349.502a28.635 28.635 0 0 0 1.791-10.356c-.215-15.065-12.321-27.416-27.269-27.824a27.953 27.953 0 0 0-9.241 1.297c-3.94 1.25-8.214.769-11.724-1.369l-13.013-7.977c-3.081-1.898-7.116-.409-8.286 3.027l-3.677 10.885c-2.006 5.935-.573 12.494 3.749 17.011l20.153 20.976"/>
    <path fill="#F3F6E6" d="M409.654 337.053c1.226-3.591 3.391-7.399 6.35-10.99 5.532-6.773 17.534-11.231 23.836-13.208 1.972-.626 3.92.988 3.728 3.037-.674 6.58-2.67 19.257-8.202 26.03-4.017 4.916-8.683 8.507-13.061 10.122"/>
    <path stroke="#383A48" stroke-dasharray="18" stroke-linecap="round" stroke-width="6" d="M409.654 337.053c1.226-3.591 3.391-7.399 6.35-10.99 5.532-6.773 17.534-11.231 23.836-13.208 1.972-.626 3.92.988 3.728 3.037-.674 6.58-2.67 19.257-8.202 26.03-4.017 4.916-8.683 8.507-13.061 10.122"/>
  </g>
</svg>
