<svg xmlns="http://www.w3.org/2000/svg" fill="none" viewBox="0 0 808 774">
  <path fill="#7FD6C2" fill-rule="evenodd" d="M429.016 773.106c162.178 0 284.58-65.384 356.732-338.827C857.901 160.837 745.173 0 582.995 0S38.827 53.478 2.953 273.846c-35.875 220.369 263.885 499.26 426.063 499.26Z" clip-rule="evenodd"/>
  <mask id="a" width="808" height="774" x="0" y="0" maskUnits="userSpaceOnUse" style="mask-type:luminance">
    <path fill="#fff" fill-rule="evenodd" d="M429.016 773.106c162.178 0 284.58-65.384 356.732-338.827C857.901 160.837 745.173 0 582.995 0S38.827 53.478 2.953 273.846c-35.875 220.369 263.885 499.26 426.063 499.26Z" clip-rule="evenodd"/>
  </mask>
  <g fill="#F3F6E6" mask="url(#a)">
    <path d="M543.152 768.466c-75.687 0-131.147-13.609-169.53-41.574-34.071-24.812-52.061-58.586-69.387-91.281-24.041-45.225-48.828-91.944-115.728-116.175-53.553-19.335-98.816-57.009-130.981-108.956-16.829-27.218-29.844-58.004-38.714-91.612-9.368-35.351-14.093-73.854-14.093-114.516 0-2.323-1.824-4.149-4.145-4.149-2.321 0-4.145 1.826-4.145 4.149v492.832c0 43.815 35.647 79.497 79.418 79.497h467.305c2.321 0 4.145-1.825 4.145-4.149 0-2.323-1.824-4.066-4.145-4.066ZM795.813 443.398c-21.472 0-31.963 20.691-44.105 44.599-6.429 12.691-13.75 27.081-23.481 39.862-1.161 1.564-2.411 3.083-3.661 4.603-6.116 7.328-20.044 11.172-36.114 15.685-1.429.402-2.902.804-4.375 1.207-6.518 1.832-13.526 3.888-20.535 6.435-4.509 1.653-8.526 3.307-12.276 5.05-16.875 7.954-28.392 18.5-35.222 32.13-.268.492-.491 1.028-.759 1.52-.312.67-.268 1.519.134 2.145a2.253 2.253 0 0 0 1.875 1.028h178.474c1.25 0 2.232-.983 2.232-2.235V445.632c.045-1.251-.982-2.234-2.187-2.234Z"/>
  </g>
</svg>
