<svg width="655" height="463" viewBox="0 0 655 463" fill="none" xmlns="http://www.w3.org/2000/svg">
<path d="M522.953 391.37C522.328 390.699 521.391 390.476 520.542 390.789C516.034 392.442 512.016 394.096 508.266 395.839C491.392 403.793 479.875 414.339 473.045 427.969C472.777 428.461 472.553 428.997 472.286 429.489C471.973 430.159 472.018 431.008 472.42 431.634C472.821 432.259 473.536 432.662 474.294 432.662H503.668C504.516 432.662 505.32 432.17 505.677 431.366L523.265 393.783C523.712 393.023 523.533 392.04 522.953 391.37Z" fill="#383A48"/>
<path d="M588.173 362.322C587.191 361.741 585.941 361.965 585.227 362.859C584.066 364.423 582.816 365.942 581.566 367.461C575.451 374.79 561.523 378.634 545.452 383.147C544.023 383.549 542.55 383.951 541.077 384.354C540.452 384.532 539.916 384.979 539.649 385.56L519.114 429.489C518.801 430.159 518.846 431.008 519.248 431.634C519.649 432.259 520.364 432.662 521.123 432.662H556.032C556.88 432.662 557.683 432.17 558.041 431.366L589.021 365.138C589.512 364.11 589.155 362.903 588.173 362.322Z" fill="#383A48"/>
<path d="M383.405 421.311C384.638 421.311 385.637 420.31 385.637 419.076C385.637 417.842 384.638 416.842 383.405 416.842C382.173 416.842 381.173 417.842 381.173 419.076C381.173 420.31 382.173 421.311 383.405 421.311Z" fill="#383A48"/>
<path d="M383.405 432.349C384.638 432.349 385.637 431.348 385.637 430.114C385.637 428.88 384.638 427.88 383.405 427.88C382.173 427.88 381.173 428.88 381.173 430.114C381.173 431.348 382.173 432.349 383.405 432.349Z" fill="#383A48"/>
<path d="M372.424 421.311C373.657 421.311 374.656 420.31 374.656 419.076C374.656 417.842 373.657 416.842 372.424 416.842C371.191 416.842 370.192 417.842 370.192 419.076C370.192 420.31 371.191 421.311 372.424 421.311Z" fill="#383A48"/>
<path d="M372.424 432.349C373.657 432.349 374.656 431.348 374.656 430.114C374.656 428.88 373.657 427.88 372.424 427.88C371.191 427.88 370.192 428.88 370.192 430.114C370.192 431.348 371.191 432.349 372.424 432.349Z" fill="#383A48"/>
<path d="M361.398 421.311C362.63 421.311 363.63 420.31 363.63 419.076C363.63 417.842 362.63 416.842 361.398 416.842C360.165 416.842 359.166 417.842 359.166 419.076C359.166 420.31 360.165 421.311 361.398 421.311Z" fill="#383A48"/>
<path d="M361.398 432.349C362.63 432.349 363.63 431.348 363.63 430.114C363.63 428.88 362.63 427.88 361.398 427.88C360.165 427.88 359.166 428.88 359.166 430.114C359.166 431.348 360.165 432.349 361.398 432.349Z" fill="#383A48"/>
<path d="M350.371 421.311C351.604 421.311 352.603 420.31 352.603 419.076C352.603 417.842 351.604 416.842 350.371 416.842C349.138 416.842 348.139 417.842 348.139 419.076C348.139 420.31 349.138 421.311 350.371 421.311Z" fill="#383A48"/>
<path d="M350.371 432.349C351.604 432.349 352.603 431.348 352.603 430.114C352.603 428.88 351.604 427.88 350.371 427.88C349.138 427.88 348.139 428.88 348.139 430.114C348.139 431.348 349.138 432.349 350.371 432.349Z" fill="#383A48"/>
<path d="M339.39 421.311C340.622 421.311 341.622 420.31 341.622 419.076C341.622 417.842 340.622 416.842 339.39 416.842C338.157 416.842 337.158 417.842 337.158 419.076C337.158 420.31 338.157 421.311 339.39 421.311Z" fill="#383A48"/>
<path d="M339.39 432.349C340.622 432.349 341.622 431.348 341.622 430.114C341.622 428.88 340.622 427.88 339.39 427.88C338.157 427.88 337.158 428.88 337.158 430.114C337.158 431.348 338.157 432.349 339.39 432.349Z" fill="#383A48"/>
<path d="M328.363 421.311C329.596 421.311 330.595 420.31 330.595 419.076C330.595 417.842 329.596 416.842 328.363 416.842C327.131 416.842 326.131 417.842 326.131 419.076C326.131 420.31 327.131 421.311 328.363 421.311Z" fill="#383A48"/>
<path d="M328.363 432.349C329.596 432.349 330.595 431.348 330.595 430.114C330.595 428.88 329.596 427.88 328.363 427.88C327.131 427.88 326.131 428.88 326.131 430.114C326.131 431.348 327.131 432.349 328.363 432.349Z" fill="#383A48"/>
<path d="M317.337 421.311C318.57 421.311 319.569 420.31 319.569 419.076C319.569 417.842 318.57 416.842 317.337 416.842C316.104 416.842 315.105 417.842 315.105 419.076C315.105 420.31 316.104 421.311 317.337 421.311Z" fill="#383A48"/>
<path d="M317.337 432.349C318.57 432.349 319.569 431.348 319.569 430.114C319.569 428.88 318.57 427.88 317.337 427.88C316.104 427.88 315.105 428.88 315.105 430.114C315.105 431.348 316.104 432.349 317.337 432.349Z" fill="#383A48"/>
<path d="M306.356 421.311C307.588 421.311 308.588 420.31 308.588 419.076C308.588 417.842 307.588 416.842 306.356 416.842C305.123 416.842 304.124 417.842 304.124 419.076C304.124 420.31 305.123 421.311 306.356 421.311Z" fill="#383A48"/>
<path d="M306.356 432.349C307.588 432.349 308.588 431.348 308.588 430.114C308.588 428.88 307.588 427.88 306.356 427.88C305.123 427.88 304.124 428.88 304.124 430.114C304.124 431.348 305.123 432.349 306.356 432.349Z" fill="#383A48"/>
<path d="M295.329 421.311C296.562 421.311 297.561 420.31 297.561 419.076C297.561 417.842 296.562 416.842 295.329 416.842C294.096 416.842 293.097 417.842 293.097 419.076C293.097 420.31 294.096 421.311 295.329 421.311Z" fill="#383A48"/>
<path d="M295.329 432.349C296.562 432.349 297.561 431.348 297.561 430.114C297.561 428.88 296.562 427.88 295.329 427.88C294.096 427.88 293.097 428.88 293.097 430.114C293.097 431.348 294.096 432.349 295.329 432.349Z" fill="#383A48"/>
<path d="M284.303 421.311C285.536 421.311 286.535 420.31 286.535 419.076C286.535 417.842 285.536 416.842 284.303 416.842C283.07 416.842 282.071 417.842 282.071 419.076C282.071 420.31 283.07 421.311 284.303 421.311Z" fill="#383A48"/>
<path d="M284.303 432.349C285.536 432.349 286.535 431.348 286.535 430.114C286.535 428.88 285.536 427.88 284.303 427.88C283.07 427.88 282.071 428.88 282.071 430.114C282.071 431.348 283.07 432.349 284.303 432.349Z" fill="#383A48"/>
<path d="M273.321 421.311C274.554 421.311 275.553 420.31 275.553 419.076C275.553 417.842 274.554 416.842 273.321 416.842C272.088 416.842 271.089 417.842 271.089 419.076C271.089 420.31 272.088 421.311 273.321 421.311Z" fill="#383A48"/>
<path d="M273.321 432.349C274.554 432.349 275.553 431.348 275.553 430.114C275.553 428.88 274.554 427.88 273.321 427.88C272.088 427.88 271.089 428.88 271.089 430.114C271.089 431.348 272.088 432.349 273.321 432.349Z" fill="#383A48"/>
<path d="M262.295 421.311C263.528 421.311 264.527 420.31 264.527 419.076C264.527 417.842 263.528 416.842 262.295 416.842C261.062 416.842 260.063 417.842 260.063 419.076C260.063 420.31 261.062 421.311 262.295 421.311Z" fill="#383A48"/>
<path d="M262.295 432.349C263.528 432.349 264.527 431.348 264.527 430.114C264.527 428.88 263.528 427.88 262.295 427.88C261.062 427.88 260.063 428.88 260.063 430.114C260.063 431.348 261.062 432.349 262.295 432.349Z" fill="#383A48"/>
<path d="M251.269 421.311C252.501 421.311 253.501 420.31 253.501 419.076C253.501 417.842 252.501 416.842 251.269 416.842C250.036 416.842 249.037 417.842 249.037 419.076C249.037 420.31 250.036 421.311 251.269 421.311Z" fill="#383A48"/>
<path d="M251.269 432.349C252.501 432.349 253.501 431.348 253.501 430.114C253.501 428.88 252.501 427.88 251.269 427.88C250.036 427.88 249.037 428.88 249.037 430.114C249.037 431.348 250.036 432.349 251.269 432.349Z" fill="#383A48"/>
<path d="M240.287 421.311C241.519 421.311 242.519 420.31 242.519 419.076C242.519 417.842 241.519 416.842 240.287 416.842C239.054 416.842 238.055 417.842 238.055 419.076C238.055 420.31 239.054 421.311 240.287 421.311Z" fill="#383A48"/>
<path d="M240.287 432.349C241.519 432.349 242.519 431.348 242.519 430.114C242.519 428.88 241.519 427.88 240.287 427.88C239.054 427.88 238.055 428.88 238.055 430.114C238.055 431.348 239.054 432.349 240.287 432.349Z" fill="#383A48"/>
<path d="M229.26 421.311C230.493 421.311 231.492 420.31 231.492 419.076C231.492 417.842 230.493 416.842 229.26 416.842C228.028 416.842 227.028 417.842 227.028 419.076C227.028 420.31 228.028 421.311 229.26 421.311Z" fill="#383A48"/>
<path d="M229.26 432.349C230.493 432.349 231.492 431.348 231.492 430.114C231.492 428.88 230.493 427.88 229.26 427.88C228.028 427.88 227.028 428.88 227.028 430.114C227.028 431.348 228.028 432.349 229.26 432.349Z" fill="#383A48"/>
<path d="M218.234 421.311C219.467 421.311 220.467 420.31 220.467 419.076C220.467 417.842 219.467 416.842 218.234 416.842C217.002 416.842 216.002 417.842 216.002 419.076C216.002 420.31 217.002 421.311 218.234 421.311Z" fill="#383A48"/>
<path d="M218.234 432.349C219.467 432.349 220.467 431.348 220.467 430.114C220.467 428.88 219.467 427.88 218.234 427.88C217.002 427.88 216.002 428.88 216.002 430.114C216.002 431.348 217.002 432.349 218.234 432.349Z" fill="#383A48"/>
<path d="M207.253 421.311C208.485 421.311 209.485 420.31 209.485 419.076C209.485 417.842 208.485 416.842 207.253 416.842C206.02 416.842 205.021 417.842 205.021 419.076C205.021 420.31 206.02 421.311 207.253 421.311Z" fill="#383A48"/>
<path d="M207.253 432.349C208.485 432.349 209.485 431.348 209.485 430.114C209.485 428.88 208.485 427.88 207.253 427.88C206.02 427.88 205.021 428.88 205.021 430.114C205.021 431.348 206.02 432.349 207.253 432.349Z" fill="#383A48"/>
<path d="M196.226 421.311C197.459 421.311 198.458 420.31 198.458 419.076C198.458 417.842 197.459 416.842 196.226 416.842C194.993 416.842 193.994 417.842 193.994 419.076C193.994 420.31 194.993 421.311 196.226 421.311Z" fill="#383A48"/>
<path d="M196.226 432.349C197.459 432.349 198.458 431.348 198.458 430.114C198.458 428.88 197.459 427.88 196.226 427.88C194.993 427.88 193.994 428.88 193.994 430.114C193.994 431.348 194.993 432.349 196.226 432.349Z" fill="#383A48"/>
<path d="M185.2 421.311C186.433 421.311 187.432 420.31 187.432 419.076C187.432 417.842 186.433 416.842 185.2 416.842C183.967 416.842 182.968 417.842 182.968 419.076C182.968 420.31 183.967 421.311 185.2 421.311Z" fill="#383A48"/>
<path d="M185.2 432.349C186.433 432.349 187.432 431.348 187.432 430.114C187.432 428.88 186.433 427.88 185.2 427.88C183.967 427.88 182.968 428.88 182.968 430.114C182.968 431.348 183.967 432.349 185.2 432.349Z" fill="#383A48"/>
<path d="M174.218 145.763C175.451 145.763 176.45 144.763 176.45 143.529C176.45 142.295 175.451 141.294 174.218 141.294C172.986 141.294 171.986 142.295 171.986 143.529C171.986 144.763 172.986 145.763 174.218 145.763Z" fill="#383A48"/>
<path d="M174.218 156.757C175.451 156.757 176.45 155.756 176.45 154.522C176.45 153.288 175.451 152.288 174.218 152.288C172.986 152.288 171.986 153.288 171.986 154.522C171.986 155.756 172.986 156.757 174.218 156.757Z" fill="#383A48"/>
<path d="M174.218 167.795C175.451 167.795 176.45 166.794 176.45 165.56C176.45 164.326 175.451 163.326 174.218 163.326C172.986 163.326 171.986 164.326 171.986 165.56C171.986 166.794 172.986 167.795 174.218 167.795Z" fill="#383A48"/>
<path d="M174.218 178.833C175.451 178.833 176.45 177.832 176.45 176.598C176.45 175.364 175.451 174.364 174.218 174.364C172.986 174.364 171.986 175.364 171.986 176.598C171.986 177.832 172.986 178.833 174.218 178.833Z" fill="#383A48"/>
<path d="M174.218 189.826C175.451 189.826 176.45 188.825 176.45 187.591C176.45 186.357 175.451 185.357 174.218 185.357C172.986 185.357 171.986 186.357 171.986 187.591C171.986 188.825 172.986 189.826 174.218 189.826Z" fill="#383A48"/>
<path d="M174.218 200.864C175.451 200.864 176.45 199.863 176.45 198.629C176.45 197.395 175.451 196.395 174.218 196.395C172.986 196.395 171.986 197.395 171.986 198.629C171.986 199.863 172.986 200.864 174.218 200.864Z" fill="#383A48"/>
<path d="M174.218 211.902C175.451 211.902 176.45 210.901 176.45 209.667C176.45 208.433 175.451 207.433 174.218 207.433C172.986 207.433 171.986 208.433 171.986 209.667C171.986 210.901 172.986 211.902 174.218 211.902Z" fill="#383A48"/>
<path d="M174.218 222.895C175.451 222.895 176.45 221.895 176.45 220.661C176.45 219.427 175.451 218.426 174.218 218.426C172.986 218.426 171.986 219.427 171.986 220.661C171.986 221.895 172.986 222.895 174.218 222.895Z" fill="#383A48"/>
<path d="M174.218 233.933C175.451 233.933 176.45 232.933 176.45 231.699C176.45 230.465 175.451 229.464 174.218 229.464C172.986 229.464 171.986 230.465 171.986 231.699C171.986 232.933 172.986 233.933 174.218 233.933Z" fill="#383A48"/>
<path d="M174.218 244.971C175.451 244.971 176.45 243.971 176.45 242.737C176.45 241.503 175.451 240.502 174.218 240.502C172.986 240.502 171.986 241.503 171.986 242.737C171.986 243.971 172.986 244.971 174.218 244.971Z" fill="#383A48"/>
<path d="M174.218 255.964C175.451 255.964 176.45 254.964 176.45 253.73C176.45 252.496 175.451 251.496 174.218 251.496C172.986 251.496 171.986 252.496 171.986 253.73C171.986 254.964 172.986 255.964 174.218 255.964Z" fill="#383A48"/>
<path d="M174.218 267.002C175.451 267.002 176.45 266.002 176.45 264.768C176.45 263.534 175.451 262.534 174.218 262.534C172.986 262.534 171.986 263.534 171.986 264.768C171.986 266.002 172.986 267.002 174.218 267.002Z" fill="#383A48"/>
<path d="M174.218 278.04C175.451 278.04 176.45 277.04 176.45 275.806C176.45 274.572 175.451 273.572 174.218 273.572C172.986 273.572 171.986 274.572 171.986 275.806C171.986 277.04 172.986 278.04 174.218 278.04Z" fill="#383A48"/>
<path d="M174.218 289.034C175.451 289.034 176.45 288.033 176.45 286.799C176.45 285.565 175.451 284.565 174.218 284.565C172.986 284.565 171.986 285.565 171.986 286.799C171.986 288.033 172.986 289.034 174.218 289.034Z" fill="#383A48"/>
<path d="M174.218 300.072C175.451 300.072 176.45 299.071 176.45 297.837C176.45 296.603 175.451 295.603 174.218 295.603C172.986 295.603 171.986 296.603 171.986 297.837C171.986 299.071 172.986 300.072 174.218 300.072Z" fill="#383A48"/>
<path d="M174.218 311.11C175.451 311.11 176.45 310.109 176.45 308.875C176.45 307.641 175.451 306.641 174.218 306.641C172.986 306.641 171.986 307.641 171.986 308.875C171.986 310.109 172.986 311.11 174.218 311.11Z" fill="#383A48"/>
<path d="M174.218 322.103C175.451 322.103 176.45 321.103 176.45 319.869C176.45 318.635 175.451 317.634 174.218 317.634C172.986 317.634 171.986 318.635 171.986 319.869C171.986 321.103 172.986 322.103 174.218 322.103Z" fill="#383A48"/>
<path d="M174.218 333.141C175.451 333.141 176.45 332.141 176.45 330.907C176.45 329.673 175.451 328.672 174.218 328.672C172.986 328.672 171.986 329.673 171.986 330.907C171.986 332.141 172.986 333.141 174.218 333.141Z" fill="#383A48"/>
<path d="M174.218 344.179C175.451 344.179 176.45 343.179 176.45 341.945C176.45 340.711 175.451 339.71 174.218 339.71C172.986 339.71 171.986 340.711 171.986 341.945C171.986 343.179 172.986 344.179 174.218 344.179Z" fill="#383A48"/>
<path d="M174.218 355.172C175.451 355.172 176.45 354.172 176.45 352.938C176.45 351.704 175.451 350.703 174.218 350.703C172.986 350.703 171.986 351.704 171.986 352.938C171.986 354.172 172.986 355.172 174.218 355.172Z" fill="#383A48"/>
<path d="M174.218 366.21C175.451 366.21 176.45 365.21 176.45 363.976C176.45 362.742 175.451 361.741 174.218 361.741C172.986 361.741 171.986 362.742 171.986 363.976C171.986 365.21 172.986 366.21 174.218 366.21Z" fill="#383A48"/>
<path d="M174.218 377.248C175.451 377.248 176.45 376.248 176.45 375.014C176.45 373.78 175.451 372.779 174.218 372.779C172.986 372.779 171.986 373.78 171.986 375.014C171.986 376.248 172.986 377.248 174.218 377.248Z" fill="#383A48"/>
<path d="M174.218 388.242C175.451 388.242 176.45 387.241 176.45 386.007C176.45 384.773 175.451 383.773 174.218 383.773C172.986 383.773 171.986 384.773 171.986 386.007C171.986 387.241 172.986 388.242 174.218 388.242Z" fill="#383A48"/>
<path d="M174.218 399.279C175.451 399.279 176.45 398.279 176.45 397.045C176.45 395.811 175.451 394.811 174.218 394.811C172.986 394.811 171.986 395.811 171.986 397.045C171.986 398.279 172.986 399.279 174.218 399.279Z" fill="#383A48"/>
<path d="M174.218 410.318C175.451 410.318 176.45 409.317 176.45 408.083C176.45 406.849 175.451 405.849 174.218 405.849C172.986 405.849 171.986 406.849 171.986 408.083C171.986 409.317 172.986 410.318 174.218 410.318Z" fill="#383A48"/>
<path d="M174.218 421.311C175.451 421.311 176.45 420.31 176.45 419.076C176.45 417.842 175.451 416.842 174.218 416.842C172.986 416.842 171.986 417.842 171.986 419.076C171.986 420.31 172.986 421.311 174.218 421.311Z" fill="#383A48"/>
<path d="M174.218 432.349C175.451 432.349 176.45 431.348 176.45 430.114C176.45 428.88 175.451 427.88 174.218 427.88C172.986 427.88 171.986 428.88 171.986 430.114C171.986 431.348 172.986 432.349 174.218 432.349Z" fill="#383A48"/>
<path d="M163.192 145.763C164.425 145.763 165.424 144.763 165.424 143.529C165.424 142.295 164.425 141.294 163.192 141.294C161.959 141.294 160.96 142.295 160.96 143.529C160.96 144.763 161.959 145.763 163.192 145.763Z" fill="#383A48"/>
<path d="M163.192 156.757C164.425 156.757 165.424 155.756 165.424 154.522C165.424 153.288 164.425 152.288 163.192 152.288C161.959 152.288 160.96 153.288 160.96 154.522C160.96 155.756 161.959 156.757 163.192 156.757Z" fill="#383A48"/>
<path d="M163.192 167.795C164.425 167.795 165.424 166.794 165.424 165.56C165.424 164.326 164.425 163.326 163.192 163.326C161.959 163.326 160.96 164.326 160.96 165.56C160.96 166.794 161.959 167.795 163.192 167.795Z" fill="#383A48"/>
<path d="M163.192 178.833C164.425 178.833 165.424 177.832 165.424 176.598C165.424 175.364 164.425 174.364 163.192 174.364C161.959 174.364 160.96 175.364 160.96 176.598C160.96 177.832 161.959 178.833 163.192 178.833Z" fill="#383A48"/>
<path d="M163.192 189.826C164.425 189.826 165.424 188.825 165.424 187.591C165.424 186.357 164.425 185.357 163.192 185.357C161.959 185.357 160.96 186.357 160.96 187.591C160.96 188.825 161.959 189.826 163.192 189.826Z" fill="#383A48"/>
<path d="M163.192 200.864C164.425 200.864 165.424 199.863 165.424 198.629C165.424 197.395 164.425 196.395 163.192 196.395C161.959 196.395 160.96 197.395 160.96 198.629C160.96 199.863 161.959 200.864 163.192 200.864Z" fill="#383A48"/>
<path d="M163.192 211.902C164.425 211.902 165.424 210.901 165.424 209.667C165.424 208.433 164.425 207.433 163.192 207.433C161.959 207.433 160.96 208.433 160.96 209.667C160.96 210.901 161.959 211.902 163.192 211.902Z" fill="#383A48"/>
<path d="M163.192 222.895C164.425 222.895 165.424 221.895 165.424 220.661C165.424 219.427 164.425 218.426 163.192 218.426C161.959 218.426 160.96 219.427 160.96 220.661C160.96 221.895 161.959 222.895 163.192 222.895Z" fill="#383A48"/>
<path d="M163.192 233.933C164.425 233.933 165.424 232.933 165.424 231.699C165.424 230.465 164.425 229.464 163.192 229.464C161.959 229.464 160.96 230.465 160.96 231.699C160.96 232.933 161.959 233.933 163.192 233.933Z" fill="#383A48"/>
<path d="M163.192 244.971C164.425 244.971 165.424 243.971 165.424 242.737C165.424 241.503 164.425 240.502 163.192 240.502C161.959 240.502 160.96 241.503 160.96 242.737C160.96 243.971 161.959 244.971 163.192 244.971Z" fill="#383A48"/>
<path d="M163.192 255.964C164.425 255.964 165.424 254.964 165.424 253.73C165.424 252.496 164.425 251.496 163.192 251.496C161.959 251.496 160.96 252.496 160.96 253.73C160.96 254.964 161.959 255.964 163.192 255.964Z" fill="#383A48"/>
<path d="M163.192 267.002C164.425 267.002 165.424 266.002 165.424 264.768C165.424 263.534 164.425 262.534 163.192 262.534C161.959 262.534 160.96 263.534 160.96 264.768C160.96 266.002 161.959 267.002 163.192 267.002Z" fill="#383A48"/>
<path d="M163.192 278.04C164.425 278.04 165.424 277.04 165.424 275.806C165.424 274.572 164.425 273.572 163.192 273.572C161.959 273.572 160.96 274.572 160.96 275.806C160.96 277.04 161.959 278.04 163.192 278.04Z" fill="#383A48"/>
<path d="M163.192 289.034C164.425 289.034 165.424 288.033 165.424 286.799C165.424 285.565 164.425 284.565 163.192 284.565C161.959 284.565 160.96 285.565 160.96 286.799C160.96 288.033 161.959 289.034 163.192 289.034Z" fill="#383A48"/>
<path d="M163.192 300.072C164.425 300.072 165.424 299.071 165.424 297.837C165.424 296.603 164.425 295.603 163.192 295.603C161.959 295.603 160.96 296.603 160.96 297.837C160.96 299.071 161.959 300.072 163.192 300.072Z" fill="#383A48"/>
<path d="M163.192 311.11C164.425 311.11 165.424 310.109 165.424 308.875C165.424 307.641 164.425 306.641 163.192 306.641C161.959 306.641 160.96 307.641 160.96 308.875C160.96 310.109 161.959 311.11 163.192 311.11Z" fill="#383A48"/>
<path d="M163.192 322.103C164.425 322.103 165.424 321.103 165.424 319.869C165.424 318.635 164.425 317.634 163.192 317.634C161.959 317.634 160.96 318.635 160.96 319.869C160.96 321.103 161.959 322.103 163.192 322.103Z" fill="#383A48"/>
<path d="M163.192 333.141C164.425 333.141 165.424 332.141 165.424 330.907C165.424 329.673 164.425 328.672 163.192 328.672C161.959 328.672 160.96 329.673 160.96 330.907C160.96 332.141 161.959 333.141 163.192 333.141Z" fill="#383A48"/>
<path d="M163.192 344.179C164.425 344.179 165.424 343.179 165.424 341.945C165.424 340.711 164.425 339.71 163.192 339.71C161.959 339.71 160.96 340.711 160.96 341.945C160.96 343.179 161.959 344.179 163.192 344.179Z" fill="#383A48"/>
<path d="M163.192 355.172C164.425 355.172 165.424 354.172 165.424 352.938C165.424 351.704 164.425 350.703 163.192 350.703C161.959 350.703 160.96 351.704 160.96 352.938C160.96 354.172 161.959 355.172 163.192 355.172Z" fill="#383A48"/>
<path d="M163.192 366.21C164.425 366.21 165.424 365.21 165.424 363.976C165.424 362.742 164.425 361.741 163.192 361.741C161.959 361.741 160.96 362.742 160.96 363.976C160.96 365.21 161.959 366.21 163.192 366.21Z" fill="#383A48"/>
<path d="M163.192 377.248C164.425 377.248 165.424 376.248 165.424 375.014C165.424 373.78 164.425 372.779 163.192 372.779C161.959 372.779 160.96 373.78 160.96 375.014C160.96 376.248 161.959 377.248 163.192 377.248Z" fill="#383A48"/>
<path d="M163.192 388.242C164.425 388.242 165.424 387.241 165.424 386.007C165.424 384.773 164.425 383.773 163.192 383.773C161.959 383.773 160.96 384.773 160.96 386.007C160.96 387.241 161.959 388.242 163.192 388.242Z" fill="#383A48"/>
<path d="M163.192 399.279C164.425 399.279 165.424 398.279 165.424 397.045C165.424 395.811 164.425 394.811 163.192 394.811C161.959 394.811 160.96 395.811 160.96 397.045C160.96 398.279 161.959 399.279 163.192 399.279Z" fill="#383A48"/>
<path d="M163.192 410.318C164.425 410.318 165.424 409.317 165.424 408.083C165.424 406.849 164.425 405.849 163.192 405.849C161.959 405.849 160.96 406.849 160.96 408.083C160.96 409.317 161.959 410.318 163.192 410.318Z" fill="#383A48"/>
<path d="M163.192 421.311C164.425 421.311 165.424 420.31 165.424 419.076C165.424 417.842 164.425 416.842 163.192 416.842C161.959 416.842 160.96 417.842 160.96 419.076C160.96 420.31 161.959 421.311 163.192 421.311Z" fill="#383A48"/>
<path d="M163.192 432.349C164.425 432.349 165.424 431.348 165.424 430.114C165.424 428.88 164.425 427.88 163.192 427.88C161.959 427.88 160.96 428.88 160.96 430.114C160.96 431.348 161.959 432.349 163.192 432.349Z" fill="#383A48"/>
<path d="M152.166 145.763C153.398 145.763 154.398 144.763 154.398 143.529C154.398 142.295 153.398 141.294 152.166 141.294C150.933 141.294 149.934 142.295 149.934 143.529C149.934 144.763 150.933 145.763 152.166 145.763Z" fill="#383A48"/>
<path d="M152.166 156.757C153.398 156.757 154.398 155.756 154.398 154.522C154.398 153.288 153.398 152.288 152.166 152.288C150.933 152.288 149.934 153.288 149.934 154.522C149.934 155.756 150.933 156.757 152.166 156.757Z" fill="#383A48"/>
<path d="M152.166 167.795C153.398 167.795 154.398 166.794 154.398 165.56C154.398 164.326 153.398 163.326 152.166 163.326C150.933 163.326 149.934 164.326 149.934 165.56C149.934 166.794 150.933 167.795 152.166 167.795Z" fill="#383A48"/>
<path d="M152.166 178.833C153.398 178.833 154.398 177.832 154.398 176.598C154.398 175.364 153.398 174.364 152.166 174.364C150.933 174.364 149.934 175.364 149.934 176.598C149.934 177.832 150.933 178.833 152.166 178.833Z" fill="#383A48"/>
<path d="M152.166 189.826C153.398 189.826 154.398 188.825 154.398 187.591C154.398 186.357 153.398 185.357 152.166 185.357C150.933 185.357 149.934 186.357 149.934 187.591C149.934 188.825 150.933 189.826 152.166 189.826Z" fill="#383A48"/>
<path d="M152.166 200.864C153.398 200.864 154.398 199.863 154.398 198.629C154.398 197.395 153.398 196.395 152.166 196.395C150.933 196.395 149.934 197.395 149.934 198.629C149.934 199.863 150.933 200.864 152.166 200.864Z" fill="#383A48"/>
<path d="M152.166 211.902C153.398 211.902 154.398 210.901 154.398 209.667C154.398 208.433 153.398 207.433 152.166 207.433C150.933 207.433 149.934 208.433 149.934 209.667C149.934 210.901 150.933 211.902 152.166 211.902Z" fill="#383A48"/>
<path d="M152.166 222.895C153.398 222.895 154.398 221.895 154.398 220.661C154.398 219.427 153.398 218.426 152.166 218.426C150.933 218.426 149.934 219.427 149.934 220.661C149.934 221.895 150.933 222.895 152.166 222.895Z" fill="#383A48"/>
<path d="M152.166 233.933C153.398 233.933 154.398 232.933 154.398 231.699C154.398 230.465 153.398 229.464 152.166 229.464C150.933 229.464 149.934 230.465 149.934 231.699C149.934 232.933 150.933 233.933 152.166 233.933Z" fill="#383A48"/>
<path d="M152.166 244.971C153.398 244.971 154.398 243.971 154.398 242.737C154.398 241.503 153.398 240.502 152.166 240.502C150.933 240.502 149.934 241.503 149.934 242.737C149.934 243.971 150.933 244.971 152.166 244.971Z" fill="#383A48"/>
<path d="M152.166 255.964C153.398 255.964 154.398 254.964 154.398 253.73C154.398 252.496 153.398 251.496 152.166 251.496C150.933 251.496 149.934 252.496 149.934 253.73C149.934 254.964 150.933 255.964 152.166 255.964Z" fill="#383A48"/>
<path d="M152.166 267.002C153.398 267.002 154.398 266.002 154.398 264.768C154.398 263.534 153.398 262.534 152.166 262.534C150.933 262.534 149.934 263.534 149.934 264.768C149.934 266.002 150.933 267.002 152.166 267.002Z" fill="#383A48"/>
<path d="M152.166 278.04C153.398 278.04 154.398 277.04 154.398 275.806C154.398 274.572 153.398 273.572 152.166 273.572C150.933 273.572 149.934 274.572 149.934 275.806C149.934 277.04 150.933 278.04 152.166 278.04Z" fill="#383A48"/>
<path d="M152.166 289.034C153.398 289.034 154.398 288.033 154.398 286.799C154.398 285.565 153.398 284.565 152.166 284.565C150.933 284.565 149.934 285.565 149.934 286.799C149.934 288.033 150.933 289.034 152.166 289.034Z" fill="#383A48"/>
<path d="M152.166 300.072C153.398 300.072 154.398 299.071 154.398 297.837C154.398 296.603 153.398 295.603 152.166 295.603C150.933 295.603 149.934 296.603 149.934 297.837C149.934 299.071 150.933 300.072 152.166 300.072Z" fill="#383A48"/>
<path d="M152.166 311.11C153.398 311.11 154.398 310.109 154.398 308.875C154.398 307.641 153.398 306.641 152.166 306.641C150.933 306.641 149.934 307.641 149.934 308.875C149.934 310.109 150.933 311.11 152.166 311.11Z" fill="#383A48"/>
<path d="M152.166 322.103C153.398 322.103 154.398 321.103 154.398 319.869C154.398 318.635 153.398 317.634 152.166 317.634C150.933 317.634 149.934 318.635 149.934 319.869C149.934 321.103 150.933 322.103 152.166 322.103Z" fill="#383A48"/>
<path d="M152.166 333.141C153.398 333.141 154.398 332.141 154.398 330.907C154.398 329.673 153.398 328.672 152.166 328.672C150.933 328.672 149.934 329.673 149.934 330.907C149.934 332.141 150.933 333.141 152.166 333.141Z" fill="#383A48"/>
<path d="M152.166 344.179C153.398 344.179 154.398 343.179 154.398 341.945C154.398 340.711 153.398 339.71 152.166 339.71C150.933 339.71 149.934 340.711 149.934 341.945C149.934 343.179 150.933 344.179 152.166 344.179Z" fill="#383A48"/>
<path d="M152.166 355.172C153.398 355.172 154.398 354.172 154.398 352.938C154.398 351.704 153.398 350.703 152.166 350.703C150.933 350.703 149.934 351.704 149.934 352.938C149.934 354.172 150.933 355.172 152.166 355.172Z" fill="#383A48"/>
<path d="M152.166 366.21C153.398 366.21 154.398 365.21 154.398 363.976C154.398 362.742 153.398 361.741 152.166 361.741C150.933 361.741 149.934 362.742 149.934 363.976C149.934 365.21 150.933 366.21 152.166 366.21Z" fill="#383A48"/>
<path d="M152.166 377.248C153.398 377.248 154.398 376.248 154.398 375.014C154.398 373.78 153.398 372.779 152.166 372.779C150.933 372.779 149.934 373.78 149.934 375.014C149.934 376.248 150.933 377.248 152.166 377.248Z" fill="#383A48"/>
<path d="M152.166 388.242C153.398 388.242 154.398 387.241 154.398 386.007C154.398 384.773 153.398 383.773 152.166 383.773C150.933 383.773 149.934 384.773 149.934 386.007C149.934 387.241 150.933 388.242 152.166 388.242Z" fill="#383A48"/>
<path d="M152.166 399.279C153.398 399.279 154.398 398.279 154.398 397.045C154.398 395.811 153.398 394.811 152.166 394.811C150.933 394.811 149.934 395.811 149.934 397.045C149.934 398.279 150.933 399.279 152.166 399.279Z" fill="#383A48"/>
<path d="M152.166 410.318C153.398 410.318 154.398 409.317 154.398 408.083C154.398 406.849 153.398 405.849 152.166 405.849C150.933 405.849 149.934 406.849 149.934 408.083C149.934 409.317 150.933 410.318 152.166 410.318Z" fill="#383A48"/>
<path d="M152.166 421.311C153.398 421.311 154.398 420.31 154.398 419.076C154.398 417.842 153.398 416.842 152.166 416.842C150.933 416.842 149.934 417.842 149.934 419.076C149.934 420.31 150.933 421.311 152.166 421.311Z" fill="#383A48"/>
<path d="M152.166 432.349C153.398 432.349 154.398 431.348 154.398 430.114C154.398 428.88 153.398 427.88 152.166 427.88C150.933 427.88 149.934 428.88 149.934 430.114C149.934 431.348 150.933 432.349 152.166 432.349Z" fill="#383A48"/>
<path d="M141.184 145.763C142.417 145.763 143.416 144.763 143.416 143.529C143.416 142.295 142.417 141.294 141.184 141.294C139.951 141.294 138.952 142.295 138.952 143.529C138.952 144.763 139.951 145.763 141.184 145.763Z" fill="#383A48"/>
<path d="M141.184 156.757C142.417 156.757 143.416 155.756 143.416 154.522C143.416 153.288 142.417 152.288 141.184 152.288C139.951 152.288 138.952 153.288 138.952 154.522C138.952 155.756 139.951 156.757 141.184 156.757Z" fill="#383A48"/>
<path d="M141.184 167.795C142.417 167.795 143.416 166.794 143.416 165.56C143.416 164.326 142.417 163.326 141.184 163.326C139.951 163.326 138.952 164.326 138.952 165.56C138.952 166.794 139.951 167.795 141.184 167.795Z" fill="#383A48"/>
<path d="M141.184 178.833C142.417 178.833 143.416 177.832 143.416 176.598C143.416 175.364 142.417 174.364 141.184 174.364C139.951 174.364 138.952 175.364 138.952 176.598C138.952 177.832 139.951 178.833 141.184 178.833Z" fill="#383A48"/>
<path d="M141.184 189.826C142.417 189.826 143.416 188.825 143.416 187.591C143.416 186.357 142.417 185.357 141.184 185.357C139.951 185.357 138.952 186.357 138.952 187.591C138.952 188.825 139.951 189.826 141.184 189.826Z" fill="#383A48"/>
<path d="M141.184 200.864C142.417 200.864 143.416 199.863 143.416 198.629C143.416 197.395 142.417 196.395 141.184 196.395C139.951 196.395 138.952 197.395 138.952 198.629C138.952 199.863 139.951 200.864 141.184 200.864Z" fill="#383A48"/>
<path d="M141.184 211.902C142.417 211.902 143.416 210.901 143.416 209.667C143.416 208.433 142.417 207.433 141.184 207.433C139.951 207.433 138.952 208.433 138.952 209.667C138.952 210.901 139.951 211.902 141.184 211.902Z" fill="#383A48"/>
<path d="M141.184 222.895C142.417 222.895 143.416 221.895 143.416 220.661C143.416 219.427 142.417 218.426 141.184 218.426C139.951 218.426 138.952 219.427 138.952 220.661C138.952 221.895 139.951 222.895 141.184 222.895Z" fill="#383A48"/>
<path d="M141.184 233.933C142.417 233.933 143.416 232.933 143.416 231.699C143.416 230.465 142.417 229.464 141.184 229.464C139.951 229.464 138.952 230.465 138.952 231.699C138.952 232.933 139.951 233.933 141.184 233.933Z" fill="#383A48"/>
<path d="M141.184 244.971C142.417 244.971 143.416 243.971 143.416 242.737C143.416 241.503 142.417 240.502 141.184 240.502C139.951 240.502 138.952 241.503 138.952 242.737C138.952 243.971 139.951 244.971 141.184 244.971Z" fill="#383A48"/>
<path d="M141.184 255.964C142.417 255.964 143.416 254.964 143.416 253.73C143.416 252.496 142.417 251.496 141.184 251.496C139.951 251.496 138.952 252.496 138.952 253.73C138.952 254.964 139.951 255.964 141.184 255.964Z" fill="#383A48"/>
<path d="M141.184 267.002C142.417 267.002 143.416 266.002 143.416 264.768C143.416 263.534 142.417 262.534 141.184 262.534C139.951 262.534 138.952 263.534 138.952 264.768C138.952 266.002 139.951 267.002 141.184 267.002Z" fill="#383A48"/>
<path d="M141.184 278.04C142.417 278.04 143.416 277.04 143.416 275.806C143.416 274.572 142.417 273.572 141.184 273.572C139.951 273.572 138.952 274.572 138.952 275.806C138.952 277.04 139.951 278.04 141.184 278.04Z" fill="#383A48"/>
<path d="M141.184 289.034C142.417 289.034 143.416 288.033 143.416 286.799C143.416 285.565 142.417 284.565 141.184 284.565C139.951 284.565 138.952 285.565 138.952 286.799C138.952 288.033 139.951 289.034 141.184 289.034Z" fill="#383A48"/>
<path d="M141.184 300.072C142.417 300.072 143.416 299.071 143.416 297.837C143.416 296.603 142.417 295.603 141.184 295.603C139.951 295.603 138.952 296.603 138.952 297.837C138.952 299.071 139.951 300.072 141.184 300.072Z" fill="#383A48"/>
<path d="M141.184 311.11C142.417 311.11 143.416 310.109 143.416 308.875C143.416 307.641 142.417 306.641 141.184 306.641C139.951 306.641 138.952 307.641 138.952 308.875C138.952 310.109 139.951 311.11 141.184 311.11Z" fill="#383A48"/>
<path d="M141.184 322.103C142.417 322.103 143.416 321.103 143.416 319.869C143.416 318.635 142.417 317.634 141.184 317.634C139.951 317.634 138.952 318.635 138.952 319.869C138.952 321.103 139.951 322.103 141.184 322.103Z" fill="#383A48"/>
<path d="M141.184 333.141C142.417 333.141 143.416 332.141 143.416 330.907C143.416 329.673 142.417 328.672 141.184 328.672C139.951 328.672 138.952 329.673 138.952 330.907C138.952 332.141 139.951 333.141 141.184 333.141Z" fill="#383A48"/>
<path d="M141.184 344.179C142.417 344.179 143.416 343.179 143.416 341.945C143.416 340.711 142.417 339.71 141.184 339.71C139.951 339.71 138.952 340.711 138.952 341.945C138.952 343.179 139.951 344.179 141.184 344.179Z" fill="#383A48"/>
<path d="M141.184 355.172C142.417 355.172 143.416 354.172 143.416 352.938C143.416 351.704 142.417 350.703 141.184 350.703C139.951 350.703 138.952 351.704 138.952 352.938C138.952 354.172 139.951 355.172 141.184 355.172Z" fill="#383A48"/>
<path d="M141.184 366.21C142.417 366.21 143.416 365.21 143.416 363.976C143.416 362.742 142.417 361.741 141.184 361.741C139.951 361.741 138.952 362.742 138.952 363.976C138.952 365.21 139.951 366.21 141.184 366.21Z" fill="#383A48"/>
<path d="M141.184 377.248C142.417 377.248 143.416 376.248 143.416 375.014C143.416 373.78 142.417 372.779 141.184 372.779C139.951 372.779 138.952 373.78 138.952 375.014C138.952 376.248 139.951 377.248 141.184 377.248Z" fill="#383A48"/>
<path d="M141.184 388.242C142.417 388.242 143.416 387.241 143.416 386.007C143.416 384.773 142.417 383.773 141.184 383.773C139.951 383.773 138.952 384.773 138.952 386.007C138.952 387.241 139.951 388.242 141.184 388.242Z" fill="#383A48"/>
<path d="M141.184 399.279C142.417 399.279 143.416 398.279 143.416 397.045C143.416 395.811 142.417 394.811 141.184 394.811C139.951 394.811 138.952 395.811 138.952 397.045C138.952 398.279 139.951 399.279 141.184 399.279Z" fill="#383A48"/>
<path d="M141.184 410.318C142.417 410.318 143.416 409.317 143.416 408.083C143.416 406.849 142.417 405.849 141.184 405.849C139.951 405.849 138.952 406.849 138.952 408.083C138.952 409.317 139.951 410.318 141.184 410.318Z" fill="#383A48"/>
<path d="M141.184 421.311C142.417 421.311 143.416 420.31 143.416 419.076C143.416 417.842 142.417 416.842 141.184 416.842C139.951 416.842 138.952 417.842 138.952 419.076C138.952 420.31 139.951 421.311 141.184 421.311Z" fill="#383A48"/>
<path d="M141.184 432.349C142.417 432.349 143.416 431.348 143.416 430.114C143.416 428.88 142.417 427.88 141.184 427.88C139.951 427.88 138.952 428.88 138.952 430.114C138.952 431.348 139.951 432.349 141.184 432.349Z" fill="#383A48"/>
<path d="M130.158 145.763C131.391 145.763 132.39 144.763 132.39 143.529C132.39 142.295 131.391 141.294 130.158 141.294C128.925 141.294 127.926 142.295 127.926 143.529C127.926 144.763 128.925 145.763 130.158 145.763Z" fill="#383A48"/>
<path d="M130.158 156.757C131.391 156.757 132.39 155.756 132.39 154.522C132.39 153.288 131.391 152.288 130.158 152.288C128.925 152.288 127.926 153.288 127.926 154.522C127.926 155.756 128.925 156.757 130.158 156.757Z" fill="#383A48"/>
<path d="M130.158 167.795C131.391 167.795 132.39 166.794 132.39 165.56C132.39 164.326 131.391 163.326 130.158 163.326C128.925 163.326 127.926 164.326 127.926 165.56C127.926 166.794 128.925 167.795 130.158 167.795Z" fill="#383A48"/>
<path d="M130.158 178.833C131.391 178.833 132.39 177.832 132.39 176.598C132.39 175.364 131.391 174.364 130.158 174.364C128.925 174.364 127.926 175.364 127.926 176.598C127.926 177.832 128.925 178.833 130.158 178.833Z" fill="#383A48"/>
<path d="M130.158 189.826C131.391 189.826 132.39 188.825 132.39 187.591C132.39 186.357 131.391 185.357 130.158 185.357C128.925 185.357 127.926 186.357 127.926 187.591C127.926 188.825 128.925 189.826 130.158 189.826Z" fill="#383A48"/>
<path d="M130.158 200.864C131.391 200.864 132.39 199.863 132.39 198.629C132.39 197.395 131.391 196.395 130.158 196.395C128.925 196.395 127.926 197.395 127.926 198.629C127.926 199.863 128.925 200.864 130.158 200.864Z" fill="#383A48"/>
<path d="M130.158 211.902C131.391 211.902 132.39 210.901 132.39 209.667C132.39 208.433 131.391 207.433 130.158 207.433C128.925 207.433 127.926 208.433 127.926 209.667C127.926 210.901 128.925 211.902 130.158 211.902Z" fill="#383A48"/>
<path d="M130.158 222.895C131.391 222.895 132.39 221.895 132.39 220.661C132.39 219.427 131.391 218.426 130.158 218.426C128.925 218.426 127.926 219.427 127.926 220.661C127.926 221.895 128.925 222.895 130.158 222.895Z" fill="#383A48"/>
<path d="M130.158 233.933C131.391 233.933 132.39 232.933 132.39 231.699C132.39 230.465 131.391 229.464 130.158 229.464C128.925 229.464 127.926 230.465 127.926 231.699C127.926 232.933 128.925 233.933 130.158 233.933Z" fill="#383A48"/>
<path d="M130.158 244.971C131.391 244.971 132.39 243.971 132.39 242.737C132.39 241.503 131.391 240.502 130.158 240.502C128.925 240.502 127.926 241.503 127.926 242.737C127.926 243.971 128.925 244.971 130.158 244.971Z" fill="#383A48"/>
<path d="M130.158 255.964C131.391 255.964 132.39 254.964 132.39 253.73C132.39 252.496 131.391 251.496 130.158 251.496C128.925 251.496 127.926 252.496 127.926 253.73C127.926 254.964 128.925 255.964 130.158 255.964Z" fill="#383A48"/>
<path d="M130.158 267.002C131.391 267.002 132.39 266.002 132.39 264.768C132.39 263.534 131.391 262.534 130.158 262.534C128.925 262.534 127.926 263.534 127.926 264.768C127.926 266.002 128.925 267.002 130.158 267.002Z" fill="#383A48"/>
<path d="M130.158 278.04C131.391 278.04 132.39 277.04 132.39 275.806C132.39 274.572 131.391 273.572 130.158 273.572C128.925 273.572 127.926 274.572 127.926 275.806C127.926 277.04 128.925 278.04 130.158 278.04Z" fill="#383A48"/>
<path d="M130.158 289.034C131.391 289.034 132.39 288.033 132.39 286.799C132.39 285.565 131.391 284.565 130.158 284.565C128.925 284.565 127.926 285.565 127.926 286.799C127.926 288.033 128.925 289.034 130.158 289.034Z" fill="#383A48"/>
<path d="M130.158 300.072C131.391 300.072 132.39 299.071 132.39 297.837C132.39 296.603 131.391 295.603 130.158 295.603C128.925 295.603 127.926 296.603 127.926 297.837C127.926 299.071 128.925 300.072 130.158 300.072Z" fill="#383A48"/>
<path d="M130.158 311.11C131.391 311.11 132.39 310.109 132.39 308.875C132.39 307.641 131.391 306.641 130.158 306.641C128.925 306.641 127.926 307.641 127.926 308.875C127.926 310.109 128.925 311.11 130.158 311.11Z" fill="#383A48"/>
<path d="M130.158 322.103C131.391 322.103 132.39 321.103 132.39 319.869C132.39 318.635 131.391 317.634 130.158 317.634C128.925 317.634 127.926 318.635 127.926 319.869C127.926 321.103 128.925 322.103 130.158 322.103Z" fill="#383A48"/>
<path d="M130.158 333.141C131.391 333.141 132.39 332.141 132.39 330.907C132.39 329.673 131.391 328.672 130.158 328.672C128.925 328.672 127.926 329.673 127.926 330.907C127.926 332.141 128.925 333.141 130.158 333.141Z" fill="#383A48"/>
<path d="M130.158 344.179C131.391 344.179 132.39 343.179 132.39 341.945C132.39 340.711 131.391 339.71 130.158 339.71C128.925 339.71 127.926 340.711 127.926 341.945C127.926 343.179 128.925 344.179 130.158 344.179Z" fill="#383A48"/>
<path d="M130.158 355.172C131.391 355.172 132.39 354.172 132.39 352.938C132.39 351.704 131.391 350.703 130.158 350.703C128.925 350.703 127.926 351.704 127.926 352.938C127.926 354.172 128.925 355.172 130.158 355.172Z" fill="#383A48"/>
<path d="M130.158 366.21C131.391 366.21 132.39 365.21 132.39 363.976C132.39 362.742 131.391 361.741 130.158 361.741C128.925 361.741 127.926 362.742 127.926 363.976C127.926 365.21 128.925 366.21 130.158 366.21Z" fill="#383A48"/>
<path d="M130.158 377.248C131.391 377.248 132.39 376.248 132.39 375.014C132.39 373.78 131.391 372.779 130.158 372.779C128.925 372.779 127.926 373.78 127.926 375.014C127.926 376.248 128.925 377.248 130.158 377.248Z" fill="#383A48"/>
<path d="M130.158 388.242C131.391 388.242 132.39 387.241 132.39 386.007C132.39 384.773 131.391 383.773 130.158 383.773C128.925 383.773 127.926 384.773 127.926 386.007C127.926 387.241 128.925 388.242 130.158 388.242Z" fill="#383A48"/>
<path d="M130.158 399.279C131.391 399.279 132.39 398.279 132.39 397.045C132.39 395.811 131.391 394.811 130.158 394.811C128.925 394.811 127.926 395.811 127.926 397.045C127.926 398.279 128.925 399.279 130.158 399.279Z" fill="#383A48"/>
<path d="M130.158 410.318C131.391 410.318 132.39 409.317 132.39 408.083C132.39 406.849 131.391 405.849 130.158 405.849C128.925 405.849 127.926 406.849 127.926 408.083C127.926 409.317 128.925 410.318 130.158 410.318Z" fill="#383A48"/>
<path d="M130.158 421.311C131.391 421.311 132.39 420.31 132.39 419.076C132.39 417.842 131.391 416.842 130.158 416.842C128.925 416.842 127.926 417.842 127.926 419.076C127.926 420.31 128.925 421.311 130.158 421.311Z" fill="#383A48"/>
<path d="M130.158 432.349C131.391 432.349 132.39 431.348 132.39 430.114C132.39 428.88 131.391 427.88 130.158 427.88C128.925 427.88 127.926 428.88 127.926 430.114C127.926 431.348 128.925 432.349 130.158 432.349Z" fill="#383A48"/>
<path d="M372.201 190.005C372.201 201.668 365.281 211.187 356.755 211.187C352.246 211.187 348.184 208.55 345.371 204.349C343.809 202.204 341.577 201.266 339.389 201.266C335.55 201.266 331.845 204.171 331.845 208.774V261.997H272.383C265.107 261.997 262.116 271.292 267.964 275.583C270.062 277.013 271.803 278.711 272.964 280.632C274.169 282.554 274.794 284.699 274.794 286.978C274.794 295.513 265.33 302.44 253.634 302.44C241.938 302.44 232.475 295.513 232.475 286.978C232.475 282.464 235.108 278.398 239.305 275.583C241.447 274.018 242.385 271.784 242.385 269.594C242.385 265.796 239.483 262.042 234.885 262.042H181.807V111.89H331.8V171.37C331.8 178.654 341.086 181.648 345.371 175.794C346.8 173.693 348.496 171.995 350.416 170.789C352.335 169.582 354.478 168.956 356.755 168.956C365.281 168.822 372.201 178.296 372.201 190.005Z" fill="#F3F6E6"/>
<path fill-rule="evenodd" clip-rule="evenodd" d="M230.287 286.844C230.287 296.586 240.778 304.54 253.679 304.54C266.58 304.54 277.026 296.631 277.071 286.755C277.071 284.118 276.312 281.615 274.883 279.247C273.544 277.057 271.669 275.136 269.259 273.527C267.027 271.873 266.803 269.416 267.384 267.673C267.964 265.93 269.571 264.053 272.384 264.053H331.801C333.051 264.053 334.033 263.07 334.033 261.819V208.64C334.033 205.333 336.711 203.366 339.345 203.366C340.997 203.366 342.47 204.126 343.496 205.511C346.845 210.472 351.666 213.332 356.71 213.332C366.442 213.332 374.388 202.83 374.388 189.915C374.388 177 366.442 166.499 356.71 166.499C354.076 166.499 351.576 167.258 349.211 168.688C347.023 170.029 345.104 171.951 343.496 174.319C341.845 176.553 339.39 176.777 337.649 176.196C335.908 175.615 334.033 174.006 334.033 171.191V111.711C334.033 110.46 333.051 109.476 331.801 109.476H181.807C180.557 109.476 179.575 110.46 179.575 111.711V261.863C179.575 263.115 180.557 264.098 181.807 264.098H234.975C238.278 264.098 240.242 266.824 240.242 269.46C240.242 271.114 239.483 272.588 238.099 273.616C233.144 276.968 230.287 281.794 230.287 286.844ZM234.975 259.674H184.039V113.99H329.569V171.325C329.569 175.615 332.202 179.235 336.265 180.575C340.372 181.916 344.613 180.531 347.157 177.045C347.157 177.023 347.168 177.011 347.179 177C347.191 176.989 347.202 176.978 347.202 176.956C348.452 175.079 349.925 173.649 351.577 172.621C353.184 171.593 354.925 171.101 356.71 171.101C363.987 171.101 369.924 179.592 369.924 190.049C369.924 200.506 363.987 208.997 356.71 208.997C353.094 208.997 349.746 206.941 347.202 203.143C347.202 203.121 347.191 203.109 347.179 203.098C347.168 203.087 347.157 203.076 347.157 203.054C345.282 200.506 342.425 199.032 339.345 199.032C334.568 199.032 329.569 202.651 329.569 208.774V259.718H272.384C268.098 259.718 264.482 262.355 263.143 266.421C261.804 270.533 263.188 274.778 266.67 277.325C266.692 277.325 266.703 277.337 266.714 277.348C266.725 277.359 266.737 277.37 266.759 277.37C268.634 278.621 270.062 280.096 271.089 281.749C272.116 283.358 272.607 285.101 272.607 286.889C272.607 294.173 264.125 300.116 253.679 300.116C243.233 300.116 234.751 294.173 234.751 286.889C234.751 283.269 236.805 279.917 240.599 277.37C240.622 277.37 240.633 277.359 240.644 277.348C240.655 277.337 240.666 277.325 240.689 277.325C243.233 275.448 244.706 272.588 244.706 269.505C244.706 264.679 241.046 259.674 234.975 259.674Z" fill="#383A48"/>
<path d="M267.964 275.493C270.062 276.923 271.803 278.621 272.964 280.543C274.169 282.464 274.794 284.61 274.794 286.889C274.794 295.424 265.33 302.351 253.634 302.351C241.938 302.351 232.474 295.424 232.474 286.889C232.474 282.375 235.108 278.308 239.304 275.493C241.447 273.929 242.385 271.695 242.385 269.505C242.385 265.706 239.483 261.953 234.885 261.953H200.467V254.892C200.467 224.861 224.796 200.462 254.839 200.462C269.839 200.462 283.454 206.539 293.275 216.415C303.096 226.247 309.212 239.877 309.212 254.892V261.953H272.339C265.107 261.908 262.116 271.203 267.964 275.493Z" fill="#7FD6C2"/>
<path fill-rule="evenodd" clip-rule="evenodd" d="M230.287 286.844C230.287 296.586 240.778 304.54 253.679 304.54C266.58 304.54 277.026 296.631 277.071 286.755C277.071 284.118 276.312 281.615 274.883 279.247C273.544 277.057 271.669 275.136 269.259 273.527C267.027 271.873 266.803 269.416 267.384 267.673C267.964 265.93 269.571 264.053 272.383 264.053H309.257C310.507 264.053 311.489 263.07 311.489 261.819V254.758C311.489 239.653 305.596 225.398 294.927 214.717C284.258 204.037 270.062 198.138 254.929 198.138C223.725 198.138 198.324 223.565 198.324 254.802V261.863C198.324 263.114 199.306 264.098 200.556 264.098H234.974C238.278 264.098 240.242 266.824 240.242 269.46C240.242 271.114 239.483 272.588 238.099 273.616C233.144 276.968 230.287 281.794 230.287 286.844ZM234.974 259.673H202.788H202.744V254.892C202.744 226.113 226.136 202.696 254.884 202.696C268.812 202.696 281.937 208.103 291.758 217.979C301.623 227.855 307.025 240.949 307.025 254.892V259.718H272.383C268.098 259.718 264.482 262.355 263.143 266.421C261.804 270.533 263.187 274.778 266.669 277.325C266.692 277.325 266.703 277.337 266.714 277.348C266.725 277.359 266.736 277.37 266.759 277.37C268.634 278.621 270.062 280.096 271.089 281.749C272.116 283.358 272.607 285.101 272.607 286.889C272.607 294.173 264.125 300.116 253.679 300.116C243.233 300.116 234.751 294.173 234.751 286.889C234.751 283.269 236.805 279.917 240.599 277.37C240.621 277.37 240.633 277.359 240.644 277.348C240.655 277.337 240.666 277.325 240.688 277.325C243.233 275.448 244.706 272.588 244.706 269.505C244.706 263.338 239.751 259.673 234.974 259.673Z" fill="#383A48"/>
<path d="M481.794 111.756V261.908H422.377C419.297 261.908 416.976 263.606 415.77 265.84C414.163 268.879 414.565 273.035 417.958 275.493C420.056 276.923 421.797 278.621 422.958 280.543C424.163 282.465 424.788 284.61 424.788 286.844C424.788 295.379 415.324 302.306 403.628 302.306C391.932 302.306 382.468 295.379 382.468 286.844C382.468 282.33 385.102 278.264 389.298 275.448C391.441 273.884 392.379 271.65 392.379 269.46C392.379 268.209 392.066 266.913 391.486 265.796C390.28 263.561 387.959 261.863 384.879 261.863H331.801V202.428C331.801 195.144 322.516 192.15 318.23 198.004C316.802 200.104 315.105 201.802 313.186 203.009C311.266 204.171 309.123 204.841 306.847 204.841C298.32 204.841 291.401 195.367 291.401 183.659C291.401 171.951 298.32 162.477 306.847 162.477C311.355 162.477 315.418 165.113 318.23 169.314C319.792 171.459 322.025 172.397 324.212 172.397C328.051 172.397 331.756 169.493 331.756 164.89V111.756H481.794Z" fill="#F3F6E6"/>
<path fill-rule="evenodd" clip-rule="evenodd" d="M380.281 286.889C380.281 296.631 390.771 304.585 403.673 304.585C416.529 304.585 427.02 296.631 427.02 286.844C427.02 284.207 426.261 281.66 424.832 279.336C423.493 277.147 421.618 275.225 419.208 273.616C416.708 271.784 416.708 268.835 417.734 266.868C418.672 265.125 420.368 264.142 422.377 264.142H481.794C483.044 264.142 484.026 263.159 484.026 261.908V111.755C484.026 110.504 483.044 109.521 481.794 109.521H331.801C330.551 109.521 329.569 110.504 329.569 111.755V164.979C329.569 168.286 326.89 170.252 324.256 170.252C322.605 170.252 321.132 169.493 320.105 168.107C316.757 163.147 311.936 160.287 306.891 160.287C297.159 160.287 289.213 170.789 289.213 183.704C289.213 196.618 297.159 207.12 306.891 207.12C309.525 207.12 312.025 206.36 314.391 204.93C316.578 203.59 318.498 201.713 320.105 199.3C321.757 197.065 324.212 196.842 325.953 197.423C327.694 198.004 329.569 199.613 329.569 202.428V261.908C329.569 263.159 330.551 264.142 331.801 264.142H384.923C386.932 264.142 388.629 265.17 389.566 266.913C390.013 267.717 390.236 268.611 390.236 269.505C390.236 271.158 389.477 272.633 388.093 273.661C383.138 277.013 380.281 281.839 380.281 286.889ZM384.968 259.674H334.033V202.428C334.033 198.138 331.399 194.518 327.337 193.177C323.23 191.837 318.989 193.222 316.444 196.708C316.444 196.73 316.433 196.741 316.422 196.753C316.411 196.764 316.4 196.775 316.4 196.797C315.15 198.674 313.677 200.104 312.025 201.132C310.418 202.16 308.677 202.651 306.891 202.651C299.615 202.651 293.677 194.161 293.677 183.704C293.677 173.246 299.615 164.756 306.891 164.756C310.507 164.756 313.855 166.811 316.4 170.61C316.4 170.632 316.411 170.643 316.422 170.655C316.433 170.666 316.444 170.677 316.444 170.699C318.319 173.246 321.176 174.721 324.256 174.721C329.033 174.721 334.033 171.057 334.033 164.979V113.99H479.562V259.674H422.377C418.717 259.674 415.502 261.55 413.806 264.768C411.842 268.522 412.154 274.018 416.663 277.281C416.685 277.281 416.697 277.292 416.708 277.303C416.719 277.314 416.73 277.325 416.752 277.325C418.627 278.577 420.056 280.051 421.083 281.705C422.109 283.314 422.6 285.056 422.6 286.844C422.6 294.128 414.119 300.072 403.673 300.072C393.227 300.072 384.745 294.128 384.745 286.844C384.745 283.224 386.798 279.873 390.593 277.325C390.615 277.325 390.626 277.314 390.637 277.303C390.649 277.292 390.66 277.281 390.682 277.281C393.227 275.404 394.7 272.544 394.7 269.46C394.7 267.851 394.298 266.198 393.539 264.768C391.843 261.595 388.629 259.674 384.968 259.674Z" fill="#383A48"/>
<path d="M462.598 261.908H422.332C419.252 261.908 416.931 263.606 415.725 265.841H391.486C390.28 263.606 387.959 261.908 384.879 261.908H357.067L392.334 212.796C400.86 200.953 418.449 200.909 426.975 212.751L462.598 261.908Z" fill="#E0719E"/>
<path fill-rule="evenodd" clip-rule="evenodd" d="M391.53 268.075H415.77C416.618 268.075 417.377 267.628 417.734 266.824C418.672 265.081 420.368 264.098 422.377 264.098H462.643C463.491 264.098 464.25 263.651 464.652 262.891C465.054 262.131 464.964 261.238 464.473 260.567L428.895 211.41C424.386 205.243 417.422 201.668 409.788 201.668H409.744C402.065 201.668 395.101 205.243 390.637 211.5L355.371 260.612C354.88 261.282 354.791 262.176 355.192 262.936C355.55 263.695 356.308 264.142 357.157 264.142H384.968C386.977 264.142 388.628 265.125 389.566 266.868C389.968 267.628 390.727 268.075 391.53 268.075ZM414.565 263.606H392.78C390.994 261.148 388.137 259.674 384.968 259.718H361.487L394.209 214.136C397.825 209.042 403.494 206.137 409.699 206.137H409.744C415.949 206.137 421.574 208.997 425.234 214.047L458.268 259.674H422.377C419.208 259.674 416.351 261.104 414.565 263.606Z" fill="#383A48"/>
<path d="M372.156 340.157C372.156 351.865 365.237 361.339 356.71 361.339C352.201 361.339 348.139 358.703 345.327 354.502C343.764 352.357 341.532 351.418 339.345 351.418C335.55 351.418 331.801 354.323 331.801 358.926V412.15H181.807V261.997H236.18C243.456 261.997 246.447 252.702 240.599 248.412C238.501 246.982 236.76 245.284 235.599 243.362C234.394 241.441 233.769 239.296 233.769 237.061C233.769 228.526 243.233 221.599 254.929 221.599C266.58 221.599 276.089 228.526 276.089 237.061C276.089 241.575 273.455 245.641 269.259 248.457C267.116 250.021 266.178 252.255 266.178 254.445C266.178 258.288 269.08 261.997 273.678 261.997H331.89V321.477C331.89 328.761 341.175 331.756 345.461 325.901C346.889 323.801 348.585 322.058 350.505 320.896C352.425 319.734 354.567 319.064 356.844 319.064C365.281 318.975 372.156 328.449 372.156 340.157Z" fill="#F3F6E6"/>
<path fill-rule="evenodd" clip-rule="evenodd" d="M181.807 414.295H331.801C333.051 414.295 334.033 413.312 334.033 412.06V358.837C334.033 355.53 336.711 353.563 339.345 353.563C340.997 353.563 342.47 354.323 343.496 355.708C346.845 360.669 351.666 363.529 356.71 363.529C366.442 363.529 374.388 353.027 374.388 340.112C374.388 327.197 366.442 316.696 356.71 316.696C354.076 316.696 351.576 317.455 349.211 318.885C347.023 320.226 345.104 322.103 343.496 324.516C341.845 326.751 339.39 326.974 337.649 326.393C335.908 325.812 334.033 324.203 334.033 321.388V261.908C334.033 260.657 333.051 259.673 331.801 259.673H273.589C270.285 259.673 268.321 256.992 268.321 254.356C268.321 252.702 269.08 251.227 270.464 250.2C275.419 246.848 278.276 242.022 278.276 236.972C278.276 227.23 267.786 219.275 254.884 219.275C241.983 219.275 231.493 227.23 231.493 236.972C231.493 239.608 232.251 242.156 233.68 244.479C235.019 246.669 236.894 248.591 239.305 250.2C241.537 251.853 241.76 254.311 241.18 256.054C240.599 257.797 238.992 259.673 236.18 259.673H181.807C180.557 259.673 179.575 260.657 179.575 261.908V412.06C179.575 413.312 180.557 414.295 181.807 414.295ZM329.569 409.826H184.039V264.142H236.224C240.51 264.142 244.126 261.506 245.465 257.439C246.804 253.328 245.42 249.082 241.938 246.535C241.916 246.535 241.905 246.524 241.894 246.513C241.883 246.502 241.872 246.49 241.849 246.49C239.974 245.239 238.546 243.764 237.519 242.111C236.492 240.502 236.001 238.759 236.001 236.972C236.001 229.688 244.483 223.744 254.929 223.744C265.375 223.744 273.857 229.688 273.857 236.972C273.857 240.592 271.803 243.943 268.009 246.49C267.986 246.49 267.975 246.502 267.964 246.513C267.953 246.524 267.942 246.535 267.919 246.535C265.375 248.412 263.902 251.272 263.902 254.356C263.902 259.137 267.518 264.142 273.634 264.142H329.569V321.433C329.569 325.723 332.202 329.342 336.265 330.683C340.372 332.024 344.613 330.638 347.157 327.153C347.157 327.13 347.168 327.119 347.179 327.108C347.191 327.097 347.202 327.086 347.202 327.063C348.452 325.186 349.925 323.756 351.577 322.729C353.184 321.701 354.925 321.209 356.71 321.209C363.987 321.209 369.924 329.7 369.924 340.157C369.924 350.614 363.987 359.105 356.71 359.105C353.094 359.105 349.746 357.049 347.202 353.251C347.202 353.206 347.157 353.206 347.157 353.161C345.282 350.614 342.425 349.139 339.345 349.139C334.568 349.139 329.569 352.759 329.569 358.881V409.826Z" fill="#383A48"/>
<path d="M291.043 409.334C291.043 410.273 290.999 411.167 290.954 412.06H216.538C216.448 411.167 216.448 410.228 216.448 409.334C216.448 402.586 242.965 371.975 253.768 371.975C264.571 371.975 291.043 400.665 291.043 409.334Z" fill="#F3F6E6"/>
<path fill-rule="evenodd" clip-rule="evenodd" d="M216.538 414.295H290.954C292.115 414.295 293.097 413.401 293.231 412.239C293.275 411.301 293.32 410.317 293.32 409.334C293.32 406.787 291.758 403.167 288.633 398.564C285.954 394.587 282.204 390.074 278.097 385.828C274.437 382.075 261.893 369.741 253.768 369.741C246.09 369.741 234.215 381.538 229.439 386.588C223.769 392.621 214.216 404.151 214.216 409.334C214.216 410.317 214.216 411.301 214.306 412.239C214.395 413.401 215.377 414.295 216.538 414.295ZM288.811 409.826H218.68V409.29C218.68 407.368 223.636 399.235 232.653 389.627C241.447 380.287 249.706 374.209 253.724 374.209C257.83 374.209 266.312 380.153 274.839 388.957C283.901 398.341 288.811 406.474 288.811 409.334V409.826Z" fill="#383A48"/>
<path d="M481.794 261.908V412.06H331.801V358.881C331.801 354.278 328.051 351.374 324.256 351.374C322.069 351.374 319.837 352.312 318.274 354.457C315.462 358.658 311.4 361.294 306.891 361.294C298.365 361.294 291.445 351.821 291.445 340.112C291.445 328.449 298.365 318.93 306.891 318.93C309.168 318.93 311.266 319.6 313.23 320.762C315.15 321.924 316.891 323.667 318.274 325.767C322.56 331.622 331.845 328.627 331.845 321.343V261.908H391.218C395.816 261.908 398.717 258.154 398.717 254.356C398.717 252.166 397.78 249.931 395.637 248.367C391.441 245.552 388.807 241.485 388.807 236.972C388.807 228.436 398.271 221.51 409.967 221.51C421.618 221.51 431.127 228.436 431.127 236.972C431.127 239.206 430.457 241.351 429.296 243.273C428.091 245.195 426.395 246.937 424.297 248.323C418.449 252.613 421.44 261.908 428.716 261.908H481.794Z" fill="#F3F6E6"/>
<path fill-rule="evenodd" clip-rule="evenodd" d="M331.801 414.295H481.794C483.044 414.295 484.026 413.312 484.026 412.06V261.908C484.026 260.657 483.044 259.673 481.794 259.673H428.582C425.77 259.673 424.163 257.797 423.582 256.054C423.002 254.311 423.225 251.853 425.457 250.2C427.868 248.591 429.743 246.669 431.082 244.479C432.555 242.111 433.27 239.608 433.27 236.972C433.27 227.23 422.779 219.275 409.878 219.275C396.976 219.275 386.486 227.23 386.486 236.972C386.486 242.022 389.343 246.848 394.298 250.2C395.682 251.227 396.441 252.702 396.441 254.356C396.441 256.948 394.477 259.673 391.173 259.673H331.801C330.551 259.673 329.569 260.657 329.569 261.908V321.433C329.569 324.248 327.694 325.857 325.953 326.438C324.212 327.019 321.757 326.795 320.105 324.561C318.498 322.148 316.578 320.271 314.391 318.93C312.025 317.455 309.525 316.74 306.891 316.74C297.159 316.74 289.213 327.242 289.213 340.157C289.213 353.072 297.159 363.574 306.891 363.574C311.936 363.574 316.757 360.714 320.105 355.753C321.132 354.368 322.605 353.608 324.256 353.608C326.846 353.608 329.569 355.574 329.569 358.881V412.06C329.569 413.312 330.551 414.295 331.801 414.295ZM479.562 409.826H334.033V358.837C334.033 352.759 329.078 349.095 324.256 349.095C321.132 349.095 318.319 350.569 316.444 353.117C316.444 353.139 316.433 353.15 316.422 353.161C316.411 353.172 316.4 353.184 316.4 353.206C313.9 356.96 310.507 359.06 306.891 359.06C299.615 359.06 293.677 350.569 293.677 340.112C293.677 329.655 299.615 321.164 306.891 321.164C308.632 321.164 310.373 321.656 312.025 322.684C313.677 323.667 315.15 325.142 316.4 327.019C316.4 327.041 316.411 327.052 316.422 327.063C316.433 327.075 316.444 327.086 316.444 327.108C318.989 330.594 323.274 331.979 327.337 330.638C331.399 329.298 334.033 325.678 334.033 321.388V264.142H391.173C397.244 264.142 400.905 259.182 400.905 254.356C400.905 251.227 399.432 248.412 396.887 246.535C396.865 246.535 396.854 246.524 396.843 246.513C396.831 246.502 396.82 246.49 396.798 246.49C393.048 243.988 390.95 240.592 390.95 236.972C390.95 229.688 399.432 223.744 409.878 223.744C420.324 223.744 428.805 229.688 428.805 236.972C428.805 238.715 428.314 240.458 427.288 242.111C426.306 243.764 424.832 245.239 422.957 246.49C422.935 246.49 422.924 246.502 422.913 246.513C422.902 246.524 422.891 246.535 422.868 246.535C419.386 249.082 418.002 253.372 419.342 257.439C420.681 261.506 424.297 264.142 428.582 264.142H479.562V409.826Z" fill="#383A48"/>
<path d="M254.929 371.975C274.381 371.975 290.15 356.189 290.15 336.716C290.15 317.243 274.381 301.457 254.929 301.457C235.476 301.457 219.707 317.243 219.707 336.716C219.707 356.189 235.476 371.975 254.929 371.975Z" fill="#F6E049"/>
<path fill-rule="evenodd" clip-rule="evenodd" d="M217.475 336.761C217.475 357.407 234.26 374.254 254.929 374.254C275.553 374.254 292.383 357.407 292.383 336.761C292.383 316.115 275.553 299.267 254.929 299.267C234.305 299.267 217.475 316.115 217.475 336.761ZM221.939 336.716C221.939 318.528 236.715 303.691 254.929 303.691C273.098 303.691 287.918 318.528 287.918 336.716C287.918 354.904 273.098 369.741 254.929 369.741C236.76 369.741 221.939 354.904 221.939 336.716Z" fill="#383A48"/>
<path d="M243.635 335.375C245.73 335.375 247.429 333.675 247.429 331.577C247.429 329.479 245.73 327.778 243.635 327.778C241.539 327.778 239.84 329.479 239.84 331.577C239.84 333.675 241.539 335.375 243.635 335.375Z" fill="#383A48"/>
<path d="M266.178 335.375C268.274 335.375 269.973 333.675 269.973 331.577C269.973 329.479 268.274 327.778 266.178 327.778C264.083 327.778 262.384 329.479 262.384 331.577C262.384 333.675 264.083 335.375 266.178 335.375Z" fill="#383A48"/>
<path d="M254.929 353.385C249.215 353.385 243.947 350.033 241.536 344.805C241.001 343.687 241.536 342.347 242.652 341.855C243.768 341.364 245.108 341.855 245.599 342.972C247.25 346.592 250.911 348.961 254.929 348.961C258.946 348.961 262.562 346.592 264.259 342.972C264.794 341.855 266.089 341.364 267.205 341.855C268.321 342.391 268.812 343.687 268.321 344.805C265.91 350.033 260.643 353.385 254.929 353.385Z" fill="#383A48"/>
<path d="M409.654 203.903C429.107 203.903 444.876 188.117 444.876 168.644C444.876 149.171 429.107 133.385 409.654 133.385C390.202 133.385 374.433 149.171 374.433 168.644C374.433 188.117 390.202 203.903 409.654 203.903Z" fill="#F6E049"/>
<path fill-rule="evenodd" clip-rule="evenodd" d="M372.201 168.644C372.201 189.29 388.986 206.137 409.654 206.137C430.323 206.137 447.108 189.29 447.108 168.644C447.108 147.998 430.278 131.15 409.654 131.15C389.03 131.15 372.201 147.998 372.201 168.644ZM376.665 168.599C376.665 150.411 391.441 135.574 409.654 135.574C427.868 135.574 442.644 150.411 442.644 168.599C442.644 186.787 427.868 201.624 409.654 201.624C391.486 201.624 376.665 186.787 376.665 168.599Z" fill="#383A48"/>
<path d="M398.405 167.303C400.5 167.303 402.199 165.602 402.199 163.504C402.199 161.407 400.5 159.706 398.405 159.706C396.309 159.706 394.61 161.407 394.61 163.504C394.61 165.602 396.309 167.303 398.405 167.303Z" fill="#383A48"/>
<path d="M420.949 167.303C423.044 167.303 424.743 165.602 424.743 163.504C424.743 161.407 423.044 159.706 420.949 159.706C418.853 159.706 417.154 161.407 417.154 163.504C417.154 165.602 418.853 167.303 420.949 167.303Z" fill="#383A48"/>
<path d="M409.654 185.312C403.94 185.312 398.673 181.961 396.262 176.732C395.726 175.615 396.262 174.274 397.378 173.783C398.494 173.247 399.833 173.783 400.324 174.9C401.976 178.52 405.637 180.888 409.654 180.888C413.627 180.888 417.288 178.52 418.984 174.9C419.52 173.783 420.815 173.291 421.931 173.783C423.047 174.319 423.538 175.615 423.047 176.732C420.636 181.916 415.413 185.312 409.654 185.312Z" fill="#383A48"/>
<path d="M257.161 199.881C276.613 199.881 292.383 184.095 292.383 164.622C292.383 145.149 276.613 129.363 257.161 129.363C237.709 129.363 221.939 145.149 221.939 164.622C221.939 184.095 237.709 199.881 257.161 199.881Z" fill="#F6E049"/>
<path fill-rule="evenodd" clip-rule="evenodd" d="M219.708 164.622C219.708 185.268 236.492 202.115 257.161 202.115C277.83 202.115 294.615 185.268 294.615 164.622C294.615 143.976 277.785 127.128 257.161 127.128C236.537 127.128 219.708 143.976 219.708 164.622ZM224.172 164.577C224.172 146.389 238.948 131.552 257.161 131.552C275.33 131.552 290.151 146.389 290.151 164.577C290.151 182.765 275.33 197.602 257.161 197.602C238.992 197.602 224.172 182.765 224.172 164.577Z" fill="#383A48"/>
<path d="M245.867 163.281C247.963 163.281 249.662 161.58 249.662 159.483C249.662 157.385 247.963 155.684 245.867 155.684C243.772 155.684 242.073 157.385 242.073 159.483C242.073 161.58 243.772 163.281 245.867 163.281Z" fill="#383A48"/>
<path d="M268.411 163.281C270.506 163.281 272.205 161.58 272.205 159.483C272.205 157.385 270.506 155.684 268.411 155.684C266.315 155.684 264.616 157.385 264.616 159.483C264.616 161.58 266.315 163.281 268.411 163.281Z" fill="#383A48"/>
<path d="M257.161 181.29C251.447 181.29 246.179 177.939 243.769 172.71C243.233 171.593 243.769 170.252 244.885 169.761C246.001 169.269 247.34 169.761 247.831 170.878C249.483 174.498 253.143 176.866 257.161 176.866C261.134 176.866 264.795 174.498 266.491 170.878C267.027 169.761 268.321 169.269 269.437 169.761C270.553 170.297 271.044 171.593 270.553 172.71C268.143 177.894 262.875 181.29 257.161 181.29Z" fill="#383A48"/>
<path d="M409.654 133.34C414.56 133.34 418.538 129.358 418.538 124.447C418.538 119.536 414.56 115.554 409.654 115.554C404.748 115.554 400.771 119.536 400.771 124.447C400.771 129.358 404.748 133.34 409.654 133.34Z" fill="#383A48"/>
<path fill-rule="evenodd" clip-rule="evenodd" d="M398.539 124.447C398.539 130.569 403.538 135.574 409.654 135.574C415.77 135.574 420.77 130.569 420.77 124.447C420.77 118.325 415.77 113.32 409.654 113.32C403.538 113.32 398.539 118.325 398.539 124.447ZM403.003 124.492C403.003 120.827 405.994 117.833 409.654 117.833C413.315 117.833 416.306 120.827 416.306 124.492C416.306 128.156 413.315 131.15 409.654 131.15C405.994 131.15 403.003 128.156 403.003 124.492Z" fill="#383A48"/>
<path d="M409.654 133.34C409.654 133.34 409.922 154.343 377.245 154.746C377.245 154.746 382.468 135.217 409.654 133.34Z" fill="#383A48"/>
<path fill-rule="evenodd" clip-rule="evenodd" d="M375.102 154.165L374.343 157.025L377.29 156.98C395.101 156.757 403.538 150.456 407.511 145.227C411.931 139.373 411.931 133.519 411.931 133.295L411.886 130.927L409.52 131.105C394.744 132.089 386.173 138.256 381.62 143.216C376.62 148.668 375.147 153.941 375.102 154.165ZM380.593 152.422C383.048 147.461 389.968 137.898 407.065 135.842C406.663 137.585 405.815 140.088 403.94 142.59C399.521 148.355 391.485 151.751 380.593 152.422Z" fill="#383A48"/>
<path d="M409.654 133.34C409.654 133.34 409.387 154.343 442.064 154.746C442.064 154.746 436.841 135.217 409.654 133.34Z" fill="#383A48"/>
<path fill-rule="evenodd" clip-rule="evenodd" d="M442.064 156.98L445.01 157.025L444.251 154.165C444.206 153.941 442.733 148.668 437.733 143.216C433.135 138.256 424.609 132.133 409.833 131.105L407.467 130.927L407.422 133.295C407.422 133.563 407.422 139.373 411.842 145.227C419.074 154.701 432.243 156.846 442.064 156.98ZM412.199 135.842C413.27 140.713 418.002 151.126 438.716 152.422C436.26 147.461 429.341 137.898 412.199 135.842Z" fill="#383A48"/>
<path d="M239.707 133.921C239.707 133.921 255.643 146.702 274.571 133.921C274.571 133.921 258.947 123.509 239.707 133.921Z" fill="#383A48"/>
<path fill-rule="evenodd" clip-rule="evenodd" d="M249.528 140.937C251.67 141.473 254.26 141.875 257.117 141.875C262.518 141.875 268.991 140.401 275.776 135.798L278.544 133.921L275.776 132.089C275.107 131.642 258.813 121.051 238.635 131.999L235.689 133.608L238.323 135.708C238.328 135.712 238.337 135.719 238.349 135.728C238.752 136.038 242.983 139.288 249.528 140.937ZM244.305 134.189C249.081 136.692 258.724 139.998 270.018 134.055C265.197 132.044 255.688 129.452 244.305 134.189Z" fill="#383A48"/>
<path d="M229.975 299.714V311.78H217.922C211.27 311.78 205.869 306.373 205.869 299.714C205.869 293.056 211.27 287.648 217.922 287.648C224.618 287.693 229.975 293.056 229.975 299.714Z" fill="#383A48"/>
<path fill-rule="evenodd" clip-rule="evenodd" d="M217.922 314.014H229.975C231.225 314.014 232.207 313.031 232.207 311.78V299.714C232.207 291.804 225.823 285.414 217.922 285.414C210.02 285.414 203.637 291.804 203.637 299.714C203.637 307.624 210.065 314.014 217.922 314.014ZM208.145 299.759C208.145 294.352 212.565 289.927 217.966 289.927C223.368 289.927 227.743 294.307 227.787 299.759V309.59H217.966C212.565 309.59 208.145 305.166 208.145 299.759Z" fill="#383A48"/>
<path d="M291.847 311.78H279.794V299.714C279.794 293.056 285.195 287.648 291.847 287.648C298.498 287.648 303.9 293.056 303.9 299.714C303.9 306.373 298.498 311.78 291.847 311.78Z" fill="#383A48"/>
<path fill-rule="evenodd" clip-rule="evenodd" d="M279.794 314.014H291.847C299.749 314.014 306.132 307.624 306.132 299.714C306.132 291.804 299.749 285.414 291.847 285.414C283.946 285.414 277.562 291.849 277.562 299.714V311.78C277.562 313.031 278.544 314.014 279.794 314.014ZM291.892 309.546H282.071V299.714C282.071 294.307 286.49 289.883 291.892 289.883C297.293 289.883 301.713 294.307 301.713 299.714C301.713 305.121 297.293 309.546 291.892 309.546Z" fill="#383A48"/>
<path d="M229.975 311.78H279.794C279.794 311.78 271.535 301.457 255.331 301.457C239.171 301.457 229.975 311.78 229.975 311.78Z" fill="#383A48"/>
<path fill-rule="evenodd" clip-rule="evenodd" d="M229.975 314.014H279.838C280.687 314.014 281.446 313.478 281.803 312.718C282.16 311.959 282.071 311.02 281.535 310.35C281.178 309.903 272.383 299.178 255.331 299.178C238.322 299.178 228.68 309.814 228.278 310.261C227.698 310.931 227.564 311.869 227.921 312.674C228.278 313.478 229.082 314.014 229.975 314.014ZM274.035 309.546H236.135C240.153 306.864 246.67 303.691 255.331 303.691C264.125 303.691 270.33 306.864 274.035 309.546Z" fill="#383A48"/>
<path d="M108.601 27.377L103.691 33.2758L98.4679 27.1088C89.629 16.6071 73.9601 15.2218 63.3802 23.9807C52.6664 32.8736 51.2379 48.7826 60.2107 59.4184L103.959 111.391L147.126 59.3737C155.965 48.7379 154.492 32.9183 143.823 24.07C133.199 15.3111 117.44 16.7412 108.601 27.377Z" fill="#383A48"/>
<path d="M101.035 21.9732L96.124 27.8721L90.901 21.7051C82.0621 11.2034 66.3932 9.81803 55.8133 18.5769C45.0995 27.4699 43.671 43.3789 52.6438 54.0147L96.3919 105.987L139.56 53.97C148.398 43.3342 146.925 27.5146 136.256 18.6663C125.632 9.9074 109.873 11.3374 101.035 21.9732Z" fill="#E0719E"/>
<path fill-rule="evenodd" clip-rule="evenodd" d="M94.6506 107.462C95.0524 107.953 95.6774 108.266 96.347 108.266C97.0166 108.266 97.6416 107.953 98.088 107.462L141.256 55.4447C145.898 49.814 148.086 42.7533 147.416 35.4691C146.747 28.1849 143.309 21.6157 137.684 16.9681C126.122 7.40486 108.936 8.96895 99.3379 20.5432L96.1238 24.4311L92.6418 20.2751C82.9994 8.87958 65.8573 7.36018 54.3846 16.8788C48.7152 21.571 45.2778 28.1849 44.6082 35.4691C43.9386 42.7533 46.1706 49.9034 50.9026 55.4894L94.6506 107.462ZM57.2416 20.3198C61.4825 16.7894 66.6162 15.0912 71.7499 15.0912C78.2674 15.0912 84.6957 17.8172 89.2491 23.1798L94.4721 29.3468C94.8739 29.883 95.4988 30.1512 96.1684 30.1512C96.8381 30.1512 97.463 29.8383 97.8648 29.3468L102.775 23.4479C110.766 13.7953 125.185 12.4546 134.827 20.4538C139.515 24.3417 142.461 29.8383 142.997 35.9159C143.532 41.9935 141.702 47.9371 137.818 52.6293L96.347 102.591L54.3399 52.6293C50.4115 47.9371 48.5366 41.9935 49.0723 35.8713C49.608 29.749 52.5097 24.2523 57.2416 20.3198Z" fill="#383A48"/>
<path d="M575.361 214.404L474.339 430.472H439.43L540.497 214.404H575.361Z" fill="#F6E049"/>
<path fill-rule="evenodd" clip-rule="evenodd" d="M439.43 432.706H474.339C475.232 432.706 475.991 432.17 476.348 431.41L577.37 215.343C577.683 214.672 577.638 213.823 577.236 213.198C576.834 212.572 576.12 212.17 575.361 212.17H540.452C539.604 212.17 538.8 212.661 538.443 213.466L437.421 429.533C437.108 430.204 437.153 431.053 437.555 431.678C437.957 432.304 438.671 432.706 439.43 432.706ZM472.91 428.237H442.956L541.925 216.639H571.879L472.91 428.237Z" fill="#383A48"/>
<path d="M639.644 214.404L538.622 430.472H503.712L604.735 214.404H639.644Z" fill="#F6E049"/>
<path fill-rule="evenodd" clip-rule="evenodd" d="M503.712 432.706H538.622C539.514 432.706 540.273 432.17 540.63 431.41L641.653 215.343C641.965 214.672 641.921 213.823 641.519 213.198C641.117 212.572 640.403 212.17 639.644 212.17H604.735C603.887 212.17 603.083 212.661 602.726 213.466L501.704 429.533C501.391 430.204 501.436 431.053 501.838 431.678C502.239 432.304 502.954 432.706 503.712 432.706ZM537.193 428.237H507.239L606.208 216.639H636.162L537.193 428.237Z" fill="#383A48"/>
<path d="M652.813 111.756V115.688C652.813 154.12 621.699 185.268 583.308 185.268C544.916 185.268 513.802 154.12 513.802 115.688V111.756H544.559V114.481C544.559 135.887 561.925 153.271 583.308 153.271C604.691 153.271 622.056 135.887 622.056 114.481V111.756L652.813 111.756Z" fill="#AAC6FC"/>
<path fill-rule="evenodd" clip-rule="evenodd" d="M511.525 115.688C511.525 155.282 543.711 187.502 583.263 187.502C622.859 187.502 655.045 155.282 655.001 115.688V111.755C655.001 110.504 654.019 109.521 652.769 109.521H622.011C620.761 109.521 619.779 110.504 619.779 111.755V114.481C619.779 134.636 603.396 151.036 583.263 151.036C563.13 151.036 546.747 134.636 546.747 114.481V111.755C546.747 110.504 545.764 109.521 544.515 109.521H513.757C512.507 109.521 511.525 110.504 511.525 111.755V115.688ZM515.989 115.688V113.99H542.282V114.481C542.282 137.094 560.674 155.505 583.263 155.505C605.851 155.505 624.243 137.094 624.243 114.481V113.99H650.537V115.688C650.537 152.824 620.359 183.033 583.263 183.033C546.166 183.033 515.989 152.824 515.989 115.688Z" fill="#383A48"/>
<path d="M58.2856 388.822C38.6883 388.822 22.7515 404.731 22.7515 424.394C22.7515 444.012 38.6436 459.966 58.2856 459.966C77.883 459.966 93.8197 444.057 93.8197 424.394C93.8197 404.731 77.883 388.822 58.2856 388.822Z" fill="#AAC6FC"/>
<path fill-rule="evenodd" clip-rule="evenodd" d="M20.5195 424.394C20.5195 445.264 37.4831 462.201 58.2857 462.201C79.0884 462.201 96.0519 445.264 96.0519 424.394C96.0519 403.525 79.0884 386.588 58.2857 386.588C37.4384 386.588 20.5195 403.525 20.5195 424.394ZM24.9836 424.394C24.9836 406.027 39.9383 391.057 58.2857 391.057C76.6331 391.057 91.5878 406.027 91.5878 424.394C91.5878 442.761 76.6778 457.732 58.2857 457.732C39.8937 457.732 24.9836 442.761 24.9836 424.394Z" fill="#383A48"/>
<path d="M342.243 60.8727C341.953 60.3695 341.856 59.7547 342.042 59.1829C342.369 57.962 343.567 57.2694 344.787 57.5965L352.326 59.5861C356.717 60.7638 361.278 58.1272 362.455 53.7319L364.465 46.2234C366.278 39.4473 373.276 35.4031 380.083 37.1963L387.584 39.2083C389.718 39.7808 391.959 39.4659 393.854 38.371C395.787 37.2538 397.141 35.4907 397.713 33.3541L399.723 25.8455C400.605 22.5491 402.68 19.8016 405.657 18.0811C408.634 16.3606 412.048 15.9352 415.319 16.7798L422.82 18.7917C424.954 19.3642 427.195 19.0494 429.089 17.9545C431.022 16.8373 432.377 15.0742 432.949 12.9376L435.155 4.69646C435.481 3.47555 436.68 2.78289 437.899 3.11003C439.119 3.43717 439.811 4.6369 439.484 5.85781L437.278 14.0989C436.396 17.3954 434.321 20.1428 431.344 21.8633C428.406 23.5615 424.953 24.0092 421.682 23.1646L414.043 21.1811C411.909 20.6086 409.668 20.9234 407.773 22.0183C405.84 23.1355 404.486 24.8986 403.914 27.0352L401.904 34.5438C401.022 37.8402 398.947 40.5877 395.97 42.3082C393.032 44.0063 389.579 44.4541 386.308 43.6095L378.885 41.5529C374.494 40.3752 369.932 43.0118 368.756 47.4071L366.746 54.9156C364.932 61.6916 357.935 65.7359 351.127 63.9426L343.588 61.9531C342.994 61.7285 342.533 61.3758 342.243 60.8727Z" fill="#383A48"/>
<rect x="632.323" y="189.2" width="14.7315" height="4.46884" fill="#383A48"/>
<rect x="637.412" y="184.061" width="4.46411" height="14.7471" fill="#383A48"/>
<rect x="0.922363" y="160.779" width="14.7315" height="4.46881" fill="#383A48"/>
<rect x="6.05615" y="155.684" width="4.4641" height="14.7471" fill="#383A48"/>
<rect x="581.03" y="95.8912" width="4.46405" height="31.7286" fill="#383A48"/>
<rect x="567.415" y="109.521" width="31.695" height="4.46884" fill="#383A48"/>
<rect width="31.7138" height="4.46673" transform="matrix(0.706682 -0.707531 0.706782 0.707431 570.559 121.357)" fill="#383A48"/>
<rect width="4.46641" height="31.7115" transform="matrix(0.706732 -0.707481 0.706732 0.707481 570.488 102.157)" fill="#383A48"/>
<mask id="mask0_129_7406" style="mask-type:luminance" maskUnits="userSpaceOnUse" x="345" y="280" width="114" height="131">
<rect x="345.371" y="280.543" width="112.941" height="129.596" fill="white"/>
</mask>
<g mask="url(#mask0_129_7406)">
<path d="M453.161 444.815C454.295 441.001 455.188 436.059 455.188 431.861C455.188 419.603 449.977 408.568 441.654 400.795C425.419 385.25 420.86 369.777 430.172 345.788L379.657 349.554L369.67 427.807C369.549 429.15 369.477 430.518 369.477 431.885C369.477 455.418 388.655 474.49 412.32 474.49C425.974 474.49 438.156 468.133 445.997 458.225" fill="#F3F6E6"/>
<path d="M453.161 444.815C454.295 441.001 455.188 436.059 455.188 431.861C455.188 419.603 449.977 408.568 441.654 400.795C425.419 385.25 420.86 369.777 430.172 345.788L379.657 349.554L369.67 427.807C369.549 429.15 369.477 430.518 369.477 431.885C369.477 455.418 388.655 474.49 412.32 474.49C425.974 474.49 438.156 468.133 445.997 458.225" stroke="#383A48" stroke-width="6" stroke-linecap="round" stroke-dasharray="18"/>
<path d="M435.828 297.567C434.761 296.694 433.329 296.403 431.995 296.815C425.274 298.926 413.118 303.486 407.391 310.497C404.383 314.185 402.078 318.139 400.792 321.947C400.573 322.578 400.913 323.282 401.544 323.5C401.956 323.646 402.393 323.549 402.709 323.282L413.894 336.503C413.506 336.818 413.36 337.352 413.53 337.837C413.7 338.322 414.185 338.638 414.671 338.638C414.816 338.638 414.962 338.613 415.083 338.565C419.742 336.842 424.619 333.107 428.768 328.012C434.494 321.001 436.58 308.193 437.308 301.182C437.454 299.775 436.896 298.441 435.828 297.567Z" fill="#F3F6E6" stroke="#383A48" stroke-width="6" stroke-linecap="round" stroke-dasharray="18"/>
<path d="M428.842 349.502C430.036 346.282 430.68 342.798 430.633 339.146C430.418 324.081 418.312 311.73 403.364 311.322C400.141 311.226 397.013 311.706 394.123 312.619C390.183 313.869 385.909 313.388 382.399 311.25L369.386 303.273C366.305 301.375 362.27 302.864 361.1 306.3L357.423 317.185C355.417 323.12 356.85 329.679 361.172 334.196L381.325 355.172" fill="#F3F6E6"/>
<path d="M428.842 349.502C430.036 346.282 430.68 342.798 430.633 339.146C430.418 324.081 418.312 311.73 403.364 311.322C400.141 311.226 397.013 311.706 394.123 312.619C390.183 313.869 385.909 313.388 382.399 311.25L369.386 303.273C366.305 301.375 362.27 302.864 361.1 306.3L357.423 317.185C355.417 323.12 356.85 329.679 361.172 334.196L381.325 355.172" stroke="#383A48" stroke-width="6" stroke-linecap="round" stroke-dasharray="18"/>
<path d="M409.654 337.053C410.88 333.462 413.045 329.654 416.004 326.063C421.536 319.29 433.538 314.832 439.84 312.855C441.812 312.229 443.76 313.843 443.568 315.892C442.894 322.472 440.898 335.149 435.366 341.922C431.349 346.838 426.683 350.429 422.305 352.044" fill="#F3F6E6"/>
<path d="M409.654 337.053C410.88 333.462 413.045 329.654 416.004 326.063C421.536 319.29 433.538 314.832 439.84 312.855C441.812 312.229 443.76 313.843 443.568 315.892C442.894 322.472 440.898 335.149 435.366 341.922C431.349 346.838 426.683 350.429 422.305 352.044" stroke="#383A48" stroke-width="6" stroke-linecap="round" stroke-dasharray="18"/>
</g>
</svg>
