<svg xmlns="http://www.w3.org/2000/svg" fill="none" viewBox="0 0 493 528">
  <path fill="#7FD6C2" fill-rule="evenodd" d="M329.606 488.126c212.262-137.732 156.579-163.558 156.579-294.404C486.185 62.875 350.144 0 219.237 0 88.33 0 .443 110.392.443 241.239c0 130.846 116.902 384.619 329.163 246.887Z" clip-rule="evenodd"/>
  <mask id="a" width="493" height="528" x="0" y="0" maskUnits="userSpaceOnUse" style="mask-type:luminance">
    <path fill="#fff" fill-rule="evenodd" d="M329.606 488.126c212.262-137.732 156.579-163.558 156.579-294.404C486.185 62.875 350.144 0 219.237 0 88.33 0 .443 110.392.443 241.239c0 130.846 116.902 384.619 329.163 246.887Z" clip-rule="evenodd"/>
  </mask>
  <g mask="url(#a)">
    <path fill="#F3F6E6" d="M-29.02 150.06c.732-.2 1.497.099 1.862.731.1.166 10.805 17.411 29.255 21.233 11.535 2.392 23.736-.931 36.236-9.803 20.51-14.554 42.518-20.801 63.628-18.01 19.813 2.592 37.366 13.159 49.5 29.673 8.677 11.83 22.539 18.143 34.54 15.751 8.744-1.761 14.794-7.776 16.988-16.914a1.77 1.77 0 0 1 1.33-1.262c.665-.1 1.33.199 1.662.731l21.642 33.893c.365.565.332 1.296-.034 1.861l-24.866 35.155c-.266.366-.665.632-1.097.698L8.246 272.54c-.066 0-.165.033-.232.033-.598 0-1.13-.299-1.43-.831l-36.634-63.898c-.133-.266-.233-.532-.233-.831v-55.358a1.704 1.704 0 0 1 1.264-1.595ZM262.188 389.437c39.494 0 65.058-6.446 82.944-20.867 16.854-13.591 26.196-33.926 37-57.519 8.876-19.338 26.994-30.636 46.209-42.632 15.092-9.403 30.684-19.139 42.452-33.361 13.264-16.016 19.714-35.721 19.714-60.21 0-.93.731-1.661 1.662-1.661.931 0 1.662.731 1.662 1.661v216.251c0 .93-.731 1.661-1.662 1.661H262.155a1.645 1.645 0 0 1-1.662-1.661c0-.931.765-1.662 1.695-1.662Z"/>
    <path fill="#F6E049" d="m428.141 390.102 62.898-62.868c.465-.465 1.196-.632 1.795-.366.631.266 1.03.864 1.03 1.529v62.702c0 .93-.731 1.661-1.662 1.661l-62.897.2a1.658 1.658 0 0 1-1.529-1.03 1.686 1.686 0 0 1 .365-1.828Z"/>
  </g>
</svg>
