<svg xmlns="http://www.w3.org/2000/svg" fill="none" viewBox="0 0 474 239">
  <path fill="#AAC6FC" d="M256.542 52.98H1.662v184.119h254.88z"/>
  <path fill="#383A48" fill-rule="evenodd" d="M256.542 238.76H1.662c-.897 0-1.662-.764-1.662-1.661V52.98c0-.93.731-1.661 1.662-1.661h254.88c.931 0 1.663.73 1.663 1.661v184.119c0 .93-.732 1.661-1.663 1.661ZM3.324 235.437H254.88V54.641H3.324v180.796Z" clip-rule="evenodd"/>
  <path fill="#F3F6E6" d="M242.148 67.168H16.024v155.675h226.124z"/>
  <path fill="#383A48" fill-rule="evenodd" d="M242.148 224.538H16.057c-.931 0-1.662-.731-1.696-1.694V67.169c0-.93.732-1.662 1.663-1.662h226.124c.931 0 1.662.731 1.662 1.661v155.709c0 .93-.731 1.661-1.662 1.661Zm-224.462-3.322h222.8V68.83h-222.8v152.386Z" clip-rule="evenodd"/>
  <path fill="#AAC6FC" d="M181.978 97.689 16.108 89.16l-.17 3.319 165.87 8.527z"/>
  <path fill="#AAC6FC" fill-rule="evenodd" d="m16.422 145.455 26.064-2.825 6.183 67.82-32.812 3.356.333 3.289 32.778-3.356.864 9.437 6.616-.598-.864-9.537 94.578-9.702-7.247 18.309 6.183 2.458 8.511-21.498 65.39-6.713 16.257 28.643 5.784-3.289-46.84-82.54c1.994-2.492 3.191-5.615 3.191-9.005 0-5.316-2.892-9.968-7.247-12.593l27.858-48.281-5.751-3.323-28.523 49.444c-.599-.066-1.164-.1-1.762-.1-5.452 0-10.239 2.725-12.999 6.845L15.691 138.842l.731 6.613Zm160.767-15.751c0-4.519 3.923-8.207 8.777-8.207 4.82 0 8.776 3.688 8.776 8.207 0 4.52-3.923 8.208-8.776 8.208-4.854 0-8.777-3.688-8.777-8.208Zm44.048 63.035-28.257-49.776a15.897 15.897 0 0 1-7.014 1.628c-1.762 0-3.458-.299-5.02-.798l-21.941 55.359 62.232-6.413Zm-46.075-52.401-23.603 59.545-96.241 9.869-6.217-67.853 121.473-13.225c0 .183-.008.358-.017.532-.008.174-.016.349-.016.532 0 4.153 1.762 7.908 4.621 10.6Z" clip-rule="evenodd"/>
  <path fill="#E0719E" d="M120.874 219.986c-8.464 0-15.325-6.858-15.325-15.318s6.861-15.319 15.325-15.319c8.464 0 15.326 6.859 15.326 15.319s-6.862 15.318-15.326 15.318Z"/>
  <path fill="#383A48" fill-rule="evenodd" d="M242.148 224.538H16.057c-.931 0-1.662-.731-1.696-1.694V67.169c0-.93.732-1.662 1.663-1.662h226.124c.931 0 1.662.731 1.662 1.661v155.709c0 .93-.731 1.661-1.662 1.661Zm-224.462-3.322h222.8V68.83h-222.8v152.386Z" clip-rule="evenodd"/>
  <path fill="#383A48" d="M211.131 51.319h45.411c.931 0 1.663.73 1.663 1.661v99.287c0 .93-.732 1.661-1.663 1.661H232.74c-12.832 0-23.271-10.434-23.271-23.26V52.98c0-.93.765-1.661 1.662-1.661ZM259.468 23.407a1.663 1.663 0 1 1 0-3.325 1.663 1.663 0 0 1 0 3.325ZM259.468 31.58a1.662 1.662 0 1 1-.001-3.324 1.662 1.662 0 0 1 .001 3.325ZM259.468 39.788a1.662 1.662 0 1 1-.001-3.325 1.662 1.662 0 0 1 .001 3.325ZM259.468 47.996a1.662 1.662 0 1 1-.001-3.325 1.662 1.662 0 0 1 .001 3.325Z"/>
  <path fill="#383A48" d="M259.468 56.17a1.663 1.663 0 1 1 0-3.325 1.663 1.663 0 0 1 0 3.325ZM259.468 64.377a1.663 1.663 0 1 1 0-3.325 1.663 1.663 0 0 1 0 3.325ZM259.468 72.585a1.663 1.663 0 1 1 0-3.325 1.663 1.663 0 0 1 0 3.325ZM259.468 80.759a1.663 1.663 0 1 1 0-3.325 1.663 1.663 0 0 1 0 3.325ZM259.468 88.966a1.662 1.662 0 1 1-.001-3.325 1.662 1.662 0 0 1 .001 3.325ZM259.468 97.174a1.662 1.662 0 1 1-.001-3.325 1.662 1.662 0 0 1 .001 3.325ZM259.468 105.348a1.663 1.663 0 1 1-.001-3.325 1.663 1.663 0 0 1 .001 3.325ZM259.468 113.555a1.662 1.662 0 1 1-.002-3.324 1.662 1.662 0 0 1 .002 3.324ZM267.679 15.2a1.662 1.662 0 1 1 0-3.324 1.662 1.662 0 0 1 0 3.323ZM267.679 23.407a1.662 1.662 0 1 1 0-3.324 1.662 1.662 0 0 1 0 3.324ZM267.679 31.58a1.662 1.662 0 1 1 0-3.322 1.662 1.662 0 0 1 0 3.323ZM267.679 39.788a1.662 1.662 0 1 1 0-3.323 1.662 1.662 0 0 1 0 3.323ZM267.679 47.996a1.662 1.662 0 1 1 0-3.324 1.662 1.662 0 0 1 0 3.324ZM267.679 56.17a1.662 1.662 0 1 1 0-3.323 1.662 1.662 0 0 1 0 3.323ZM267.679 64.377a1.662 1.662 0 1 1 0-3.323 1.662 1.662 0 0 1 0 3.323ZM267.679 72.585a1.662 1.662 0 1 1 0-3.324 1.662 1.662 0 0 1 0 3.324ZM267.679 80.759a1.662 1.662 0 1 1 0-3.323 1.662 1.662 0 0 1 0 3.323ZM267.679 88.966a1.662 1.662 0 1 1 0-3.323 1.662 1.662 0 0 1 0 3.323ZM267.679 97.174a1.662 1.662 0 1 1 0-3.323 1.662 1.662 0 0 1 0 3.323ZM267.679 105.348a1.662 1.662 0 1 1 0-3.323 1.662 1.662 0 0 1 0 3.323ZM267.679 113.555a1.661 1.661 0 1 1-.002-3.322 1.661 1.661 0 0 1 .002 3.322ZM267.679 121.763a1.662 1.662 0 1 1 0-3.324 1.662 1.662 0 0 1 0 3.324ZM275.891 6.992a1.662 1.662 0 1 1-.001-3.325 1.662 1.662 0 0 1 .001 3.325ZM275.891 15.2a1.663 1.663 0 1 1 0-3.326 1.663 1.663 0 0 1 0 3.325ZM275.891 23.407a1.663 1.663 0 1 1 0-3.325 1.663 1.663 0 0 1 0 3.325ZM275.891 31.58a1.662 1.662 0 1 1-.001-3.324 1.662 1.662 0 0 1 .001 3.325ZM275.891 39.788a1.662 1.662 0 1 1-.001-3.325 1.662 1.662 0 0 1 .001 3.325ZM275.891 47.996a1.662 1.662 0 1 1-.001-3.325 1.662 1.662 0 0 1 .001 3.325ZM275.891 56.17a1.663 1.663 0 1 1 0-3.325 1.663 1.663 0 0 1 0 3.325ZM275.891 64.377a1.663 1.663 0 1 1 0-3.325 1.663 1.663 0 0 1 0 3.325ZM275.891 72.585a1.663 1.663 0 1 1 0-3.325 1.663 1.663 0 0 1 0 3.325ZM275.891 80.759a1.663 1.663 0 1 1 0-3.325 1.663 1.663 0 0 1 0 3.325ZM275.891 88.966a1.662 1.662 0 1 1-.001-3.325 1.662 1.662 0 0 1 .001 3.325ZM275.891 97.174a1.662 1.662 0 1 1-.001-3.325 1.662 1.662 0 0 1 .001 3.325ZM275.891 105.348a1.663 1.663 0 1 1-.001-3.325 1.663 1.663 0 0 1 .001 3.325ZM275.891 113.555a1.662 1.662 0 1 1-.002-3.324 1.662 1.662 0 0 1 .002 3.324ZM275.891 121.763a1.663 1.663 0 1 1 0-3.325 1.663 1.663 0 0 1 0 3.325ZM275.891 129.937a1.663 1.663 0 1 1-.001-3.325 1.663 1.663 0 0 1 .001 3.325ZM284.068 6.992a1.662 1.662 0 1 1 0-3.323 1.662 1.662 0 0 1 0 3.323ZM284.068 15.2a1.662 1.662 0 1 1 0-3.324 1.662 1.662 0 0 1 0 3.323ZM284.068 23.407a1.662 1.662 0 1 1 0-3.324 1.662 1.662 0 0 1 0 3.324ZM284.068 31.58a1.662 1.662 0 1 1 0-3.322 1.662 1.662 0 0 1 0 3.323ZM284.068 39.788a1.662 1.662 0 1 1 0-3.323 1.662 1.662 0 0 1 0 3.323ZM284.068 47.996a1.662 1.662 0 1 1 0-3.324 1.662 1.662 0 0 1 0 3.324ZM284.068 56.17a1.662 1.662 0 1 1 0-3.323 1.662 1.662 0 0 1 0 3.323ZM284.068 64.377a1.662 1.662 0 1 1 0-3.323 1.662 1.662 0 0 1 0 3.323ZM284.068 72.585a1.662 1.662 0 1 1 0-3.324 1.662 1.662 0 0 1 0 3.324ZM284.068 80.759a1.662 1.662 0 1 1 0-3.323 1.662 1.662 0 0 1 0 3.323ZM284.068 88.966a1.662 1.662 0 1 1 0-3.323 1.662 1.662 0 0 1 0 3.323ZM284.068 97.174a1.662 1.662 0 1 1 0-3.323 1.662 1.662 0 0 1 0 3.323ZM284.068 105.348a1.662 1.662 0 1 1 0-3.323 1.662 1.662 0 0 1 0 3.323ZM284.068 113.555a1.661 1.661 0 1 1-.002-3.322 1.661 1.661 0 0 1 .002 3.322ZM284.068 121.763a1.662 1.662 0 1 1 0-3.324 1.662 1.662 0 0 1 0 3.324ZM284.068 129.937a1.662 1.662 0 1 1 0-3.323 1.662 1.662 0 0 1 0 3.323ZM292.28 6.992a1.662 1.662 0 1 1 0-3.323 1.662 1.662 0 0 1 0 3.323ZM292.28 15.2a1.662 1.662 0 1 1 0-3.324 1.662 1.662 0 0 1 0 3.323ZM292.28 23.407a1.662 1.662 0 1 1 0-3.324 1.662 1.662 0 0 1 0 3.324ZM292.28 31.58a1.662 1.662 0 1 1 0-3.322 1.662 1.662 0 0 1 0 3.323ZM292.28 39.788a1.662 1.662 0 1 1 0-3.323 1.662 1.662 0 0 1 0 3.323ZM292.28 47.996a1.662 1.662 0 1 1 0-3.324 1.662 1.662 0 0 1 0 3.324ZM292.28 56.17a1.662 1.662 0 1 1 0-3.323 1.662 1.662 0 0 1 0 3.323ZM292.28 64.377a1.662 1.662 0 1 1 0-3.323 1.662 1.662 0 0 1 0 3.323ZM292.28 72.585a1.662 1.662 0 1 1 0-3.324 1.662 1.662 0 0 1 0 3.324ZM292.28 80.759a1.662 1.662 0 1 1 0-3.323 1.662 1.662 0 0 1 0 3.323ZM292.28 88.966a1.662 1.662 0 1 1 0-3.323 1.662 1.662 0 0 1 0 3.323ZM292.28 97.174a1.662 1.662 0 1 1 0-3.323 1.662 1.662 0 0 1 0 3.323ZM292.28 105.348a1.662 1.662 0 1 1 0-3.323 1.662 1.662 0 0 1 0 3.323ZM292.28 113.555a1.661 1.661 0 1 1-.002-3.322 1.661 1.661 0 0 1 .002 3.322ZM292.28 121.763a1.662 1.662 0 1 1 0-3.324 1.662 1.662 0 0 1 0 3.324ZM292.28 129.937a1.662 1.662 0 1 1 0-3.323 1.662 1.662 0 0 1 0 3.323ZM300.491 6.992a1.662 1.662 0 1 1-.001-3.325 1.662 1.662 0 0 1 .001 3.325ZM300.491 15.2a1.663 1.663 0 1 1 0-3.326 1.663 1.663 0 0 1 0 3.325ZM300.491 23.407a1.663 1.663 0 1 1 0-3.325 1.663 1.663 0 0 1 0 3.325ZM300.491 31.58a1.662 1.662 0 1 1-.001-3.324 1.662 1.662 0 0 1 .001 3.325ZM300.491 39.788a1.662 1.662 0 1 1-.001-3.325 1.662 1.662 0 0 1 .001 3.325ZM300.491 47.996a1.662 1.662 0 1 1-.001-3.325 1.662 1.662 0 0 1 .001 3.325ZM300.491 56.17a1.663 1.663 0 1 1 0-3.325 1.663 1.663 0 0 1 0 3.325ZM300.491 64.377a1.663 1.663 0 1 1 0-3.325 1.663 1.663 0 0 1 0 3.325ZM300.491 72.585a1.663 1.663 0 1 1 0-3.325 1.663 1.663 0 0 1 0 3.325ZM300.491 80.759a1.663 1.663 0 1 1 0-3.325 1.663 1.663 0 0 1 0 3.325ZM300.491 88.966a1.662 1.662 0 1 1-.001-3.325 1.662 1.662 0 0 1 .001 3.325ZM300.491 97.174a1.662 1.662 0 1 1-.001-3.325 1.662 1.662 0 0 1 .001 3.325ZM300.491 105.348a1.663 1.663 0 1 1-.001-3.325 1.663 1.663 0 0 1 .001 3.325ZM300.491 113.555a1.662 1.662 0 1 1-.002-3.324 1.662 1.662 0 0 1 .002 3.324ZM300.491 121.763a1.663 1.663 0 1 1 0-3.325 1.663 1.663 0 0 1 0 3.325ZM300.491 129.937a1.663 1.663 0 1 1-.001-3.325 1.663 1.663 0 0 1 .001 3.325ZM308.669 6.992a1.662 1.662 0 1 1 0-3.323 1.662 1.662 0 0 1 0 3.323ZM308.669 15.2a1.662 1.662 0 1 1 0-3.324 1.662 1.662 0 0 1 0 3.323ZM308.669 23.407a1.662 1.662 0 1 1 0-3.324 1.662 1.662 0 0 1 0 3.324ZM308.669 31.58a1.662 1.662 0 1 1 0-3.322 1.662 1.662 0 0 1 0 3.323ZM308.669 39.788a1.662 1.662 0 1 1 0-3.323 1.662 1.662 0 0 1 0 3.323ZM308.669 47.996a1.662 1.662 0 1 1 0-3.324 1.662 1.662 0 0 1 0 3.324ZM308.669 56.17a1.662 1.662 0 1 1 0-3.323 1.662 1.662 0 0 1 0 3.323ZM308.669 64.377a1.662 1.662 0 1 1 0-3.323 1.662 1.662 0 0 1 0 3.323ZM308.669 72.585a1.662 1.662 0 1 1 0-3.324 1.662 1.662 0 0 1 0 3.324ZM308.669 80.759a1.662 1.662 0 1 1 0-3.323 1.662 1.662 0 0 1 0 3.323ZM308.669 88.966a1.662 1.662 0 1 1 0-3.323 1.662 1.662 0 0 1 0 3.323ZM308.669 97.174a1.662 1.662 0 1 1 0-3.323 1.662 1.662 0 0 1 0 3.323ZM308.669 105.348a1.662 1.662 0 1 1 0-3.323 1.662 1.662 0 0 1 0 3.323ZM308.669 113.555a1.661 1.661 0 1 1-.002-3.322 1.661 1.661 0 0 1 .002 3.322ZM308.669 121.763a1.662 1.662 0 1 1 0-3.324 1.662 1.662 0 0 1 0 3.324ZM308.669 129.937a1.662 1.662 0 1 1 0-3.323 1.662 1.662 0 0 1 0 3.323ZM316.88 6.992a1.662 1.662 0 1 1 0-3.323 1.662 1.662 0 0 1 0 3.323ZM316.88 15.2a1.662 1.662 0 1 1 0-3.324 1.662 1.662 0 0 1 0 3.323ZM316.88 23.407a1.662 1.662 0 1 1 0-3.324 1.662 1.662 0 0 1 0 3.324ZM316.88 31.58a1.662 1.662 0 1 1 0-3.322 1.662 1.662 0 0 1 0 3.323ZM316.88 39.788a1.662 1.662 0 1 1 0-3.323 1.662 1.662 0 0 1 0 3.323ZM316.88 47.996a1.662 1.662 0 1 1 0-3.324 1.662 1.662 0 0 1 0 3.324ZM316.88 56.17a1.662 1.662 0 1 1 0-3.323 1.662 1.662 0 0 1 0 3.323ZM316.88 64.377a1.662 1.662 0 1 1 0-3.323 1.662 1.662 0 0 1 0 3.323ZM316.88 72.585a1.662 1.662 0 1 1 0-3.324 1.662 1.662 0 0 1 0 3.324ZM316.88 80.759a1.662 1.662 0 1 1 0-3.323 1.662 1.662 0 0 1 0 3.323ZM316.88 88.966a1.662 1.662 0 1 1 0-3.323 1.662 1.662 0 0 1 0 3.323ZM316.88 97.174a1.662 1.662 0 1 1 0-3.323 1.662 1.662 0 0 1 0 3.323ZM316.88 105.348a1.662 1.662 0 1 1 0-3.323 1.662 1.662 0 0 1 0 3.323ZM316.88 113.555a1.661 1.661 0 1 1-.002-3.322 1.661 1.661 0 0 1 .002 3.322ZM316.88 121.763a1.662 1.662 0 1 1 0-3.324 1.662 1.662 0 0 1 0 3.324ZM316.88 129.937a1.662 1.662 0 1 1 0-3.323 1.662 1.662 0 0 1 0 3.323ZM325.091 6.992a1.662 1.662 0 1 1 0-3.323 1.662 1.662 0 0 1 0 3.323ZM325.091 15.2a1.662 1.662 0 1 1 0-3.324 1.662 1.662 0 0 1 0 3.323ZM325.091 23.407a1.662 1.662 0 1 1 0-3.324 1.662 1.662 0 0 1 0 3.324ZM325.091 31.58a1.662 1.662 0 1 1 0-3.322 1.662 1.662 0 0 1 0 3.323ZM325.091 39.788a1.662 1.662 0 1 1 0-3.323 1.662 1.662 0 0 1 0 3.323ZM325.091 47.996a1.662 1.662 0 1 1 0-3.324 1.662 1.662 0 0 1 0 3.324ZM325.091 56.17a1.662 1.662 0 1 1 0-3.323 1.662 1.662 0 0 1 0 3.323ZM325.091 64.377a1.662 1.662 0 1 1 0-3.323 1.662 1.662 0 0 1 0 3.323ZM325.091 72.585a1.662 1.662 0 1 1 0-3.324 1.662 1.662 0 0 1 0 3.324ZM325.091 80.759a1.662 1.662 0 1 1 0-3.323 1.662 1.662 0 0 1 0 3.323ZM325.091 88.966a1.662 1.662 0 1 1 0-3.323 1.662 1.662 0 0 1 0 3.323ZM325.091 97.174a1.662 1.662 0 1 1 0-3.323 1.662 1.662 0 0 1 0 3.323ZM325.091 105.348a1.662 1.662 0 1 1 0-3.323 1.662 1.662 0 0 1 0 3.323ZM325.091 113.555a1.661 1.661 0 1 1-.002-3.322 1.661 1.661 0 0 1 .002 3.322ZM325.091 121.763a1.662 1.662 0 1 1 0-3.324 1.662 1.662 0 0 1 0 3.324ZM325.091 129.937a1.662 1.662 0 1 1 0-3.323 1.662 1.662 0 0 1 0 3.323ZM333.269 6.992a1.662 1.662 0 1 1 0-3.323 1.662 1.662 0 0 1 0 3.323ZM333.269 15.2a1.662 1.662 0 1 1 0-3.324 1.662 1.662 0 0 1 0 3.323ZM333.269 23.407a1.662 1.662 0 1 1 0-3.324 1.662 1.662 0 0 1 0 3.324ZM333.269 31.58a1.662 1.662 0 1 1 0-3.322 1.662 1.662 0 0 1 0 3.323ZM333.269 39.788a1.662 1.662 0 1 1 0-3.323 1.662 1.662 0 0 1 0 3.323ZM333.269 47.996a1.662 1.662 0 1 1 0-3.324 1.662 1.662 0 0 1 0 3.324ZM333.269 56.17a1.662 1.662 0 1 1 0-3.323 1.662 1.662 0 0 1 0 3.323ZM333.269 64.377a1.662 1.662 0 1 1 0-3.323 1.662 1.662 0 0 1 0 3.323ZM333.269 72.585a1.662 1.662 0 1 1 0-3.324 1.662 1.662 0 0 1 0 3.324ZM333.269 80.759a1.662 1.662 0 1 1 0-3.323 1.662 1.662 0 0 1 0 3.323ZM333.269 88.966a1.662 1.662 0 1 1 0-3.323 1.662 1.662 0 0 1 0 3.323ZM333.269 97.174a1.662 1.662 0 1 1 0-3.323 1.662 1.662 0 0 1 0 3.323ZM333.269 105.348a1.662 1.662 0 1 1 0-3.323 1.662 1.662 0 0 1 0 3.323ZM333.269 113.555a1.661 1.661 0 1 1-.002-3.322 1.661 1.661 0 0 1 .002 3.322ZM333.269 121.763a1.662 1.662 0 1 1 0-3.324 1.662 1.662 0 0 1 0 3.324ZM333.269 129.937a1.662 1.662 0 1 1 0-3.323 1.662 1.662 0 0 1 0 3.323ZM341.48 6.992a1.662 1.662 0 1 1 0-3.323 1.662 1.662 0 0 1 0 3.323ZM341.48 15.2a1.662 1.662 0 1 1 0-3.324 1.662 1.662 0 0 1 0 3.323ZM341.48 23.407a1.662 1.662 0 1 1 0-3.324 1.662 1.662 0 0 1 0 3.324ZM341.48 31.58a1.662 1.662 0 1 1 0-3.322 1.662 1.662 0 0 1 0 3.323ZM341.48 39.788a1.662 1.662 0 1 1 0-3.323 1.662 1.662 0 0 1 0 3.323ZM341.48 47.996a1.662 1.662 0 1 1 0-3.324 1.662 1.662 0 0 1 0 3.324ZM341.48 56.17a1.662 1.662 0 1 1 0-3.323 1.662 1.662 0 0 1 0 3.323ZM341.48 64.377a1.662 1.662 0 1 1 0-3.323 1.662 1.662 0 0 1 0 3.323ZM341.48 72.585a1.662 1.662 0 1 1 0-3.324 1.662 1.662 0 0 1 0 3.324ZM341.48 80.759a1.662 1.662 0 1 1 0-3.323 1.662 1.662 0 0 1 0 3.323ZM341.48 88.966a1.662 1.662 0 1 1 0-3.323 1.662 1.662 0 0 1 0 3.323ZM341.48 97.174a1.662 1.662 0 1 1 0-3.323 1.662 1.662 0 0 1 0 3.323ZM341.48 105.348a1.662 1.662 0 1 1 0-3.323 1.662 1.662 0 0 1 0 3.323ZM341.48 113.555a1.661 1.661 0 1 1 0-3.322 1.662 1.662 0 1 1 0 3.322ZM341.48 121.763a1.662 1.662 0 1 1 0-3.324 1.662 1.662 0 0 1 0 3.324ZM341.48 129.937a1.662 1.662 0 1 1 0-3.323 1.662 1.662 0 0 1 0 3.323ZM349.691 6.992a1.662 1.662 0 1 1 0-3.323 1.662 1.662 0 0 1 0 3.323ZM349.691 15.2a1.662 1.662 0 1 1 0-3.324 1.662 1.662 0 0 1 0 3.323ZM349.691 23.407a1.662 1.662 0 1 1 0-3.324 1.662 1.662 0 0 1 0 3.324ZM349.691 31.58a1.662 1.662 0 1 1 0-3.322 1.662 1.662 0 0 1 0 3.323ZM349.691 39.788a1.662 1.662 0 1 1 0-3.323 1.662 1.662 0 0 1 0 3.323ZM349.691 47.996a1.662 1.662 0 1 1 0-3.324 1.662 1.662 0 0 1 0 3.324ZM349.691 56.17a1.662 1.662 0 1 1 0-3.323 1.662 1.662 0 0 1 0 3.323ZM349.691 64.377a1.662 1.662 0 1 1 0-3.323 1.662 1.662 0 0 1 0 3.323ZM349.691 72.585a1.662 1.662 0 1 1 0-3.324 1.662 1.662 0 0 1 0 3.324ZM349.691 80.759a1.662 1.662 0 1 1 0-3.323 1.662 1.662 0 0 1 0 3.323ZM349.691 88.966a1.662 1.662 0 1 1 0-3.323 1.662 1.662 0 0 1 0 3.323ZM349.691 97.174a1.662 1.662 0 1 1 0-3.323 1.662 1.662 0 0 1 0 3.323ZM349.691 105.348a1.662 1.662 0 1 1 0-3.323 1.662 1.662 0 0 1 0 3.323ZM349.691 113.555a1.661 1.661 0 1 1 0-3.322 1.662 1.662 0 1 1 0 3.322ZM349.691 121.763a1.662 1.662 0 1 1 0-3.324 1.662 1.662 0 0 1 0 3.324ZM349.691 129.937a1.662 1.662 0 1 1 0-3.323 1.662 1.662 0 0 1 0 3.323ZM357.87 6.992a1.662 1.662 0 1 1-.001-3.325 1.662 1.662 0 0 1 .001 3.325ZM357.87 15.2a1.663 1.663 0 1 1 0-3.326 1.663 1.663 0 0 1 0 3.325ZM357.87 23.407a1.663 1.663 0 1 1 0-3.325 1.663 1.663 0 0 1 0 3.325ZM357.87 31.58a1.662 1.662 0 1 1-.001-3.324 1.662 1.662 0 0 1 .001 3.325ZM357.87 39.788a1.662 1.662 0 1 1-.001-3.325 1.662 1.662 0 0 1 .001 3.325ZM357.87 47.996a1.662 1.662 0 1 1-.001-3.325 1.662 1.662 0 0 1 .001 3.325ZM357.87 56.17a1.663 1.663 0 1 1 0-3.325 1.663 1.663 0 0 1 0 3.325ZM357.87 64.377a1.663 1.663 0 1 1 0-3.325 1.663 1.663 0 0 1 0 3.325ZM357.87 72.585a1.663 1.663 0 1 1 0-3.325 1.663 1.663 0 0 1 0 3.325ZM357.87 80.759a1.663 1.663 0 1 1 0-3.325 1.663 1.663 0 0 1 0 3.325ZM357.87 88.966a1.662 1.662 0 1 1-.001-3.325 1.662 1.662 0 0 1 .001 3.325ZM357.87 97.174a1.662 1.662 0 1 1-.001-3.325 1.662 1.662 0 0 1 .001 3.325ZM357.87 105.348a1.663 1.663 0 1 1-.001-3.325 1.663 1.663 0 0 1 .001 3.325ZM357.87 113.555a1.662 1.662 0 1 1-.002-3.324 1.662 1.662 0 0 1 .002 3.324ZM357.87 121.763a1.663 1.663 0 1 1 0-3.325 1.663 1.663 0 0 1 0 3.325ZM357.87 129.937a1.663 1.663 0 1 1-.001-3.325 1.663 1.663 0 0 1 .001 3.325ZM366.081 6.992a1.662 1.662 0 1 1 0-3.323 1.662 1.662 0 0 1 0 3.323ZM366.081 15.2a1.662 1.662 0 1 1 0-3.324 1.662 1.662 0 0 1 0 3.323ZM366.081 23.407a1.662 1.662 0 1 1 0-3.324 1.662 1.662 0 0 1 0 3.324ZM366.081 31.58a1.662 1.662 0 1 1 0-3.322 1.662 1.662 0 0 1 0 3.323ZM366.081 39.788a1.662 1.662 0 1 1 0-3.323 1.662 1.662 0 0 1 0 3.323ZM366.081 47.996a1.662 1.662 0 1 1 0-3.324 1.662 1.662 0 0 1 0 3.324ZM366.081 56.17a1.662 1.662 0 1 1 0-3.323 1.662 1.662 0 0 1 0 3.323ZM366.081 64.377a1.662 1.662 0 1 1 0-3.323 1.662 1.662 0 0 1 0 3.323ZM366.081 72.585a1.662 1.662 0 1 1 0-3.324 1.662 1.662 0 0 1 0 3.324ZM366.081 80.759a1.662 1.662 0 1 1 0-3.323 1.662 1.662 0 0 1 0 3.323ZM366.081 88.966a1.662 1.662 0 1 1 0-3.323 1.662 1.662 0 0 1 0 3.323ZM366.081 97.174a1.662 1.662 0 1 1 0-3.323 1.662 1.662 0 0 1 0 3.323ZM366.081 105.348a1.662 1.662 0 1 1 0-3.323 1.662 1.662 0 0 1 0 3.323ZM366.081 113.555a1.661 1.661 0 1 1-.002-3.322 1.661 1.661 0 0 1 .002 3.322ZM366.081 121.763a1.662 1.662 0 1 1 0-3.324 1.662 1.662 0 0 1 0 3.324ZM366.081 129.937a1.662 1.662 0 1 1 0-3.323 1.662 1.662 0 0 1 0 3.323ZM374.292 6.992a1.662 1.662 0 1 1 0-3.323 1.662 1.662 0 0 1 0 3.323ZM374.292 15.2a1.662 1.662 0 1 1 0-3.324 1.662 1.662 0 0 1 0 3.323ZM374.292 23.407a1.662 1.662 0 1 1 0-3.324 1.662 1.662 0 0 1 0 3.324ZM374.292 31.58a1.662 1.662 0 1 1 0-3.322 1.662 1.662 0 0 1 0 3.323ZM374.292 39.788a1.662 1.662 0 1 1 0-3.323 1.662 1.662 0 0 1 0 3.323ZM374.292 47.996a1.662 1.662 0 1 1 0-3.324 1.662 1.662 0 0 1 0 3.324ZM374.292 56.17a1.662 1.662 0 1 1 0-3.323 1.662 1.662 0 0 1 0 3.323ZM374.292 64.377a1.662 1.662 0 1 1 0-3.323 1.662 1.662 0 0 1 0 3.323ZM374.292 72.585a1.662 1.662 0 1 1 0-3.324 1.662 1.662 0 0 1 0 3.324ZM374.292 80.759a1.662 1.662 0 1 1 0-3.323 1.662 1.662 0 0 1 0 3.323ZM374.292 88.966a1.662 1.662 0 1 1 0-3.323 1.662 1.662 0 0 1 0 3.323ZM374.292 97.174a1.662 1.662 0 1 1 0-3.323 1.662 1.662 0 0 1 0 3.323ZM374.292 105.348a1.662 1.662 0 1 1 0-3.323 1.662 1.662 0 0 1 0 3.323ZM374.292 113.555a1.661 1.661 0 1 1-.002-3.322 1.661 1.661 0 0 1 .002 3.322ZM374.292 121.763a1.662 1.662 0 1 1 0-3.324 1.662 1.662 0 0 1 0 3.324ZM374.292 129.937a1.662 1.662 0 1 1 0-3.323 1.662 1.662 0 0 1 0 3.323ZM382.47 6.992a1.662 1.662 0 1 1 0-3.323 1.662 1.662 0 0 1 0 3.323ZM382.47 15.2a1.662 1.662 0 1 1 0-3.324 1.662 1.662 0 0 1 0 3.323ZM382.47 23.407a1.662 1.662 0 1 1 0-3.324 1.662 1.662 0 0 1 0 3.324ZM382.47 31.58a1.662 1.662 0 1 1 0-3.322 1.662 1.662 0 0 1 0 3.323ZM382.47 39.788a1.662 1.662 0 1 1 0-3.323 1.662 1.662 0 0 1 0 3.323ZM382.47 47.996a1.662 1.662 0 1 1 0-3.324 1.662 1.662 0 0 1 0 3.324ZM382.47 56.17a1.662 1.662 0 1 1 0-3.323 1.662 1.662 0 0 1 0 3.323ZM382.47 64.377a1.662 1.662 0 1 1 0-3.323 1.662 1.662 0 0 1 0 3.323ZM382.47 72.585a1.662 1.662 0 1 1 0-3.324 1.662 1.662 0 0 1 0 3.324ZM382.47 80.759a1.662 1.662 0 1 1 0-3.323 1.662 1.662 0 0 1 0 3.323ZM382.47 88.966a1.662 1.662 0 1 1 0-3.323 1.662 1.662 0 0 1 0 3.323ZM382.47 97.174a1.662 1.662 0 1 1 0-3.323 1.662 1.662 0 0 1 0 3.323ZM382.47 105.348a1.662 1.662 0 1 1 0-3.323 1.662 1.662 0 0 1 0 3.323ZM382.47 113.555a1.661 1.661 0 1 1-.002-3.322 1.661 1.661 0 0 1 .002 3.322ZM382.47 121.763a1.662 1.662 0 1 1 0-3.324 1.662 1.662 0 0 1 0 3.324ZM382.47 129.937a1.662 1.662 0 1 1 0-3.323 1.662 1.662 0 0 1 0 3.323ZM390.681 6.992a1.662 1.662 0 1 1 0-3.323 1.662 1.662 0 0 1 0 3.323ZM390.681 15.2a1.662 1.662 0 1 1 0-3.324 1.662 1.662 0 0 1 0 3.323ZM390.681 23.407a1.662 1.662 0 1 1 0-3.324 1.662 1.662 0 0 1 0 3.324ZM390.681 31.58a1.662 1.662 0 1 1 0-3.322 1.662 1.662 0 0 1 0 3.323ZM390.681 39.788a1.662 1.662 0 1 1 0-3.323 1.662 1.662 0 0 1 0 3.323ZM390.681 47.996a1.662 1.662 0 1 1 0-3.324 1.662 1.662 0 0 1 0 3.324ZM390.681 56.17a1.662 1.662 0 1 1 0-3.323 1.662 1.662 0 0 1 0 3.323ZM390.681 64.377a1.662 1.662 0 1 1 0-3.323 1.662 1.662 0 0 1 0 3.323ZM390.681 72.585a1.662 1.662 0 1 1 0-3.324 1.662 1.662 0 0 1 0 3.324ZM390.681 80.759a1.662 1.662 0 1 1 0-3.323 1.662 1.662 0 0 1 0 3.323ZM390.681 88.966a1.662 1.662 0 1 1 0-3.323 1.662 1.662 0 0 1 0 3.323ZM390.681 97.174a1.662 1.662 0 1 1 0-3.323 1.662 1.662 0 0 1 0 3.323ZM390.681 105.348a1.662 1.662 0 1 1 0-3.323 1.662 1.662 0 0 1 0 3.323ZM390.681 113.555a1.661 1.661 0 1 1-.002-3.322 1.661 1.661 0 0 1 .002 3.322ZM390.681 121.763a1.662 1.662 0 1 1 0-3.324 1.662 1.662 0 0 1 0 3.324ZM390.681 129.937a1.662 1.662 0 1 1 0-3.323 1.662 1.662 0 0 1 0 3.323ZM398.892 6.992a1.662 1.662 0 1 1 0-3.323 1.662 1.662 0 0 1 0 3.323ZM398.892 15.2a1.662 1.662 0 1 1 0-3.324 1.662 1.662 0 0 1 0 3.323ZM398.892 23.407a1.662 1.662 0 1 1 0-3.324 1.662 1.662 0 0 1 0 3.324ZM398.892 31.58a1.662 1.662 0 1 1 0-3.322 1.662 1.662 0 0 1 0 3.323ZM398.892 39.788a1.662 1.662 0 1 1 0-3.323 1.662 1.662 0 0 1 0 3.323ZM398.892 47.996a1.662 1.662 0 1 1 0-3.324 1.662 1.662 0 0 1 0 3.324ZM398.892 56.17a1.662 1.662 0 1 1 0-3.323 1.662 1.662 0 0 1 0 3.323ZM398.892 64.377a1.662 1.662 0 1 1 0-3.323 1.662 1.662 0 0 1 0 3.323ZM398.892 72.585a1.662 1.662 0 1 1 0-3.324 1.662 1.662 0 0 1 0 3.324ZM398.892 80.759a1.662 1.662 0 1 1 0-3.323 1.662 1.662 0 0 1 0 3.323ZM398.892 88.966a1.662 1.662 0 1 1 0-3.323 1.662 1.662 0 0 1 0 3.323ZM398.892 97.174a1.662 1.662 0 1 1 0-3.323 1.662 1.662 0 0 1 0 3.323ZM398.892 105.348a1.662 1.662 0 1 1 0-3.323 1.662 1.662 0 0 1 0 3.323ZM398.892 113.555a1.661 1.661 0 1 1 0-3.322 1.662 1.662 0 1 1 0 3.322ZM398.892 121.763a1.662 1.662 0 1 1 0-3.324 1.662 1.662 0 0 1 0 3.324ZM398.892 129.937a1.662 1.662 0 1 1 0-3.323 1.662 1.662 0 0 1 0 3.323ZM407.07 6.992a1.662 1.662 0 1 1 0-3.323 1.662 1.662 0 0 1 0 3.323ZM407.07 15.2a1.662 1.662 0 1 1 0-3.324 1.662 1.662 0 0 1 0 3.323ZM407.07 23.407a1.662 1.662 0 1 1 0-3.324 1.662 1.662 0 0 1 0 3.324ZM407.07 31.58a1.662 1.662 0 1 1 0-3.322 1.662 1.662 0 0 1 0 3.323ZM407.07 39.788a1.662 1.662 0 1 1 0-3.323 1.662 1.662 0 0 1 0 3.323ZM407.07 47.996a1.662 1.662 0 1 1 0-3.324 1.662 1.662 0 0 1 0 3.324ZM407.07 56.17a1.662 1.662 0 1 1 0-3.323 1.662 1.662 0 0 1 0 3.323ZM407.07 64.377a1.662 1.662 0 1 1 0-3.323 1.662 1.662 0 0 1 0 3.323ZM407.07 72.585a1.662 1.662 0 1 1 0-3.324 1.662 1.662 0 0 1 0 3.324ZM407.07 80.759a1.662 1.662 0 1 1 0-3.323 1.662 1.662 0 0 1 0 3.323ZM407.07 88.966a1.662 1.662 0 1 1 0-3.323 1.662 1.662 0 0 1 0 3.323ZM407.07 97.174a1.662 1.662 0 1 1 0-3.323 1.662 1.662 0 0 1 0 3.323ZM407.07 105.348a1.662 1.662 0 1 1 0-3.323 1.662 1.662 0 0 1 0 3.323ZM407.07 113.555a1.661 1.661 0 1 1-.002-3.322 1.661 1.661 0 0 1 .002 3.322ZM407.07 121.763a1.662 1.662 0 1 1 0-3.324 1.662 1.662 0 0 1 0 3.324ZM407.07 129.937a1.662 1.662 0 1 1 0-3.323 1.662 1.662 0 0 1 0 3.323ZM407.07 138.145a1.662 1.662 0 1 1 0-3.324 1.662 1.662 0 0 1 0 3.324ZM415.282 6.992a1.662 1.662 0 1 1-.001-3.325 1.662 1.662 0 0 1 .001 3.325ZM415.282 15.2a1.663 1.663 0 1 1 0-3.326 1.663 1.663 0 0 1 0 3.325ZM415.282 23.407a1.663 1.663 0 1 1 0-3.325 1.663 1.663 0 0 1 0 3.325ZM415.282 31.58a1.662 1.662 0 1 1-.001-3.324 1.662 1.662 0 0 1 .001 3.325ZM415.282 39.788a1.662 1.662 0 1 1-.001-3.325 1.662 1.662 0 0 1 .001 3.325ZM415.282 47.996a1.662 1.662 0 1 1-.001-3.325 1.662 1.662 0 0 1 .001 3.325ZM415.282 56.17a1.663 1.663 0 1 1 0-3.325 1.663 1.663 0 0 1 0 3.325ZM415.282 64.377a1.663 1.663 0 1 1 0-3.325 1.663 1.663 0 0 1 0 3.325ZM415.282 72.585a1.663 1.663 0 1 1 0-3.325 1.663 1.663 0 0 1 0 3.325ZM415.282 80.759a1.663 1.663 0 1 1 0-3.325 1.663 1.663 0 0 1 0 3.325ZM415.282 88.966a1.662 1.662 0 1 1-.001-3.325 1.662 1.662 0 0 1 .001 3.325ZM415.282 97.174a1.662 1.662 0 1 1-.001-3.325 1.662 1.662 0 0 1 .001 3.325ZM415.282 105.348a1.663 1.663 0 1 1-.001-3.325 1.663 1.663 0 0 1 .001 3.325ZM415.282 113.555a1.662 1.662 0 1 1-.002-3.324 1.662 1.662 0 0 1 .002 3.324ZM415.282 121.763a1.663 1.663 0 1 1 0-3.325 1.663 1.663 0 0 1 0 3.325ZM415.282 129.937a1.663 1.663 0 1 1-.001-3.325 1.663 1.663 0 0 1 .001 3.325ZM415.282 138.145a1.663 1.663 0 1 1 0-3.325 1.663 1.663 0 0 1 0 3.325ZM415.282 146.352a1.663 1.663 0 1 1 0-3.325 1.663 1.663 0 0 1 0 3.325ZM415.282 154.526a1.663 1.663 0 1 1-.001-3.325 1.663 1.663 0 0 1 .001 3.325ZM423.493 6.992a1.662 1.662 0 1 1-.001-3.325 1.662 1.662 0 0 1 .001 3.325ZM423.493 15.2a1.663 1.663 0 1 1 0-3.326 1.663 1.663 0 0 1 0 3.325ZM423.493 23.407a1.663 1.663 0 1 1 0-3.325 1.663 1.663 0 0 1 0 3.325ZM423.493 31.58a1.662 1.662 0 1 1-.001-3.324 1.662 1.662 0 0 1 .001 3.325ZM423.493 39.788a1.662 1.662 0 1 1-.001-3.325 1.662 1.662 0 0 1 .001 3.325ZM423.493 47.996a1.662 1.662 0 1 1-.001-3.325 1.662 1.662 0 0 1 .001 3.325ZM423.493 56.17a1.663 1.663 0 1 1 0-3.325 1.663 1.663 0 0 1 0 3.325ZM423.493 64.377a1.663 1.663 0 1 1 0-3.325 1.663 1.663 0 0 1 0 3.325ZM423.493 72.585a1.663 1.663 0 1 1 0-3.325 1.663 1.663 0 0 1 0 3.325ZM423.493 80.759a1.663 1.663 0 1 1 0-3.325 1.663 1.663 0 0 1 0 3.325ZM423.493 88.966a1.662 1.662 0 1 1-.001-3.325 1.662 1.662 0 0 1 .001 3.325ZM423.493 97.174a1.662 1.662 0 1 1-.001-3.325 1.662 1.662 0 0 1 .001 3.325ZM423.493 105.348a1.663 1.663 0 1 1-.001-3.325 1.663 1.663 0 0 1 .001 3.325ZM423.493 113.555a1.662 1.662 0 1 1-.002-3.324 1.662 1.662 0 0 1 .002 3.324ZM423.493 121.763a1.663 1.663 0 1 1 0-3.325 1.663 1.663 0 0 1 0 3.325ZM423.493 129.937a1.663 1.663 0 1 1-.001-3.325 1.663 1.663 0 0 1 .001 3.325ZM423.493 138.145a1.663 1.663 0 1 1 0-3.325 1.663 1.663 0 0 1 0 3.325ZM423.493 146.352a1.663 1.663 0 1 1 0-3.325 1.663 1.663 0 0 1 0 3.325ZM423.493 154.526a1.663 1.663 0 1 1-.001-3.325 1.663 1.663 0 0 1 .001 3.325ZM423.493 162.733a1.662 1.662 0 1 1-.002-3.324 1.662 1.662 0 0 1 .002 3.324ZM431.671 6.992a1.662 1.662 0 1 1 0-3.323 1.662 1.662 0 0 1 0 3.323ZM431.671 15.2a1.662 1.662 0 1 1 0-3.324 1.662 1.662 0 0 1 0 3.323ZM431.671 23.407a1.662 1.662 0 1 1 0-3.324 1.662 1.662 0 0 1 0 3.324ZM431.671 31.58a1.662 1.662 0 1 1 0-3.322 1.662 1.662 0 0 1 0 3.323ZM431.671 39.788a1.662 1.662 0 1 1 0-3.323 1.662 1.662 0 0 1 0 3.323ZM431.671 47.996a1.662 1.662 0 1 1 0-3.324 1.662 1.662 0 0 1 0 3.324ZM431.671 56.17a1.662 1.662 0 1 1 0-3.323 1.662 1.662 0 0 1 0 3.323ZM431.671 64.377a1.662 1.662 0 1 1 0-3.323 1.662 1.662 0 0 1 0 3.323ZM431.671 72.585a1.662 1.662 0 1 1 0-3.324 1.662 1.662 0 0 1 0 3.324ZM431.671 80.759a1.662 1.662 0 1 1 0-3.323 1.662 1.662 0 0 1 0 3.323ZM431.671 88.966a1.662 1.662 0 1 1 0-3.323 1.662 1.662 0 0 1 0 3.323ZM431.671 97.174a1.662 1.662 0 1 1 0-3.323 1.662 1.662 0 0 1 0 3.323ZM431.671 105.348a1.662 1.662 0 1 1 0-3.323 1.662 1.662 0 0 1 0 3.323ZM431.671 113.555a1.661 1.661 0 1 1-.002-3.322 1.661 1.661 0 0 1 .002 3.322ZM431.671 121.763a1.662 1.662 0 1 1 0-3.324 1.662 1.662 0 0 1 0 3.324ZM431.671 129.937a1.662 1.662 0 1 1 0-3.323 1.662 1.662 0 0 1 0 3.323ZM431.671 138.145a1.662 1.662 0 1 1 0-3.324 1.662 1.662 0 0 1 0 3.324ZM431.671 146.352a1.662 1.662 0 1 1 0-3.324 1.662 1.662 0 0 1 0 3.324ZM431.671 154.526a1.662 1.662 0 1 1 0-3.323 1.662 1.662 0 0 1 0 3.323ZM431.671 162.733a1.661 1.661 0 1 1-.002-3.322 1.661 1.661 0 0 1 .002 3.322ZM439.882 6.992a1.662 1.662 0 1 1 0-3.323 1.662 1.662 0 0 1 0 3.323ZM439.882 15.2a1.662 1.662 0 1 1 0-3.324 1.662 1.662 0 0 1 0 3.323ZM439.882 23.407a1.662 1.662 0 1 1 0-3.324 1.662 1.662 0 0 1 0 3.324ZM439.882 31.58a1.662 1.662 0 1 1 0-3.322 1.662 1.662 0 0 1 0 3.323ZM439.882 39.788a1.662 1.662 0 1 1 0-3.323 1.662 1.662 0 0 1 0 3.323ZM439.882 47.996a1.662 1.662 0 1 1 0-3.324 1.662 1.662 0 0 1 0 3.324ZM439.882 56.17a1.662 1.662 0 1 1 0-3.323 1.662 1.662 0 0 1 0 3.323ZM439.882 64.377a1.662 1.662 0 1 1 0-3.323 1.662 1.662 0 0 1 0 3.323ZM439.882 72.585a1.662 1.662 0 1 1 0-3.324 1.662 1.662 0 0 1 0 3.324ZM439.882 80.759a1.662 1.662 0 1 1 0-3.323 1.662 1.662 0 0 1 0 3.323ZM439.882 88.966a1.662 1.662 0 1 1 0-3.323 1.662 1.662 0 0 1 0 3.323ZM439.882 97.174a1.662 1.662 0 1 1 0-3.323 1.662 1.662 0 0 1 0 3.323ZM439.882 105.348a1.662 1.662 0 1 1 0-3.323 1.662 1.662 0 0 1 0 3.323ZM439.882 113.555a1.661 1.661 0 1 1-.002-3.322 1.661 1.661 0 0 1 .002 3.322ZM439.882 121.763a1.662 1.662 0 1 1 0-3.324 1.662 1.662 0 0 1 0 3.324ZM439.882 129.937a1.662 1.662 0 1 1 0-3.323 1.662 1.662 0 0 1 0 3.323ZM439.882 154.526a1.662 1.662 0 1 1 0-3.323 1.662 1.662 0 0 1 0 3.323ZM439.882 162.733a1.661 1.661 0 1 1-.002-3.322 1.661 1.661 0 0 1 .002 3.322ZM448.093 15.2a1.662 1.662 0 1 1 0-3.324 1.662 1.662 0 0 1 0 3.323ZM448.093 23.407a1.662 1.662 0 1 1 0-3.324 1.662 1.662 0 0 1 0 3.324ZM448.093 31.58a1.662 1.662 0 1 1 0-3.322 1.662 1.662 0 0 1 0 3.323ZM448.093 39.788a1.662 1.662 0 1 1 0-3.323 1.662 1.662 0 0 1 0 3.323ZM448.093 47.996a1.662 1.662 0 1 1 0-3.324 1.662 1.662 0 0 1 0 3.324ZM448.093 56.17a1.662 1.662 0 1 1 0-3.323 1.662 1.662 0 0 1 0 3.323ZM448.093 64.377a1.662 1.662 0 1 1 0-3.323 1.662 1.662 0 0 1 0 3.323ZM448.093 72.585a1.662 1.662 0 1 1 0-3.324 1.662 1.662 0 0 1 0 3.324ZM448.093 80.759a1.662 1.662 0 1 1 0-3.323 1.662 1.662 0 0 1 0 3.323ZM448.093 88.966a1.662 1.662 0 1 1 0-3.323 1.662 1.662 0 0 1 0 3.323ZM448.093 97.174a1.662 1.662 0 1 1 0-3.323 1.662 1.662 0 0 1 0 3.323ZM448.093 105.348a1.662 1.662 0 1 1 0-3.323 1.662 1.662 0 0 1 0 3.323ZM448.093 113.555a1.661 1.661 0 1 1-.002-3.322 1.661 1.661 0 0 1 .002 3.322ZM448.093 121.763a1.662 1.662 0 1 1 0-3.324 1.662 1.662 0 0 1 0 3.324Z"/>
  <path fill="#F3F6E6" d="M253.683 4.965h157.809c10.804 0 19.547 8.739 19.547 19.538v85.331c0 10.799-8.743 19.538-19.547 19.538h-8.943l21.908 39.775-49.733-39.775H253.683c-10.804 0-19.547-8.739-19.547-19.538V24.536c0-10.799 8.743-19.571 19.547-19.571Z"/>
  <path fill="#383A48" fill-rule="evenodd" d="M425.487 170.443a1.634 1.634 0 0 1-1.064.398c-.365 0-.731-.133-1.03-.365l-49.267-39.442H253.683c-11.701 0-21.209-9.504-21.209-21.2V24.536c0-11.696 9.508-21.2 21.209-21.2h157.809c11.701 0 21.209 9.504 21.209 21.2v85.331c0 11.696-9.508 21.2-21.209 21.2h-6.15l20.544 37.315c.366.698.2 1.562-.399 2.061Zm3.89-145.94c0-9.869-8.012-17.877-17.885-17.877v.034H253.683c-9.873 0-17.885 8.008-17.885 17.876v85.331c0 9.869 8.012 17.877 17.885 17.877h121.041c.366 0 .731.133 1.031.365l43.183 34.558-17.852-32.464c-.266-.532-.266-1.163.034-1.662.299-.531.831-.83 1.429-.83h8.943c9.873 0 17.885-8.008 17.885-17.877v-85.33Z" clip-rule="evenodd"/>
  <path fill="#4053FA" d="m291.315 53.711 40.292-29.075c.565-.432 1.363-.432 1.961 0l40.292 29.075c.598.432.831 1.163.598 1.86a1.676 1.676 0 0 1-1.596 1.164h-7.978v38.279c0 .93-.732 1.661-1.662 1.661h-20.844V69.23c0-.93-.732-1.662-1.662-1.662h-16.29c-.931 0-1.662.731-1.662 1.662V96.675H301.92a1.645 1.645 0 0 1-1.662-1.661v-38.28h-7.979a1.675 1.675 0 0 1-1.595-1.162c-.2-.698.033-1.429.631-1.861Z"/>
  <path fill="#383A48" d="M16.423 52.415a1.65 1.65 0 0 1 1.562-1.096h129.086c.698 0 1.329.432 1.562 1.096a71.57 71.57 0 0 1 1.43 4.486c5.053 18.076 1.928 49.112-9.275 92.176-8.311 31.965-18.218 59.013-18.318 59.279-.166.499-.598.864-1.097 1.03-.166.034-.299.067-.465.067-.366 0-.698-.133-.997-.333-.233-.166-23.304-17.777-47.606-40.605-32.745-30.769-52.026-55.857-57.279-74.63-3.856-13.757-3.357-28.079 1.397-41.47Z"/>
  <path fill="#F6E049" d="M53.855 70.292c0 46.221 67.053 137.466 67.053 137.466s67.019-92.873 67.019-137.466c0-37.017-30.019-67.022-67.052-67.022-37 0-67.02 30.006-67.02 67.022Z"/>
  <path fill="#383A48" fill-rule="evenodd" d="M122.271 208.722c-.333.432-.831.698-1.363.698a1.642 1.642 0 0 1-1.363-.698l-.05-.068c-1.022-1.405-17.385-23.888-33.56-51.47-22.373-38.179-33.742-67.42-33.742-86.892 0-37.88 30.817-68.683 68.715-68.683s68.715 30.803 68.715 68.683c0 18.807-11.337 47.816-33.743 86.294-16.42 28.163-33.034 51.333-33.596 52.117l-.013.019Zm64.027-138.43c0-36.053-29.321-65.36-65.39-65.36-36.07 0-65.39 29.34-65.39 65.36 0 23.493 18.084 59.313 33.276 85.198 13.796 23.559 27.759 43.396 32.08 49.411 4.322-6.115 18.284-26.251 32.114-50.009 15.192-26.085 33.31-61.938 33.31-84.6Z" clip-rule="evenodd"/>
  <path fill="#F3F6E6" d="M120.875 106.145c-19.811 0-35.87-16.052-35.87-35.853 0-19.801 16.059-35.854 35.87-35.854 19.81 0 35.87 16.053 35.87 35.854s-16.06 35.853-35.87 35.853Z"/>
  <path fill="#383A48" fill-rule="evenodd" d="M158.44 70.292c0 20.701-16.855 37.515-37.532 37.515-20.711 0-37.532-16.814-37.532-37.515s16.821-37.515 37.532-37.515c20.711 0 37.532 16.814 37.532 37.515Zm-3.324.033c0-18.84-15.359-34.192-34.208-34.192-18.883 0-34.208 15.352-34.208 34.192s15.359 34.192 34.208 34.192c18.849 0 34.208-15.351 34.208-34.192ZM393.54 202.741c-4.987 2.093-9.873 3.023-14.594 3.023-13.597 0-25.465-7.709-32.446-17.345-2.294-3.157-4.022-6.38-5.12-9.536-2.393.598-5.019.963-7.978 1.063-.432.033-.864.033-1.297.033-12.832 0-27.858-5.483-44.613-16.348-.764-.499-.997-1.529-.498-2.293.498-.764 1.529-.997 2.293-.498 16.755 10.865 31.549 16.182 43.982 15.816 2.626-.099 5.02-.432 7.147-.93-1.429-6.314-.365-12.162 3.292-16.448 2.792-3.257 6.316-4.785 9.64-4.121a7.806 7.806 0 0 1 5.951 5.217c1.064 3.124.1 6.646-2.56 9.603-2.127 2.36-6.05 5.815-12.2 7.975.997 2.791 2.559 5.682 4.621 8.507 8.709 11.929 25.398 20.635 43.117 13.225.831-.333 1.828.066 2.161.897.332.83-.067 1.794-.898 2.16Zm-40.823-44.327c-.3-.067-.599-.1-.898-.1-1.895 0-3.856 1.097-5.552 3.157-2.925 3.389-3.789 8.141-2.659 13.324 5.385-1.96 8.809-4.951 10.671-7.011 1.828-2.06 2.527-4.386 1.862-6.346-.532-1.562-1.829-2.725-3.424-3.024Z" clip-rule="evenodd"/>
  <path fill="#383A48" d="M294.507 192.307c.931 0 1.662-.731 1.662-1.662v-6.247c0-.93-.731-1.661-1.662-1.661-.931 0-1.662.731-1.662 1.661v6.247c0 .931.731 1.662 1.662 1.662ZM294.507 214.67c.931 0 1.662-.731 1.662-1.662v-6.247c0-.93-.731-1.661-1.662-1.661-.931 0-1.662.731-1.662 1.661v6.247c0 .931.731 1.662 1.662 1.662ZM302.585 200.381h6.25c.931 0 1.662-.731 1.662-1.661s-.731-1.661-1.662-1.661h-6.25c-.931 0-1.662.731-1.662 1.661s.731 1.661 1.662 1.661ZM280.179 200.381h6.25c.93 0 1.662-.731 1.662-1.661s-.732-1.661-1.662-1.661h-6.25c-.931 0-1.662.731-1.662 1.661s.764 1.661 1.662 1.661ZM300.191 194.666c.432 0 .865-.166 1.164-.498l4.421-4.42a1.644 1.644 0 0 0 0-2.359 1.645 1.645 0 0 0-2.36 0l-4.421 4.419a1.645 1.645 0 0 0 0 2.36c.365.332.797.498 1.196.498ZM284.368 210.483c.432 0 .864-.166 1.163-.499l4.422-4.419a1.646 1.646 0 0 0 0-2.359 1.646 1.646 0 0 0-2.361 0l-4.421 4.419a1.644 1.644 0 0 0 0 2.359c.365.333.798.499 1.197.499ZM304.613 210.483c.432 0 .864-.166 1.163-.499a1.644 1.644 0 0 0 0-2.359l-4.421-4.419a1.645 1.645 0 0 0-2.36 0 1.644 1.644 0 0 0 0 2.359l4.421 4.419c.366.333.765.499 1.197.499ZM288.789 194.666c.432 0 .864-.166 1.164-.498a1.647 1.647 0 0 0 0-2.36l-4.422-4.419a1.645 1.645 0 0 0-2.36 0 1.644 1.644 0 0 0 0 2.359l4.421 4.42c.366.332.765.498 1.197.498ZM469.602 15.366h-3.324V26.33h3.324z"/>
  <path fill="#383A48" d="M473.392 19.187h-10.97v3.323h10.97zM212.794.712h-3.324v10.965h3.324z"/>
  <path fill="#383A48" d="M216.617 4.5h-10.97v3.323h10.97z"/>
</svg>
